<?xml version="1.0" encoding="UTF-8"?>
<!DOCTYPE svg PUBLIC "-//W3C//DTD SVG 1.1//EN" "http://www.w3.org/Graphics/SVG/1.1/DTD/svg11.dtd">
<!-- Creator: CorelDRAW 2017 -->
<svg xmlns="http://www.w3.org/2000/svg" xml:space="preserve" width="400px" height="110px" version="1.1" style="shape-rendering:geometricPrecision; text-rendering:geometricPrecision; image-rendering:optimizeQuality; fill-rule:evenodd; clip-rule:evenodd"
viewBox="0 0 400 110"
 xmlns:xlink="http://www.w3.org/1999/xlink">
 <defs>
  <style type="text/css">
   <![CDATA[
    .str0 {stroke:white;stroke-width:10;stroke-miterlimit:22.9256}
    .fil0 {fill:none}
    .fil1 {fill:white;fill-rule:nonzero}
   ]]>
  </style>
 </defs>
 <g id="Слой_x0020_1">
  <metadata id="CorelCorpID_0Corel-Layer"/>
  <rect class="fil0" x="-0.28" y="-0.79" width="401.29" height="113.79"/>
  <path class="fil1" d="M170.28 27.97c1.51,0 2.67,-0.54 3.47,-1.6l1 0.8c-0.09,0.22 -0.36,0.65 -0.8,1.3 -0.45,0.64 -0.96,1.32 -1.53,2.03 -0.58,0.71 -1.16,1.37 -1.74,1.97 -0.58,0.6 -1.04,0.96 -1.4,1.1 -0.53,0 -1.19,-0.04 -1.96,-0.1 -0.78,-0.07 -1.61,-0.14 -2.47,-0.2 -0.87,-0.07 -1.72,-0.14 -2.57,-0.2 -0.84,-0.07 -1.58,-0.1 -2.2,-0.1 -1.82,1.11 -3.2,2.59 -4.13,4.43 -0.93,1.85 -1.67,3.81 -2.2,5.9l8.33 0c0.76,0 1.35,-0.12 1.77,-0.37 0.42,-0.24 0.92,-0.61 1.5,-1.1l1 0.74 -3.87 5.2 -9.73 0c-0.62,3.24 -1.42,6.45 -2.4,9.63 -0.98,3.18 -2.11,5.97 -3.4,8.37 -0.67,1.24 -1.51,2.45 -2.54,3.63 -1.02,1.18 -2.13,2.21 -3.33,3.1 -1.2,0.89 -2.43,1.61 -3.7,2.17 -1.26,0.55 -2.48,0.83 -3.63,0.83 -0.14,0 -0.28,0 -0.44,0 -0.15,0 -0.3,-0.02 -0.43,-0.07 -0.13,-0.04 -0.23,-0.13 -0.3,-0.26 -0.06,-0.14 -0.1,-0.25 -0.1,-0.34 0,-0.31 0.14,-0.53 0.4,-0.66 1.74,-0.36 3.26,-1.31 4.57,-2.87 1.31,-1.55 2.44,-3.38 3.4,-5.47 0.95,-2.08 1.78,-4.31 2.47,-6.66 0.68,-2.36 1.3,-4.51 1.83,-6.47 0.49,-1.91 1.03,-3.88 1.63,-5.9 0.6,-2.02 1.37,-3.95 2.3,-5.8 0.94,-1.84 2.09,-3.49 3.47,-4.93 1.38,-1.45 3.07,-2.52 5.06,-3.24 -0.53,-0.09 -1.06,-0.13 -1.59,-0.13 -0.54,0 -1.05,0 -1.54,0 -2.98,0 -5.7,0.39 -8.16,1.17 -2.47,0.78 -4.62,1.9 -6.44,3.36 -1.82,1.47 -3.28,3.24 -4.36,5.3 -1.09,2.07 -1.73,4.39 -1.91,6.97 0,0.49 -0.22,0.73 -0.66,0.73 -0.18,0 -0.35,-0.07 -0.5,-0.23 -0.16,-0.16 -0.23,-0.37 -0.23,-0.63 0.04,-2.54 0.48,-5.11 1.33,-7.74 0.84,-2.62 2.18,-5 4,-7.13 1.82,-2.13 4.19,-3.88 7.1,-5.23 2.91,-1.36 6.45,-2.04 10.63,-2.04 1.2,0 2.53,0.04 4,0.1 1.47,0.07 2.9,0.14 4.3,0.2 1.4,0.07 2.7,0.15 3.9,0.24 1.2,0.09 2.13,0.15 2.8,0.2zm3.94 7c0,-0.58 0.15,-1.18 0.46,-1.8 0.31,-0.62 0.71,-1.18 1.2,-1.67 0.49,-0.49 1.07,-0.9 1.73,-1.23 0.67,-0.34 1.38,-0.5 2.14,-0.5 0.84,0 1.49,0.23 1.93,0.7 0.45,0.46 0.67,1.1 0.67,1.9 0,0.62 -0.16,1.24 -0.47,1.86 -0.31,0.63 -0.71,1.18 -1.2,1.67 -0.49,0.49 -1.05,0.9 -1.7,1.23 -0.64,0.34 -1.32,0.5 -2.03,0.5 -0.8,0 -1.46,-0.24 -1.97,-0.73 -0.51,-0.49 -0.76,-1.13 -0.76,-1.93zm3 13.86c-0.32,0.89 -0.72,2.09 -1.2,3.6 -0.49,1.51 -1.01,3.14 -1.54,4.87 -0.53,1.73 -1.04,3.49 -1.53,5.27 -0.49,1.78 -0.87,3.35 -1.13,4.73 -0.23,0.89 -0.34,1.73 -0.34,2.53 0,0.49 0.11,0.89 0.34,1.2 0.22,0.31 0.66,0.52 1.33,0.6l0 0.8c-0.8,0.58 -1.62,1.15 -2.47,1.7 -0.84,0.56 -1.75,0.88 -2.73,0.97 -1.07,-0.09 -1.87,-0.47 -2.4,-1.13 -0.54,-0.67 -0.8,-1.51 -0.8,-2.54 0,-0.57 0.06,-1.17 0.2,-1.8l4.93 -17.4c0.14,-0.53 0.26,-1.03 0.37,-1.5 0.11,-0.46 0.16,-0.9 0.16,-1.3 0,-0.93 -0.51,-1.64 -1.53,-2.13l0 -0.73c0.89,-0.89 1.93,-1.68 3.13,-2.37 1.2,-0.69 2.36,-1.14 3.47,-1.37 0.85,0.14 1.42,0.47 1.74,1 0.31,0.54 0.46,1.11 0.46,1.74 0,0.49 -0.03,1.03 -0.1,1.63 -0.06,0.6 -0.19,1.14 -0.36,1.63zm8.59 18.47c-0.08,0.4 -0.15,0.82 -0.2,1.27 -0.04,0.44 -0.06,0.86 -0.06,1.26 0,0.49 0.15,0.89 0.46,1.2 0.32,0.31 0.78,0.52 1.4,0.6l0 0.8c-0.8,0.58 -1.61,1.15 -2.43,1.7 -0.82,0.56 -1.72,0.88 -2.7,0.97 -1.07,-0.09 -1.88,-0.47 -2.43,-1.13 -0.56,-0.67 -0.84,-1.51 -0.84,-2.54 0,-0.26 0.03,-0.55 0.07,-0.86 0.05,-0.31 0.11,-0.62 0.2,-0.94l8.07 -27.4c0.49,-1.6 1.1,-3.19 1.83,-4.76 0.73,-1.58 1.62,-2.99 2.67,-4.24 1.04,-1.24 2.25,-2.25 3.63,-3.03 1.38,-0.78 2.98,-1.17 4.8,-1.17 1.02,0 1.81,0.25 2.37,0.74 0.55,0.49 0.83,1.22 0.83,2.2 0,1.02 -0.4,1.89 -1.2,2.6 -0.8,0.71 -1.78,1.06 -2.93,1.06 -0.58,0 -0.99,-0.11 -1.24,-0.33 -0.24,-0.22 -0.41,-0.48 -0.5,-0.77 -0.08,-0.29 -0.15,-0.54 -0.2,-0.76 -0.04,-0.22 -0.17,-0.34 -0.4,-0.34 -0.17,0 -0.37,0.12 -0.6,0.34 -0.53,0.49 -0.95,1.02 -1.26,1.6 -0.31,0.58 -0.57,1.18 -0.77,1.8 -0.2,0.62 -0.38,1.25 -0.53,1.9 -0.16,0.64 -0.32,1.3 -0.5,1.96 -1.38,4.31 -2.72,8.69 -4.04,13.14 -1.31,4.44 -2.47,8.82 -3.5,13.13zm14.14 0c-0.09,0.4 -0.16,0.82 -0.2,1.27 -0.05,0.44 -0.07,0.86 -0.07,1.26 0,0.49 0.16,0.89 0.47,1.2 0.31,0.31 0.77,0.52 1.4,0.6l0 0.8c-0.8,0.58 -1.61,1.15 -2.44,1.7 -0.82,0.56 -1.72,0.88 -2.7,0.97 -1.06,-0.09 -1.87,-0.47 -2.43,-1.13 -0.56,-0.67 -0.83,-1.51 -0.83,-2.54 0,-0.26 0.02,-0.55 0.06,-0.86 0.05,-0.31 0.12,-0.62 0.2,-0.94l8.07 -27.4c0.49,-1.6 1.1,-3.19 1.83,-4.76 0.74,-1.58 1.63,-2.99 2.67,-4.24 1.05,-1.24 2.26,-2.25 3.63,-3.03 1.38,-0.78 2.98,-1.17 4.8,-1.17 1.03,0 1.81,0.25 2.37,0.74 0.56,0.49 0.83,1.22 0.83,2.2 0,1.02 -0.4,1.89 -1.2,2.6 -0.8,0.71 -1.77,1.06 -2.93,1.06 -0.58,0 -0.99,-0.11 -1.23,-0.33 -0.25,-0.22 -0.41,-0.48 -0.5,-0.77 -0.09,-0.29 -0.16,-0.54 -0.2,-0.76 -0.05,-0.22 -0.18,-0.34 -0.4,-0.34 -0.18,0 -0.38,0.12 -0.6,0.34 -0.54,0.49 -0.96,1.02 -1.27,1.6 -0.31,0.58 -0.57,1.18 -0.77,1.8 -0.2,0.62 -0.37,1.25 -0.53,1.9 -0.16,0.64 -0.32,1.3 -0.5,1.96 -1.38,4.31 -2.72,8.69 -4.03,13.14 -1.31,4.44 -2.48,8.82 -3.5,13.13zm32.73 -40.07c2.09,0 4.21,0.26 6.37,0.77 2.15,0.51 4.1,1.32 5.83,2.43 1.73,1.11 3.16,2.56 4.27,4.34 1.11,1.78 1.66,3.91 1.66,6.4 0,2.8 -0.41,5.55 -1.23,8.26 -0.82,2.71 -1.92,5.34 -3.3,7.87 -1.38,2.53 -2.97,4.95 -4.77,7.23 -1.8,2.29 -3.67,4.41 -5.63,6.37 -0.89,0.85 -1.87,1.66 -2.93,2.43 -1.07,0.78 -2.25,1.17 -3.54,1.17l-19.8 0c-0.26,0 -0.46,-0.08 -0.6,-0.23 -0.13,-0.16 -0.2,-0.32 -0.2,-0.5 0,-0.31 0.11,-0.54 0.34,-0.67 2.17,-0.84 3.97,-2.01 5.4,-3.5 1.42,-1.49 2.6,-3.17 3.53,-5.03 0.93,-1.87 1.69,-3.85 2.27,-5.94 0.57,-2.08 1.11,-4.17 1.6,-6.26 0.57,-1.91 1.24,-3.83 2,-5.74 0.75,-1.91 1.64,-3.72 2.66,-5.43 1.03,-1.71 2.25,-3.27 3.67,-4.67 1.42,-1.4 3.11,-2.5 5.07,-3.3 -1.74,-0.49 -3.49,-0.73 -5.27,-0.73 -2.22,0 -4.42,0.37 -6.6,1.1 -2.18,0.73 -4.18,1.76 -6,3.07 -1.82,1.31 -3.38,2.89 -4.67,4.73 -1.28,1.84 -2.15,3.9 -2.6,6.17 0,0.49 -0.29,0.73 -0.86,0.73 -0.18,0 -0.35,-0.06 -0.5,-0.17 -0.16,-0.11 -0.24,-0.34 -0.24,-0.7 0.31,-2.97 1.18,-5.7 2.6,-8.16 1.43,-2.47 3.21,-4.59 5.37,-6.37 2.16,-1.78 4.62,-3.16 7.4,-4.13 2.78,-0.98 5.68,-1.49 8.7,-1.54zm11.07 16.74c0,-1.07 -0.11,-2.14 -0.34,-3.2 -0.22,-1.07 -0.59,-2.06 -1.1,-2.97 -0.51,-0.91 -1.16,-1.69 -1.96,-2.33 -0.8,-0.65 -1.78,-1.1 -2.94,-1.37 -1.77,1.47 -3.2,3.16 -4.26,5.07 -1.07,1.91 -1.98,3.95 -2.74,6.13 -0.75,2.18 -1.42,4.4 -2,6.67 -0.57,2.26 -1.26,4.46 -2.06,6.6 -0.8,2.13 -1.79,4.14 -2.97,6.03 -1.18,1.89 -2.74,3.52 -4.7,4.9 1.25,0 2.42,0.02 3.53,0.07 1.11,0.04 2.23,0.06 3.34,0.06 1.6,0 2.93,-0.03 4,-0.1 1.06,-0.06 2.02,-0.29 2.86,-0.66 0.85,-0.38 1.66,-0.95 2.44,-1.7 0.77,-0.76 1.7,-1.8 2.76,-3.14 1.78,-2.93 3.25,-6.1 4.4,-9.5 1.16,-3.4 1.74,-6.92 1.74,-10.56zm30.8 -1.14c1.42,0.09 2.59,0.5 3.5,1.24 0.91,0.73 1.36,1.85 1.36,3.36 0,0.14 -0.01,0.28 -0.03,0.44 -0.02,0.15 -0.03,0.32 -0.03,0.5 0.84,-0.76 1.67,-1.42 2.5,-2 0.82,-0.58 1.66,-1.1 2.53,-1.57 0.87,-0.47 1.8,-0.85 2.8,-1.17 1,-0.31 2.14,-0.57 3.43,-0.8 1.43,0.09 2.59,0.5 3.5,1.24 0.91,0.73 1.37,1.85 1.37,3.36 0,0.45 -0.06,0.98 -0.17,1.6 -0.11,0.63 -0.25,1.18 -0.43,1.67 -0.76,2.67 -1.51,5.25 -2.27,7.73 -0.75,2.49 -1.49,4.98 -2.2,7.47 -0.09,0.49 -0.2,1.01 -0.33,1.57 -0.13,0.55 -0.2,1.08 -0.2,1.56 0,0.49 0.11,0.92 0.33,1.27 0.22,0.36 0.67,0.58 1.34,0.67l0.06 0.93c-0.49,0.36 -0.91,0.69 -1.26,1 -0.36,0.31 -0.74,0.6 -1.14,0.87 -0.4,0.26 -0.86,0.51 -1.4,0.73 -0.53,0.22 -1.2,0.4 -2,0.53 -1.06,-0.04 -1.84,-0.36 -2.33,-0.96 -0.49,-0.6 -0.73,-1.41 -0.73,-2.44 0,-0.31 0.02,-0.65 0.06,-1.03 0.05,-0.38 0.11,-0.74 0.2,-1.1 0.63,-2.93 1.48,-5.89 2.57,-8.87 1.09,-2.97 2.03,-5.95 2.83,-8.93 0.09,-0.44 0.17,-0.85 0.24,-1.23 0.06,-0.38 0.1,-0.75 0.1,-1.1 0,-0.62 -0.19,-1.15 -0.57,-1.57 -0.38,-0.42 -1.1,-0.68 -2.17,-0.77 -0.4,0.05 -0.78,0.11 -1.13,0.2 -0.36,0.09 -0.7,0.18 -1.03,0.27 -0.34,0.09 -0.66,0.22 -0.97,0.4 -0.62,0.36 -1.34,0.88 -2.17,1.57 -0.82,0.69 -1.54,1.39 -2.16,2.1l-4.2 14.33c-0.09,0.49 -0.2,1.01 -0.34,1.57 -0.13,0.55 -0.2,1.08 -0.2,1.56 0,0.49 0.11,0.92 0.34,1.27 0.22,0.36 0.66,0.58 1.33,0.67l0.07 0.93c-0.49,0.36 -0.91,0.69 -1.27,1 -0.36,0.31 -0.73,0.6 -1.13,0.87 -0.4,0.26 -0.87,0.51 -1.4,0.73 -0.54,0.22 -1.2,0.4 -2,0.53 -1.07,-0.04 -1.85,-0.36 -2.34,-0.96 -0.49,-0.6 -0.73,-1.41 -0.73,-2.44 0,-0.31 0.02,-0.65 0.07,-1.03 0.04,-0.38 0.11,-0.74 0.2,-1.1 0.62,-2.93 1.47,-5.89 2.56,-8.87 1.09,-2.97 2.04,-5.95 2.84,-8.93 0.08,-0.44 0.16,-0.85 0.23,-1.23 0.07,-0.38 0.1,-0.75 0.1,-1.1 0,-0.62 -0.19,-1.15 -0.57,-1.57 -0.37,-0.42 -1.1,-0.68 -2.16,-0.77 -0.4,0.05 -0.78,0.11 -1.14,0.2 -0.35,0.09 -0.7,0.18 -1.03,0.27 -0.33,0.09 -0.66,0.22 -0.97,0.4 -0.62,0.36 -1.2,0.72 -1.73,1.1 -0.53,0.38 -1.11,0.95 -1.73,1.7 -1.2,2.58 -2.27,5.28 -3.2,8.1 -0.94,2.82 -1.69,5.63 -2.27,8.43 -0.09,0.4 -0.17,0.83 -0.23,1.27 -0.07,0.44 -0.1,0.87 -0.1,1.27 0,0.49 0.11,0.89 0.33,1.2 0.22,0.31 0.67,0.51 1.33,0.6l0 0.8c-0.8,0.58 -1.62,1.15 -2.46,1.73 -0.85,0.58 -1.76,0.89 -2.74,0.93 -1.06,-0.04 -1.86,-0.41 -2.4,-1.1 -0.53,-0.68 -0.8,-1.54 -0.8,-2.56 0,-0.54 0.07,-1.14 0.2,-1.8l4.94 -17.4c0.13,-0.54 0.25,-1.04 0.36,-1.5 0.11,-0.47 0.17,-0.9 0.17,-1.3 0,-0.94 -0.51,-1.65 -1.53,-2.14l0 -0.73c0.89,-0.89 1.93,-1.68 3.13,-2.37 1.2,-0.68 2.35,-1.14 3.47,-1.36 0.84,0.13 1.42,0.46 1.73,1 0.31,0.53 0.47,1.11 0.47,1.73 0,0.49 -0.07,1 -0.2,1.53 -0.14,0.54 -0.31,1.05 -0.54,1.54 1.02,-0.8 1.96,-1.51 2.8,-2.14 0.85,-0.62 1.7,-1.16 2.57,-1.63 0.87,-0.47 1.79,-0.85 2.77,-1.17 0.97,-0.31 2.11,-0.57 3.4,-0.8zm32.73 -7.86c0,-0.58 0.15,-1.18 0.47,-1.8 0.31,-0.62 0.71,-1.18 1.2,-1.67 0.49,-0.49 1.06,-0.9 1.73,-1.23 0.67,-0.34 1.38,-0.5 2.13,-0.5 0.85,0 1.49,0.23 1.94,0.7 0.44,0.46 0.66,1.1 0.66,1.9 0,0.62 -0.15,1.24 -0.46,1.86 -0.32,0.63 -0.71,1.18 -1.2,1.67 -0.49,0.49 -1.06,0.9 -1.7,1.23 -0.65,0.34 -1.33,0.5 -2.04,0.5 -0.8,0 -1.45,-0.24 -1.96,-0.73 -0.52,-0.49 -0.77,-1.13 -0.77,-1.93zm3 13.86c-0.31,0.89 -0.71,2.09 -1.2,3.6 -0.49,1.51 -1,3.14 -1.53,4.87 -0.54,1.73 -1.05,3.49 -1.54,5.27 -0.49,1.78 -0.86,3.35 -1.13,4.73 -0.22,0.89 -0.33,1.73 -0.33,2.53 0,0.49 0.11,0.89 0.33,1.2 0.22,0.31 0.67,0.52 1.33,0.6l0 0.8c-0.8,0.58 -1.62,1.15 -2.46,1.7 -0.85,0.56 -1.76,0.88 -2.74,0.97 -1.06,-0.09 -1.86,-0.47 -2.4,-1.13 -0.53,-0.67 -0.8,-1.51 -0.8,-2.54 0,-0.57 0.07,-1.17 0.2,-1.8l4.94 -17.4c0.13,-0.53 0.25,-1.03 0.36,-1.5 0.11,-0.46 0.17,-0.9 0.17,-1.3 0,-0.93 -0.51,-1.64 -1.53,-2.13l0 -0.73c0.89,-0.89 1.93,-1.68 3.13,-2.37 1.2,-0.69 2.35,-1.14 3.47,-1.37 0.84,0.14 1.42,0.47 1.73,1 0.31,0.54 0.47,1.11 0.47,1.74 0,0.49 -0.04,1.03 -0.1,1.63 -0.07,0.6 -0.19,1.14 -0.37,1.63zm16.2 -2c-0.31,1.11 -0.78,2.65 -1.4,4.6 -0.62,1.96 -1.27,4.04 -1.93,6.24 -0.67,2.2 -1.28,4.37 -1.84,6.53 -0.55,2.16 -0.94,4.01 -1.16,5.57 0,0.49 0.12,0.89 0.36,1.2 0.25,0.31 0.68,0.51 1.3,0.6l0 0.8c-0.8,0.58 -1.61,1.15 -2.43,1.73 -0.82,0.58 -1.72,0.89 -2.7,0.93 -1.07,-0.04 -1.88,-0.41 -2.43,-1.1 -0.56,-0.68 -0.84,-1.54 -0.84,-2.56 0,-0.63 0.09,-1.23 0.27,-1.8l6.67 -22.74 -2.67 0 0 -1.46c0.09,0 0.44,-0.27 1.07,-0.8 0.62,-0.54 1.36,-1.21 2.23,-2.04 0.87,-0.82 1.8,-1.71 2.8,-2.66 1,-0.96 1.92,-1.86 2.76,-2.7 0.85,-0.85 1.56,-1.56 2.14,-2.14 0.58,-0.57 0.89,-0.88 0.93,-0.93l1.27 1.07c-0.09,0.09 -0.3,0.5 -0.63,1.23 -0.34,0.73 -0.69,1.57 -1.07,2.5 -0.38,0.93 -0.75,1.83 -1.1,2.7 -0.36,0.87 -0.56,1.46 -0.6,1.77l6.6 0 0 1.06 -2.74 2.4 -4.86 0zm14.33 -4c0.85,0.14 1.42,0.47 1.74,1 0.31,0.54 0.46,1.11 0.46,1.74 0,0.97 -0.24,2 -0.73,3.06 1.47,-1.64 2.98,-3.03 4.53,-4.16 1.56,-1.14 2.91,-1.7 4.07,-1.7 0.84,0 1.53,0.25 2.06,0.76 0.54,0.51 0.8,1.15 0.8,1.9 0,0.63 -0.14,1.22 -0.43,1.77 -0.29,0.56 -0.67,1.07 -1.13,1.53 -0.47,0.47 -1,0.84 -1.6,1.1 -0.6,0.27 -1.19,0.4 -1.77,0.4 -1.87,0 -2.8,-1.02 -2.8,-3.06 -0.71,0.57 -1.33,1.19 -1.87,1.83 -0.53,0.65 -1.11,1.34 -1.73,2.1 -1.24,2.53 -2.29,5.17 -3.13,7.9 -0.85,2.73 -1.56,5.5 -2.13,8.3 -0.23,0.89 -0.34,1.73 -0.34,2.53 0,0.49 0.11,0.89 0.34,1.2 0.22,0.31 0.66,0.52 1.33,0.6l0 0.8c-0.8,0.58 -1.62,1.15 -2.47,1.7 -0.84,0.56 -1.75,0.88 -2.73,0.97 -1.07,-0.09 -1.87,-0.47 -2.4,-1.13 -0.54,-0.67 -0.8,-1.51 -0.8,-2.54 0,-0.57 0.06,-1.17 0.2,-1.8l4.93 -17.4c0.14,-0.53 0.26,-1.03 0.37,-1.5 0.11,-0.46 0.16,-0.9 0.16,-1.3 0,-0.93 -0.51,-1.64 -1.53,-2.13l0 -0.73c0.89,-0.89 1.93,-1.68 3.13,-2.37 1.2,-0.69 2.36,-1.14 3.47,-1.37zm8.93 42.2c0,-0.93 0.39,-1.73 1.17,-2.4 0.78,-0.66 1.75,-1 2.9,-1 1.69,0 2.89,0.58 3.6,1.74 0.22,0.4 0.39,0.84 0.5,1.33 0.11,0.49 0.35,0.73 0.7,0.73 0.76,0 1.5,-0.37 2.23,-1.13 0.74,-0.75 1.44,-1.7 2.1,-2.83 0.67,-1.14 1.3,-2.38 1.9,-3.74 0.6,-1.35 1.15,-2.66 1.64,-3.93 0.49,-1.27 0.92,-2.41 1.3,-3.43 0.38,-1.02 0.68,-1.76 0.9,-2.2 -1.6,1.51 -3.34,2.87 -5.2,4.1 -1.87,1.22 -3.91,1.96 -6.14,2.23 -1.37,-0.62 -2.54,-1.49 -3.5,-2.6 -0.95,-1.11 -1.43,-2.44 -1.43,-4 0,-0.22 0.07,-0.62 0.2,-1.2 0.13,-0.58 0.22,-0.98 0.27,-1.2l4.26 -13.27c0.18,-0.53 0.35,-1.06 0.5,-1.6 0.16,-0.53 0.24,-1 0.24,-1.4 0,-0.48 -0.1,-0.9 -0.3,-1.23 -0.2,-0.33 -0.59,-0.63 -1.17,-0.9l0 -0.73c0.89,-0.89 1.92,-1.68 3.1,-2.37 1.18,-0.69 2.35,-1.14 3.5,-1.37 0.8,0.14 1.37,0.47 1.7,1 0.33,0.54 0.5,1.14 0.5,1.8 0,0.49 -0.08,0.99 -0.23,1.5 -0.16,0.51 -0.32,1.01 -0.5,1.5 -0.36,0.76 -0.81,1.98 -1.37,3.67 -0.55,1.69 -1.1,3.42 -1.63,5.2 -0.54,1.78 -1.01,3.35 -1.44,4.7 -0.42,1.36 -0.63,2.08 -0.63,2.17 -0.04,0.22 -0.07,0.51 -0.07,0.86 0,1.03 0.27,1.94 0.8,2.74 0.54,0.8 1.36,1.31 2.47,1.53 0.58,-0.04 1.19,-0.21 1.83,-0.5 0.65,-0.29 1.28,-0.65 1.9,-1.1 0.63,-0.44 1.22,-0.94 1.77,-1.5 0.56,-0.56 1.08,-1.12 1.57,-1.7l3.66 -12.27c0.36,-1.15 0.54,-2.09 0.54,-2.8 0,-0.93 -0.51,-1.64 -1.54,-2.13l0 -0.73c0.89,-0.89 1.94,-1.68 3.14,-2.37 1.2,-0.69 2.35,-1.14 3.46,-1.37 0.85,0.14 1.43,0.47 1.74,1 0.31,0.54 0.46,1.11 0.46,1.74 0,0.49 -0.07,1 -0.23,1.53 -0.15,0.53 -0.28,1.05 -0.37,1.53 -0.13,0.63 -0.36,1.49 -0.7,2.6 -0.33,1.12 -0.71,2.36 -1.13,3.74 -0.42,1.37 -0.87,2.81 -1.33,4.3 -0.47,1.49 -0.91,2.9 -1.34,4.23 -0.42,1.33 -0.81,2.52 -1.16,3.57 -0.36,1.04 -0.6,1.79 -0.74,2.23 -0.75,2.22 -1.73,4.47 -2.93,6.73 -1.2,2.27 -2.65,4.33 -4.37,6.17 -1.71,1.85 -3.64,3.36 -5.8,4.53 -2.15,1.18 -4.56,1.77 -7.23,1.77 -1.15,0 -2.12,-0.34 -2.9,-1.03 -0.78,-0.69 -1.17,-1.5 -1.17,-2.44z"/>
  <circle class="fil0 str0" cx="62.63" cy="55.88" r="49.45"/>
  <path class="fil1" d="M46.28 57.71l7.57 0c4.38,-5.89 7.72,-11.03 10.01,-15.41 2.3,-4.4 3.45,-7.27 3.45,-8.64 0,-1.9 -1.65,-2.86 -4.92,-2.86 -1.92,0.17 -5.29,0.58 -10.13,1.23 -4.86,0.65 -9.55,1.42 -14.11,2.33 -4.07,0.77 -7.36,1.57 -9.8,2.39 -2.47,0.83 -4.2,1.49 -5.21,2.03 -0.99,0.54 -1.61,0.92 -1.85,1.16 2.48,-0.14 4.57,-0.21 6.27,-0.21 2.68,0 4.02,0.31 4.02,0.91 0,0.26 -0.94,0.6 -2.81,1.03 -1.88,0.41 -3.64,0.85 -5.32,1.32 -1.64,0.46 -3.24,1.01 -4.79,1.64 -1.55,0.63 -2.49,0.96 -2.83,0.96 -0.77,0 -1.4,-0.29 -1.9,-0.87 -0.5,-0.59 -0.75,-1.3 -0.75,-2.14 0,-0.57 0.46,-2.04 1.38,-4.44 0.91,-2.38 2.21,-4.79 3.89,-7.21 1.66,-2.43 3.73,-4.22 6.22,-5.39 0.89,-0.43 3.78,-1.21 8.64,-2.36 4.86,-1.13 10.36,-2.16 16.47,-3.1 6.12,-0.94 11.72,-1.4 16.79,-1.4 3.08,0 5.55,0.43 7.39,1.28 1.87,0.86 2.79,2.67 2.79,5.5 0,0.89 -0.32,2.29 -0.99,4.17 -0.67,1.9 -1.73,4.32 -3.18,7.26 -1.46,2.95 -3.22,6.17 -5.31,9.67 -2.09,3.53 -4.47,7.23 -7.14,11.15l7.72 0 -6.67 9.55c-0.89,0.07 -2.02,0.12 -3.38,0.15 -1.36,0.04 -2.84,0.09 -4.45,0.16 -4.1,5.34 -8.57,10.39 -13.36,15.1 -4.8,4.72 -9.15,8.5 -13.05,11.34 -3.9,2.85 -6.62,4.27 -8.2,4.27 -0.63,0 -1.18,-0.21 -1.66,-0.64 -0.46,-0.41 -0.7,-0.96 -0.7,-1.62 0,-0.57 0.75,-2.02 2.24,-4.37 1.49,-2.34 3.55,-4.54 6.18,-6.57 2.65,-2.04 5.67,-3.18 9.04,-3.42 1.37,-1.44 2.55,-2.71 3.54,-3.84 0.98,-1.11 2.38,-2.74 4.18,-4.86 1.81,-2.12 3.2,-3.77 4.18,-4.9l-15.12 0.76c-1.64,0.06 -2.77,-0.02 -3.39,-0.23 -0.61,-0.22 -0.92,-0.77 -0.92,-1.62 0,0 0.17,-0.43 0.5,-1.29 0.34,-0.85 0.68,-1.59 1.05,-2.22 0.54,-0.98 0.96,-1.56 1.29,-1.75 0.31,-0.2 1.23,-0.47 2.72,-0.8l9.24 -2.26c2.47,-0.63 4.2,-0.94 5.17,-0.94z"/>
  <path class="fil1" d="M61.89 53.93c0,0.19 0.19,0.29 0.55,0.29 0.26,0 1.4,-0.18 3.44,-0.51 2.03,-0.33 3.89,-0.52 5.55,-0.55 -1.85,0.51 -3.46,1.03 -4.8,1.55 -1.35,0.52 -2.72,1.1 -4.15,1.73 -1.43,0.64 -2.44,1.06 -3.06,1.28 -0.63,0.21 -1.16,0.31 -1.62,0.31 -1.43,0 -2.16,-0.92 -2.16,-2.79 0,-4.79 1.22,-8.16 3.65,-10.11 0.98,-0.78 2.57,-1.72 4.77,-2.81 2.18,-1.08 4.65,-2.11 7.39,-3.09 2.77,-0.97 5.79,-1.81 9.1,-2.52 3.31,-0.7 6.56,-1.05 9.78,-1.05 3.29,0 6.33,0.48 9.11,1.44 2.76,0.96 5.08,2.3 6.95,4.04 1.86,1.73 3.29,3.86 4.29,6.37 1,2.52 1.5,5.33 1.5,8.47 0,4.77 -1.37,9.4 -4.13,13.89 -2.75,4.48 -6.42,8.44 -11.01,11.87 -4.58,3.42 -9.77,6.14 -15.52,8.15 -5.77,2.01 -11.45,3 -17.05,3 -1.04,0 -1.86,-0.11 -2.47,-0.33 -0.6,-0.23 -1.04,-0.68 -1.3,-1.34 -0.24,-0.65 -0.37,-1.64 -0.37,-2.94 0,-1.6 0.13,-2.92 0.37,-3.93 0.26,-1.01 0.68,-2.18 1.27,-3.51 4.08,-9 11.15,-20.34 21.24,-34.01 -2.04,0.23 -4.27,0.65 -6.7,1.29 -2.41,0.63 -4.71,1.33 -6.89,2.09 -2.17,0.76 -4,1.49 -5.49,2.19 -1.49,0.7 -2.24,1.21 -2.24,1.53zm22.54 -7.34c0,0.04 0.06,0.36 0.16,0.93 0.12,0.6 0.18,1.09 0.18,1.51 0,0.65 -0.34,1.56 -1,2.73 -0.67,1.19 -1.97,3.27 -3.92,6.26 -1.95,2.99 -3.61,5.62 -4.98,7.88 -1.39,2.25 -3.02,5.16 -4.92,8.71 -0.59,1.14 -1,1.89 -1.23,2.3 -0.23,0.39 -0.59,1.04 -1.08,1.95 -0.49,0.9 -0.85,1.68 -1.08,2.33 -0.22,0.65 -0.34,1.14 -0.34,1.47 0,0.74 0.41,1.26 1.2,1.55 0.81,0.3 1.97,0.44 3.46,0.44 3.84,0 7.9,-0.69 12.2,-2.09 4.29,-1.4 8.32,-3.34 12.08,-5.82 3.77,-2.49 6.78,-5.29 9.05,-8.43 2.25,-3.14 3.38,-6.42 3.38,-9.83 0,-3.9 -1.43,-6.89 -4.28,-9 -2.85,-2.1 -6.99,-3.15 -12.44,-3.15 -2.29,0 -4.44,0.08 -6.44,0.26z"/>
 </g>
</svg>
