<?xml version="1.0" encoding="UTF-8"?>
<!DOCTYPE svg PUBLIC "-//W3C//DTD SVG 1.1//EN" "http://www.w3.org/Graphics/SVG/1.1/DTD/svg11.dtd">
<!-- Creator: CorelDRAW 2017 -->
<svg xmlns="http://www.w3.org/2000/svg" xml:space="preserve" width="300px" height="300px" version="1.1" style="shape-rendering:geometricPrecision; text-rendering:geometricPrecision; image-rendering:optimizeQuality; fill-rule:evenodd; clip-rule:evenodd"
viewBox="0 0 300 300"
 xmlns:xlink="http://www.w3.org/1999/xlink">
 <defs>
  <style type="text/css">
   <![CDATA[
    .str0 {stroke:white;stroke-width:10;stroke-miterlimit:22.9256}
    .fil5 {fill:black}
    .fil4 {fill:#324B8D}
    .fil0 {fill:#345989}
    .fil6 {fill:#E31D23}
    .fil3 {fill:white}
    .fil1 {fill:black;fill-rule:nonzero}
    .fil2 {fill:white;fill-rule:nonzero}
   ]]>
  </style>
 </defs>
 <g id="Слой_x0020_1">
  <metadata id="CorelCorpID_0Corel-Layer"/>
  <circle class="fil0 str0" cx="150" cy="150" r="135"/>
  <path class="fil1" d="M76.79 129.2l13.14 0 0 1.83 -2.74 0c-0.31,0 -0.92,0 -1.23,0.3 0,0.3 -0.3,1.23 -0.3,1.84l0 21.39c0,0.92 0.3,1.53 0.61,1.84 0,0 0.61,0.31 1.84,0.31l9.17 0c0.91,0 1.53,-0.31 1.84,-0.31 0.3,-0.3 0.3,-0.91 0.3,-1.84l0 -21.39c0,-0.61 0,-1.53 -0.3,-1.84 -0.3,-0.3 -0.62,-0.3 -1.23,-0.3l-0.61 0 -2.14 0 0 -1.83 13.15 0 0 1.83 -2.74 0c-0.32,0 -0.92,0 -0.92,0.3 -0.3,0.3 -0.92,1.23 -0.92,1.84l0 21.39c0,0.92 0.31,1.53 0.92,1.84 0.29,0 0.6,0.31 1.52,0.31l2.14 0 0 10.08 -1.84 0c-0.61,-3.36 -1.22,-5.2 -2.75,-6.72 -0.91,-0.92 -3.97,-1.23 -8.25,-1.23l-18.64 0 0 -2.13 2.46 0c0.6,0 1.21,-0.31 1.52,-0.31 0.3,-0.3 0.3,-0.91 0.3,-1.84l0 -21.39c0,-0.91 0,-1.53 -0.3,-1.84 -0.31,-0.3 -0.62,-0.3 -1.23,-0.3l-0.29 0 -2.46 0 0 -1.83 0 0 0 0 0 0 0 0 0 0 0 0 0 0 0 0 -0.02 0zm34.22 0l13.15 0 0 1.83 -2.74 0c-0.31,0 -1.23,0 -1.53,0.3 0,0.3 -0.31,1.23 -0.31,1.84l0 16.2 14.07 -14.97 0 -1.23c0,-0.61 0,-1.53 -0.61,-1.84 -0.31,-0.3 -0.62,-0.3 -1.23,-0.3l-0.3 0 -2.14 0 0 -1.83 12.83 0 0 1.83 -2.75 0c-0.29,0 -0.61,0 -0.9,0.3 -0.31,0.3 -0.62,1.23 -0.62,1.84l0 21.39c0,0.92 0.31,1.53 0.62,1.84 0.29,0 0.61,0.31 1.83,0.31l1.84 0 0 2.13 -12.84 0 0 -2.13 2.14 0c0.62,0 1.22,-0.31 1.52,-0.31 0.62,-0.3 0.62,-0.91 0.62,-1.84l0 -16.51 -14.06 14.97 0 1.53c0,0.92 0.29,1.52 0.62,1.83 0.61,0 0.9,0.31 1.83,0.31l2.14 0 0 2.14 -13.15 0 0 -2.14 2.13 0c0.62,0 1.53,-0.31 1.84,-0.31 0.31,-0.29 0.31,-0.9 0.31,-1.83l0 -21.4c0,-0.9 0,-1.52 -0.31,-1.83 -0.3,-0.3 -0.61,-0.3 -1.53,-0.3l-0.3 0 -2.13 0 0 -1.83 0 0 0 0 0 0 0 0 0 0 0 0 0 0 -0.04 0.01zm33.93 0l31.48 0 0 1.83 -2.44 0c-0.62,0 -0.92,0 -1.23,0.3 -0.3,0.3 -0.3,1.23 -0.3,1.84l0 21.39c0,0.92 0,1.53 0.3,1.84 0.3,0 0.61,0.31 1.53,0.31l2.13 0 0 2.13 -12.84 0 0 -2.13 1.85 0c1.21,0 1.53,-0.31 1.84,-0.31 0.29,-0.3 0.29,-0.91 0.29,-1.84l0 -21.7c0,-0.61 0,-1.23 -0.29,-1.53 -0.31,-0.3 -0.62,-0.3 -1.23,-0.3l-0.61 0 -10.1 0c-0.29,0 -0.9,0 -0.9,0.3 -0.31,0.3 -0.62,0.92 -0.62,1.53l0 21.7c0,0.92 0.31,1.53 0.62,1.84 0.3,0 0.61,0.31 1.84,0.31l1.83 0 0 2.13 -13.15 0 0 -2.13 2.45 0c0.62,0 1.23,-0.31 1.52,-0.31 0.31,-0.3 0.31,-0.91 0.31,-1.84l0 -21.39c0,-0.61 0,-1.53 -0.31,-1.84 -0.29,-0.3 -0.6,-0.3 -1.21,-0.3l-0.31 0 -2.44 0 0 -1.83 0 0 0 0 0 0 0 0 0 0 0 0 -0.01 0zm48.92 13.46c1.84,0.29 3.05,0.9 3.97,1.52 1.23,0.61 1.84,2.13 2.44,3.67 0.31,1.23 0.62,2.45 0.62,4.28 0.91,2.74 1.53,4.27 2.45,4.27 0.62,0 0.91,-0.3 1.22,-0.91 0.61,-0.62 0.61,-1.83 2.14,-2.14l0.62 0 1.83 1.52c2.74,1.84 0.61,4.59 -2.45,3.36 -0.91,-0.6 -3.36,1.23 -4.58,1.23 -3.06,0 -4.9,-2.75 -5.51,-7.95 -0.29,-1.21 -0.29,-1.52 -0.29,-2.13 -0.3,-2.13 -0.92,-3.36 -1.84,-3.98 -0.62,-0.91 -1.83,-1.22 -3.67,-1.22l-0.62 0 -2.44 0 0 10.69c0,0.62 0.29,1.23 0.9,1.53 0.31,0 0.62,0.31 1.53,0.31l2.14 0 0 2.13 -12.83 0 0 -2.13 1.83 0c0.92,0 1.53,-0.31 1.84,-0.31 0.29,-0.3 0.29,-0.91 0.29,-1.53l0 -21.7c0,-0.61 0,-1.53 -0.29,-1.84 -0.3,-0.29 -0.61,-0.29 -1.53,-0.29l-0.3 0 -1.83 0 0 -1.84 12.84 0 0 1.84 -2.76 0c-0.3,0 -0.92,0 -0.92,0.29 -0.6,0.3 -0.9,1.23 -0.9,1.84l0 9.18 1.84 0c1.83,0 3.36,-0.31 3.97,-1.23 0.91,-0.61 1.83,-1.84 2.13,-3.67 0,-0.61 0.31,-1.53 0.62,-2.76 0,-1.83 0.29,-3.36 0.61,-3.96 0.29,-0.63 0.91,-1.23 1.83,-1.53 0.92,-0.92 1.53,-0.92 2.76,-0.92 1.22,0 2.44,0.3 3.36,1.23 0.91,0.9 1.23,1.84 1.23,3.07 0,0.9 0,1.52 -0.63,1.83 -0.29,0.61 -1.21,0.61 -2.13,0.61 -0.61,0 -1.23,0 -1.83,-0.3 -0.61,-0.3 -0.92,-0.92 -0.92,-1.52 0,-0.62 0.31,-0.92 0.31,-1.84 0.29,-0.31 0.9,-0.62 0.9,-0.62 0,-0.3 0,-0.3 -0.3,-0.3 0,0 -0.6,-0.29 -0.6,-0.29 -1.23,0 -2.15,1.83 -2.46,4.27 -0.61,0.91 -0.61,1.22 -0.61,1.53 -0.29,2.13 -0.92,3.97 -1.52,4.89 -0.3,1.21 -1.23,1.52 -2.46,1.83l0 0 0 0 0 0 0 0 0 0 0 0 0 0 0 0 0 -0.01 0 0z"/>
  <path class="fil2" d="M77.09 126.45l0 -16.51 6.12 0c2.73,0 3.96,0 4.57,0.29 1.53,0 2.15,0.62 3.07,1.53 0.91,0.92 1.22,1.83 1.22,3.06 0,1.23 -0.29,2.13 -0.91,2.76 -0.3,0.6 -0.92,0.9 -1.53,1.83 -0.61,0.3 -1.23,0.61 -2.13,0.61 -0.92,0 -2.15,0.31 -3.98,0.31l-2.74 0 0 6.1 -3.67 0 0 0 0 0 0 0 0 0 0 0 0 0 0 0 0 0 -0.02 0.02zm3.67 -13.74l0 4.57 2.45 0c1.22,0 2.45,0 3.06,0 0.61,-0.3 0.92,-0.61 1.23,-0.9 0,-0.3 0.61,-0.92 0.61,-1.53 0,-0.62 -0.61,-0.92 -0.91,-1.23 -0.31,-0.29 -0.92,-0.6 -1.52,-0.6 -0.31,-0.31 -1.54,-0.31 -2.76,-0.31l-2.13 0 0 0 0 0 0 0 0 0 0 0 0 0 0 0 0 0 -0.03 0zm13.15 5.49c0,-1.53 0.3,-3.07 1.21,-4.28 0.31,-0.61 0.92,-1.84 1.53,-2.44 0.62,-0.3 1.85,-0.92 2.75,-1.23 0.92,-0.3 2.46,-0.61 3.98,-0.61 3.05,0 5.2,0.61 7.04,2.13 1.83,1.53 2.44,3.67 2.44,6.43 0,2.75 -0.61,4.88 -2.44,6.11 -1.53,1.84 -3.99,2.45 -7.04,2.45 -2.75,0 -4.88,-0.61 -6.73,-2.45 -1.53,-1.23 -2.74,-3.36 -2.74,-6.11l0 0 0 0 0 0 0 0 0 0 0 0 0 0zm4.28 -0.31c0,2.13 0.61,3.36 1.51,4.59 0.92,0.9 2.46,1.21 3.69,1.21 1.83,0 3.04,-0.3 4.26,-1.21 0.92,-1.23 1.23,-2.46 1.23,-4.59 0,-1.53 -0.3,-3.07 -1.23,-3.97 -1.22,-0.92 -2.44,-1.23 -4.26,-1.23 -1.53,0 -3.07,0.3 -3.69,1.23 -0.9,0.9 -1.51,2.44 -1.51,3.97l0 0 0 0 0 0 0 0 0 0 0 0 0 0zm30.25 2.44l3.96 0.92c-0.6,1.83 -1.52,3.06 -3.05,3.97 -1.22,1.23 -3.06,1.52 -4.88,1.52 -2.76,0 -4.89,-0.61 -6.43,-2.44 -1.83,-1.23 -2.75,-3.36 -2.75,-6.11 0,-2.74 0.92,-4.89 2.75,-6.43 1.53,-1.53 3.67,-2.13 6.43,-2.13 2.13,0 4.26,0.6 6.1,1.52 0.62,0.92 1.23,2.14 1.52,3.07l-3.67 0.9c-0.29,-0.9 -0.6,-1.53 -1.23,-1.84 -1.21,-0.6 -1.83,-0.6 -2.74,-0.6 -1.83,0 -2.75,0.29 -3.67,1.23 -0.91,0.6 -1.52,2.13 -1.52,3.96 0,2.14 0.61,3.68 1.52,4.59 0.91,0.91 1.84,1.23 3.36,1.23 1.22,0 1.84,0 3.05,-0.62 0.63,-0.61 0.92,-1.52 1.23,-2.74l0 0 0 0 0 0 0 0 0 0 0 0 0.02 0 0 0zm5.5 6.12l7.35 -16.51 2.74 0 7.95 16.51 -3.07 0 -2.13 -5.2 -8.25 0 -2.13 5.2 -2.46 0 0 0 0 0 0 0 0 0 0 0zm5.2 -6.73l6.72 0 -1.83 -4.88c-0.61,-1.23 -1.22,-2.13 -1.53,-3.36 -0.3,1.23 -0.61,2.13 -0.9,3.36l-2.46 4.88 0 0 0 0 0 0 0 0 0 0zm17.72 6.73l0 -14.68 -6.42 0 0 -1.83 15.29 0 0 1.83 -6.11 0 0 14.68 -2.76 0 0 0 0 0 0 0 0 0 0 0zm9.79 -8.25c0,-2.75 0.61,-4.59 2.75,-6.43 1.53,-1.52 3.67,-2.13 6.72,-2.13 1.53,0 3.37,0.3 4.59,0.9 1.22,0.92 2.74,2.15 3.37,3.38 0.6,0.9 0.9,2.74 0.9,4.26 0,1.84 -0.3,3.07 -0.9,4.59 -0.92,1.23 -2.15,2.14 -3.37,3.07 -1.52,0.61 -3.36,0.9 -4.59,0.9 -2.13,0 -3.96,-0.29 -5.19,-0.9 -1.23,-1.23 -2.76,-2.15 -3.36,-3.36 -0.62,-1.23 -0.92,-2.46 -0.92,-4.28l0 0 0 0 0 0 0 0 0 0 0 0 0 0 0 0 0 0zm2.75 0c0,2.13 0.61,3.67 1.53,4.88 1.23,1.23 3.06,1.53 4.59,1.53 2.13,0 3.97,-0.3 5.19,-1.53 0.91,-1.22 1.84,-2.75 1.84,-4.88 0,-1.23 -0.62,-2.75 -0.92,-3.67 -0.6,-0.92 -1.23,-1.53 -2.13,-2.46 -1.23,-0.3 -2.46,-0.61 -3.36,-0.61 -2.15,0 -3.36,0.3 -4.89,1.84 -1.23,0.92 -1.83,2.75 -1.83,4.88l0 0 0 0 0 0 0 0 0 0 0 0 0 0 -0.02 0.02 0 0zm18.94 8.25l0 -16.51 3.98 0 4.59 11.6c0.3,1.23 0.61,1.84 0.9,2.46 0,-0.62 0.32,-1.23 1.23,-2.75l4.59 -11.31 3.36 0 0 16.51 -2.45 0 0 -14.07 -5.5 14.07 -2.45 0 -5.81 -14.38 0 14.38 -2.44 0 0 0 0 0 0 0 0 0 0 0 0 0 0 0z"/>
  <path class="fil3" d="M71.89 198.28c3.36,-6.72 7.35,-15.29 10.41,-21.7 0.61,-1.53 0.61,-2.15 1.22,-3.07 1.52,-0.62 0,0 8.26,-0.29 6.41,-0.31 12.21,-0.92 18.64,-1.85 2.44,-0.3 18.93,-3.37 19.87,-3.37 5.49,-1.21 10.39,-1.52 13.44,0.92 2.13,1.23 3.36,4.28 5.49,7.35 0.92,1.51 0.92,1.83 1.23,0 0.3,-0.92 1.53,-4.59 3.07,-6.74 1.22,-2.13 3.36,-3.67 6.72,-4.58 1.83,-0.91 4.28,-0.31 7.64,0.3 6.42,1.23 24.15,6.12 29.34,6.12 6.1,0 8.56,-0.92 9.79,-1.23 0,0 29.95,34.23 30.25,34.83 0.91,0.92 1.22,0.92 -0.61,1.23 -1.84,0.3 -6.72,0.92 -13.15,0.92 -11.01,0 -17.73,-3.98 -28.44,-6.42 -11.3,-3.07 -18.03,-3.07 -23.23,-2.76 -7.62,0.61 -10.39,4.89 -13.15,10.08 -0.6,1.53 -1.21,3.37 -1.52,3.07 -1.22,-1.53 -1.53,-2.13 -4.58,-5.49 -4.88,-5.82 -11.01,-4.89 -14.67,-4.89 -8.25,0 -13.15,2.44 -25.07,4.58 -18.03,3.06 -22.31,4.27 -29.96,5.19 -5.2,0.31 -13.15,0.62 -17.12,0.31 -0.91,0 5.2,-11.01 5.82,-12.54l0 0 0 0 0 0 0 0 0 0 0 0 0 0 0.3 0 0.01 0.03 0 0zm-7.64 11.31c-0.6,1.22 -0.29,1.22 -0.29,1.22 -0.31,1.23 -1.53,5.19 -1.85,7.64 -0.61,0.91 -0.91,1.83 0,1.83 8.26,0.61 72.75,-2.75 78.56,-3.06 0.91,0 3.67,-0.3 3.67,0 0,0.92 0,1.52 0,3.36 0,0.31 -0.3,1.52 1.23,1.23 3.67,0 13.14,0.29 22.92,0 0.29,0 0.91,-1.23 0.91,-1.53 0.3,-1.52 0,-3.06 0.3,-3.36 0.61,-0.92 73.36,2.13 76.72,3.07 1.22,0.29 -3.98,-8.87 -7.03,-14.97 -2.75,-5.2 -30.26,-31.49 -31.49,-36.69 -8.86,3.98 -15.28,0.31 -32.71,-3.05 -8.24,-1.84 -14.97,-4.59 -21.39,0.61 -2.13,1.52 -3.67,6.11 -3.97,7.64 -0.61,1.21 0,0.29 0,0 -1.52,-3.36 -2.75,-4.59 -4.89,-6.12 -2.45,-1.83 -5.49,-2.13 -9.78,-1.83 -4.28,0.29 -19.26,3.36 -24.46,4.27 -8.25,2.14 -18.03,2.14 -25.36,2.45 -2.46,0.29 -2.13,0 -2.46,0.29 -3.36,5.82 -8.56,18.66 -18.64,36.99l0 0 0 0 0 0 0 0 0 0 0 0 0 0 0 0 0.01 0.01 0 0z"/>
  <path class="fil4" d="M101.24 211.12l2.46 -0.31 1.83 -0.3 2.44 0 0 -0.3 2.46 0 0 -0.62 3.67 0 0 -0.29 2.14 0 0 -0.3 3.67 0 0 -0.3 15.59 0 0 0.3 2.44 0 0 0.3 2.15 0 0 0.29 0.9 0 0 0.62 1.23 0 0 0.3 1.23 0 0 0.3 0.9 0 0 0.31 0.92 0 0 0.29 0.92 0 0 0.3 0.9 0 0 0.3 0.61 0 0 0.31 0.31 0 0 0.3 0.61 0 0 0.29 0.6 0 0 0.31 0.92 0 0 0 0.61 0 0 0.61 0.31 0 0 0.3 0.61 0 0 0.29 0 0 0 0.31 0.29 0 0 0.3 0.62 0 0 0.3 0.3 0 0 0.29 0.61 0 0 0.32 0.31 0 0 0.29 0.3 0 0 0.3 0.29 0 0 0.3 0.3 0 0 0.31 0.31 0 0 0.6 0.3 0 0 0.3 0 0 0 0.31 0.29 0 0 0.61 0.31 0 0 0.3 0.91 0 0 -0.3 0.61 0 0 -0.3 0.31 0 0 -0.29 0.29 0 0 -0.32 0.3 0 0 -0.29 0.31 0 0 -0.92 0.3 0 0 -0.3 0 0 0 -0.29 0.29 0 0 -0.3 0.3 0 0 -0.31 0.31 0 0 -0.3 0.3 0 0 -0.29 0.29 0 0 -0.32 0.63 0 0 -0.29 0.29 0 0 -0.3 0.3 0 0 -0.3 0.3 0 0 -0.62 0.31 0 0 0 0 0 0 -0.29 0.6 0 0 -0.3 0.3 0 0 -0.31 0.3 0 0 -0.3 0.31 0 0 -0.3 0.3 0 0 -0.29 0.91 0 0 -0.31 0.3 0 0 -0.3 0.3 0 0 -0.3 0.29 0 0 -0.29 0.31 0 0 -0.62 0.61 0 0 -0.3 0.61 0 0 -0.3 0.31 0 0 -0.31 0.9 0 0 -0.29 0.62 0 0 -0.3 0.3 0 0 -0.3 0.61 0 0 -0.31 0.92 0 0 0 0.91 0 0 -0.3 0.91 0 0 -0.29 0.92 0 0 -0.3 1.52 0 0 -0.31 1.23 0 0 -0.61 2.74 0 0 -0.29 4.59 0 0 0.29 3.97 0 0 0.61 3.36 0 0 0.31 1.52 0 0 0.3 2.15 0 0 0.29 1.53 0 0 0.3 1.52 0 0 0 1.53 0 0 0.31 2.13 0 0 0.3 1.83 0 0 0.3 2.76 0 0 0.29 2.13 0 0 0.31 4.89 0 0 -0.31 -1.53 0 0 -0.29 -2.13 0 0 -0.3 -2.15 0 0 -0.3 -1.51 0 0 -0.31 -1.52 0 0 0 -1.53 0 0 -0.3 -1.52 0 0 -0.29 -1.53 0 0 -0.3 -1.23 0 0 -0.31 -0.92 0 0 -0.61 -1.52 0 0 -0.29 -1.22 0 0 -0.31 -1.83 0 0 -0.3 -1.23 0 0 -0.3 -0.92 0 0 -0.29 -1.52 0 0 -0.32 -2.14 0 0 -0.29 -1.23 0 0 -0.3 -2.13 0 0 -0.3 -10.08 0 0 0.3 -0.92 0 0 0.3 -0.92 0 0 0.29 -1.52 0 0 0.32 -0.91 0 0 0.29 -0.31 0 0 0.3 -0.6 0 0 0.3 -0.91 0 0 0.31 -0.62 0 0 0.29 -0.61 0 0 0.61 -0.62 0 0 0.31 0 0 0 0.3 -0.6 0 0 0.29 -0.3 0 0 0.3 -0.61 0 0 0 -0.62 0 0 0.31 -0.3 0 0 0.3 -0.29 0 0 0.3 -0.31 0 0 0.29 -0.3 0 0 0.31 -0.3 0 0 0.3 0 0 0 0.3 -0.31 0 0 0.62 -0.29 0 0 0.29 -0.3 0 0 0.3 -0.3 0 0 0.3 -0.62 0 0 0.62 -0.3 0 0 0.3 -0.29 0 0 0.29 -0.31 0 0 0.62 -0.3 0 0 0.61 -0.3 0 0 0 -0.29 0 0 0.61 0 0 0 0.31 -0.31 0 0 0.61 -0.3 0 0 0.29 -0.3 0 0 0.63 -0.29 0 0 0.9 -0.63 0 0 0.62 -0.29 0 0 0.3 -0.3 0 0 -0.3 -0.3 0 0 -0.31 -0.31 0 0 -0.9 -0.29 0 0 -0.31 -0.3 0 0 -0.3 0 0 0 -0.61 -0.31 0 0 -0.3 -0.3 0 0 -0.31 -0.29 0 0 -0.29 -0.3 0 0 0 -0.31 0 0 -0.61 -0.61 0 0 0 -0.3 0 0 -0.31 -0.31 0 0 -0.61 -0.29 0 0 -0.3 -0.3 0 0 -0.29 -0.3 0 0 -0.31 0 0 0 -0.3 -0.62 0 0 -0.3 -0.29 0 0 -0.31 -0.3 0 0 -0.29 -0.92 0 0 -0.3 -0.3 0 0 -0.3 -0.62 0 0 -0.31 -0.29 0 0 -0.61 -0.61 0 0 -0.29 -0.61 0 0 -0.31 -0.92 0 0 -0.3 -0.62 0 0 -0.3 -0.9 0 0 -0.29 -0.92 0 0 0 -0.9 0 0 -0.31 -1.23 0 0 -0.3 -2.13 0 0 -0.3 -2.15 0 0 -0.29 -8.56 0 0 0.29 -4.28 0 0 0.3 -1.83 0 0 0.3 -3.67 0 0 0.31 -1.53 0 0 0 -1.84 0 0 0.29 -2.44 0 0 0.3 -1.23 0 0 0.3 -2.75 0 0 0.31 -1.22 0 0 0.29 -1.83 0 0 0.61 -1.54 0c-12.22,2.46 -8.56,1.84 -3.05,1.53l0 0 0 0 0 0 0 0 0 0 0 0 0 0 -0.04 -0.07 0 0z"/>
  <path class="fil5" d="M242.44 158.85l-0.3 0 0 1.22 -0.29 0 0 0.62 -0.3 0 0 0.9 -0.31 0 0 0.62 -0.3 0 0 0.3 -0.3 0 0 0.61 -0.62 0 0 0.31 -0.29 0 0 0 -0.3 0 0 0.3 -0.3 0 0 0.29 -0.62 0 0 0.3 -0.61 0 0 0.62 -0.62 0 0 0.3 -1.21 0 0 0.29 -4.89 0 0 -0.29 -1.83 0 0 -0.3 -1.23 0 0 -0.62 -1.23 0 0 -0.3 -0.9 0 0 -0.29 -0.63 0 0 -0.3 -0.9 0 0 0 -1.23 0 0 -0.31 -0.6 0 0 -0.3 -0.63 0 0 -0.3 -0.6 0 0 -0.29 -0.61 0 0 -0.31 -0.92 0 0 -0.3 -0.3 0 0 -0.3 -0.62 0 0 -0.31 -0.6 0 0 -0.6 -0.3 0 0 -0.3 -0.62 0 0 -0.3 -0.91 0 0 -0.62 0.3 0 0 -0.3 0.3 0 0 -0.29 0.6 0 0 -0.62 0.32 0 0 -0.3 0.29 0 0 -0.61 0.3 0 0 0 0.31 0 0 -0.29 0.3 0 0 -0.63 0.29 0 0 -0.29 0.3 0 0 -0.3 0 0 0 -0.31 0.31 0 0 -0.61 0.3 0 0 -0.29 0.29 0 0 -0.31 0.63 0 0 -0.61 0.29 0 0 -0.61 0.3 0 0 -0.31 0.3 0 0 -0.3 0.31 0 0 -0.6 0.29 0 0 -0.3 0.3 0 0 -0.31 0.3 0 0 -0.3 0.31 0 0 -0.29 0.29 0 0 -0.92 0.3 0 0 -0.3 0.31 0 0 -0.3 0.61 0 0 -0.62 0.3 0 0 -0.29 0.29 0 0 -0.61 0.31 0 0 -0.31 0.3 0 0 -0.91 0.3 0 0 -0.31 0.29 0 0 -0.6 0.31 0 0 -0.3 0 0 0 -0.3 0.3 0 0 -0.62 0.3 0 0 -0.3 0.31 0 0 -0.91 0.29 0 0 -0.3 0.61 0 0 -0.61 0.3 0 0 -0.62 0.31 0 0 -0.61 0.3 0 0 -0.29 0.29 0 0 -0.92 0.31 0 0 -0.61 0.3 0 0 -0.62 0.3 0 0 0 0.29 0 0 -0.61 0.31 0 0 -0.6 0.3 0 0 -0.92 0.3 0 0 -0.61 0.62 0 0 -0.62 0.3 0 0 -0.61 0.29 0 0 -0.92 0.3 0 0 -0.6 0.31 0 0 -0.61 0.3 0 0 -0.31 0.29 0 0 -0.61 0.3 0 0 0.61 0 0 0 0.31 0.31 0 0 0.61 0.3 0 0 0.6 0.29 0 0 0.92 0.31 0 0 0.61 0.61 0 0 0.62 0.3 0 0 0.9 0.3 0 0 0.92 0.31 0 0 0.9 0.29 0 0 0.32 0.3 0 0 0.9 0.3 0 0 1.23 0.31 0 0 0.92 0.29 0 0 0.9 0.3 0 0 1.52 0.31 0 0 0.92 0.61 0 0 0.92 0.3 0 0 1.53 0.29 0 0 1.52 0.31 0 0 2.13 0.3 0 0 1.53 0.3 0 0 5.49 -0.3 0 0 0.92 0 0 0 0 0 0 0 0 0 0 0 0 0 0 0.3 0 0.31 -0.11 -0.01 0zm-51.04 -79.78l1.23 0 0 -0.3 0.92 0 0 -0.3 0.9 0 0 -0.31 1.53 0 0 -0.29 0.61 0 0 -0.3 1.23 0 0 -0.3 1.52 0 0 -0.31 1.23 0 0 -0.29 1.84 0 0 -0.61 1.52 0 0 -0.3 2.13 0 0 -0.31 4.59 0 0 -0.3 2.14 0 0 0.3 3.98 0 0 0.31 2.13 0 0 0.3 0.92 0 0 0.61 0.9 0 0 0.29 1.23 0 0 0.31 0.92 0 0 0.3 0.61 0 0 0.3 0.6 0 0 0.29 0.92 0 0 0.31 0.61 0 0 0.3 0.62 0 0 0.3 0.3 0 0 0 0.6 0 0 0.31 0.31 0 0 0.3 0.3 0 0 0.6 0.61 0 0 0.3 0.31 0 0 0.31 0.3 0 0 0.3 0.29 0 0 0.29 0.3 0 0 0.3 0.31 0 0 0.31 0.3 0 0 0.3 0.29 0 0 0.29 0.3 0 0 0.32 0.31 0 0 0.29 0.3 0 0 0.92 0.6 0 0 0.3 0.32 0 0 0.29 0.29 0 0 0.61 0.3 0 0 0.31 0.3 0 0 0.3 0.31 0 0 0.61 0.29 0 0 0.91 0.3 0 0 0.61 0.31 0 0 0.62 0.3 0 0 0.91 0.29 0 0 0.62 0.3 0 0 1.21 0.62 0 0 0.92 0 0 0 0.92 0.3 0 0 1.83 0.3 0 0 1.53 0.29 0 0 2.13 0.31 0 0 7.95 -0.31 0 0 2.44 -0.29 0 0 2.15 -0.3 0 0 0.9 -0.3 0 0 1.84 0 0 0 1.23 -0.62 0 0 0.92 -0.3 0 0 1.21 -0.29 0 0 0.62 -0.3 0 0 1.22 -0.31 0 0 0.91 -0.3 0 0 0.92 -0.29 0 0 0.61 -0.31 0 0 -0.3 -0.3 0 0 -0.62 -0.3 0 0 -0.61 -0.29 0 0 -0.91 -0.32 0 0 -0.3 -0.6 0 0 -0.61 -0.3 0 0 -0.31 -0.31 0 0 -0.29 -0.3 0 0 -0.61 -0.29 0 0 -0.3 -0.3 0 0 -0.92 -0.31 0 0 -0.29 -0.3 0 0 -0.62 -0.29 0 0 -0.3 -0.3 0 0 -0.3 -0.31 0 0 -0.62 -0.61 0 0 -0.3 0 0 0 -0.9 -0.3 0 0 -0.31 -0.31 0 0 -0.61 -0.29 0 0 0 -0.3 0 0 -0.29 -0.3 0 0 -0.63 -0.31 0 0 -0.29 -0.29 0 0 -0.3 -0.3 0 0 -0.31 -0.31 0 0 -0.9 -0.3 0 0 -0.3 -0.3 0 0 -0.31 -0.6 0 0 -0.61 -0.31 0 0 -0.3 -0.3 0 0 -0.31 -0.3 0 0 -0.29 -0.29 0 0 -0.3 -0.31 0 0 -0.92 -0.3 0 0 -0.29 -0.3 0 0 -0.3 -0.29 0 0 0 -0.32 0 0 -0.31 -0.29 0 0 -0.61 -0.3 0 0 -0.3 0 0 0 -0.29 -0.62 0 0 -0.31 -0.3 0 0 -0.3 -0.29 0 0 -0.61 -0.31 0 0 -0.62 -0.3 0 0 -0.29 -0.3 0 0 -0.3 -0.29 0 0 -0.31 -0.31 0 0 -0.3 -0.3 0 0 -0.3 -0.3 0 0 -0.29 -0.29 0 0 -0.31 -0.32 0 0 -0.3 -0.6 0 0 0 -0.3 0 0 -0.61 -0.31 0 0 -0.29 -0.3 0 0 -0.32 -0.29 0 0 -0.29 -0.3 0 0 -0.3 -0.31 0 0 -0.62 -0.3 0 0 -0.3 -0.29 0 0 -0.29 -0.61 0 0 -0.62 -0.62 0 0 -0.61 -0.3 0 0 -0.3 -0.3 0 0 -0.3 -0.31 0 0 -0.31 -0.29 0 0 -0.29 -0.3 0 0 -0.3 -0.31 0 0 -0.3 -0.3 0 0 -0.31 -0.3 0 0 -0.29 -0.29 0 0 0 -0.31 0 0 -0.3 -0.3 0 0 -0.31 -0.61 0 0 -0.3 -0.31 0 0 -0.6 -0.6 0 0 -0.32 -0.3 0 0 -0.29 -0.3 0 0 -0.3 -0.31 0 0 -0.3 -0.3 0 0 -0.31 -0.29 0 0 -0.29 -0.62 0 0 -0.3 -0.61 0 0 -0.3 0 0 0 -0.31 -0.3 0 0 -0.29 -0.6 0 0 -0.3 -0.32 0 0 -0.62 -0.29 0 0 -0.3 -0.3 0 0 -0.3 -0.62 0 0 0 -0.3 0 0 -0.29 -0.29 0 0 -0.31 -0.62 0 0 -0.3 -0.61 0 0 -0.3 -0.3 0 0 -0.29 -0.62 0 0 -0.31 -0.3 0 0 -0.3 -0.29 0 0 -0.3 -0.61 0 0 -0.31 -0.62 0 0 -0.61 -0.61 0 0 -0.29 -0.3 0 0 -0.3 0 0 0 -0.31 -0.62 0 0 -0.3 -0.29 0 0 -0.29 -0.61 0 0 -0.3 -0.31 0 0 -0.31 -0.91 0 0 -0.3 -0.62 0 0 -0.29 -0.29 0 0 -0.31 -0.61 0 0 0 -0.31 0 0 -0.3 0 0 0 0 0 0 0 0 0 0 0 0 0 0 -0.61 -0.61 -0.32 -0.35 0 0.01zm-6.42 0.31l-0.61 0 0 0.31 -0.61 0 0 0.61 -0.62 0 0 0.29 -0.61 0 0 0.31 -0.91 0 0 0.3 -0.61 0 0 0.3 -0.61 0 0 0.29 -0.62 0 0 0.31 0 0 0 0.3 -0.61 0 0 0.3 -0.91 0 0 0.3 -0.61 0 0 0.31 -0.3 0 0 0.29 -0.62 0 0 0.61 -0.61 0 0 0.31 -0.6 0 0 0.3 -0.63 0 0 0.29 -0.6 0 0 0.3 -0.3 0 0 0.31 -0.62 0 0 0 -0.3 0 0 0.3 -0.92 0 0 0.29 -0.29 0 0 0.3 -0.3 0 0 0.31 -0.31 0 0 0.3 -0.61 0 0 0.3 -0.29 0 0 0.62 -0.63 0 0 0.29 -0.29 0 0 0.3 -0.91 0 0 0.3 -0.31 0 0 0.31 -0.29 0 0 0.29 -0.61 0 0 0.3 -0.31 0 0 0.3 -0.3 0 0 0.31 -0.6 0 0 0.3 -0.3 0 0 0.29 -0.62 0 0 0.31 -0.61 0 0 0 -0.3 0 0 0.61 -0.31 0 0 0.3 0 0 0 0.31 -0.61 0 0 0.29 -0.29 0 0 -0.91 -0.31 0 0 -2.76 -0.3 0 0 -5.49 0.3 0 0 -2.44 0.31 0 0 -1.23 0.29 0 0 -0.92 0.3 0 0 -0.3 0.3 0 0 -0.91 0 0 0 -0.3 0.31 0 0 -0.3 0.3 0 0 -0.3 0.29 0 0 -0.31 0.31 0 0 -0.29 0.3 0 0 -0.3 0.9 0 0 -0.31 0.62 0 0 -0.3 0.91 0 0 -0.29 1.52 0 0 -0.61 5.51 0 0 0.61 1.53 0 0 0.29 1.21 0 0 0.3 1.54 0 0 0.31 0.61 0 0 0.3 0.6 0 0 0.29 0.92 0 0 0.31 1.23 0 0 0.3 0.61 0 0 0.3 0.61 0 0 0.3 0.91 0 0 0.31 0.92 0 0 0.29 0.3 0 0 0 -0.92 0 0 0.61 0 0 0 0 0 0 0 0 0 0 0 0 0 0 0 0 -0.01 0.18 0 0zm-24.14 17.42l0.3 0 0 0.92 0.3 0 0 0.91 0.3 0 0 0.62 0.31 0 0 1.21 0.29 0 0 0.92 0.3 0 0 0.61 0.62 0 0 1.22 0.3 0 0 0.61 0.29 0 0 0.92 0 0 0 0.3 0.3 0 0 0.62 0.31 0 0 0.9 0.3 0 0 0.62 0.3 0 0 0.61 0.29 0 0 0.61 0.31 0 0 0.62 0.3 0 0 0.9 0.3 0 0 0.62 0.29 0 0 0.3 0.62 0 0 0.61 0.3 0 0 0.29 0.3 0 0 -0.6 -0.3 0 0 -0.61 -0.3 0 0 -0.62 -0.62 0 0 -0.9 -0.29 0 0 -0.92 -0.3 0 0 -0.61 -0.3 0 0 -0.92 -0.31 0 0 -1.23 -0.29 0 0 -0.6 -0.3 0 0 -0.91 -0.3 0 0 -1.52 -0.31 0 0 -1.23 -0.3 0 0 -1.23 0 0 0 -1.53 -0.29 0 0 -1.52 -0.3 0 0 -2.44 0.3 0 0 -0.31 0.29 0 0 -0.3 0.3 0 0 -0.3 0.31 0 0 -0.3 0.3 0 0 -0.62 0.61 0 0 -0.29 0.31 0 0 0 0.6 0 0 -0.3 0.61 0 0 -0.31 0.62 0 0 -0.3 0.3 0 0 -0.29 0.61 0 0 -0.3 0.31 0 0 -0.31 0.6 0 0 -0.3 0.3 0 0 -0.29 0.92 0 0 -0.3 0.3 0 0 -0.31 0.6 0 0 -0.61 0.31 0 0 -0.3 0.3 0 0 -0.31 0.61 0 0 -0.29 0.92 0 0 -0.3 0.6 0 0 -0.3 0.31 0 0 -0.31 0.61 0 0 -0.29 0.61 0 0 0 0.62 0 0 -0.3 0.9 0 0 -0.3 0.3 0 0 -0.31 0.62 0 0 -0.61 0.61 0 0 -0.29 0.62 0 0 -0.31 0.3 0 0 -0.3 0.91 0 0 -0.3 0.61 0 0 -0.29 0.61 0 0 -0.31 0.92 0 0 -0.3 0.9 0 0 -0.3 0.62 0 0 -0.29 0.61 0 0 -0.31 0.92 0 0 -0.3 0.9 0 0 -0.61 0.62 0 0 -0.31 0.61 0 0 -0.3 0.3 0 0 0.3 0.31 0 0 0.31 0.6 0 0 0.61 0.92 0 0 0.3 0.61 0 0 0.31 0.3 0 0 0.29 0.62 0 0 0.3 0.3 0 0 0.3 0.6 0 0 0.31 0.92 0 0 0.29 0.3 0 0 0.3 0.62 0 0 0.3 0.3 0 0 0.31 0.6 0 0 0.29 0.3 0 0 0.61 0 0 0 0.31 0.62 0 0 0.3 0.61 0 0 0.3 0.29 0 0 0 0.63 0 0 0.29 0.29 0 0 0.31 0.3 0 0 0.3 0.62 0 0 0.3 0.3 0 0 0.29 0.29 0 0 0.31 0.3 0 0 0.3 0.92 0 0 0.61 0.3 0 0 0.31 0.31 0 0 0.3 0.29 0 0 0.29 0.61 0 0 0.3 0.31 0 0 0.31 0.3 0 0 0.3 0.3 0 0 0.29 0.29 0 0 0.3 0.62 0 0 0.31 0 0 0 0.3 0.3 0 0 0 0.61 0 0 0.29 0.31 0 0 0.62 0.29 0 0 0.3 0.3 0 0 0.3 0.3 0 0 0.3 0.31 0 0 0.31 0.3 0 0 0.29 0.29 0 0 0.3 0.62 0 0 0.31 0.3 0 0 0.3 0.3 0 0 0.29 0.29 0 0 0.3 0.31 0 0 0.31 0.3 0 0 0.61 0.3 0 0 0.3 0.29 0 0 0.31 0.31 0 0 0.29 0.3 0 0 0.3 0.3 0 0 0.3 0.31 0 0 0 0 0 0 0.31 0.61 0 0 0.29 0.29 0 0 0.3 0.3 0 0 0.3 0.31 0 0 0.92 0.3 0 0 0.29 0.29 0 0 0.31 0.3 0 0 0.3 0.31 0 0 0.3 0.3 0 0 0.29 0.3 0 0 0.31 0.29 0 0 0.3 0.31 0 0 0.3 0.61 0 0 0.62 0.3 0 0 0.29 0.31 0 0 0.61 0.29 0 0 0.3 0.3 0 0 0 0.31 0 0 0.31 0.3 0 0 0.3 0.3 0 0 0.6 0.29 0 0 0.31 0.31 0 0 0.3 0.3 0 0 0.3 0.61 0 0 0.29 0 0 0 0.92 0.31 0 0 0.3 0.29 0 0 0.31 0.3 0 0 0.3 0.3 0 0 0.6 0.31 0 0 0.3 0.29 0 0 0.31 0.3 0 0 0.3 0.3 0 0 0.92 0.31 0 0 0 0.3 0 0 0.29 0.29 0 0 0.61 0.61 0 0 0.31 0.31 0 0 0.3 0.3 0 0 0.61 0.29 0 0 0.29 0.31 0 0 0.31 0.3 0 0 0.91 0.3 0 0 0.31 0.3 0 0 0.6 0.31 0 0 0.3 0.29 0 0 0.31 0.3 0 0 0.61 0.3 0 0 0 0 0 0 0.61 0.62 0 0 0.62 0.29 0 0 0.6 0.3 0 0 0.3 0.31 0 0 0.61 0.3 0 0 0.31 0.3 0 0 0.61 0.29 0 0 0.29 0.31 0 0 0.92 0.3 0 0 0.3 0.3 0 0 0.62 0.31 0 0 0.61 0.29 0 0 0.29 0.61 0 0 0.31 0.3 0 0 0.3 -0.3 0 0 0.91 -0.61 0 0 0.62 -0.29 0 0 0.6 -0.31 0 0 0.92 -0.3 0 0 0.91 -0.3 0 0 0.62 -0.31 0 0 0.6 -0.29 0 0 0.3 -0.3 0 0 0.62 -0.3 0 0 0.61 -0.31 0 0 0.92 -0.3 0 0 0.29 -0.29 0 0 0.61 -0.62 0 0 0.62 0 0 0 0.61 -0.3 0 0 0.92 -0.3 0 0 0.29 -0.29 0 0 0.61 -0.31 0 0 0.62 -0.3 0 0 0.3 -0.3 0 0 0.3 -0.3 0 0 0.62 -0.31 0 0 0.61 -0.29 0 0 0.6 -0.3 0 0 0.62 -0.31 0 0 0.3 -0.61 0 0 0.61 -0.29 0 0 0.31 -0.3 0 0 0.9 -0.31 0 0 0.3 -0.3 0 0 0.62 -0.3 0 0 0.3 -0.29 0 0 0.29 -0.31 0 0 0.32 -0.3 0 0 0.6 -0.3 0 0 0.3 -0.29 0 0 0.62 -0.31 0 0 0.61 0 0 0 0.29 -0.61 0 0 0.32 -0.3 0 0 0.6 -0.31 0 0 0.3 -0.29 0 0 0.61 -0.3 0 0 0.31 -0.3 0 0 0.6 -0.31 0 0 0.3 -0.3 0 0 0.31 -0.29 0 0 0.3 -0.31 0 0 0.29 -0.3 0 0 0.63 -0.61 0 0 0.29 -0.31 0 0 0.3 -0.29 0 0 0.3 -0.3 0 0 0.31 -0.3 0 0 0.9 -0.31 0 0 0.3 -0.3 0 0 0.31 -0.29 0 0 0.3 -0.3 0 0 0.29 -0.31 0 0 0.62 -0.3 0 0 0.3 -0.29 0 0 0.3 -0.61 0 0 0.31 0 0 0 -0.31c-2.75,-2.14 -4.28,-1.84 -4.59,-2.14 0,0 -3.67,1.84 -2.75,3.37l3.97 2.13 0 0.92 -0.3 0 0 0.29 -0.3 0 0 0.3 -0.3 0 0 0.31 -0.31 0 0 0.3 -0.29 0 0 0.29 -0.3 0 0 0.31 -0.31 0 0 0.3 -0.3 0 0 0.3 -0.29 0 0 0 -0.92 0 0 0.29 -0.3 0 0 0.63 0 0 0 0.29 -0.61 0 0 0.3 0 0 0 0.3 -0.29 0 0 0.31 -0.31 0 0 0.29 -0.3 0 0 0.3 -0.3 0 0 0.31 -0.62 0 0 0.3 -0.3 0 0 0.29 -0.6 0 0 0.3 -0.31 0 0 0.31 -0.3 0 0 0.61 -0.3 0 0 0.3 -0.6 0 0 0.29 -0.31 0 0 0.31 -0.3 0 0 0.3 -0.3 0 0 0.3 -0.62 0 0 0.31 -0.61 0 0 0 -0.29 0 0 0.29 -0.62 0 0 0.3 -0.3 0 0 0.3 0 0 0 0.31 -0.61 0 0 0.29 -0.31 0 0 0.61 -0.3 0 0 0.31 -0.9 0 0 0.3 -0.31 0 0 0.3 -0.61 0 0 0.29 -0.29 0 0 0.31 -0.32 0 0 0.3 -0.6 0 0 0.3 -0.3 0 0 0.31 -0.3 0 0 0.29 -0.91 0 0 0.3 -0.3 0 0 0.3 -0.62 0 0 0.62 -0.3 0 0 0 -0.61 0 0 0.3 -0.31 0 0 0.29 -0.29 0 0 0.3 -0.91 0 0 0.31 -0.31 0 0 0.3 -0.6 0 0 0.29 -0.3 0 0 0.31 -0.62 0 0 0.3 -0.61 0 0 0.3 -0.3 0 0 0.29 -0.91 0 0 0.31 -0.61 0 0 0.61 -0.31 0 0 0.3 -0.61 0 0 0.3 -0.61 0 0 0.31 -0.92 0 0 0.29 -0.29 0 0 0.3 -0.31 0 0 0.31 -0.61 0 0 0.3 -0.61 0 0 0.29 -0.62 0 0 0 -0.9 0 0 0.3 -0.62 0 0 0.31 -0.61 0 0 0.61 -0.61 0 0 0.3 -0.62 0 0 0.31 -0.9 0 0 0.29 -0.62 0 0 0.3 -0.61 0 0 0.3 -0.3 0 0 0.31 -0.92 0 0 0.29 -0.9 0 0 0.3 -0.62 0 0 0.3 -0.91 0 0 0.31 -0.62 0 0 0.29 -0.91 0 0 0.61 -0.91 0 0 0.31 -0.92 0 0 0.3 -0.6 0 0 0.3 -0.92 0 0 0 -0.91 0 0 0.29 -0.91 0 0 0.31 -0.92 0 0 0.3 -1.22 0 0 0.3 -0.62 0 0 0.31 -1.83 0 0 0.29 -0.61 0 0 0.3 -0.92 0 0 0.3 -1.83 0 0 0.62 -1.23 0 0 0.3 -2.14 0 0 0.29 -0.9 0 0 0.3 -1.52 0 0 0.31 -3.07 0 0 0.3 -11.01 0 0 -0.3 -2.14 0 0 -0.31 -1.52 0 0 -0.3 -1.23 0 0 -0.29 -1.53 0 0 -0.3 -0.9 0 0 -0.62 -0.92 0 0 -0.3 -1.23 0 0 -0.3 -0.6 0 0 -0.29 -0.3 0 0 -0.31 -0.62 0 0 -0.3 -0.61 0 0 -0.3 -0.62 0 0 -0.31 -0.61 0 0 -0.29 -0.6 0 0 0 -0.32 0 0 -0.3 -0.6 0 0 -0.3 -0.3 0 0 -0.31 -0.3 0 0 -0.61 -0.62 0 0 -0.29 -0.29 0 0 -0.31 -0.61 0 0 -0.3 -0.31 0 0 -0.3 -0.3 0 0 -0.29 -0.29 0 0 -0.31 -0.3 0 0 -0.3 -0.31 0 0 -0.3 0 0 0 -0.29 -0.3 0 0 -0.31 -0.3 0 0 -0.3 -0.31 0 0 -0.92 -0.29 0 0 -0.3 -0.3 0 0 0 -0.61 0 0 -0.6 -0.31 0 0 -0.3 -0.29 0 0 -0.62 -0.3 0 0 -0.3 -0.3 0 0 -0.92 -0.31 0 0 -0.6 -0.3 0 0 -0.61 -0.29 0 0 -0.62 -0.31 0 0 -0.61 -0.3 0 0 -0.92 -0.3 0 0 -0.6 -0.29 0 0 -0.61 -0.62 0 0 -1.85 -0.3 0 0 -0.91 -0.3 0 0 -1.22 -0.31 0 0 -1.84 -0.3 0 0 -1.53 -0.29 0 0.29 -11.01c-2.44,0.31 -3.96,3.36 -2.44,6.11l0.3 6.12 0.61 0 0 2.44 0.31 0 0 1.84 0.29 0 0 1.23 0.3 0 0 1.22 0.3 0 0 0.91 0 0 0 0.92 0.31 0 0 0.91 0.29 0 0 0.91 0.3 0 0 0.62 0.31 0 0 0.9 0.3 0 0 0.92 0.29 0 0 0.61 0.61 0 0 0.31 0.31 0 0 0.29 0.3 0 0 0.91 0.3 0 0 0.62 0.31 0 0 0.3 0.29 0 0 0.6 0.3 0 0 0.31 0.3 0 0 0.61 0.31 0 0 0.3 0.29 0 0 0.62 0.3 0 0 0.61 0.3 0 0 0.29 0.62 0 0 0.32 0.3 0 0 0 0.29 0 0 0.29 0.31 0 0 0.3 0.3 0 0 0.29 0 0 0 0.32 0.3 0 0 0.29 0.29 0 0 0.3 0.31 0 0 0.3 0.3 0 0 0.62 0.3 0 0 0.29 0.92 0 0 0.3 0.29 0 0 0.31 0.3 0 0 0.3 0.62 0 0 0.29 0.3 0 0 0.3 0.29 0 0 0.31 0.62 0 0 0.3 0.61 0 0 0.3 0.61 0 0 0.29 0.62 0 0 0.62 0.61 0 0 0.3 0.3 0 0 0 0.62 0 0 0.3 0.6 0 0 0.31 1.23 0 0 0.29 0.61 0 0 0.3 0.92 0 0 0.31 1.52 0 0 0.3 0.61 0 0 0.3 1.23 0 0 0.29 1.21 0 0 0.31 2.15 0 0 0.3 2.44 0 0 0.61 9.48 0 0 -0.61 2.46 0 0 -0.3 3.05 0 0 -0.31 1.23 0 0 -0.29 1.83 0 0 -0.3 1.23 0 0 -0.3 0.9 0 0 -0.31 1.53 0 0 -0.3 1.52 0 0 -0.29 0.63 0 0 -0.31 1.52 0 0 -0.3 0.9 0 0 0 0.63 0 0 -0.3 1.21 0 0 -0.62 0.62 0 0 -0.29 0.9 0 0 -0.3 0.92 0 0 -0.3 0.92 0 0 -0.31 0.9 0 0 -0.3 0.63 0 0 -0.29 0.6 0 0 -0.3 1.23 0 0 -0.31 0.3 0 0 -0.3 0.61 0 0 -0.29 0.62 0 0 -0.62 0.9 0 0 -0.3 0.92 0 0 -0.3 0.61 0 0 -0.29 0.62 0 0 -0.32 0.61 0 0 -0.29 0.91 0 0 -0.3 0.61 0 0 -0.29 0.61 0 0 0 0.31 0 0 -0.32 0.61 0 0 -0.29 0.29 0 0 -0.3 0.92 0 0 -0.3 0.61 0 0 -0.62 0.29 0 0 -0.29 0.63 0 0 -0.3 0.6 0 0 -0.31 0.62 0 0 -0.3 0.61 0 0 -0.3 0.61 0 0 -0.29 0.62 0 0 -0.31 0.3 0 0 -0.3 0.6 0 0 -0.3 0.32 0 0 -0.31 0.9 0 0 -0.29 0.3 0 0 -0.61 0.31 0 0 -0.3 0.6 0 0 0 0.3 0 0 -0.31 0.62 0 0 -0.3 0.3 0 0 -0.29 0.92 0 0 -0.31 0.29 0 0 -0.3 0.61 0 0 -0.3 0.3 0 0 -0.29 0.62 0 0 -0.31 0.3 0 0 -0.3 0.29 0 0 -0.3 0.92 0 0 -0.6 0.3 0 0 -0.31 0.62 0 0 -0.3 0.29 0 0 -0.3 0 0 0 -0.31 0.61 0 0 -0.3 0.31 0 0 -0.29 0.3 0 0 -0.3 0.61 0 0 -0.31 0.6 0 0 -0.3 0.31 0 0 0 0.3 0 0 -0.29 0.61 0 0 -0.3 0.31 0 0 -0.62 0.61 0 0 -0.3 0.29 0 0 -0.29 0.3 0 0 -0.32 0.92 0 0 -0.29 0.3 0 0 -0.3 0.31 0 0 -0.3 0.29 0 0 -0.31 0.3 0 0 -0.29 0.62 0 0 -0.3 0 0 0 -0.3 0.61 0 0 -0.31 0 0 0 -0.6 0.3 0 0 -0.3 0.62 0 0 -0.31 0.29 0 0 -0.3 0.61 0 0 0 0.3 0 0 -0.29 0.31 0 0 -0.32 0.29 0 0 -0.29 0.3 0 0 -0.3 0.31 0 0 -0.3 0.3 0 0 -0.31 0.29 0 0 -0.29 0.61 0 0 -0.61 0.31 0 0 -0.3 0.3 0 0 -0.31 0.3 0 0 -0.29 0.29 0 0 -0.3 0.31 0 0 -0.31 0.3 0 0 -0.3 0.3 0 0 -0.3 0.31 0 0 -0.29 0 0 0 -0.31 0.61 0 0 -0.3 0 0 0 -0.3 0.6 0 0 0 0.31 0 0 -0.6 0.3 0 0 -0.32 0.3 0 0 0.32 0.6 0 0 0.6 0.92 0 0 0 0.61 0 0 0.3 0.92 0 0 0.3 0.92 0 0 0.31 0.6 0 0 0.29 0.92 0 0 0.3 1.22 0 0 0.3 0.62 0 0 0.31 0.9 0 0 0.3 1.53 0 0 0.29 1.22 0 0 0.31 1.84 0 0 0.3 1.84 0 0 0.61 7.03 0 0 -0.61 1.52 0 0 -0.3 0.92 0 0 -0.31 0.92 0 0 -0.29 0.9 0 0 -0.3 0.62 0 0 -0.31 0.61 0 0 -0.3 0.3 0 0 -0.3 0.62 0 0 -0.29 0.61 0 0 -0.31 0.29 0 0 -0.3 0.31 0 0 -0.3 0.3 0 0 -0.6 0.3 0 0 -0.32 0.3 0 0 -0.6 0.31 0 0 -0.61 0 0 0 -0.62 0.29 0 0 -1.23 0.3 0 0 -1.21 0.3 0 0 -1.53 0.31 0 0 -6.42 -0.31 0 0 -1.84 -0.3 0 0 -1.23 -0.3 0 0 -1.23 -0.29 0 0 -0.9 0 0 0 -0.92 -0.31 0 0 -0.61 -0.3 0 0 -0.91 -0.3 0 0 -0.91 -0.3 0 0 -0.92 -0.31 0 0 -0.6 -0.29 0 0 -1.23 -0.61 0 0 -0.62 -0.31 0 0 -0.91 -0.3 0 0 -0.29 -0.29 0 0 -1.23 -0.3 0 0 -0.61 -0.31 0 0 -0.62 -0.3 0 0 -0.91 -0.29 0 0 -0.91 -0.31 0 0 -0.61 -0.3 0 0 -0.62 -0.3 0 0 -0.61 -0.61 0 0 -0.61 -0.31 0 0 -0.62 -0.29 0 0 -0.61 -0.3 0 0 -0.62 -0.31 0 0 -0.9 -0.3 0 0 -0.31 0.3 0 0 -1.21 0.31 0 0 -0.63 0.3 0 0 -0.9 0.29 0 0 -0.62 0.31 0 0 -1.22 0.61 0 0 -0.91 0.3 0 0 -0.92 0.3 0 0 -1.21 0.31 0 0 -1.23 0.29 0 0 -0.92 0.3 0 0 -1.51 0.31 0 0 -1.23 0.3 0 0 -1.84 0.29 0 0 -1.83 0.3 0 0 -2.46 0.31 0 0 -9.79 -0.31 0 0 -2.44 -0.3 0 0 -1.53 -0.29 0 0 -1.52 -0.3 0 0 -1.23 -0.31 0 0 -0.61 -0.3 0 0 -1.23 -0.29 0 0 -0.6 -0.31 0 0 -0.92 -0.3 0 0 -0.61 -0.3 0 0 -0.62 -0.61 0 0 -0.9 -0.31 0 0 -0.62 -0.29 0 0 -0.61 -0.3 0 0 -0.61 -0.31 0 0 -0.31 -0.3 0 0 -0.3 0 0 0 -0.9 -0.29 0 0 -0.31 -0.3 0 0 -0.61 -0.31 0 0 -0.3 -0.3 0 0 -0.31 -0.3 0 0 -0.29 -0.29 0 0 -0.61 -0.62 0 0 -0.62 -0.3 0 0 -0.3 -0.3 0 0 -0.29 -0.31 0 0 -0.3 -0.29 0 0 -0.31 -0.3 0 0 -0.3 -0.3 0 0 0 -0.31 0 0 -0.29 -0.3 0 0 -0.3 -0.29 0 0 -0.31 -0.3 0 0 -0.3 -0.92 0 0 -0.3 -0.29 0 0 -0.31 -0.31 0 0 -0.6 -0.61 0 0 -0.3 -0.3 0 0 -0.3 -0.31 0 0 -0.31 -0.61 0 0 -0.3 -0.9 0 0 -0.29 -0.62 0 0 -0.3 -0.61 0 0 -0.31 -0.62 0 0 -0.3 -0.9 0 0 -0.29 -1.23 0 0 -0.31 -0.92 0 0 -0.3 -1.21 0 0 -0.61 -1.53 0 0 -0.31 -2.75 0 0 0 -6.43 0 0 0 -3.06 0 0 0.31 -2.14 0 0 0.61 -1.22 0 0 0.3 -1.53 0 0 0.31 -1.52 0 0 0.29 -1.22 0 0 0.3 -0.92 0 0 0.31 -1.22 0 0 0.3 -0.61 0 0 0.29 -0.92 0 0 0.3 -0.9 0 0 0.31 -1.23 0 0 0.3 -0.61 0 0 0.3 -0.92 0 0 0.6 -1.23 0 0 0.31 -0.6 0 0 0.3 -0.61 0 0 0.3 -0.62 0 0 -0.3 -0.61 0 0 -0.3 0 0 0 -0.31 -0.92 0 0 -0.6 -0.61 0 0 -0.3 -0.6 0 0 -0.3 -0.62 0 0 -0.31 -0.61 0 0 -0.3 -1.23 0 0 -0.29 -0.61 0 0 -0.3 -0.92 0 0 -0.31 -1.22 0 0 -0.3 -0.91 0 0 -0.29 -1.23 0 0 -0.31 -1.83 0 0 -0.3 -7.33 0 0 0.3 -1.23 0 0 0.31 -1.53 0 0 0.29 -0.6 0 0 0.3 -0.92 0 0 0.31 -0.3 0 0 0.3 -0.92 0 0 0.29 0 0 0 0.3 -0.29 0 0 0.31 -0.31 0 0 0.3 -0.3 0 0 0.3 -0.3 0 0 0.91 -0.29 0 0 0.3 -0.31 0 0 0.61 -0.3 0 0 0.62 -0.3 0 0 0.61 -0.29 0 0 1.52 -0.63 0 0 1.23 -0.29 0 0 3.07 -0.3 0 0 3.36 0.3 0 0 3.67c0.29,0 0.29,1.83 0.29,2.74 0.63,0.31 -5.49,5.21 -5.8,5.5 -1.52,0.91 3.67,-2.75 6.43,-4.59 0.29,-0.29 0,0.61 0,0.92l0 0 0 0 0 0 0 0 0 0 0 0 0 0 0 0.3 0.12 0.38 -0.01 -0.01z"/>
  <ellipse class="fil6" cx="186.21" cy="97.1" rx="6.72" ry="7.02"/>
 </g>
</svg>
