<?xml version="1.0" encoding="UTF-8"?>
<!DOCTYPE svg PUBLIC "-//W3C//DTD SVG 1.1//EN" "http://www.w3.org/Graphics/SVG/1.1/DTD/svg11.dtd">
<!-- Creator: CorelDRAW 2017 -->
<svg xmlns="http://www.w3.org/2000/svg" xml:space="preserve" width="300px" height="300px" version="1.1" style="shape-rendering:geometricPrecision; text-rendering:geometricPrecision; image-rendering:optimizeQuality; fill-rule:evenodd; clip-rule:evenodd"
viewBox="0 0 300 300"
 xmlns:xlink="http://www.w3.org/1999/xlink">
 <defs>
  <style type="text/css">
   <![CDATA[
    .str0 {stroke:white;stroke-width:10;stroke-miterlimit:22.9256}
    .str1 {stroke:white;stroke-width:2;stroke-miterlimit:22.9256}
    .fil0 {fill:#FEFEFE}
    .fil1 {fill:#345989}
    .fil2 {fill:#B02525;fill-rule:nonzero}
   ]]>
  </style>
 </defs>
 <g id="Слой_x0020_1">
  <metadata id="CorelCorpID_0Corel-Layer"/>
  <circle class="fil0 str0" cx="150" cy="150" r="135"/>
  <path class="fil1" d="M36.03 212.84c4,-1.18 3.21,-1.18 5.19,1.18 4.42,-1.18 4.02,-4.35 2.81,-8.73l-2 0 -0.81 -2.38c-2.79,0 0,0.8 -2.79,0.8 -1.61,-1.59 -1.2,-2.39 -4.4,-2.39l0.79 -3.57 -1.6 -0.79c-2.01,-1.19 -2.4,-2.78 -1.61,-4.78 1.61,0.4 3.21,1.59 4.81,2.39 3.61,1.59 2.82,0 6.02,0 1.61,0.79 1.99,4.77 5.6,2.39 1.2,-0.8 3.2,-1.6 3.6,-2.78 -0.4,-1.98 -2.8,-1.59 -4,-2.77 0,-1.6 0.38,-1.19 1.19,-2.39 -2.81,-0.8 -3.6,-0.39 -4.81,-2.78 1.6,-0.38 3.21,-1.18 4,-2.38 -1.19,-2.38 -4.4,-1.98 -5.21,-5.56 2,0 2,1.19 5.21,0.39l0 -2.37c-2.4,-0.8 -4,-0.39 -6.4,-0.8 0.4,-1.18 0.4,-0.8 1.19,-1.98 -0.79,-0.8 -3.21,-3.57 -3.21,-5.55 2.81,-1.18 4.42,1.18 6.02,3.17 1.2,0 0.8,-0.38 2,-0.38 0.8,1.18 1.61,0.79 2.8,1.98 1.19,1.59 0.8,2.38 2.4,3.57 2,-1.98 1.6,-3.57 0,-5.55 -0.8,-0.8 -1.19,-0.8 -1.19,-2.39 0.39,-1.58 0.81,-1.98 1.6,-2.38 1.61,0.39 0,0.8 2.81,1.18 0,-2.77 -2,-2.77 -2,-5.16 0.8,-0.39 2.4,-0.79 3.21,-1.59 0.38,-2.78 -2.81,-4.78 1.6,-6.35 1.2,1.6 1.61,3.98 2.4,5.55 1.21,2.78 4.02,0 3.61,4.78 -0.8,0.39 -1.61,0.79 -2.4,1.18 -1.21,1.19 -1.21,0.8 -0.81,2.78 2.8,0 3.61,-1.59 6.81,-1.59 0,2.77 -2.79,4.36 -4.01,6.34l4.82 0 1.2 2.78c2,-0.8 2.79,-1.98 4.4,-3.19 1.2,0.8 1.6,0.4 2.81,0.8 0,5.16 -4.42,3.57 -6.42,6.36 1.21,1.98 4.02,1.18 6.02,1.58 1.19,0.4 1.19,0.79 2.4,1.18 2,0.4 1.2,0 2.81,0.81 0,1.18 0,0.78 -1.61,1.58 -2.81,1.18 -7.62,-0.39 -9.62,1.18 0.4,2.39 2.41,1.2 4.02,2.39 3.6,2.77 2,4.77 8,4.77 2.01,0 4.02,1.19 4.42,2.39 -2.41,2.38 -7.21,1.58 -10.42,2.38 0.4,1.59 2.8,4.37 4.4,4.37 2,0 3.61,-1.98 6.02,0.79 -0.81,3.57 -3.61,0.39 -11.23,3.57 0.81,1.98 2,1.19 2.41,3.57 -3.2,0.8 -5.6,-1.18 -8,0.8 0.79,1.98 2.79,2.77 4.4,3.98 -8.01,1.98 -38.86,6.74 -43.27,12.7 -3.61,5.16 6,7.55 9.21,8.35 15.63,3.97 31.64,6.33 47.68,8.33 3.61,0.39 13.22,1.19 16.43,2.39 -2,1.59 -14.03,5.55 -17.62,6.76 -3.21,1.58 -5.61,2.37 -8.42,3.96 -8.81,4.37 -11.22,7.15 1.61,11.51 4,1.19 8,2.39 12.02,3.19 26.43,5.15 60.48,5.15 86.13,1.58 22.43,-2.78 62.09,-7.94 79.71,-23.42 2.79,-2.39 8.41,-6.74 8.41,-11.11 -0.79,0.39 -3.2,3.17 -6.4,4.77 -18.84,11.12 -65.3,16.67 -87.71,19.06 -16.03,1.58 -40.46,1.96 -56.5,-0.4 -1.61,-0.39 -3.21,-0.39 -4.81,-1.19 -2.01,-0.79 -2.8,-1.18 -3.21,-2.77 1.19,-2.78 8,-3.57 11.21,-4.37 4.83,-1.18 8.82,-1.98 13.63,-3.17l19.23 -4.38c1.61,-0.39 5.6,-0.78 5.6,-2.76 -1.61,-2.79 -9.21,-2.79 -12.82,-3.57 -14.82,-1.98 -30.04,-2.79 -44.86,-3.98 -12.82,-1.19 -30.45,-3.19 -44.06,-5.17 -2.4,-0.38 -4.4,-0.79 -6.82,-0.79 -2.79,-0.39 -5.19,-0.39 -6,-2.39 1.19,-1.98 23.24,-7.94 26.84,-9.13 2.42,-0.39 4.4,-1.18 6.82,-1.98 2.41,-0.8 6,-0.39 7.61,-1.18 1.2,-0.4 1.6,-1.2 3.21,-1.2 2,-0.39 2.41,0.4 3.6,0.4 2.41,0.39 4.81,-2.39 6.02,0.8 -1.21,2.77 -4.02,1.98 -6.4,2.37 -1.21,0.4 -3.23,0.8 -3.61,1.2 -0.81,0.39 -0.81,0.39 -1.6,0.78 -3.21,2.79 -0.81,6.36 4.81,4.78 7.21,-1.98 4.4,0.4 9.21,1.98 -1.19,-8.34 2,-4.37 7.21,-5.55 0,-1.98 -2.79,-2.78 -5.21,-5.17 -1.6,-1.98 -4.81,-4.35 -3.6,-7.14 2,-5.15 8.81,2.79 10.82,4.37 0.79,-0.39 0.39,0 0.79,-0.8 0.81,-1.18 1.21,-2.37 3.21,-1.98 0.81,1.98 -0.38,2.78 1.21,4.37 4.4,4.37 5.59,-0.8 4.81,-3.98 -0.81,-2.76 -2.8,-5.15 -4.81,-7.13 -0.81,-0.8 -1.21,-1.59 -1.61,-2.39 -1.21,-1.98 -2.81,-3.18 -4.02,-4.77 0,-3.19 1.61,-4.37 4.4,-4.37l2.01 3.18c1.19,-0.38 1.6,-0.79 2,-2.37 0.4,-3.19 0,-5.18 -2,-7.55 0,0 -0.4,-0.39 -0.4,-0.39 -0.8,-1.19 -0.8,0 -0.8,-1.99 3.21,0 4.4,3.57 7.61,1.99 1.21,-0.4 1.21,-1.59 2,-2.79 0.4,-1.18 1.61,-1.58 2.8,-2.37 -1.6,-5.55 -6.81,-6.35 -6.4,-8.35 0.81,-1.18 1.6,-1.18 2.81,-1.59 2.4,0.4 4,5.96 10.01,1.99 0.38,-3.19 -3.61,-6.36 -4.42,-10.33 2,-0.38 2.81,0.39 4.81,0.8 -0.38,-3.57 -0.79,-5.16 0,-8.74 3.23,1.19 3.61,4.78 4.02,7.94 0.81,5.55 1.61,2.78 6.01,3.57 0.81,1.6 -0.39,4.37 -0.8,5.95l8.01 -0.78c-0.8,5.15 -6.82,5.55 -7.21,8.33 0.81,2.78 2.41,2.39 3.2,4.37 -0.79,1.98 -2.79,1.98 -3.59,3.57 1.99,1.59 4.82,-1.18 6.41,-1.98 2,-1.18 4,-2.77 7.19,-1.98 -0.38,3.57 -3.59,4.77 -5.59,6.35 -0.81,0.79 -0.81,1.18 -1.19,1.59 1.6,0 3.59,0.39 4.81,1.58 -1.19,2.39 -5.21,3.57 -6.02,5.96 -0.8,1.59 0,2.39 0.81,3.18 0.79,-0.4 0.4,0 0.79,-0.4 3.23,-3.17 2.82,-0.78 6.02,0.8 2.4,-1.98 3.21,-5.15 6.41,-6.33 1.6,-0.8 4.01,-1.61 5.6,-0.4 0,0.4 1.2,1.59 1.2,1.99 1.6,2.37 -1.61,4.76 -2.8,5.94 -4.42,4.37 -9.63,2.78 -10.82,10.33 8.01,0 4.81,2.77 4.02,4.77 -0.81,1.19 -1.21,2.38 -1.21,3.97 2.81,-0.38 4.42,-2.38 7.63,-2.38 0.79,0.79 1.19,1.59 1.19,2.77 1.6,0 2.79,0 3.6,0.8 1.2,3.18 -1.6,5.55 -2.79,7.94 1.98,-0.39 4.81,-2.39 6,-3.98 1.61,-1.98 0.81,-3.97 5.21,-3.97 1.61,3.57 6.01,1.18 9.61,2.77 0.81,1.98 -0.79,2.78 -2.79,3.97 -1.61,1.2 -2.8,2.39 -4.02,3.98 -1.19,1.59 -4.4,7.54 -3.61,10.33 2.42,0.38 4.02,-1.98 6.42,-2.79 2.8,-1.18 5.59,0 8.8,-0.39 5.21,-0.38 10.42,-4.35 12.02,-7.14 -1.19,-1.18 -5.6,-1.18 -3.6,-4.37 1.19,-1.58 0.81,-0.38 1.6,-1.96 -1.6,0 -2.79,-0.4 -4,-1.2 1.19,-2.77 3.21,-2.77 5.59,-3.98 3.21,-1.58 4.02,-1.98 8.01,-1.58 2.81,0.39 9.23,3.19 11.61,1.18 0.4,-0.79 1.62,-1.59 2,-2.38 2.81,-0.39 3.61,0.38 6.02,-0.8 0,-1.98 -2,-3.17 -4.01,-3.57 -3.61,-1.18 -4.41,0.8 -7.22,0.4 -2.4,-5.18 -2.79,-2.39 -6.81,-3.19 -1.19,-1.18 -1.6,-4.36 0,-5.55 1.6,-1.18 3.21,-1.18 4.41,-3.57 -2.41,-3.98 -4.81,1.98 -8,1.6 -0.4,-2.78 1.6,-0.39 0.79,-4.37 -3.6,-0.8 -6.4,0 -10.42,-3.57 -1.19,-1.59 -1.19,-1.98 -0.38,-3.57 2.4,-0.39 10.41,0 13.61,0 -0.38,-1.19 -1.19,-1.59 -1.98,-2.39 -1.21,-1.19 -1.61,-1.19 -3.21,-1.98 -1.62,-0.8 -5.61,-1.59 -6.02,-3.57 0.4,-4.78 9.23,-2.78 12.42,-1.98 1.99,0.8 4.4,1.18 6.82,1.98 5.2,1.18 8,-2.39 3.2,-4.78 -1.6,-0.78 -2,-0.78 -2.41,-2.76 4.02,-2.79 9.23,2.76 9.61,-3.18l-6.8 -2.39c-3.22,-0.8 -5.21,-0.39 -8.43,-0.8l0 -3.57c-0.8,-0.39 -5.2,-1.18 -4.4,-2.77 1.19,-1.98 6.02,-1.6 9.23,-1.98 2.39,0 8.41,0.79 10,0.38 2.4,-1.59 1.2,-5.94 -1.6,-5.94 -2,0.38 -2.81,1.18 -4.02,1.98 -2,0.79 -1.6,-1.2 -1.6,-2.39 -2,-1.59 -4.81,-1.19 -5.61,-3.19 0.4,-3.18 6.02,-2.77 9.23,-3.18l0.39 -1.98c-2.41,-1.18 -3.6,-1.18 -4.82,-2.77 0.4,-1.19 0.81,-0.8 1.21,-1.98 -1.21,-0.8 -2.42,-1.19 -3.21,-1.98 0.79,-2.39 2.79,-3.57 4.81,-3.98 1.99,0 5.59,0 6.81,-1.18 -0.81,-1.19 -1.6,-1.19 -2.41,-2.38 0,-3.2 1.19,-0.81 2,-3.98 -0.81,-1.18 -4.02,-2.78 -4.02,-3.98 0.81,-1.18 0.81,-0.8 2,-1.98 4.82,-3.98 -0.39,-3.98 0.4,-11.12 0.4,-1.19 0.8,-2.78 1.99,-3.56 1.21,-0.8 3.22,-0.4 4.42,0.39 2.39,1.18 2.79,3.98 3.2,7.14 0.8,3.17 2.42,5.55 2.8,8.33 0.81,4.78 -0.8,2.78 3.61,6.76 2,1.98 3.6,3.57 6.01,4.76 7.2,3.57 14.02,0.8 14.43,7.14 -5.21,-0.38 -11.22,-1.59 -14.03,2.39 -0.38,1.19 0.4,1.98 0.81,3.19 0,0 0.4,0 0.4,0.38 0.79,2.39 10.01,3.57 12.82,4.78 0,4.37 -2.8,3.17 -6.41,2.76 -2.81,-0.37 -6.4,-1.58 -8.81,-0.37 0,1.98 1.6,3.17 3.21,3.96 3.21,2.39 8.42,1.98 12.02,1.19 2.8,-0.39 8.42,0.79 6.4,4.37 -0.79,0.79 -1.6,0.79 -2.79,1.18 -4.42,1.18 -1.61,0.79 -5.61,-0.39 -4.4,-1.18 -8.42,1.18 -12.02,1.98 0.81,1.59 1.6,2.39 3.2,3.57 4.83,2.78 6.02,-0.39 10.01,0.8 4.02,0.79 -1.19,3.98 8.82,3.18l2.81 -17.08c1.6,-17.46 -0.81,-35.72 -6.02,-51.99 -4.02,-12.31 -9.61,-23.42 -16.42,-32.95l-8.42 -11.11c-5.61,-5.96 -10.42,-10.32 -16.43,-15.49 -2.81,-2.77 -6.4,-5.16 -10,-7.55 -11.62,-7.54 -20.03,-11.49 -33.25,-16.27 -29.24,-9.92 -63.7,-7.14 -91.35,4.78 -5.19,2.37 -8.42,4.36 -13.22,6.74 -6.4,3.57 -12.02,7.94 -17.61,12.3 -5.61,4.37 -10.42,9.15 -14.82,14.31l-7.63 9.52c-3.2,4.36 -6,8.73 -8.8,13.89 -18.83,34.93 -21.23,75.02 -6.41,112.34 1.2,2.37 2,4.36 3.22,6.74 0.79,1.59 3.21,5.16 3.21,6.76l0 0 0 0 0 0 0 0 0 0 0 0 0 0 -0.03 -0.08 0 0 0 0z"/>
  <path class="fil2 str1" d="M64.01 63.33l32.37 0 0 8.86 -22.72 0 0 43.78 -9.67 0 0 -52.62 0 0 0 0 0 0 0.02 -0.02 0 0zm37.43 0l35.74 0 0 8.86 -26.06 0 0 12.2 13.04 0c3.37,0 6.3,0.42 8.84,1.69 2.08,0.85 4.2,2.53 5.87,5.05 1.68,2.53 2.53,5.9 2.53,9.27 0,3.37 -0.85,6.74 -2.53,9.25 -1.69,2.54 -3.37,4.22 -5.87,5.07 -2.11,0.84 -5.07,1.25 -8.84,1.25l-22.72 0 0 -52.62 0 0 0 0 0 0 0 0 0 0 0 -0.02 0 0 0 0zm9.66 43.81l9.26 0c3.37,0 5.47,0 6.3,-0.42 1.25,-0.42 2.53,-0.85 3.37,-2.1 0.85,-1.26 1.27,-2.54 1.27,-4.22 0,-2.54 -0.85,-4.22 -2.11,-5.47 -1.68,-0.85 -4.63,-1.7 -8.4,-1.7l-9.69 0 0 13.91 0 0 0 0 0 0 0 0 0 0zm36.17 -17.28c0,-5.05 0.85,-9.69 2.11,-13.47 1.25,-2.54 2.53,-5.07 4.63,-7.17 1.68,-2.09 3.77,-3.79 5.87,-4.62 2.94,-1.27 6.72,-2.1 10.51,-2.1 7.15,0 12.62,2.53 16.81,7.15 4.22,5.07 6.32,11.37 6.32,20.21 0,8.42 -2.1,15.17 -6.32,19.79 -4.2,5.07 -9.67,7.58 -16.81,7.58 -7.15,0 -12.62,-2.52 -16.81,-7.16 -4.22,-5.05 -6.32,-11.79 -6.32,-20.21l0 0 0 0 0 0 0 0 0 0 0 0 0.01 0 0 0zm10.11 0c0,5.89 1.25,10.52 3.37,13.47 2.51,2.95 5.87,4.64 9.67,4.64 3.78,0 7.15,-1.69 9.69,-4.64 2.1,-2.93 3.36,-7.57 3.36,-13.89 0,-5.88 -0.85,-10.5 -3.36,-13.47 -2.54,-2.93 -5.47,-4.22 -9.69,-4.22 -3.79,0 -7.16,1.27 -9.67,4.22 -2.54,2.95 -3.37,7.57 -3.37,13.89l0 0 0 0 0 0 0 0 0 0zm36.99 -26.53l10.94 0 11.35 27.38 9.24 -27.38 10.11 0 -15.98 40c-1.68,4.64 -3.78,7.59 -5.47,10.11 -1.68,2.1 -4.21,3.38 -7.15,3.38 -2.94,0 -5.05,-0.41 -6.72,-0.85l0 -7.57c1.68,0 2.93,0 3.78,0 2.09,0 3.79,-0.42 4.62,-1.25 1.26,-0.85 2.1,-2.95 2.94,-5.89l-17.66 -37.9 0 0 0 0 0 0 0 -0.03 0 0z"/>
  <path class="fil2 str1" d="M43.01 172.7l0 -45.76 8.43 0 0 17.93 16.46 0 0 -17.93 8.42 0 0 45.76 -8.42 0 0 -19.78 -16.46 0 0 19.78 -8.43 0zm42.08 -45.76l32.9 0 0 45.76 -8.41 0 0 -38.08 -16.1 0 0 38.08 -8.41 0 0 -45.76 0 0 0 0 0 0 0 0 0 0 0.02 0 0 0 0 0zm39.86 23.43c0,-4.77 0.73,-8.79 1.82,-12.09 1.1,-2.19 2.2,-4.4 4.03,-6.22 1.46,-1.83 3.29,-3.3 5.11,-4.02 2.56,-1.1 5.85,-1.84 9.13,-1.84 6.22,0 10.98,2.2 14.64,6.23 3.65,4.39 5.48,10.25 5.48,17.58 0,7.32 -1.83,13.18 -5.48,17.21 -3.67,4.39 -8.43,6.58 -14.64,6.58 -6.22,0 -10.96,-2.2 -14.62,-6.22 -3.66,-4.4 -5.48,-9.87 -5.48,-17.21l0 0 0 0 0 0 0 0 0 0 0 0 0.01 0 0 0zm8.78 -0.36c0,5.12 1.09,9.15 3.29,11.71 1.83,2.57 4.76,4.03 8.05,4.03 3.28,0 6.21,-1.46 8.41,-4.03 2.2,-2.55 2.93,-6.58 2.93,-12.08 0,-5.12 -0.73,-9.15 -2.93,-11.71 -2.2,-2.57 -4.76,-3.67 -8.41,-3.67 -3.29,0 -6.22,1.09 -8.43,3.67 -2.2,2.55 -2.93,6.58 -2.93,12.08l0 0 0 0 0 0 0 0 0 0 0.02 0 0 0zm54.12 22.69l0 -45.76 13.55 0c5.1,0 8.41,0.36 9.86,0.73 2.2,0.73 4.39,2.2 5.85,4.4 1.82,2.56 2.55,5.49 2.55,9.15 0,2.55 -0.35,5.12 -1.47,6.96 -0.72,1.83 -2.19,3.67 -3.27,4.39 -1.47,1.1 -2.95,1.83 -4.41,2.21 -2.19,0.73 -5.11,0.73 -8.78,0.73l-5.48 0 0 17.22 -8.42 0 0 0 0 0 0 0 0 0 0 0 0.02 -0.03 0 0zm8.41 -38.07l0 13.19 4.76 0c3.29,0 5.48,-0.37 6.57,-0.73 1.1,-0.36 1.83,-1.1 2.57,-2.2 0.35,-1.11 0.73,-2.21 0.73,-3.67 0,-1.47 -0.37,-2.94 -1.09,-4.03 -1.09,-1.09 -2.21,-1.83 -3.67,-2.19 -0.73,0 -2.93,-0.37 -5.85,-0.37l-4.02 0 0 0 0 0 0 0 0 0 0 0 0 0 0 0zm30.36 -7.69l8.41 0 0 19.4c1.83,0 3.29,-0.74 3.67,-1.47 0.74,-0.73 1.83,-3.29 3.29,-6.96 1.47,-5.12 3.29,-8.06 5.11,-9.52 1.83,-1.09 4.4,-1.83 8.42,-1.83 0.36,0 0.74,0 1.09,0l0 6.96 -1.09 0c-1.83,0 -2.93,0.36 -3.67,0.74 -0.72,0.36 -1.46,1.09 -2.19,2.2 -0.36,0.73 -1.09,2.93 -1.82,5.85 -0.74,1.46 -1.09,2.94 -1.83,4.03 -0.73,1.09 -1.47,1.83 -3.29,2.93 2.2,0.74 3.66,1.83 4.75,3.67 1.1,1.82 2.57,4.03 4.03,7.32l5.49 12.45 -9.87 0 -4.75 -11.71c0,0 -0.37,-0.37 -0.37,-1.1 -0.36,0 -0.74,-0.73 -1.09,-1.83 -1.1,-2.55 -2.2,-3.67 -2.56,-4.4 -0.73,-0.73 -1.82,-0.73 -3.28,-0.73l0 19.77 -8.43 0 0 -45.76 0 0 0 0 0 0 0 0 0 0 0 0 0 0 -0.02 -0.01 0 0 0 0z"/>
  <path class="fil2 str1" d="M73.98 183.92l13.49 0 27.78 46.64 0 -46.64 13.51 0 0 70.37 -14.74 0 -26.97 -44.99 0 44.99 -13.08 0 0 -70.37 0 0 0 0 0 0 0.01 0zm59.28 32.32c0,-6.14 1.64,-10.63 5.32,-14.31 3.68,-3.7 8.17,-5.34 13.48,-5.34 5.73,0 10.22,2.05 13.49,5.73 3.68,3.68 5.72,8.6 5.72,14.32 0,3.68 -0.82,6.54 -2.46,9.42 -1.22,2.87 -3.27,5.32 -6.13,6.97 -2.46,2.03 -6.14,2.85 -10.21,2.85 -6.14,0 -10.63,-1.64 -14.31,-5.72 -3.28,-3.68 -4.91,-8.61 -4.91,-13.92l0 0 0 0 0 0 0 0 0 0 0 0 0 0 0.01 0 0 0 0 0zm13.07 1.21c0,3.29 0.4,5.34 1.21,6.97 1.24,1.64 2.47,2.05 4.51,2.05 2.04,0 3.68,-0.83 4.49,-2.87 1.22,-1.64 1.64,-4.49 1.64,-8.17 0,-3.29 -0.39,-5.74 -1.22,-7.38 -1.22,-1.63 -2.46,-2.04 -4.49,-2.04 -2.04,0 -3.68,0.83 -4.51,2.87 -1.21,1.64 -1.63,4.91 -1.63,8.6l0 0 0 0 0 0 0 0 0 0 0 0 0 0 0 -0.03 0 0 0 0zm-11.45 23.34l34.35 0 0 10.65 -34.35 0 0 -10.65zm89.93 -39.69l-13.08 1.64c-0.4,-2.86 -1.21,-4.91 -2.46,-6.15 -1.22,-1.21 -3.27,-2.04 -5.32,-2.04 -2.85,0 -5.31,1.23 -6.95,4.1 -2.03,2.46 -3.27,7.78 -3.67,15.97 3.28,-4.1 7.35,-6.15 12.26,-6.15 5.72,0 10.63,2.47 14.31,6.55 4.1,4.51 6.13,9.82 6.13,16.78 0,7.36 -2.03,13.09 -6.13,17.6 -4.49,4.1 -9.8,6.55 -16.34,6.55 -6.95,0 -13.09,-2.87 -17.58,-8.61 -4.49,-5.31 -6.54,-14.73 -6.54,-27.42 0,-12.68 2.05,-22.09 6.96,-27.82 4.91,-5.72 11.02,-8.6 18.39,-8.6 5.32,0 9.81,1.22 13.49,4.51 3.28,2.85 5.72,7.35 6.54,13.09l0 0 0 0 0 0 0 0 0 0 0 0 0 0 -0.01 0zm-30.65 29.46c0,4.5 1.22,7.78 3.28,10.22 2.04,2.46 4.1,3.68 6.95,3.68 2.46,0 4.5,-0.81 6.14,-2.86 1.64,-2.04 2.45,-5.31 2.45,-9.82 0,-4.5 -0.81,-7.78 -2.86,-10.23 -1.63,-2.02 -3.67,-2.85 -6.53,-2.85 -2.46,0 -4.91,0.83 -6.53,2.85 -1.64,2.05 -2.87,5.34 -2.87,9.01l0 0 0 0 0 0 0 0 0 0 0 0 0 0 -0.03 0 0 0 0 0z"/>
 </g>
</svg>
