<?xml version="1.0" encoding="UTF-8"?>
<!DOCTYPE svg PUBLIC "-//W3C//DTD SVG 1.1//EN" "http://www.w3.org/Graphics/SVG/1.1/DTD/svg11.dtd">
<!-- Creator: CorelDRAW 2017 -->
<svg xmlns="http://www.w3.org/2000/svg" xml:space="preserve" width="300px" height="300px" version="1.1" style="shape-rendering:geometricPrecision; text-rendering:geometricPrecision; image-rendering:optimizeQuality; fill-rule:evenodd; clip-rule:evenodd"
viewBox="0 0 300 300"
 xmlns:xlink="http://www.w3.org/1999/xlink">
 <defs>
  <style type="text/css">
   <![CDATA[
    .str0 {stroke:white;stroke-width:10;stroke-miterlimit:22.9256}
    .fil1 {fill:none}
    .fil0 {fill:#345989}
    .fil2 {fill:white}
   ]]>
  </style>
 </defs>
 <g id="Слой_x0020_1">
  <metadata id="CorelCorpID_0Corel-Layer"/>
  <circle class="fil0 str0" cx="150" cy="150" r="135"/>
  <path class="fil1" d="M-2.26 512c66.12,0 47.69,-1.06 100.82,-36.62l0 -26.91 -158.25 0 0 26.91"/>
  <g id="_1354607250464">
   <path class="fil2" d="M196.13 174.85c4.09,0 3.67,0 7.76,0 -0.4,0 0,0 -1.64,0.4 -1.22,0 -4.49,0 -5.3,0 -0.41,-0.4 -0.41,0 -0.41,-0.4l-0.4 0 0 0 0 0 0 0 0 0 0 0 -0.01 0zm-2.46 -0.81c0.82,0 0.82,0.4 1.22,0.4 0.4,0 0.4,0 0.82,0l0.4 0.4c0,0 0,0 0,0 -0.82,0 -1.63,0 -2.45,-0.82l0 0 0 0 0 0 0.01 0.02zm17.17 -2.84c0,0.4 -0.82,0.82 -1.22,1.22 -1.64,1.21 -4.09,2.02 -6.13,2.43 0.4,0 0.4,0 0.82,-0.4l3.27 -1.21c1.22,-0.81 2.45,-1.21 3.27,-2.02l0 0 0 0 0 0 -0.01 -0.02 0 0zm-23.29 -0.81c0.81,0.4 2.03,1.63 2.85,2.03 1.22,0.81 2.46,1.21 3.27,1.62 -1.21,0 -4.49,-2.02 -5.71,-3.25 -0.4,0 -0.4,0 -0.4,-0.4l0 0 0 0 0 0 0 0 -0.01 0 0 0zm23.29 0.81c0.4,0 0,0 0.4,-0.39 0.4,-0.4 2.03,-1.63 2.85,-2.44l2.46 -3.65c-0.41,0.81 -1.64,3.25 -2.46,3.65 -0.82,1.21 -1.64,2.44 -3.27,2.83l0 0 0 0 0 0 0 0 0.02 0zm6.52 -12.17c-1.22,4.88 -2.03,6.9 -4.91,10.55 -1.63,1.62 -4.9,3.25 -6.94,4.06 -2.85,0.81 -5.31,0.81 -8.16,0.81 -4.49,-0.39 -6.13,-2.43 -8.99,-4.06 -0.81,-0.4 -1.63,-1.62 -2.03,-2.02 -2.46,-2.84 -5.31,-8.92 -4.09,-13.8 0.82,-4.06 1.63,-6.49 4.09,-8.92 0.82,-0.82 1.63,-1.63 2.45,-2.44 3.68,-4.06 13.89,-5.28 19.6,-1.63 1.22,0.82 2.86,2.03 3.67,2.84 2.46,2.44 2.86,2.44 4.5,6.9 0.81,2.02 1.21,5.67 0.81,7.71l0 0 0 0 0 0 0 0 0 0zm-0.81 5.67c0,-0.39 0.4,-1.62 0.4,-2.43 0.4,-0.82 0.4,-1.63 0.81,-2.44 0.4,-1.63 0,-4.06 0,-6.09 -0.81,-4.06 -2.45,-6.08 -4.09,-8.52 1.22,0.81 2.46,2.83 2.86,3.65 0.82,1.62 1.22,3.25 1.22,5.27 0.82,3.65 0,8.92 -1.64,10.55l0 0 0 0 0 0 0.4 0 0.04 0.01 0 0zm-57.98 -21.9l-1.64 -4.07c1.22,0.4 0.82,0.4 2.45,0.4 1.22,-0.4 2.04,0 3.28,0l0 1.21c-1.22,0.81 -2.46,1.63 -4.09,2.44l0 0 0 0 0 0 0 0 0 0.02zm-69.42 -4.47c0.4,-0.81 0.4,-0.81 1.22,-1.21 -0.4,0.4 0,0.4 -0.4,0.4l-0.82 0.81 0 0 0 0 0 0 0 0zm4.89 -4.04l-0.4 0.4c0,0.39 -0.4,0.39 -0.4,0.39 0,-0.39 -0.4,0 0.4,-0.39 0,0 0.4,-0.4 0.4,-0.4l0 0 0 0 0 0 0 0zm75.54 29.6c0,-2.44 2.86,-7.71 4.09,-9.73 2.46,-5.28 6.95,-12.58 11.84,-15.83 0.4,-0.81 1.22,-1.21 1.64,-1.62 0.81,-0.4 1.63,-0.81 2.45,-1.21 0.82,-0.81 3.27,-2.03 4.49,-2.03 -0.82,0 -5.31,2.84 -6.53,3.65 -0.81,0.4 -1.63,1.21 -2.03,1.63 -1.22,0.81 -2.46,2.44 -3.28,3.65 -1.21,1.62 -2.03,2.83 -2.45,4.46 -3.27,7.3 -2.45,17.45 -7.34,17.84 -0.82,0 -2.46,0.4 -2.86,-0.81l0 0 0 0 0 0 0 0 0 0 0 0 0 0 -0.02 0 0 0zm-75.54 -29.6c0.41,-0.4 0.41,-0.4 1.22,-0.82 2.46,-1.21 1.22,-1.21 3.68,-2.02 0,0.81 -0.41,0.4 -1.22,0.81l-3.68 2.03 0 0 0 0 0 0 0 0zm98.42 -6.5c-0.82,0 -0.41,0 -0.41,0 0,-0.4 0,-0.82 0.41,-0.82 0.81,0.4 0.4,0.4 0.81,0.82 -0.4,0 0,0 -0.81,0l0 0zm-0.42 -1.61c0.82,0 0.82,0 1.63,0.4 -2.03,0 -1.21,0 -2.45,0.81 0.4,-0.81 0.4,-0.81 0.82,-1.21l0 0 0 0 0 0zm-31.84 -0.42c0.4,-0.81 -0.4,-0.4 0,-2.43 2.46,0.39 1.64,0 1.64,2.43 1.22,0.4 1.22,0.4 0.82,2.03 3.67,0 3.67,-0.4 3.67,3.25l22.87 0c0,-0.4 0.4,-0.82 0.4,-1.21 0.4,-2.03 0.4,-1.63 4.09,-1.63l0 -1.21c0,2.02 0.4,1.21 0.82,2.02 0,0.82 0,2.03 0,2.84 2.45,-0.4 5.71,-1.63 7.34,-0.81 -0.4,0.4 -0.82,0.4 -1.63,0.4 -9.4,2.02 -14.71,4.87 -20.82,12.17 -3.27,4.46 -5.71,9.73 -8.16,14.61 -1.22,2.02 -2.04,4.06 -2.04,6.48 3.27,0.82 4.49,0.82 6.13,-1.62 3.27,-3.65 0.81,-19.07 14.29,-26.77 1.21,-0.81 2.03,-0.81 2.85,-1.62 0.82,-0.4 2.04,-0.82 2.86,-1.22 1.63,-0.39 4.9,-1.62 6.52,-2.02 -0.82,1.63 -4.9,2.44 -7.34,3.25 0,0.81 0,1.63 0,2.44 -0.4,1.62 -0.82,2.02 0.4,2.02l2.04 -0.4c5.71,-1.21 13.89,1.63 16.74,6.09 -0.82,0 -0.4,0.4 -0.82,0 -1.22,-1.21 -1.22,-2.02 -4.91,-4.06 -2.45,-1.21 -4.49,-1.63 -7.34,-1.63 -2.45,-0.4 -5.71,0.4 -7.76,1.21 -3.28,1.21 -3.28,1.63 -5.71,3.65 -3.68,3.25 -5.71,8.53 -5.31,13.39 0,3.65 1.63,8.52 3.67,10.54 0.4,0.4 0.4,0.82 0.82,1.21 0.82,0.82 0.82,0.4 1.22,1.22 -3.68,-2.03 -5.31,-7.71 -6.13,-11.76l-3.27 0c-0.4,1.62 -0.4,2.02 -1.22,3.25 -0.82,2.02 -2.45,3.65 -4.91,3.65 -1.22,0 -2.85,0 -3.67,-0.4l0 -2.03c-1.64,-0.81 -1.22,-0.39 -2.45,-2.02l-0.4 -0.4 -4.91 0.4c-0.4,0.4 -0.82,0.81 -1.64,0.81 -2.85,0 -3.27,-0.4 -7.76,-0.4l-0.4 1.22c-0.82,0 -2.86,0.39 -4.09,0.39 -2.04,0 -2.04,-0.81 -2.86,-2.02l-14.7 -0.81c-0.4,0.81 -1.64,6.48 -6.53,10.13 -0.4,0.4 -0.4,0.81 -1.22,1.21 -5.31,4.46 -15.51,5.28 -21.24,1.63 -1.21,-0.4 -1.63,-0.81 -2.85,-1.63 -1.22,-1.21 -3.67,-3.65 -4.49,-4.87 -2.04,-2.84 -2.86,-6.9 -2.86,-10.95l-2.03 -0.4 0 2.84c-0.82,0 -1.22,0.81 -2.04,0 -0.82,0 -1.22,-1.21 -1.64,-1.63 -0.81,1.21 -0.4,3.25 -2.45,2.84 -0.4,-0.81 -0.4,-0.4 -0.82,-0.81 0,-1.63 0.82,-6.09 1.64,-7.3 1.22,-4.88 2.45,-6.9 4.91,-10.55 0.81,-0.81 0,-0.4 0.81,-1.21 0,-0.4 0.41,0 1.22,-0.81l2.04 -2.03c0.4,-0.39 0.4,0 0.4,-0.39l0.4 -0.4c0,-0.4 1.22,-0.82 1.64,-0.82 0.4,-0.39 0.82,-0.81 1.63,-0.81 0.82,-0.81 1.64,-1.21 2.86,-1.62 1.63,-1.21 0.82,-0.81 1.22,-1.21 0,0 1.22,-0.4 1.63,-0.82 0.82,-0.39 2.46,-0.39 3.68,-0.81 2.85,-0.4 5.3,0 8.58,0 2.03,0.4 4.91,1.63 6.94,2.03 -0.82,-3.65 -1.63,-6.9 -2.45,-10.14 -0.4,-1.21 -1.22,-4.06 -1.22,-5.27 0,-2.03 0.82,-3.65 2.85,-3.65 0.4,0.4 0.4,0.4 0.82,0.81 0.82,0.4 2.04,0.4 2.86,1.21 1.22,0.82 1.63,2.84 2.03,4.07 0.82,3.24 -0.4,2.83 2.86,2.83 3.67,0 6.94,0.4 9.8,2.44 3.27,2.02 1.63,8.92 2.45,14.61l2.46 0.81c0.4,-0.81 6.12,-12.98 6.12,-13.8 0,0 -2.45,-6.08 -3.27,-6.89 -3.27,-1.63 -6.13,1.62 -7.35,1.21 2.04,-1.63 8.58,-3.65 10.62,-4.46 -0.4,-1.22 -0.82,-1.22 0,-2.44 0.82,0.4 1.22,0.81 1.22,1.62 1.64,-0.4 1.64,-0.81 2.46,-0.4 -0.41,0.82 -2.04,0.82 -3.28,1.22 -3.67,1.21 -1.63,4.06 -1.22,5.67 0.41,0.81 0.82,2.02 1.22,2.83 0.82,-0.4 0.4,-0.81 1.22,-0.81l-0.82 1.63c0.41,0.81 0.82,2.02 1.22,2.43 0.82,-1.21 0.82,-2.02 1.64,-2.43 0,1.62 -0.82,2.02 -1.22,3.64l0.4 0.4c0.82,-0.81 0.4,-0.4 0.82,-1.21 0,0 0.4,-0.4 0.82,-0.81 0.4,-0.4 2.03,-0.81 1.63,0.81 -0.81,0 0,0 -0.81,-0.4 -0.82,0.4 -1.22,1.21 -1.64,1.63 -0.82,1.62 0,1.62 2.04,6.08 0.81,2.44 2.45,5.68 3.27,8.11 1.63,-0.39 4.09,-2.02 4.91,-2.83l0 -1.63c-2.04,0 -3.28,0 -5.31,0 -1.22,-1.21 -0.82,-2.43 -0.82,-4.06 0,-1.62 -0.4,-3.25 0,-4.46l2.04 -0.4 0 -3.65c0.4,-0.4 0.4,-0.4 1.22,-0.4l0 0 0 0 0 0 0 0 0 0 0 0 0 0 0.04 -0.03zm-40.43 4.88l0.4 0.81 -0.4 -0.4c-4.91,-0.4 -5.71,-2.83 -15.51,-1.21 -0.82,0 -0.82,-0.4 -1.64,0 -0.4,0 -0.4,0 -0.81,0 -0.82,0.4 -0.4,0.4 -0.82,0.4 -0.82,0.81 -2.46,0.81 -3.27,1.21 -1.22,0.4 -0.82,0.4 -2.86,1.63 -1.22,0.39 -0.4,0.39 -1.22,1.21l-1.22 0.81c-1.22,1.21 -2.85,1.21 -3.67,2.83 -0.4,0.82 -0.4,0.82 -0.82,1.63 -0.82,0.81 0,0 -0.82,1.21 0,0.4 -0.4,0.81 -0.81,1.21 -0.4,0.82 -1.22,1.63 -1.64,2.84 -0.82,2.02 -2.04,4.06 -2.45,6.48 -0.4,1.22 -2.04,6.09 -1.64,7.3l1.22 1.21c1.22,0.82 1.64,-0.4 2.04,-1.21l0.81 -1.21c0,0.81 1.22,2.02 2.46,1.63 1.64,-0.82 1.22,-1.63 1.22,-3.25l0.82 0.39c0.81,4.07 0.4,3.65 2.03,7.72 1.22,3.25 1.64,3.25 3.68,5.67 2.85,3.65 7.76,5.67 12.25,6.48 5.71,0.4 11.02,-1.21 14.71,-4.06 0.81,-0.4 1.63,-1.21 2.45,-2.02 0.82,-0.82 1.22,-1.63 2.04,-2.84 1.22,-2.02 2.45,-4.06 2.85,-6.48l14.29 0.81c1.22,0.4 0,2.83 6.53,1.62 0.82,0 1.22,0 1.64,-1.21 2.45,-0.4 5.3,0.4 7.76,0.4 1.22,-0.4 0.82,-0.81 2.45,-1.21 1.22,0 2.04,0 3.27,0 0.82,0.4 1.22,1.63 2.04,2.02 0.82,0.82 0.82,0.82 0.82,2.03 0.82,0.81 2.04,0.81 3.27,0.81 2.86,0 4.49,-1.21 6.13,-3.25 0.4,-1.21 0.81,-2.44 0.81,-3.65l2.86 0c0.4,1.63 0.4,4.06 1.64,5.67 2.03,4.46 3.27,5.28 6.52,7.71 4.49,3.65 12.26,4.07 17.15,2.03 1.22,-0.4 2.04,-0.81 2.85,-1.21 1.22,-0.82 2.86,-2.03 4.09,-2.84 0.4,-0.4 0.4,-0.81 0.82,-1.21 0.4,-0.4 0.4,-0.4 0.82,-0.81 2.04,-3.25 3.67,-6.49 3.67,-10.95 0,-4.46 -1.63,-8.92 -3.67,-11.36 -0.82,-1.21 -2.04,-2.84 -3.27,-3.65 -2.86,-2.44 -6.53,-3.65 -10.62,-4.06 -2.04,-0.4 -4.49,0.4 -6.53,0.4l0.4 -3.65c1.64,-0.4 2.86,-0.81 4.49,-1.21 0.82,-0.4 2.04,-1.21 2.86,-1.63l0.4 -1.21c0,0 0,0 0,0 -1.22,-0.4 -0.82,-1.21 -3.67,-0.4 -1.22,0.4 -2.46,0.82 -4.09,0.82 0,-1.22 0,-2.03 -0.4,-2.84 -0.82,-1.21 0,-2.84 -2.04,-2.84 -0.82,0 -1.22,0.4 -1.22,0.82 -0.82,1.21 0.4,1.21 -1.22,1.62 -0.4,0.81 -0.82,1.63 -1.22,2.44l-22.05 0c0,-2.03 0,-1.63 -0.4,-3.25l-2.86 0 -0.4 -1.63 -0.82 0c0,-2.43 0.41,-2.83 -2.03,-2.83 -0.4,1.21 -0.4,1.21 -0.4,2.43 -1.64,0.82 -1.22,0 -1.22,4.07l-2.04 0.4c-0.4,1.62 0.4,6.89 0,8.52l-3.67 -8.11c0.4,-0.81 0.81,-1.63 1.22,-2.44 0.81,0.4 0.4,0.4 1.22,0.4l0.4 -0.81c-0.4,-2.03 -1.64,-0.81 -2.86,-0.4 0.4,-0.81 1.22,-2.02 0.4,-2.44 -0.4,0 0,-0.4 -0.82,0 0,0 0,0.4 -0.4,0.4 0,0.4 -0.4,0.81 -0.81,1.21 -1.22,-1.21 -0.41,-1.62 0,-3.25 -0.82,0 -0.82,0 -1.64,0.4 -1.22,-4.06 -4.49,-6.09 1.22,-7.3 0.82,-0.4 3.27,-1.21 2.45,-2.02 -0.4,-0.4 -0.82,-0.4 -1.22,0 -0.4,0 -0.4,0 -1.22,0 -0.4,-0.4 -0.4,-0.81 -1.63,-1.21 -1.22,0.81 -1.22,1.21 -0.82,2.44 -1.22,0.39 -4.09,1.62 -5.31,2.02 -0.82,0.4 -2.04,0.81 -2.85,1.21 -0.82,0.4 -2.04,0.81 -2.04,1.63 0.4,0.39 0,0.39 0.82,0.39 0,0 0.4,0 0.82,0 2.03,-0.81 5.3,-2.83 6.52,-0.39 3.27,7.29 2.86,4.06 -0.4,12.57 -0.4,1.21 -2.45,5.67 -3.27,6.48 -0.82,-0.4 -1.22,-0.4 -1.64,-0.81 -0.4,-2.44 -0.4,-5.27 -0.4,-7.71 0,-2.03 0,-4.88 -1.63,-6.49 -2.86,-2.83 -8.98,-2.83 -12.66,-2.83 -0.81,-3.25 -1.22,-6.49 -4.49,-7.71 -0.82,-0.4 -1.22,-0.82 -1.63,-0.82 -1.64,-0.81 -2.86,0.4 -3.28,1.63 -1.63,2.83 2.86,12.57 2.86,16.22l0 0 0 0 0 0 0 0 0 0 0 0 0 0 -0.03 0.03 0 0z"/>
   <path class="fil2" d="M225.12 189.05c1.22,0.4 0.82,0.4 1.22,0.81 -0.81,0.4 -0.81,0 -1.22,-0.81zm2.86 -2.04l-1.64 -0.4c0.82,-0.4 1.22,-0.4 1.64,0.4zm-7.35 0c-0.81,0 -1.21,0 -2.03,-0.4 -1.22,0 -1.22,0 -2.04,-0.81 0.4,0 0,0 0.4,0 0.4,-0.4 0.4,-0.4 0.82,-0.4 0.4,0.4 0.4,0.4 0.82,0.81 0.82,0 1.63,0.4 2.03,0.82l0 0 0 -0.02 0 0zm-2.45 -4.46c1.22,0 1.22,0.4 2.04,0.81 0.4,0.4 1.22,0.81 1.22,1.21l-2.86 -1.21c-0.4,-0.4 -0.4,-0.4 -0.4,-0.81l0 0 0 0 0 0 0 0zm0.82 -2.84c0.4,0.4 0.4,0.81 0.82,1.21l3.67 2.44c2.04,1.63 2.45,2.44 5.31,1.21l-0.4 1.63c-0.82,-0.4 -0.4,-0.82 -1.64,-0.4 -0.82,0.4 -1.22,0.4 -2.04,0.4 0.4,0.81 1.64,1.21 2.86,1.21l-0.4 2.02c-0.82,-0.4 -1.22,-1.21 -2.86,-1.21 0.4,1.63 1.22,2.03 2.04,2.44l-0.4 1.62c-0.82,-0.81 -0.82,-2.02 -1.22,-2.43 -0.4,-0.4 -8.58,-1.63 -8.98,-1.63 0,-0.4 0.4,-1.21 0.4,-1.62 0.4,0 0.4,0 0.82,0.39 0.81,0.4 5.71,1.22 6.53,0.82 -0.82,-0.4 0,-0.4 -2.86,-1.63 -1.22,-0.4 -2.45,-1.21 -3.67,-1.21 0.4,-0.81 0.4,-1.21 0.81,-1.62 1.22,1.21 0.82,0.81 2.86,1.62 1.22,0.4 2.04,0.81 3.67,0.81 -0.81,-0.81 -2.03,-1.62 -2.85,-2.02 -0.4,-0.81 -0.82,-0.81 -1.22,-1.21 -0.82,-0.81 -0.82,-0.81 -2.04,-0.81l0.82 -2.03 0 0 0 0 0 0 0 0 0 0 0 0 0 0 -0.03 0 0 0zm1.63 -6.08c-0.81,0 -0.81,0 -1.63,-0.82 2.45,0 2.04,0 2.45,0.4 0.82,0.81 8.98,4.88 9.4,4.88l-0.4 0.81c-1.64,0.81 -8.58,-1.21 -11.02,0 -0.82,-0.81 -1.22,-0.81 -1.64,-1.21l1.22 0c0.82,0 1.64,-2.84 1.64,-4.06l0 0 0 0 0 0 0 0 0 0 -0.02 0 0 0zm0.41 -2.43c0.4,-0.39 0.4,-1.21 0.81,-2.02 0,-0.4 0,-0.81 0,-1.21l0.4 -1.21c1.22,0.81 9.8,2.83 10.62,2.44l-0.82 4.06 -2.45 0.4c0,-0.4 0,-0.4 0.82,-0.82 0,0 0.4,0 0.4,-0.39 1.22,-0.4 2.45,-1.63 -0.4,-2.03 -1.22,-0.4 -1.64,-0.4 -2.45,0 0.4,0.4 0.4,0.82 0.81,1.21 -0.81,0.4 -1.63,0.4 -2.85,0.4 0.82,-0.81 1.22,0 2.04,-1.62 -0.82,-0.82 -0.41,-0.82 -1.22,-0.82 -0.82,-0.39 -3.68,-1.21 -4.5,-0.39 0,0.39 0,0.39 0,1.21 0,0.4 1.22,1.62 1.22,2.02l-2.45 -1.21 0 0 0 0 0 0 0 0 0 0 0 0 0 0 0.02 -0.02 0 0zm1.63 -7.71c0.4,0 0.82,0 1.64,0 2.85,0 4.9,0 5.71,-1.21 -2.46,0 -4.91,-1.62 -6.95,-1.21l0 -1.21c0.4,0 0.4,0.4 1.22,0.4 2.86,0.81 6.53,1.62 9.4,2.83 0,1.22 -0.4,0.82 -2.04,1.22 -1.22,0 -2.03,0 -3.27,0 -1.63,0.39 -4.09,0.39 -5.71,0.81l0 -1.63 0 0 0 0 0 0 0 0 0 0 0 0zm0.4 -7.3c2.46,0.4 4.09,-0.81 6.95,-0.81 0,-1.21 0,-0.81 -1.22,-0.81 -1.64,-0.4 -4.49,-1.21 -5.31,-0.81l0 -1.21c2.04,0.81 9.4,1.62 10.62,2.43 0.4,0.82 0.4,0.82 -0.82,0.82l-10.2 2.43 0 -2.02 0 0 0 0 0 0 0 0 0 0 0 0 -0.02 -0.02 0 0zm6.55 27.98c-3.28,0 -1.64,2.03 -5.71,-0.81 -0.4,-0.81 -3.68,-3.25 -4.09,-3.65l0.4 -0.81 11.02 1.21c0,-2.84 2.03,-1.21 -4.49,-4.46 -0.82,-0.81 -1.64,-1.21 -2.46,-1.63 -0.82,0 -0.82,-0.39 -1.63,-0.39 -0.82,-0.4 -0.41,-0.4 -0.82,-1.21 1.22,0.39 1.22,0.81 2.45,0.81l0 -1.21c-0.4,-0.82 -1.63,-1.21 -1.63,-2.44 1.21,0 1.63,0 2.45,0.4 1.22,0 1.64,0 2.04,0.4 -1.22,0.81 -2.04,0.81 -1.64,2.43 1.64,0 4.91,0 3.67,-2.02 0.4,0 0.82,0 1.22,0 0.82,0.4 0.82,0 1.22,0.4 -0.4,0.81 -0.4,0.81 -1.22,0.81 -0.4,0.4 -0.82,0.4 -1.63,0.81l0.4 1.21c0.82,0.4 2.45,0 3.27,0 0.4,-0.81 1.22,-4.46 1.22,-5.27l-0.4 -0.4c-2.04,0.4 -2.86,0 -5.71,-0.81 -1.64,-0.4 -4.09,-0.4 -5.31,-1.21 1.22,-1.21 7.76,-1.21 10.2,-1.63 2.04,0 2.04,0 2.04,-2.43l-10.2 -2.44c-0.82,-0.4 -0.41,-0.4 -1.22,-0.81 1.22,-0.82 6.94,-1.63 8.98,-2.03 1.63,-0.4 2.45,-0.4 2.85,-1.21 0,-1.62 -0.4,-1.62 -2.03,-2.02l-6.53 -1.21c-1.22,0 -2.86,-0.82 -3.27,-0.82 -0.4,0 -0.4,0 -0.4,0 0,0.4 -0.41,1.63 0.4,2.84 1.63,0 0,-0.4 3.27,0l1.22 0.4c-0.4,0.4 -1.22,0.4 -2.04,0.81 -2.04,0 -1.22,0 -2.45,-0.4 -1.22,1.63 -0.4,1.21 -0.82,4.88 0,0.4 0,1.62 0.4,1.62 1.22,-0.4 0.4,-0.81 2.45,0 0.82,0 1.64,0.4 2.46,0.82 -4.09,0.39 -4.91,0 -5.31,0 -0.4,1.21 -0.4,2.43 -0.4,3.25 -0.82,0.81 -0.4,1.21 -0.82,2.83 -0.4,3.25 -1.22,2.03 0,3.25 0.4,0 0.4,0.4 0.4,0.4 -1.63,0 -2.04,0 -3.27,0 0,1.21 0,0.81 0.82,1.21 0.4,0.4 0.82,0.4 0.82,0.4l-0.82 2.84c-1.22,0 -0.82,-0.4 -2.04,0.39 0,0.82 0.82,1.22 1.64,2.03 -0.41,0.4 -1.22,2.02 -0.82,3.25 -1.22,0 -1.64,2.44 -1.22,3.25 -0.82,0 -0.82,0.4 -1.22,1.21 -0.4,0.81 -0.4,1.21 -0.4,2.02 1.22,0 1.22,-0.39 2.45,0 0.82,0 1.22,0.4 2.04,0.4 5.31,0.82 4.49,0.4 5.31,2.03 1.22,2.43 2.04,0.81 2.45,-0.4 0,-1.21 0.82,-2.44 1.22,-3.25 0,-0.82 0,-0.4 0.4,-1.21 0.82,-1.22 0.82,-1.22 0.82,-2.44l0 0 0 0 0 0 0 0 0 0 0 0 0 0 0.02 0.01 0 0z"/>
   <path class="fil2" d="M196.54 167.95c0.41,-1.21 1.22,-3.25 2.04,-4.06l0 4.46c-0.82,0 -1.63,0 -2.04,-0.4l0 0 0 0 0 0zm4.9 0.4l0 -5.67 1.63 2.44c0.4,0.81 1.22,1.21 1.64,2.43 0,0 0,0 0,0l-1.22 0.4c-0.82,0.4 -1.22,0.4 -2.04,0.4l0 0 0 0 0 0 -0.01 0zm2.85 -2.83l0.4 0.81c0,0 0,-0.4 0,0l-0.4 -0.81 0 0 0 0 0 0zm1.64 0.41l0 -0.4c-0.4,0 0,0 -0.4,-0.4 0,0 0.4,0 0.4,0 0,0.4 0,0.4 0,0.4 0,0.4 0,0 0,0.4l0 0 0 0 0 0zm-0.82 -1.62l0.4 0.81c-0.4,-0.81 0,-0.81 -0.4,-0.81zm-7.76 -1.23l-1.64 3.65c-0.4,0.81 -0.4,0.81 -0.82,0.81 0,-0.4 1.22,-2.44 1.64,-3.25 0,-0.4 0,-0.4 0.4,-0.81l0 0c0,-0.4 0,-0.4 0.4,-0.4l0 0 0 0 0 0 0.02 0zm6.94 0c0,0 0,0 0,0l0.82 0.81c-0.4,-0.4 -0.4,-0.4 -0.82,-0.81zm4.09 0c-0.4,0 -0.82,-0.4 -1.22,-0.81l1.22 0.81zm-4.09 0l-0.4 -1.21c0,0 0,0 0,0 0,0.4 0.4,0 0.4,1.21l0 0 0 0zm2.05 -1.21l0 0zm-2.05 3.65c-0.4,0 -0.4,0 -0.4,-0.4l-2.45 -3.25c1.22,0.4 1.22,0.81 1.63,1.62 0.4,0.82 0.82,1.21 1.22,2.03l0 0 0 0 0 0zm-10.62 1.21c-0.81,-0.4 -2.03,-1.21 -2.45,-2.03 0.4,0 0.82,-0.39 1.22,-0.81 1.22,-0.81 2.45,-2.44 4.09,-2.83l-2.86 5.67 0 0 0 0 0 0 0 0zm11.44 -5.67l0.4 0.39c0,0 0,0 0,0l-0.4 -0.39c-0.4,0 0,0 0,0l0 0 0 0 0 0 0 0zm-1.22 0c1.64,0.39 3.27,2.02 4.91,2.83 -0.4,0.81 -0.82,1.63 -1.64,2.03 -0.82,-0.4 -2.85,-4.07 -3.27,-4.88l0 0 0 0.02 0 0zm-0.82 -0.4l0.4 0.81c0,0 0,0 0,0 0,0 -0.81,0 -0.4,-1.63l0.82 0.4c-0.4,0 -0.4,0 -0.82,0.4l0 0 0 0 0 0 0 0 0 0 0 0 0 0 0 0.02 0 0zm-13.89 1.21c-0.4,-0.81 -0.82,-2.03 -1.22,-3.25 2.86,0 3.68,-0.4 6.53,0 0,0 0,0 0,0 -0.4,0 -4.91,3.25 -5.31,3.25l0 0 0 0 0 0 0 0 0 0zm-0.82 -6.49c-0.4,-0.81 0,-1.62 0.41,-2.43 0,-0.4 0,-0.4 0.4,-0.4l0 -0.4c0.82,0.4 2.04,1.21 2.85,1.62 1.64,0.82 2.46,0.82 2.46,2.03l-6.13 -0.4 0 0 0 0 0 0 0 0 0 0 0 0 0.01 -0.02 0 0zm5.73 -1.22l0 0zm-0.82 -0.4c-0.81,-0.4 -0.81,-0.4 -1.22,-0.81 1.22,0.39 0.82,0.39 1.22,0.81zm4.08 9.32c0,-0.81 0.4,-1.21 0.4,-2.02 0,-0.4 -0.82,-1.22 -0.82,-1.22 -1.64,-0.81 -5.71,3.65 -6.13,3.65 -1.22,0.4 -0.4,0.4 -0.81,0 -0.41,-0.4 0.4,-0.4 1.22,-1.21 0.81,-0.4 1.21,-0.81 2.03,-1.21 0.82,-0.4 2.04,-1.62 2.86,-2.02 0,-2.03 -1.22,-2.03 -3.68,-2.03 -0.81,0 -1.21,0.4 -2.03,0.4 -2.04,0 -2.04,0 -2.46,-0.4 0.82,-0.4 2.86,0 3.68,0 1.21,0 2.85,0 4.09,0 0.4,-2.02 0,-2.43 -2.46,-3.65 -0.4,-0.39 -1.22,-0.81 -1.63,-1.21 -2.04,-0.81 -1.64,-0.4 -1.64,-1.21 1.64,0.81 4.49,3.25 6.94,3.25 2.04,-2.44 -1.63,-4.46 -2.03,-7.71l0.4 -0.4c0.4,0.81 1.22,2.84 1.63,3.65 0.41,1.63 0.82,3.25 2.04,3.25 1.64,-1.21 1.22,-5.27 1.22,-7.3 0.4,0 0,-0.81 0.4,0.4 0,0.81 -1.22,5.28 0.82,6.09 1.64,-0.4 2.85,-4.88 3.67,-5.67 0.4,0.39 0,0 0.4,0.39 -0.81,1.22 -2.85,4.47 -2.85,6.09 0.82,2.84 4.91,-1.21 6.53,-2.02l-0.4 0.4c-0.4,0.39 -0.4,0.39 -0.82,0.81 -0.4,0.4 -0.82,0.4 -1.22,0.81 -0.82,0.81 -1.64,1.21 -2.46,2.03 0,2.02 0.82,1.62 2.86,1.62 1.22,0 3.67,0 4.49,0.4 -1.64,1.21 -7.35,-0.4 -7.76,1.21l0 0.81c1.63,1.21 4.09,2.44 6.12,4.06 -1.21,0 -5.3,-3.24 -6.94,-3.64 -0.82,1.21 -0.82,1.21 0,2.43l2.86 4.88c-0.41,0 -0.41,0 -0.82,-0.4l-1.22 -2.44c-0.82,-1.21 -1.22,-2.83 -2.86,-2.83 -0.4,0.39 -0.4,-0.4 -0.4,0.81 0,0 0,0.4 0,0.81l-0.4 6.09c-0.4,-0.4 -0.4,0.4 -0.4,-0.81 0,-0.82 0.4,-4.47 0,-5.68 0,-0.81 -0.82,-0.81 -1.64,-0.81 0,0.81 -0.4,1.21 -0.81,1.63l0 0 0 0 0 0 0 0 0 0 0 0 0 0 0.03 -0.08 0 0zm1.23 -10.55c-0.4,-0.4 -1.22,-2.84 -1.63,-3.65 -0.41,-0.81 -0.82,-2.44 -1.64,-3.25 -0.4,0 -0.4,0.4 -1.22,0.81 0.4,0.82 1.22,2.44 2.04,3.65 0.4,0.82 1.63,2.44 0.4,3.65 -2.04,-0.4 -4.91,-2.44 -6.95,-3.25l-0.4 0.81 2.04 1.22c0.4,0 0,0 0.4,0.39l-2.85 -1.21c-0.41,1.21 -1.22,2.44 -0.82,4.07l7.34 0.39 -0.4 -1.21c0.82,0.4 0.82,0.82 0.4,1.63l-7.76 0 0 1.21c2.46,0 4.09,-0.4 6.53,0 0,0 0.82,0 0.82,0 0.4,0 0,0 0.4,0 0.4,0.4 0.4,0.4 0.4,0.4 -1.22,0 -2.45,-0.4 -4.09,0 -1.22,0 -2.45,0 -4.09,0 0.4,0.81 0.4,1.62 0.82,2.44 0,1.21 0,1.21 0.82,2.02 2.03,-1.21 4.09,-3.25 6.53,-4.06 -0.41,0.4 0,0 -0.41,0.4 -1.22,1.21 -5.31,3.64 -5.71,4.06l0.4 1.21c2.46,-1.63 4.91,-4.06 6.53,-4.06l-6.12 4.46c0.4,0.81 2.45,2.44 3.27,2.83 0.82,-0.81 2.04,-4.06 2.45,-5.27 0.4,0 0.4,-0.4 0.82,-0.81 0,-0.4 0,-0.4 0.4,-0.82 0.82,2.03 -2.85,4.88 -2.85,7.3 0,0 0.4,0 0.81,0.4 0.41,-0.81 2.46,-6.09 3.68,-6.48 0,0.81 -0.41,0.81 -0.82,1.62 -0.82,1.63 -1.64,2.84 -2.45,4.88l3.27 0.81c0,-2.44 0,-4.06 0,-6.09 0,-0.4 0,-0.4 0,-0.4 0.4,-0.81 0,-0.39 0.4,-0.39 0.82,1.21 -0.4,4.87 0,6.08 0,0.81 -0.4,0.81 1.22,0.81l0.4 -7.71 0.4 0.4c-0.4,0.4 0,-0.4 -0.4,1.21l0 5.68c1.63,0.39 2.85,-0.82 4.49,-0.82l-0.82 -1.62c0.82,1.21 0.4,1.21 2.04,0.81l-0.82 -1.21 1.22 0.81c0.4,-0.4 0.82,-0.81 1.22,-1.21l0.82 -1.21c0.4,-0.4 0,0 0.4,-0.4l-1.22 -0.81c0.82,0 1.22,0.81 1.63,0.4 0.41,-0.82 0.41,-0.82 -0.4,-1.21l-2.85 -2.03c-0.4,0 -0.4,0 -0.4,-0.4l-0.82 -0.4c-0.82,0 -0.82,-0.39 -1.22,-0.81l0.4 -0.81 7.35 0 0 -1.21c-2.04,-0.4 -6.13,0 -7.35,-0.81l0 -0.82c1.64,-1.21 3.67,-2.83 5.31,-4.46l-0.4 -0.4c-0.82,0.4 -4.91,3.65 -5.71,3.25 -0.82,0 -0.4,0 -0.4,-0.39l-0.4 -0.4c0,-0.82 2.45,-4.88 2.85,-5.68 0,0 0,-0.4 -0.4,-0.4l-0.4 -0.39c-1.64,1.21 -2.04,4.06 -3.67,5.67 -1.22,-1.21 -0.41,-4.88 -0.41,-6.9 -1.63,0 -1.21,0 -1.21,0.81 -0.41,1.63 0.4,5.28 -0.82,6.9l-0.4 0 0 0 0 0 0 0 0 0 0 0 0 0 0 0 0.01 -0.03 0 0z"/>
   <path class="fil2" d="M107.12 163.49c0.81,0.4 0.4,0 0.4,0.4 -0.82,0 0,0 -0.4,-0.4zm8.16 -0.41c0.82,-2.02 1.22,-1.21 1.22,-1.21l-0.4 0.81c-0.41,0 -0.41,0 -0.82,0.4l0 0 0 0 0 0zm-16.33 -2.42c-0.4,0.4 -1.63,1.62 -2.04,0.4l2.04 -0.4zm-0.42 1.21c1.22,-1.21 1.64,-1.21 2.86,-1.63 -0.4,0.4 -1.64,1.21 -2.86,1.63zm-2.03 -8.92c2.03,0.39 2.45,-0.82 4.49,0.81l0 2.02 -4.91 -0.4 0.4 -2.43 0 0 0 0 0 0 0 0 0.02 0 0 0zm4.91 0.39c2.85,0.82 2.45,2.84 0.4,2.44 -0.4,0.81 -4.91,0.81 -5.71,0l5.31 0c0,-0.81 0,-1.62 -0.41,-2.44l0.41 0 0 0 0 0 0 0zm0 -2.02l-0.41 -0.4c0.82,0.4 0.41,0.4 0.41,0.4zm-1.64 -1.21c0.4,0.4 0,0 0.4,0.4l-0.4 -0.4c0,0 0,0 0,0l0 0 0 0 0 0zm3.67 1.21c-1.22,0 -2.85,-1.21 -3.67,-1.63l0.82 0 2.45 0 0.4 -0.39 0.4 1.21 -0.4 0.81 0 0 0 0 0 0 0 0 0 0zm2.45 -2.84c-0.4,0 -0.4,0 -0.4,-0.4 -0.4,-0.39 -0.4,-0.39 -0.4,-0.81 0.4,0.81 0.4,0.4 0.82,1.21l0 0 0 0 -0.02 0zm-1.23 -2.02l0.4 0.4c0,0 0,0.4 0,0.4l-0.4 -0.82 0 0 0 0 0 0 0 0 0 0 0 0.02zm0 0l-0.4 -0.81c0,0.4 0,0.4 0,0.4 0.4,0.39 0,0 0.4,0.39l0 0 0 0 0 0 0 0.02zm-1.22 -1.63l0.4 0.82c0,-0.4 0,0 0,0 0,-0.4 0,0 0,-0.4 -0.4,-0.4 0,0.4 -0.4,-0.4l0 0 0 0 0 0 0 0 0 0 0 0 0 -0.02zm-0.4 -0.41c0.4,0 0.4,0 0.4,0.4 0.4,0 0,-0.4 0,0 0,0 0,0 0,0 -0.4,-0.81 0,0.4 -0.4,-0.4l0 0 0 0zm9.38 6.09c0.82,-1.21 1.64,-3.25 2.86,-4.88 0.4,-0.81 0.4,-1.21 1.22,-1.21 -2.04,3.65 -1.64,2.84 -2.46,4.06 -0.4,0.4 -0.4,0.82 -0.81,1.21 0.4,0.82 0.81,1.22 0.81,1.63 0.4,0.81 0.82,0.4 1.22,1.21 2.04,-0.4 4.09,-3.25 6.13,-2.84 0,0.82 -0.4,0.4 -2.45,1.63 -0.82,0.81 -2.04,1.63 -3.28,2.02 0.41,1.22 0,1.63 1.22,2.84l4.91 0c0.82,0 1.22,0 1.22,0.81 -1.22,0 -2.45,0 -3.67,0 -0.82,0 -2.04,-0.4 -2.86,-0.4 -0.4,0.4 -0.82,1.63 -0.82,2.44 1.22,1.63 4.49,2.44 5.31,3.65 -1.63,0 -4.49,-2.84 -5.71,-2.02 -0.82,0.4 -1.22,0.81 -1.63,1.62 0,1.21 2.45,4.88 2.03,5.67 -0.4,0 0,0 -0.4,-0.4 -0.82,-0.39 -0.4,-2.02 -2.45,-4.06l-2.86 0 -0.4 4.88c0,1.62 0,0.81 -0.4,1.21 0,-0.4 0,0 -0.4,-0.81l0.4 -5.28c-0.4,-0.4 -1.63,-0.81 -2.85,-0.81 -0.41,0.81 -0.82,2.02 -1.64,2.84 0,0.4 -0.4,0.81 -0.4,1.21 -0.82,1.21 -0.82,1.21 -1.22,0.81 -0.4,-0.4 1.22,-2.44 1.64,-3.65 0.4,-1.21 1.63,-2.44 0.4,-3.65 -1.22,-0.81 -1.64,0 -3.27,1.21 -0.82,0.4 -2.86,1.63 -3.68,1.63l-0.4 -0.4 3.27 -1.62c0.82,-0.4 2.86,-1.22 2.86,-2.44 0.4,-2.84 -6.53,-1.21 -7.76,-1.63 0,-0.4 -0.41,-0.81 2.03,-0.4 1.22,0.4 0.82,0 2.04,0 1.64,0 4.09,0 3.67,-2.02 -0.4,-0.81 -0.82,-1.21 -1.63,-1.21 -1.22,-0.4 -0.82,-0.4 -1.64,-1.21l-2.45 -1.63c-0.82,-0.4 -0.4,0 -0.82,-0.81 1.22,-0.4 4.49,3.25 5.71,3.25 1.22,-0.4 1.64,-1.21 2.45,-2.02 -0.4,-0.82 -2.03,-3.65 -2.45,-4.47 -0.4,-0.39 -0.4,-0.81 -0.4,-0.81 -0.82,-1.21 -0.4,-0.81 -0.4,-0.81 0.81,-0.4 0.81,0 1.22,0.81l1.63 2.84c0.4,0.81 0.82,0.81 1.22,1.21l2.04 0c0.4,0 0.4,0 0.4,-0.4l0.4 -6.48c1.22,-0.4 0.82,0 0.82,2.02 -0.4,6.09 -0.82,5.27 2.45,5.67l0 0 0 0 0 0 0 0 0 0 0.03 -0.01 0 0zm-8.58 -6.49c1.22,-0.4 2.46,-1.21 4.09,-1.21l-0.4 5.27 -1.64 0c-0.4,-1.62 -2.03,-2.83 -2.03,-4.06l0 0 0 0 0 0 0 0 0 0 -0.02 0 0 0zm-0.8 0.4c-0.4,-0.81 -1.22,-0.4 -1.63,0.4l3.27 6.09c0,0.39 -0.82,1.21 -1.22,1.62 -0.82,-0.4 -1.64,-0.81 -2.04,-1.21 1.64,0.4 2.04,1.21 2.85,-0.81 -0.81,-2.03 0,-1.63 -5.71,-1.21 0,0 0.41,0 0.82,0.39l0.41 0.4 -2.46 -1.21c0,0.81 0,0.81 -0.4,1.21 0.82,0.82 2.86,1.63 3.67,2.84 -2.04,-0.4 -2.04,-0.4 -4.49,-0.4 -0.4,1.63 -0.4,2.84 -0.4,4.88 2.04,0 5.71,-0.4 6.94,0.39l0.82 0.4 0 0.82c-0.82,1.21 -4.49,1.21 -6.94,1.62 0,1.21 0,1.21 1.22,1.63l-0.4 0.4c0.4,0.39 0.4,0.81 0.81,1.21 1.64,-0.4 4.49,-2.84 5.71,-3.65 2.04,0.81 1.22,2.02 0.4,3.65 -0.81,1.21 -1.21,2.43 -2.03,3.64l1.22 0.82c0.4,-0.4 2.85,-4.46 3.27,-5.28l0.82 0 -0.4 0.4c-0.41,0.4 -0.41,0.4 -0.41,0.81l1.22 0.4c0,-0.81 0,-1.21 0,-1.21 0.82,0 0.4,-0.4 0.82,0l-0.4 6.49 1.64 0 0.4 -6.09 2.45 0c0.82,0.4 1.22,2.02 1.64,3.65 0,0 0,0 0.4,0 0,0.4 0,0.4 0,0.4 0.4,0.4 0,0.4 0.4,0.81l1.22 -0.81c-0.4,-2.03 -2.04,-3.65 -2.04,-5.67 0.4,-0.82 0.4,-1.22 1.64,-1.22 0,0 0,0 0,0l-0.4 0.4c0,0 -0.41,0.4 -0.41,0.4 -0.4,0.4 -0.4,0.4 -0.81,0.81l0.81 0.82c0.82,-0.4 1.22,-0.82 2.04,-1.63l-0.82 -0.4 4.91 2.03 0.4 -1.21 -3.67 -2.03c-0.4,0 0,0 -0.4,-0.4 -0.82,-0.4 -0.4,0 -0.4,-0.4l-1.22 -0.39c0.4,-1.22 0.4,-1.22 0.81,-2.03 3.68,0.4 2.04,0.4 6.53,0.4l-0.4 -1.21c-4.49,-0.4 -6.53,0 -6.53,-1.62 0,-0.4 0,-0.82 0,-1.22 1.64,-0.81 4.09,-2.43 5.31,-3.25l-0.4 -1.21c-0.82,0 -2.45,0.81 -2.85,1.21 -1.22,0.82 -1.64,1.21 -2.86,2.03 -0.81,-0.82 -1.63,-1.21 -2.03,-2.44 1.22,-2.02 1.22,-1.63 2.03,-2.44 0.4,-0.81 0.82,-2.02 1.22,-2.83l-1.22 -0.4c-0.4,0.81 -1.22,2.02 -1.63,2.83 -0.82,0.82 -1.22,2.44 -2.04,3.25l-1.64 -0.4c-0.4,-1.21 0,-5.67 0,-7.71l-1.22 0 -0.81 7.3c-1.64,0 -2.04,0.4 -2.46,-0.81 0.4,0 1.64,0 2.04,0 0,-0.4 0.4,-5.67 0.4,-6.49 -2.85,0.4 -3.67,1.21 -5.31,1.63l0 0.81 0 0 0 0 0 0 0 0 0 0 0 0 0 0 -0.06 0 0 0z"/>
   <path class="fil2" d="M223.07 128.6l7.35 -0.4 0.82 1.63c-1.64,0 -9.8,2.83 -10.62,3.25l-0.82 -1.63c1.64,0 4.49,-1.21 6.13,-2.02l0.82 -0.4 -7.35 0.4 -0.4 -1.63c1.22,0.4 6.12,-1.62 8.16,-2.44 1.22,-0.39 1.64,0 2.46,-1.21l0.4 2.03c-1.22,0 -2.04,0.4 -3.27,0.81l-3.68 1.62 0 0 0 0 0 0 0 0 0 -0.01 0 0zm-2.85 -7.3c2.45,0.4 5.71,-0.4 7.76,-0.81l0.4 1.21c-1.63,0.4 -3.27,1.63 -4.91,2.44 -1.22,0.4 -4.49,1.62 -4.9,2.02l-0.82 -1.62c1.63,0 5.31,-2.03 6.12,-2.84 -1.21,0 -5.3,0.81 -6.94,1.21l-0.4 -1.62c1.63,0 5.71,-2.03 7.76,-2.84l2.46 -1.63 0.4 2.03c-1.64,0 -4.09,1.62 -6.95,2.44l0 0 0 0 0 0 0 0 0 0 0 0 0 0 0.02 0.01 0 0zm-2.04 -6.08c-0.4,0.39 -0.82,0.39 -1.22,1.21 -0.4,0.39 -0.82,0.39 -1.22,1.21l-1.22 0c0.4,-1.21 0.82,-1.21 1.64,-1.63 0.82,-0.4 1.22,-0.81 2.04,-0.81l0 0 0 0 0 0 0 0 0 0 0 0 -0.02 0.02 0 0zm0 0c0,-0.4 -0.82,0 0.4,-0.4l-0.4 0.4zm4.07 -2.43c0.82,-0.81 0.82,-0.81 2.04,-0.81l-0.4 0.81 -1.64 0 0 0 0 0 0 0 0 0zm-8.98 2.43c1.22,0 4.09,-2.03 5.31,-2.84 2.46,-1.21 2.46,-0.81 4.49,-2.84l0.82 2.03c-0.82,0 -2.45,0.4 -2.45,1.21 0.4,0.4 0.4,0.4 1.63,0.4 0.4,0.4 0.4,0.4 0.82,0l0.82 -0.4 0.4 1.21c-2.04,0 -2.45,-0.4 -3.27,0.4l-5.71 4.87c-0.4,0.4 0,0 -0.4,0.4l0 0.4c-0.4,-0.81 -0.82,-1.21 -0.82,-2.02 1.22,0 0.82,0 1.64,-0.82 0.4,-0.4 0.81,-0.4 1.21,-0.81l2.46 -2.02 0 -0.81c-1.22,0 -3.67,1.62 -4.49,2.02 -1.22,0.81 -0.82,0.4 -1.64,1.21 -0.4,-0.4 -0.4,-1.21 -0.82,-1.62l0 0 0 0 0 0 0 0 0 0 0 0 0 0 0 0.03 0 0zm17.16 9.73l-0.4 -1.21c-1.22,0 -1.22,0.4 -2.45,1.21 -1.22,0 -2.04,0.4 -2.86,0.81 -0.81,0.4 -4.49,2.03 -5.3,1.63 -0.41,-0.4 -0.41,-0.4 -0.41,-0.4 0.41,-0.81 3.68,-2.02 4.91,-2.44 2.86,-1.62 3.67,-2.44 5.31,-1.62 0,-1.21 -0.4,-2.03 -0.82,-2.84l-3.67 0.4c1.64,-1.63 2.45,-0.81 3.27,-1.63 0,-0.81 0,-0.81 -0.4,-1.62 -0.4,-0.4 -0.4,-0.81 -0.82,-1.21 -1.22,0.4 0.4,0.4 -2.45,1.62 -0.82,0.4 -1.64,0.82 -2.46,1.21 -0.81,0.4 -2.03,0.4 -2.85,1.22 -0.82,0.39 -1.64,0.81 -2.86,0.39 0.82,-1.62 1.64,-1.62 2.86,-3.25 1.22,-0.81 2.45,-1.62 3.27,-2.83 0.82,0 3.27,0.81 3.67,0 0,0 -0.4,-2.03 -1.63,-2.44 0.4,-0.81 0,-1.21 0,-1.63l-0.82 -1.21c0,0 -0.4,0 -0.4,0 0,0 0,0 0,0 -0.82,0 0,0 -2.04,1.21 -0.82,0.82 -1.63,1.22 -2.45,1.63 -1.64,0.81 -3.67,2.44 -5.71,2.44l-0.4 0.4c0.4,0.4 0.4,1.21 0.81,1.62 0.41,1.21 0.41,0.81 1.22,1.21 -0.81,0.81 0,1.63 0.82,2.84 0.82,1.21 0.4,2.84 1.22,2.84l4.09 -0.4c-1.22,0.81 -2.04,0.81 -3.27,1.21 -0.4,0.81 0,0.81 0,1.62 0.4,1.21 0.4,1.21 1.22,1.63 -0.4,0.81 0,1.62 0.4,2.83l3.67 -0.4c-0.82,0.82 -2.04,0.82 -3.27,0.82 0,1.21 0.4,2.44 0.82,3.25 0.82,0 0.82,-0.4 2.85,-1.21l5.71 -1.63c0.4,-0.4 2.46,-0.81 2.86,-0.81 0,-1.21 -0.4,-2.03 -0.82,-2.84l-3.27 0.4c2.45,-2.02 3.67,0.81 2.85,-2.83l0 0 0 0 0 0 0 0 0 0 0 0 0 0.01 0 0z"/>
   <path class="fil2" d="M193.67 91.7c0,-0.81 1.22,-2.44 2.04,-3.25 0.4,-0.82 0.4,-0.4 0.82,-0.82 0.4,0 0,0 0,0 0.4,0.82 -1.22,2.44 -1.64,3.26 -0.4,0.81 -0.4,0.39 -1.22,0.81l0 0 0 0 0 0 0 0 0 0zm4.09 -5.69c0,-0.4 1.64,-2.44 2.04,-2.84 0.4,0.82 -0.4,1.21 -0.82,1.63 -0.4,0.81 -0.4,1.21 -1.22,1.21l0 0 0 0 0 0 0 0 0 0 0 0zm0 0.81c1.22,-0.4 2.86,-2.02 2.86,-3.65 0.4,0.4 1.22,0.82 1.63,1.21 -1.22,0.82 -0.81,0.4 -2.03,2.03l-3.27 4.46c-0.41,1.21 -0.82,1.63 -1.64,2.44 -0.4,-0.4 -0.4,-0.4 -1.22,-0.81 0.82,-1.22 3.27,-3.26 3.27,-4.88 -1.22,-1.63 -2.03,0.4 -3.67,2.44 -0.4,0.81 -0.4,0.81 -0.82,1.21 -0.4,-0.4 -0.82,-0.4 -1.22,-0.81 1.22,-1.22 2.46,-2.84 3.27,-4.47l2.86 -3.64c0.4,-0.4 0.4,-0.82 0.4,-1.21 0.82,0.39 0.82,0.81 1.64,1.21l-0.82 0.4c0,0.39 0,0.39 -0.4,0.39 -0.82,1.63 -2.46,3.25 -0.82,3.65l0 0 0 0 0 0 0 0 0 0 0 0 0 0 -0.02 0.03 0 0zm-12.25 0c0.82,-0.81 0.4,-0.4 1.22,-1.21 0.4,-0.4 0.4,-0.81 0.82,-1.21 0.81,-0.4 1.22,-1.63 2.03,-2.02 0.82,-0.82 3.28,-3.65 3.68,-4.46l0.4 0.39c0.4,1.22 -3.27,9.34 -3.27,10.95 -0.82,0 -1.22,-0.4 -1.64,-0.81 1.22,-1.63 0.82,-1.63 -0.82,-2.84 -0.81,0.4 -0.81,0.4 -1.22,1.63l-1.21 -0.4 0 0 0 0 0 0 0 0 0.01 -0.02zm0.42 -10.94c0,-1.21 0,-1.21 0.4,-1.63 0,0 0.4,-0.4 0.4,0.4 0,0.4 -0.4,0.81 -0.82,1.21l0 0 0 0 0 0 0.02 0.02 0 0zm-6.95 7.29c0.82,-0.81 1.22,-1.21 2.04,-2.02 0.4,-0.81 1.22,-1.21 1.64,-2.02 0.81,-0.82 1.63,-4.46 1.21,-6.49l2.04 1.21c-0.4,0.82 -0.82,1.21 -0.82,2.84 1.22,0 0.82,0 1.64,-0.81 0,-0.4 0.4,-0.4 0.4,-0.4l0.4 -0.81 1.22 0.39c-0.82,0.82 -1.22,1.21 -2.04,2.03 -0.4,0.4 -1.63,1.62 -1.63,2.02 -0.82,0.81 -0.82,5.67 -0.82,6.9l-2.04 -1.21c0.82,-1.21 0.82,-1.21 0.82,-4.06 -1.22,0.4 -0.82,0.4 -1.64,1.21 -0.81,0.81 -0.81,0.81 -1.21,1.62l-1.22 -0.4 0 0 0 0 0 0 0 0 0 0 0 0 0 0 0.01 0 0 0zm-0.82 -0.81l0 0.81c0.82,0.82 1.64,1.21 2.86,1.21 0,-0.81 0.4,-1.62 1.22,-2.43 0,2.83 -1.64,2.83 0.82,4.06 0.81,0.4 0.81,0.4 2.03,0.4 0,0.81 0.41,0.81 1.22,1.21 1.64,0.81 1.22,-0.4 1.22,-1.21 0.4,0 0.82,0 1.22,0.4 0,1.21 0,0.4 -0.82,1.21 0,1.62 1.64,1.62 2.46,2.02 0.82,0 0.4,0.4 1.22,1.21 1.63,1.21 2.85,2.84 4.49,2.84 0,-1.63 2.03,-3.25 2.85,-5.28 0.82,-0.81 1.22,-1.21 1.64,-2.02 1.22,-1.21 0.82,-1.62 2.45,-2.02 -0.4,-1.21 -1.22,-1.63 -2.45,-2.44 -1.22,-0.81 -1.22,-2.02 -2.86,-1.62 -0.4,1.62 -3.67,5.67 -4.91,7.29 -0.4,0.81 -0.81,1.63 -2.03,2.03 0,-1.63 2.45,-8.11 3.27,-10.14 0.82,-2.44 -0.4,-2.83 -1.22,-2.83 -0.4,0.39 -1.22,1.62 -1.63,2.43 -0.41,0.4 -0.82,0.82 -1.22,1.22 -1.22,1.21 -3.68,4.87 -4.91,5.27 -0.4,-1.21 0,-5.67 0.4,-6.9l2.04 -2.02c1.63,-1.63 1.63,-1.21 2.03,-1.63 -0.4,-0.81 -2.03,-1.62 -2.85,-1.62 0,0 0,0 0,0 0,0 0,-0.4 -1.64,-1.21 -0.4,0 -0.81,-0.82 -1.63,-0.4 -0.4,0.81 0.4,4.87 -1.22,6.48 -0.4,0.81 -1.22,1.21 -1.64,2.03 -0.82,0.81 -1.22,1.62 -2.45,1.62l0 0 0 0 0 0 0 0 0 0 0 0 0 0 0.04 0.03 0 0z"/>
   <path class="fil2" d="M125.08 160.24c0,-0.81 0,-1.21 0.4,-1.62 0,0.81 0,1.21 -0.4,1.62zm-31.04 -3.23c-0.4,-4.46 1.22,-8.93 4.09,-11.36 4.49,-4.46 10.62,-6.49 17.15,-4.07 2.45,1.22 2.85,1.22 4.91,3.25 4.49,3.65 6.12,11.76 3.67,17.45 -1.64,3.25 -4.09,6.09 -7.35,7.71 -8.98,4.46 -21.23,-0.81 -22.45,-12.98l0 0 0 0 0 0 0 0 0 0 0 0 -0.02 0 0 0zm31.04 3.23c0,2.03 -1.22,4.46 -2.46,5.68l-1.22 1.62c-4.08,4.06 -10.2,5.67 -15.92,4.46 -4.09,-1.21 -6.95,-3.25 -9.4,-6.9 -3.67,-4.46 -4.09,-13.38 0,-18.26 2.86,-3.65 4.91,-5.67 9.4,-6.9 5.71,-1.21 10.62,0.4 15.11,4.07 0.81,0.4 0.4,0 0.81,0.81 1.64,2.02 2.86,3.25 4.1,6.48 0.4,1.63 1.21,5.68 0,7.3 0,-5.27 0,-7.71 -3.28,-12.57 -0.4,-0.4 -0.82,-0.4 -0.82,-0.81 -0.81,-0.81 -2.85,-2.03 -3.67,-2.84 -1.22,-0.81 -3.67,-1.62 -5.71,-2.02 -5.31,-0.4 -8.16,0.4 -12.25,2.83 -1.22,1.22 -2.86,2.84 -3.67,4.07 -2.86,4.46 -2.86,7.71 -2.04,12.57 0.82,3.65 2.45,5.67 4.49,7.71 2.04,2.02 4.91,3.25 7.76,4.06 4.49,1.21 9.8,-0.4 13.07,-3.25 2.86,-2.43 4.09,-3.65 5.31,-7.29 0,0 0.4,-0.4 0.4,-0.4 0,-0.4 0,-0.4 0,-0.4l0 0 0 0 0 0 0 0 0 0 0 0 0 0 -0.01 -0.02 0 0zm-16.33 -21.09c-3.27,0.39 -6.53,1.62 -9.4,3.25 -4.09,2.83 -6.94,8.11 -6.53,14.61 0.41,5.27 2.04,8.11 5.31,11.36 1.22,1.21 3.28,2.44 5.31,3.25 4.91,2.02 8.98,1.21 13.89,-0.81 3.27,-1.22 6.95,-5.28 8.17,-8.93 1.21,-4.87 1.63,-8.92 -0.82,-13.38 -0.82,-1.21 -2.86,-4.06 -3.68,-4.88 -1.63,-1.21 -3.67,-2.43 -5.31,-3.25 -1.63,-0.81 -4.9,-1.21 -6.94,-1.21l0 0 0 0 0 0 0 0 0 -0.01 0 0z"/>
   <path class="fil2" d="M99.77 96.56c0.4,1.62 -2.04,3.65 -2.86,4.06 -0.4,-1.63 -0.81,-1.63 -1.63,-2.44 -0.4,-0.4 -0.4,-0.81 -0.82,-1.21l-3.67 -4.06c-0.82,-0.4 -0.4,-0.4 -1.22,-0.81l1.22 -1.21c0.81,0.81 0.81,1.21 1.22,1.62 2.03,2.44 1.63,0.81 3.67,0.81 2.04,0 4.09,1.21 4.09,3.25l0 0 0 0 0 0 0 0 0 0 0 0 0 -0.01zm-4.49 -10.14c2.45,2.84 2.04,2.03 4.09,4.47l3.67 4.06 -1.22 1.21c-0.4,-0.81 -0.4,-1.63 -1.63,-2.44l-4.91 -5.27c-0.82,-0.82 -0.4,-0.4 -1.22,-0.82l1.22 -1.21 0 0 0 0 0 0 0 0 0 0 0 0zm2.04 -1.62c0.4,-0.4 1.21,-0.81 1.63,-1.21 0,1.62 0.4,1.62 1.64,3.25 0.4,0.81 0.82,1.62 2.03,2.02 0,-2.02 -2.03,-4.46 -2.45,-6.48 0.82,-0.4 0.82,-0.4 1.22,-0.82 0.4,0.82 0.4,0.82 0.82,1.63l2.45 3.25c0,0 3.27,4.46 3.27,4.06 0,0 0,0.4 0.4,0.4 -0.81,0.4 -1.21,0.81 -2.03,0.81 0,-1.21 -0.41,-1.62 -1.64,-3.25 -0.82,-1.21 -1.22,-1.21 -2.45,-2.02 0.4,1.62 2.45,5.27 2.85,6.48 -0.82,0.82 -0.82,0.82 -1.22,0.82 -0.4,-1.22 -0.82,-1.22 -1.63,-2.44l-4.91 -6.49 0 0 0 0 0 0 0 0 0 0 0.01 -0.01 0.01 0zm-0.41 -3.25c0.82,-1.21 0.41,0 2.46,-2.02l0 2.02c-1.22,0.4 -1.64,0.4 -2.46,1.21l0 -1.21 0 0 0 0 0 0zm-0.41 19.88c1.22,-0.4 2.85,-2.02 3.27,-2.83 1.22,-1.63 0.4,-2.84 0,-4.47 1.64,1.63 0.82,1.63 1.64,2.84 0.81,-0.4 1.63,-1.62 2.03,-2.02 0.82,-0.82 1.64,-0.82 2.04,-1.63 0,-1.21 -0.82,-2.83 -1.22,-4.06l1.22 1.21c0.4,0.81 0.4,1.21 0.4,2.03 1.22,0 1.22,-0.4 2.04,-0.82 0.4,-0.4 0.81,-0.4 0.81,-1.62 -1.21,-0.82 0,0.81 -2.03,-1.63 -0.4,-0.81 -0.82,-1.62 -1.64,-2.44l-2.45 -3.64c-0.4,-0.4 -0.4,-0.82 -0.4,-1.21 -1.64,-0.4 -0.82,0 -2.04,0.81 0,-1.63 0.4,-2.84 -1.22,-3.25 -0.82,2.02 -1.63,1.21 -2.85,2.83 0,1.22 0,2.03 1.22,2.03 0.81,-0.81 0,-0.81 2.45,-1.63 0,1.63 1.22,3.25 1.64,4.88 -0.41,-0.4 -0.82,-1.21 -1.22,-1.63 -0.82,-1.21 -0.4,-1.62 -1.22,-2.43 -0.82,0.39 -2.46,1.62 -2.46,2.43 0,0 0.82,0.4 0.82,0.81l2.46 3.25c0.81,0.82 3.27,3.65 3.27,4.88 -0.82,-0.4 -1.22,-1.62 -1.64,-2.02l-3.67 -4.07c-0.4,-0.4 -0.4,-0.4 -1.22,-0.81 -0.4,-0.4 -0.4,-0.81 -0.4,-1.62 -1.22,0 -2.04,1.21 -2.86,2.02 0.82,1.21 0.82,0.4 1.64,1.62 0.82,0.4 1.22,0.82 1.63,1.63 0.82,0.81 2.46,2.02 2.86,3.25 -1.64,-0.81 -2.46,-2.44 -5.71,-0.81 -1.64,-0.81 -1.64,-2.84 -2.86,-3.25 -0.81,0.81 -2.03,1.21 -2.03,2.44 0.81,0.81 0.81,0 4.49,4.06 0.82,1.21 2.85,2.83 3.27,4.87l0 0 0 0 0 0 0 0 0 0 0 0 0 0 -0.06 0 0 0z"/>
   <path class="fil2" d="M215.73 111.17c0,0.4 -2.46,2.44 -4.09,1.21 -1.64,-1.21 -0.4,-3.25 0.81,-4.46 1.22,-0.82 2.46,-2.03 4.1,-2.44 1.21,-0.4 3.27,-1.21 4.49,0l0.4 1.62 -2.04 1.63c0,-1.21 1.22,-0.81 1.22,-2.84 -2.46,0 -5.71,2.44 -6.95,3.25 -3.67,2.84 -1.63,3.65 0.41,2.44l1.63 -0.4 0 0 0 0 0 0 0 0 0 0 0 0 0 0 0.02 -0.01 0 0zm-9.4 -6.5c0.4,0 0,0 0.4,0 1.64,-0.82 2.85,-2.03 4.09,-3.25 1.22,-0.82 3.67,-2.84 4.49,-3.65l2.45 3.25c-0.81,0.81 -0.81,1.62 -1.63,2.02 0,-0.81 0.4,-1.21 0.4,-1.62 0.4,-2.44 -1.22,-2.03 -2.45,-0.82 0,0 -0.41,0.4 -0.41,0.4 -0.81,0.82 -0.4,0 -0.81,1.21 0.4,0 0.81,0.4 1.22,0.4 0,0.82 -0.82,2.03 -1.22,2.44 0,-1.62 0.4,-1.62 -0.41,-2.44 -1.21,0 -3.67,2.03 -4.49,2.84 0,1.62 0.82,1.62 3.28,1.62 -0.82,0.82 -1.22,0.82 -2.46,1.22l-2.45 -3.65 0 0 0 0 0 0 0 0 0 0 0 0 0 0 0 0.03 0 0zm-0.8 -0.4c0.81,2.02 2.45,2.44 2.85,4.87 1.22,0 2.04,-0.81 3.27,-1.21 -0.4,0.4 -0.81,1.21 -1.22,1.63 0,1.21 -0.4,2.02 0.41,2.83 0,0.4 1.21,1.22 1.63,1.22 1.64,0 3.67,-1.22 4.09,-2.44l-0.4 -0.81c-1.64,-0.4 -2.04,1.21 -3.67,1.21 0,-0.82 0,-0.82 0.4,-1.21 0.4,0 0.81,-0.4 0.81,-0.4 1.64,-1.21 4.5,-3.25 6.13,-3.65 -0.4,1.62 -1.63,2.02 -0.82,3.25 0.82,0 3.28,-2.03 3.28,-2.84 -0.41,-0.81 -0.82,-1.62 -1.22,-1.62 -0.82,-0.82 -1.22,-0.82 -2.46,-0.82 -2.03,0 -5.31,2.03 -6.53,3.25 0,-0.39 0,0 0,-0.39 0,0 0,-0.4 0,-0.4 -1.21,0 -2.45,0 -3.27,-0.4 0,-0.81 0.41,-0.81 1.64,-2.03 0.4,-0.39 0.82,-0.81 2.04,-1.21l-0.41 2.84 1.22 0c0.4,-1.21 1.64,-2.44 1.64,-3.65l-1.22 -0.4 0.4 -0.4c0,0 0,0 0,0 0.82,-0.81 0.82,-0.81 1.64,-1.21 0.4,1.21 0,2.03 -0.4,2.84l0.81 0.81c0.82,-0.81 1.64,-1.21 2.46,-2.84 -0.82,-0.81 -0.82,-1.21 -1.64,-2.02 -0.82,-1.21 -1.22,-2.02 -2.03,-2.02 -0.41,0.4 -0.41,0.4 -0.82,1.21 -0.4,0.4 -0.82,0.4 -1.22,0.81l-5.71 4.88c-0.4,0 -0.4,0 -0.82,0 -0.4,0 -0.4,0.4 -0.82,0.4l0 0 0 0 0 0 0 0 0 0 0 0 0 0 -0.04 -0.08 0 0z"/>
   <path class="fil2" d="M82.21 158.22c0,-3.25 3.27,-12.99 5.71,-15.82 2.45,-2.84 4.9,-5.28 7.76,-7.3 1.64,-0.81 2.85,-1.21 4.09,-2.02 4.91,-3.25 9.4,-2.84 15.11,-1.63 4.49,0.81 8.16,3.25 11.83,6.09 2.46,2.02 5.31,6.08 6.95,8.52 0.4,0.81 0.4,1.63 0.82,2.02 -0.4,0 -4.5,-5.67 -4.91,-6.48 -0.4,-0.81 -0.82,-1.21 -1.22,-1.63 -0.82,-0.81 -0.82,-1.21 -1.64,-1.62 -5.31,-4.06 -5.31,-4.06 -11.83,-6.09 -4.09,-1.62 -10.62,-0.81 -15.11,1.21 -1.22,0.82 -2.45,1.63 -3.67,2.44 -1.64,1.21 -2.86,2.02 -4.09,3.25 -2.04,3.25 -5.31,6.09 -6.95,10.14 -0.4,1.62 -0.82,2.43 -1.22,4.46 -0.4,2.02 -1.22,3.25 -1.63,4.46l0 0 0 0 0 0 0 0 0 0 0 0zm-0.4 0.81c0,0 0.4,0 0.4,0 2.03,-1.21 1.22,-6.9 5.31,-13.38 0.4,-0.82 0.81,-0.82 1.22,-1.63 0.4,-0.4 0.81,-1.21 1.21,-1.62l2.86 -3.65c1.22,-0.82 5.71,-4.06 6.94,-4.88 4.09,-2.02 11.02,-2.83 15.11,-1.62 6.13,2.44 6.13,2.44 11.44,6.48 2.45,1.63 7.34,9.74 8.16,10.14l0.82 -0.4c-0.82,-2.03 -3.67,-6.49 -4.91,-7.71 -2.04,-2.03 -2.04,-2.84 -4.49,-4.46 -0.82,-0.82 -1.22,-1.22 -2.04,-1.63 -6.94,-4.06 -16.74,-6.9 -24.09,-2.02 -2.03,1.62 -4.9,2.02 -8.58,5.67 -0.4,0.4 -0.81,0.81 -2.45,2.44l-1.22 1.62c-0.4,0.4 -1.22,1.21 -1.64,2.03 -0.4,1.21 -1.22,2.43 -1.63,4.46 -1.64,4.46 -2.04,5.67 -2.45,10.13l0 0 0 0 0 0 0 0 0 0 0 0 0 0 0.03 0.03 0 0z"/>
   <path class="fil2" d="M125.08 69.38l0.82 -0.4 5.3 10.13 -1.63 0.81c0,-1.21 -0.82,-2.43 -1.22,-3.25 0,-0.81 -0.4,-1.21 -0.82,-1.62 -0.4,-0.81 0,-1.21 -1.22,-1.21 0,1.62 0.4,5.67 1.22,6.48l-1.22 0.4c0,-3.65 -1.22,-7.71 -1.22,-11.36l0 0 0 0 0 0 0 0 0 0 -0.01 0.02 0 0zm5.72 -1.61c1.22,-0.4 3.28,-1.22 4.09,-0.82l1.22 2.03c-1.22,0 -1.63,-1.21 -2.45,-1.63 -1.22,0 -1.22,1.63 -0.82,2.84 0.4,2.02 1.22,1.21 1.64,0.81 0.81,0.4 1.63,1.63 1.63,2.02 -2.03,-0.81 -0.4,-1.21 -2.45,-0.39 0,1.62 0.4,3.64 0.82,5.27 1.22,0 1.22,0 2.03,-0.81 0,-0.4 0,-0.4 0.4,-0.82 0.41,-0.81 0,-0.39 0.41,-0.81l0 2.84c-1.64,0 -2.86,0.4 -4.5,0.4 0.41,-1.21 -1.21,-9.34 -2.03,-10.95l0 0 0 0 0 0 0 0 0 0 0.01 0.02 0 0zm-0.82 -0.82c0.41,2.03 0.41,0.4 0.82,2.84l1.22 6.09c0.4,0.81 0.4,1.62 0.4,2.43 -0.4,1.22 0,0.4 -0.4,0.82l-5.71 -10.55c-2.85,0 -1.63,1.21 -1.22,6.9 0.41,0.81 0.41,2.02 0.41,2.83 0.4,1.63 0,2.03 0,3.25 1.21,0 1.63,-0.4 2.45,-0.4 0.4,-1.62 -0.4,-0.81 -0.4,-2.43 0,-1.21 -0.4,-2.03 -0.4,-3.25 0.4,0.81 0.81,1.62 1.21,2.44 1.22,2.43 0.41,0.81 0.82,2.43 0.4,0.4 2.86,0 2.86,-1.21 1.63,0.81 1.63,0 4.91,0l0.81 -0.4c0.4,-1.21 0.4,-3.25 0,-4.06 -2.03,0 -0.81,2.02 -2.85,2.44 -0.4,-0.4 -0.82,-3.25 -0.82,-4.06 0.82,0 2.86,1.62 2.86,0 0,-0.4 0,0 -0.41,-0.4l-1.63 -2.44 -0.82 0 -0.4 0.81c-0.4,-1.21 -0.4,-1.62 -0.4,-2.83 0.82,0.39 0.82,0.39 1.63,0.81 0.4,0.4 0.82,0.81 1.22,1.21l0.4 -0.4c0,-1.21 -0.81,-2.84 -1.63,-3.65 -1.22,0 -3.27,0.81 -4.91,0.81l0 0 0 0 0 0 0 0 0 0 0 0 0 0 -0.02 -0.03 0 0z"/>
   <path class="fil2" d="M77.32 146.86c-1.22,0 -1.64,-0.4 -2.46,0.4l0.4 2.02c0.4,0 0.82,0 1.64,0l0 1.21c-0.4,0 0,0 -1.22,-0.4 -2.45,-0.81 -7.35,-1.62 -9.8,-2.43 0.4,-1.22 0.82,-0.82 2.45,-1.22 1.22,0 2.04,-0.39 2.86,-0.39 1.63,0 5.31,-0.82 6.13,-0.82l0 1.63 0 0 0 0 0 0 0 0 0 0zm-4.5 -6.9c1.22,0 4.09,0 4.91,0.81 -0.82,0.4 -2.85,0 -4.09,-0.4 -0.82,0 -0.4,0 -0.82,-0.4l0 0 0 0 0 0 0 -0.01zm-5.31 -0.81c0.41,-0.4 3.28,-0.4 3.68,0.81 -0.82,0 -3.27,-0.4 -3.68,-0.81zm-0.41 -0.82l0.4 -1.62c1.22,0.4 9.8,1.62 11.02,1.62l-0.4 2.03c-0.4,-0.4 -6.95,-2.44 -5.71,0 0.4,0.81 4.49,1.21 5.31,1.21l0 1.62c-0.82,0 -0.4,0 -1.22,-0.39l-4.09 -0.4c-2.04,-0.4 -4.09,-1.21 -5.71,-0.82l0 -1.62 4.09 0.4c1.22,0.4 1.22,-1.21 0,-1.63 -0.82,-0.4 -2.86,-0.81 -3.68,-0.4l0 0 0 0 0 0 0 0 0 0 0 0 0 0 -0.01 0 0 0zm9.4 10.15c-0.4,0.4 0,0.4 -0.82,0.4 0,-0.81 -0.4,-0.81 0,-1.21 0.82,-0.4 0.82,0 1.64,0 0.4,-0.4 0.4,-0.81 0.81,-1.62 0,-1.22 0,-1.22 -0.81,-1.63 0,0 0.4,0 0.4,0 0,0 0,-0.4 0,-0.4 0.4,0 0,0.4 0.4,0 0.4,-0.81 0.4,-2.02 0.4,-2.83 0,-1.22 0.4,-2.44 0.4,-3.65 -1.64,0 -1.22,0.39 -2.86,0l-8.98 -1.63c0,0.4 -0.4,3.25 -0.4,3.25 -0.4,1.63 -0.82,1.63 -0.4,3.25 1.22,0 1.64,-0.4 2.86,0 1.63,0 6.94,0.81 7.76,1.63l0.4 0c0,0 0,0 0,0 -0.82,1.21 -4.09,1.21 -5.71,1.21 -1.64,0.4 -4.09,0.81 -5.71,0.81l-0.4 1.63c0.82,1.21 3.67,1.62 5.71,2.02 0.82,0 2.04,0.4 2.85,0.81 0.4,0 1.22,0 1.64,0.4 0.4,0 0.82,0.4 1.22,0.4l0.82 -0.81 0 -2.03 -1.22 0 0 0 0 0 0 0 0 0 0 0 0 0 0 0 0 0z"/>
   <path class="fil2" d="M121.82 132.26c-0.4,-3.25 -1.22,-6.08 -2.04,-8.92 3.28,1.63 0.82,0.81 5.31,1.63 3.68,1.21 10.62,-0.4 11.02,3.25 0,0.81 0,6.08 0,6.89 -2.03,0 -6.53,0.4 -8.58,0.4 -0.82,0 -1.22,-0.4 -1.63,-0.81 -0.82,-0.81 -2.86,-1.62 -4.09,-2.44l0 0 0 0 0 0 0 0 0 0 0 0 0 0 0.01 0zm17.15 -0.41c0,3.65 -0.4,2.84 -1.64,3.25 -0.4,-2.84 0.82,-5.67 -0.4,-8.52 -2.45,-5.28 -18.78,1.62 -18.38,-8.93 0.4,2.03 0.4,2.44 1.64,3.25 2.85,3.25 8.58,2.44 12.25,2.44 6.13,0 6.53,4.06 6.53,8.53l0 0 0 0 0 0 0 0 0 0 0 -0.02 0 0zm-20.42 -15.82c-0.4,-0.81 -0.4,-0.81 0,-1.63 0.4,0.4 0,1.21 0,1.63zm1.22 6.5l-0.82 -0.4c0.82,3.65 2.04,6.9 2.45,10.13 0.82,0.4 3.68,2.03 4.5,2.84 0.4,0.4 0.81,0.81 1.63,0.81 1.22,0 7.76,-0.4 8.58,-0.4 0.4,-0.4 0.4,0 0.4,-0.81l0 -6.09c0,-6.08 -9.4,-1.62 -15.11,-4.87 5.71,0.81 8.17,0.4 12.26,1.21 4.91,0.81 2.85,6.49 3.27,10.55 2.45,-0.4 2.45,0.4 2.45,-5.28 0,-1.62 -0.4,-3.64 -1.22,-4.87 -3.67,-5.67 -16.74,1.62 -19.19,-7.3 -0.4,-2.02 0,-2.83 0.4,-4.46 -0.82,0 -1.22,0.4 -1.22,1.63 -0.4,2.43 0,5.67 1.63,7.29l0 0 0 0 0 0 0 0 0 0 0 0 0 0 -0.01 0.02z"/>
   <path class="fil2" d="M167.15 133.47c-0.41,1.22 -0.41,7.3 -0.41,9.34 0,3.25 0,2.44 9.8,2.44 0,0.4 -0.4,1.21 -0.81,1.62 -3.68,0.4 -7.77,0.4 -11.44,0.4 -0.4,-1.62 0,-5.67 0,-7.71 0,-1.21 0.4,-0.81 0.4,-1.63l0.4 -6.08c0.82,0.81 1.64,0.4 2.86,0.4 6.13,0 15.11,0 20.82,0 1.63,0 1.22,-0.4 2.03,-1.63l2.46 0 0 1.21c-0.82,0.4 -1.64,0.82 -2.46,0.82 -3.67,1.62 -22.05,0 -23.68,0.81l0 0 0 0 0 0 0 0 0 0 0 0 0.03 0.01 0 0zm-4.09 -4.06c0.81,-0.4 1.21,-0.4 2.03,-0.4l-0.4 1.63c0,-0.4 0,-0.81 0,-0.81 -0.82,-0.4 -0.82,0 -1.63,-0.4l0 0 0 0 0 0 0 0 0 0 0 0 0 -0.02 0 0zm-0.42 -0.4l0 0.82 1.63 0.39c0.82,2.44 0,4.47 0,6.49 0,1.21 0,0.81 -0.4,1.62 0,1.21 0,8.11 0,9.34 2.04,0.4 9.4,-0.4 11.84,-0.4 0.82,-0.4 1.22,-2.02 1.64,-2.83 -1.64,0.39 -8.17,0.81 -9.8,0.39 -0.4,-1.21 -0.4,-9.73 0,-10.94 0.4,-0.4 0,0 0.82,0 4.49,-0.4 8.16,0 12.65,0 2.04,0 4.49,0 6.94,0 2.86,-0.4 3.28,-0.81 5.71,-1.63l0 -1.62c-1.21,-0.4 -2.45,-0.4 -3.27,-0.4 -0.82,2.02 -0.4,1.63 -5.31,1.63l-19.19 0c-0.4,0 -0.4,-0.4 -0.4,-0.4l0 -2.84 -2.86 0.4 0 0 0 0 0 0 0 0 0 0 0 0 0 -0.02z"/>
   <path class="fil2" d="M90.79 156.59c-1.22,-13.38 13.47,-23.12 26.12,-17.84 3.28,1.21 6.13,3.65 8.17,6.08 2.03,3.25 3.27,6.09 3.67,10.95 0,2.44 -0.82,5.67 -1.64,7.71 -0.4,1.21 -1.21,2.03 -1.63,3.25l-2.45 2.44c-2.46,3.25 -8.59,5.67 -13.08,5.67 -10.2,0.4 -18.78,-7.3 -19.19,-18.26l0 0 0 0 0 0 0 0 0 0 0 0 0.03 0 0 0zm31.43 -15.4c-0.4,-0.4 0,0 -0.4,-0.4 -0.82,-0.4 0,0 -0.4,-0.4 -0.4,0 -4.09,-2.44 -6.53,-2.84 -6.94,-1.62 -12.65,-0.4 -18.38,4.07 -2.45,2.02 -4.49,5.67 -5.71,8.52 -2.03,6.9 0,13.38 4.09,18.66 3.67,4.46 10.62,7.29 17.15,6.08 2.85,-0.4 5.31,-0.81 7.34,-2.43 1.22,-0.4 1.64,-0.82 2.86,-1.63 2.45,-2.02 4.49,-5.27 5.71,-8.52 0.82,-3.25 1.22,-5.28 0.82,-8.53 0,-2.83 -1.22,-5.27 -2.46,-7.3 -0.4,-1.21 -1.22,-2.02 -2.03,-2.83l-2.04 -2.44c0,0 0,0 0,0 0,0 0,0 0,0l0 0 0 0 0 0 0 0 0 0 0 0 0 0 -0.02 -0.01 0 0z"/>
   <path class="fil2" d="M172.86 151.73c-0.82,0.4 -1.64,0 -2.86,0l-8.16 0.4c-2.04,0 -3.68,0 -5.71,0.4 -2.04,0 -3.68,-0.4 -5.31,0 -0.4,-0.81 -0.4,-1.21 -1.22,-1.62 -2.45,-0.82 -2.45,0.81 -2.45,2.02 -5.71,0 -11.44,0.4 -17.57,0l-0.4 -2.84c7.77,0.4 15.11,0 22.87,-0.4 3.68,0 7.35,-0.81 11.02,-0.81 3.67,0 7.76,0 11.44,0 -0.4,0.81 -0.82,2.03 -1.64,2.84l0 0 0 0 0 0 0 0 0 0 0 0 -0.01 0.01 0 0zm-23.28 0l0.41 0 0 0.4 0.4 0.82 22.87 -0.82c0.4,-0.81 1.63,-2.83 1.63,-4.06 -3.67,0.4 -7.34,0.4 -11.43,0.4 -3.67,0 -7.76,0.4 -11.44,0.81 -7.76,0.4 -15.51,0.81 -23.27,0.4 0,0.81 0.4,3.25 0.82,3.65 5.31,0.81 12.65,0 17.96,-0.4 0,-0.4 0,-1.21 0.4,-1.63l1.64 0.4 0 0 0 0 0 0 0 0 0 0 0 0 0 0 0.01 0.03 0 0z"/>
   <path class="fil2" d="M165.09 78.31c0.82,-0.81 0.82,-0.81 1.22,-2.43 0.82,-2.03 2.46,-6.9 2.46,-8.53l1.63 0.81 -0.82 0.4 0 4.46c1.22,0.4 0.82,0 1.22,-0.39 0.82,-1.63 1.64,-2.44 1.64,-4.07l1.64 0.4c-0.82,1.63 -1.22,3.25 -1.64,5.28 0,1.62 -1.22,4.87 -0.82,6.08l-1.63 -0.4c0.81,-1.21 0.81,-3.65 1.21,-5.27l-0.4 -0.4 -1.22 1.63c0,0.81 -0.4,1.21 -0.81,1.62 0,-0.81 0,-2.83 -0.4,-3.25 0,-0.81 -0.41,-0.81 -0.41,-0.81 -0.4,1.21 -1.63,3.65 -1.63,5.27l-1.22 -0.4 0 0 0 0 0 0 0 0 0 0 0 0 0 0 -0.02 0 0 0zm-0.82 0c0.82,1.22 1.23,0.82 2.46,1.22l0.4 -0.4c0,-1.63 0,-2.44 0.82,-3.65l0 4.06c0.82,-0.4 0.82,-0.81 1.22,-1.62l1.22 -1.63c-0.4,2.02 -0.4,2.44 -0.82,2.84 -0.4,0.4 -0.4,0.4 -0.4,0.4 0.4,0.81 0,0.39 1.63,1.21 1.64,0.4 1.64,-0.4 1.64,-0.4l0 -0.4c0,0 -0.4,-0.4 -0.4,-0.81l2.04 -8.93c0.4,-1.21 0.4,-0.4 0.4,-1.62 -0.4,-0.4 -1.64,-0.81 -2.46,-0.81 -0.4,0.81 0,1.21 -0.4,2.02 0,0.4 -0.4,0.4 -0.4,0.81 -0.4,0.4 0,0.4 -0.4,0.81 -0.4,0.4 0,0 -0.4,0.4 0,-4.87 0,-2.02 0.82,-4.06 -0.41,-0.4 -0.41,-0.4 -1.64,-0.81 -2.45,-0.4 -1.22,0.4 -1.64,2.44 -0.4,0.81 -0.4,1.21 -0.81,2.02 -0.41,1.21 -0.82,2.44 -1.22,3.65 -0.4,1.62 -0.4,2.02 -1.64,3.25l0 0 0 0 0 0 0 0 0 0 0 0 0 0 -0.02 0.01 0 0z"/>
   <path class="fil2" d="M140.6 148.48c0.4,-0.4 1.22,-0.81 1.64,-1.21l1.22 0.81 -2.86 0.4 0 0 0 0 0 0 0 0 0 0 0 0zm1.64 -2.02c0,-0.81 0.4,-0.81 0.4,-1.21 1.22,0.4 1.64,1.62 4.49,2.02 2.45,0.4 3.67,0.4 5.71,-0.4 1.64,-0.4 4.09,-1.21 5.31,-2.02 1.22,-0.4 2.85,-1.63 4.49,-2.44 0,1.63 0,1.21 -2.04,2.44 -0.81,0.4 -1.63,0.4 -2.45,0.81 -6.95,3.25 -4.09,2.03 -11.02,2.44 -2.04,0.4 -1.22,0 -2.85,-0.4 -0.82,-0.4 -1.64,-0.81 -2.04,-1.21l0 0 0 0 0 0 0 0 0 0 0 0 0 -0.03 0 0zm-13.49 -9.34c2.45,-0.4 4.91,-0.4 7.35,-0.4 0,1.63 0.4,3.25 0.81,4.88 0.82,1.21 1.64,2.44 2.46,3.25 -0.4,0.81 -0.82,1.21 -0.82,2.02 0.4,0.82 1.22,1.21 1.63,1.63l-3.67 0c-2.03,-5.67 -2.45,-5.28 -5.31,-8.92l-2.45 -2.44 0 0 0 0 0 0 0 0 0 0 0 0 0 0 0 -0.02zm11.03 7.71l-0.4 -0.81c-0.4,0 -0.4,0 -0.4,0 0,0 -0.4,-0.4 -0.4,-0.4 0,-0.4 -0.4,-0.4 -0.4,-0.81 -1.22,-2.44 -1.22,-3.65 -1.64,-6.48 -2.03,-0.4 -6.52,0 -8.58,0.39 1.22,1.21 1.22,1.21 2.46,2.44 2.45,3.65 4.49,5.28 5.71,9.74l8.58 0 -1.64 -1.63c0.4,0.4 1.22,0.81 2.04,1.21 0.82,0.4 1.22,0 2.85,0 6.53,-0.4 3.68,0.4 10.62,-2.43 1.22,-0.4 3.27,-1.63 4.49,-2.03l0 -2.02c-1.22,0.4 -3.67,1.62 -4.91,2.44 -1.21,0.81 -3.27,1.21 -4.9,2.02 -2.86,0.81 -5.31,1.21 -8.58,-0.4 -0.4,-0.4 -0.4,-0.81 -2.04,-1.62 -0.82,0.81 -0.82,1.62 -0.82,2.83 -1.22,0.81 -2.04,0.81 -2.85,0 0,-1.62 0.4,-1.21 0.81,-2.44l0 0 0 0 0 0 0 0 0 0 0 0 0 0 0 0z"/>
   <path class="fil2" d="M164.69 72.63c-0.4,6.9 -4.9,6.48 -5.71,3.25 0,-0.4 0,-3.65 0.4,-4.07 0,-0.81 0.41,-2.43 0.82,-3.25 0.4,-0.81 1.64,-2.44 2.46,-2.44 1.21,-0.39 2.03,1.22 2.03,2.03 0.4,1.21 0.4,3.25 0,4.46l0 0 0 0 0 0 0 0 0 0 0 0 0 0.02 0 0zm-12.25 4.06c0.82,-1.63 0.82,-6.49 1.22,-8.92 0,-2.03 0.4,-1.22 -0.4,-2.44 3.27,0 4.9,1.21 4.9,4.87 0,0.82 -0.4,2.03 -0.81,2.84 -1.22,0.81 -1.64,0.4 -2.46,0.81 -0.82,1.21 -0.82,2.03 -0.4,3.25l-2.04 -0.4 0 0 0 0 0 0 0 0 0 0 -0.01 -0.01 0 0zm0.4 -11.78c0,1.63 0.4,0 0.4,3.25l-0.82 6.09c0,1.63 0,1.63 -0.81,2.44l0.81 0.81 2.04 0 0.82 -0.4c-0.4,-0.4 -0.4,-0.81 -0.4,-1.21l0 -1.21c0.4,-0.4 0.4,0 0.4,-0.4 2.85,-0.81 1.63,-0.4 3.27,-2.44 0,2.44 -0.4,4.07 0.4,5.68 0.82,1.62 6.53,3.25 6.53,-7.3 0,-2.44 -1.22,-5.28 -3.27,-4.46 -0.82,0 -1.64,1.21 -2.04,1.62 -0.4,0.82 -0.82,2.03 -1.22,3.25 0,-2.43 -0.4,-3.65 -1.64,-4.87 -0.81,-0.82 -3.27,-1.63 -4.48,-0.82l0 0 0 0 0 0 0 0 0 0 0 0 0.01 -0.03 0 0z"/>
   <path class="fil2" d="M198.98 142.8c4.09,-0.4 8.58,1.62 10.2,3.64 2.46,2.44 4.49,4.88 4.49,9.74 0.41,4.06 -0.81,7.71 -3.67,10.55 -2.04,2.43 -5.31,4.06 -9.8,4.06 -3.67,0.4 -7.34,-0.81 -10.2,-3.65 -1.22,-1.21 -2.04,-2.02 -2.85,-4.06 -0.82,-1.21 -1.64,-3.65 -1.64,-5.28 0,-2.83 0.82,-5.27 1.64,-7.71 0,-0.4 1.21,-1.21 1.63,-2.02 0,-0.4 0.4,-0.4 0.82,-0.81 2.45,-2.84 5.31,-4.07 9.4,-4.46l0 0 0 0 0 0 0 0 0 0 -0.02 0zm0 -0.4c-4.09,0.4 -7.34,1.62 -9.8,4.46 -0.4,0.4 -0.4,0.81 -0.82,1.21 -2.45,3.25 -0.81,0 -2.03,3.25 -0.82,1.63 -1.22,4.06 -1.22,6.48 0,1.63 0.82,4.07 1.64,5.68 4.49,8.92 16.74,10.54 23.68,3.65 0.82,-0.82 2.46,-3.25 2.86,-4.46 0.82,-2.03 1.22,-4.07 1.22,-6.49 -0.4,-7.71 -7.76,-14.61 -15.51,-13.8l0 0 0 0 -0.02 0.02 0 0z"/>
   <path class="fil2" d="M107.53 142c7.35,-1.21 14.71,3.65 15.93,11.76 2.04,10.13 -8.17,19.07 -17.97,15.82 -3.27,-0.81 -6.52,-3.25 -8.16,-6.09 -2.45,-4.06 -2.45,-7.3 -1.22,-11.76 0.4,-2.83 3.68,-6.48 6.13,-7.71 1.22,-1.21 3.27,-1.62 5.31,-2.02l0 0 0 0 0 0 0 0 0 0 0 0 -0.02 0 0 0zm16.73 15.41c0.4,-3.65 -1.22,-8.53 -3.67,-10.95 -2.86,-2.84 -4.91,-4.46 -9.4,-4.88 -4.49,-0.39 -8.17,0.82 -11.02,3.25 -3.27,2.84 -4.49,4.88 -5.31,9.74 -0.82,4.06 1.22,8.92 3.27,10.95 1.64,1.62 2.46,2.43 4.09,3.25 5.71,3.25 13.07,2.02 16.75,-1.63 2.85,-2.83 4.49,-4.06 5.31,-9.73l0 0 0 0 0 0 0 0 0 0 -0.02 0 0 0z"/>
   <path class="fil2" d="M196.95 94.53c0.81,-0.4 0.81,0 1.22,-0.81l5.3 -6.48c0.82,-0.4 0.41,-0.4 0.82,-0.82 0.4,0 0,0 0.4,0 0.4,0.4 0.4,0.4 1.22,0.82 -0.4,0 -0.4,0 -0.4,0l-1.22 1.21c-0.4,0.4 -2.45,3.25 -2.85,3.65 1.63,0.4 4.09,-2.84 5.71,-3.25 0.81,0.39 0.81,0.39 1.22,1.21 -1.64,0.4 -4.49,4.87 -5.71,6.08l-1.64 2.03c0,0 0,0 -0.4,0l-1.22 -1.21c2.04,-1.22 3.27,-2.84 4.49,-4.88 -1.22,0 -3.27,1.63 -4.49,2.44 -0.82,0.81 -0.82,0.81 -1.64,1.21l-0.81 -1.21 0 0 0 0 0 0 0 0 0 0 0 0 0 0 0 0.01 0 0zm6.52 -8.52c0,1.21 -4.09,5.27 -4.9,6.49 -0.82,0.81 -1.22,1.21 -2.46,1.62 0,0.81 0.4,0.81 0.82,1.21 2.04,2.02 1.64,0 4.49,-1.21 -1.22,1.62 -2.04,2.02 -2.45,2.44 0,1.21 1.63,2.43 2.03,2.43 0.41,-0.39 0.41,-0.81 0.82,-1.21l4.09 -4.46c0.4,-0.4 0.4,-0.81 0.82,-1.21 0.4,-0.81 0.4,-0.81 0.82,-1.21 0.82,-0.4 0.82,-0.4 1.22,-0.81 0,-0.81 -0.82,-1.63 -1.22,-2.03 -1.22,0 -2.46,1.63 -3.67,2.03 0,-0.4 0.81,-0.81 1.21,-1.63 0.82,-0.81 0.82,0 1.22,-0.81 0,-0.81 -1.22,-2.02 -2.03,-2.02l-0.4 0 -0.41 0.4 0 0 0 0 0 0 0 0 0 0 0 0 0 0 0 -0.02z"/>
   <path class="fil2" d="M80.99 127.79c-0.82,0 -8.58,-2.44 -8.98,-3.25 0,0 0,-0.4 1.22,0 1.63,0.4 7.34,2.43 7.76,3.25l0 0 0 0 0 0zm-11.04 -1.21c0.41,-0.82 0.41,-1.63 0.82,-2.44 0.4,-0.81 0.4,-2.03 0.82,-2.44 0.82,0.81 8.98,3.65 10.2,3.65l-0.4 2.02c-1.22,-1.21 -7.76,-3.65 -9.4,-3.65 -0.82,0.82 -0.82,0.4 -0.82,1.22 0.82,0.81 8.58,3.64 9.8,3.64l-0.82 1.63c-1.22,-0.81 -5.71,-2.44 -7.34,-3.25 -2.86,-0.81 -1.64,-0.4 -2.86,-0.4l0 0 0 0 0 0 0 0 0 0 0 0.02 0 0zm-0.81 0.81c0.81,0 1.22,-0.4 2.03,0l8.17 2.83c0.81,0.82 0.4,0.82 1.22,0.82l1.22 -2.84c0,-0.4 0.81,-2.44 0.81,-3.25 -0.4,-1.21 0,0.4 -2.45,-0.4l-7.35 -2.83c-1.63,-0.82 -1.22,-2.03 -2.45,2.02 -0.4,1.21 -1.22,2.44 -1.22,3.65l0 0 0 0 0 0 0 0 0 0 0 0 0.02 0 0 0z"/>
   <path class="fil2" d="M91.6 101.02c1.22,1.21 2.04,1.62 2.46,2.44 -0.82,0 -3.27,-2.03 -3.67,-3.25 0.81,0.39 0.81,0.39 1.21,0.81l0 0 0 0 0 0zm-2.45 -2.03c-0.4,0 0,0.82 -0.82,0 -0.4,-0.39 -0.4,-0.39 -0.81,-0.81 -0.82,-0.4 -0.82,-0.4 -1.22,-1.21 0.81,-0.4 0.4,-0.4 0.81,0.4 1.22,0.81 2.04,1.21 2.04,1.62l0 0 0 0 0 0 0 0zm2.86 5.68c-2.04,-1.63 -5.71,-4.88 -7.77,-6.09l1.22 -1.21c0.4,0 0.4,0.4 0.82,0.81 2.04,1.63 2.46,2.84 3.67,0.81 -0.4,-0.39 -2.45,-2.83 -3.27,-2.83 0,-0.4 0.4,-1.21 0.82,-1.63 0.4,0.82 0.82,1.21 2.04,2.03 0.82,0.4 1.22,1.21 2.03,2.02 1.22,0.81 2.86,2.84 4.49,3.25 -0.4,0.4 -0.81,1.21 -1.21,1.63 -0.82,-1.21 -3.68,-3.65 -4.49,-3.65 -1.22,1.21 -0.41,1.62 0.81,2.44 0.82,0.81 1.64,2.02 2.86,2.02 -0.4,0.81 -0.82,1.21 -1.22,1.62 -0.4,-0.81 -0.4,-0.81 -0.82,-1.21l0 0 0 0 0 0 0 0 0 0 0 0 0.02 -0.01 0 0zm4.49 -3.24c-1.22,-0.4 -3.68,-2.44 -4.49,-3.65l-3.27 -2.83c-0.41,-0.4 -0.41,-0.82 -0.82,-1.21 -0.82,0 -1.22,0.81 -2.04,2.02 -0.4,0.81 -1.64,1.63 -2.04,2.44l0 1.21c0.82,0 0.82,0 1.22,0.4l3.27 2.44c0.82,0.81 1.64,1.21 2.46,2.02 2.03,2.02 0.81,1.21 1.63,2.02 1.22,0 1.64,-1.21 2.04,-2.02 0.4,-0.4 1.22,-0.4 2.45,-2.44 -0.4,-0.4 -0.4,-0.4 -0.4,-0.4l0 0 0 0 0 0 0 0 0 0 0 0 0 0 -0.01 0 0 0z"/>
   <path class="fil2" d="M198.17 144.02c4.49,-0.4 6.94,0.4 10.2,2.84 1.63,1.21 1.63,1.21 2.85,3.65 5.31,8.92 -1.22,18.65 -9.8,19.47 -2.45,0.4 -4.09,0.4 -6.13,-0.4 -0.4,-0.4 -1.63,-0.81 -2.03,-1.21 -2.04,-0.82 -4.09,-3.25 -5.31,-4.88 -2.86,-5.27 -1.22,-12.17 1.63,-15.01 0.41,-0.4 0.41,-0.81 0.82,-0.81l2.86 -2.44c1.63,-0.81 3.27,-1.21 4.91,-1.21l0 0 0 0 0 0 0 0 0 0zm-12.24 14.6c0.4,4.46 3.27,6.9 5.31,8.92 2.03,2.44 6.12,3.25 10.2,2.84 6.52,-0.4 13.47,-7.3 11.83,-15.01 -1.22,-7.71 -7.34,-12.57 -15.1,-11.76 -2.86,0 -5.31,1.21 -7.35,2.83 -1.64,1.22 -0.82,0.82 -1.64,1.63 -2.03,2.02 -3.27,6.9 -3.27,10.55l0 0 0 0 0 0 0 0 0 0 0 0 0.02 0 0 0z"/>
   <path class="fil2" d="M141 73.44c0,1.21 0.82,2.44 0.82,3.65 -0.82,-0.4 -0.82,-0.4 -0.82,-1.63 0,-0.81 -0.4,-1.62 0,-2.02l0 0 0 0 0 0 0 0 0 0zm-0.82 -5.67c0,-0.82 0,-0.82 0,-1.63 0.41,0 0.41,-0.4 0.41,0.4 0.4,0.81 0,0.81 -0.41,1.21l0 0 0 0 0 0 0 0 0 0 0 0.02 0 0zm1.24 -2.04l1.22 0c-1.64,2.83 -1.64,2.02 -0.4,5.67 0.4,1.62 1.63,4.06 2.04,5.67l-2.04 0c0.4,-0.81 0,-1.62 -0.82,-3.65 -0.4,-1.62 -0.4,-2.43 -1.22,-3.25 -0.4,2.03 0,5.68 0.4,7.3l-1.63 0c0.4,-1.62 -0.4,-7.3 -0.82,-9.74 0,-0.39 0,-0.39 0,-0.81l-0.4 -0.4c0,0 0,0 0,0l2.03 -0.81c-0.4,1.63 -0.4,3.25 0.4,4.06 0.41,-1.21 0,-0.81 0.82,-2.02 0.41,-0.81 0.41,-0.81 0.41,-2.02l0 0 0 0 0 0 0 0 0 0 0 0 0 0 0.01 0 0 0zm-1.24 0c-0.4,-0.4 -0.4,-0.4 -1.21,-0.4 -0.82,0.4 -1.22,0.4 -2.04,0.81 0.4,1.21 0.82,0.4 0.82,2.44 0,1.21 0.4,2.44 0.4,3.25 0,1.21 0,2.44 0.4,3.25 0,0.81 0,1.21 0,1.62 0,0.4 -0.4,0.4 -0.4,0.82 0,1.21 1.63,0.81 2.03,0.81 0.82,-0.4 0.82,-0.4 1.23,-0.81l0.4 0.4c1.22,0 2.03,0 2.85,-0.4 0.4,-0.82 -1.63,-5.28 -1.63,-6.09 -0.4,-0.81 -1.22,-2.44 -0.82,-3.25 0,-0.81 0.82,-2.02 1.22,-2.84 -0.82,-0.4 -2.46,-0.4 -3.27,0.4l0 0 0 0 0 0 0 0 0 0 0 0 0.02 -0.01 0 0z"/>
   <path class="fil2" d="M222.25 141.19c0.82,-0.82 2.04,-0.82 3.68,-0.82 -0.4,0 0,0 -0.4,0.4 -1.22,0.4 -2.46,1.21 -3.28,0.4l0 0 0 0 0 0 0 0 0 0.02zm-0.4 -2.44c1.22,0 1.22,0 2.46,-0.4 2.85,-0.4 5.71,-0.81 8.58,-1.63l0 2.03c-0.82,-0.4 -1.64,-0.4 -2.46,0l-0.4 0.4c0.4,0.39 0.82,0.81 1.64,1.21 0.82,0.4 0.82,0 1.63,-0.4l0.41 1.62c-0.82,-0.39 -2.46,-1.21 -2.86,-1.21 -0.82,0 -6.53,3.25 -8.16,3.65l-0.4 -2.02c1.63,0.4 3.27,-0.81 5.3,-1.63 0.41,0 0.41,-0.4 0.82,-0.4 0.4,-0.39 0.4,-0.39 0.4,-0.81 -2.03,0 -5.3,0.4 -6.94,1.21l0 -1.62 0 0 0 0 0 0 0 0 0 0 0 0 0 0 -0.02 0zm-0.41 -0.82c-0.82,1.22 0,3.26 0.4,3.26 -0.4,0.81 -0.4,0.81 0,1.62 0,0.81 0,1.21 0.4,2.02 1.22,0 7.76,-3.64 8.58,-3.64 1.22,0 3.67,2.83 3.27,-0.4 0,-0.4 -0.4,-0.82 -0.4,-1.21 -1.22,-0.4 -1.22,0.81 -2.45,-0.4l2.03 0c0,-0.4 0.4,-3.65 -0.81,-3.25 -0.82,0.4 0.4,0.4 -3.68,1.21 -2.85,0.4 -5.31,1.21 -7.34,0.81l0 0 0 0 0 0 0 0 0 0 0 0 0 0 0 -0.02 0 0z"/>
   <path class="fil2" d="M173.26 80.74c0.82,-1.21 1.63,-3.65 2.45,-5.28 0.4,-1.21 1.64,-4.06 1.64,-5.67l4.09 1.62 -0.82 2.84c0,-0.81 0,-1.21 -0.4,-1.62 0,-0.4 0,-0.82 -0.4,-0.82 0,0 0,-0.4 0,-0.4l-0.41 -0.39c-1.21,0.39 -1.21,0.81 -1.63,2.02 0,0.81 -0.4,1.21 0,2.02 0.4,0.4 0.4,0 1.22,0l-0.4 1.63c-0.4,-0.4 -0.4,-0.81 -1.64,-1.21 0,0.4 0,0.4 0,0.4l-1.22 2.83c-0.4,0.82 -0.82,1.63 0,2.44 1.64,0.4 2.04,-0.4 2.86,-0.81 0,0.81 -0.82,1.62 -1.22,2.02 -1.22,0 -2.46,-1.21 -4.09,-1.62l0 0 0 0 0 0 0 0 0 0 0 0 0 0 -0.03 0 0 0zm4.9 1.62c0.41,-0.81 1.22,-1.21 1.22,-2.44 -1.63,-1.21 -0.81,0.82 -3.27,0.82l1.22 -4.07c0,-0.4 0,0 0,-0.4 1.22,0.82 0.4,2.03 2.04,2.03 0.4,-0.81 0.4,-2.44 0.4,-3.65l-1.64 -0.4 1.22 -2.44c0.82,2.44 0.4,2.84 1.64,2.84 0.82,-0.81 0.82,-2.44 0.82,-3.65 -0.41,0 -4.49,-2.02 -4.91,-1.62 -0.4,0.81 -0.4,1.21 -0.4,2.02l-3.27 8.11c0,0.4 0,0.4 -0.41,0.81 -0.4,0 0,0 -0.4,0.4 0.4,0.81 1.64,0.81 2.46,1.21 2.45,1.21 2.04,1.63 3.27,0.81l0 -0.39 0 0 0 0 0 0 0 0 0 0 0 0 0 0 0.01 0.01 0 0z"/>
   <path class="fil2" d="M206.75 167.14l-0.41 0.4c0,0 0,0 0,0l-2.45 1.21c-10.62,3.65 -20.42,-6.9 -15.11,-17.84 0.4,-1.22 2.86,-3.65 3.68,-4.07 1.63,-1.21 4.08,-2.02 6.12,-2.43 2.04,0 5.31,0.39 6.53,1.62 1.22,0 2.04,0.81 2.85,1.63 2.04,1.62 4.09,5.27 4.49,8.11 0,2.83 -0.81,4.87 -1.63,6.9 -0.82,1.62 -2.86,4.06 -4.09,4.46l0 0 0 0 0 0 0 0 0 0 0 0 0 0 0.02 0.01zm-7.77 -23.12c-4.9,0.81 -6.12,1.63 -8.58,4.46 -1.63,1.21 -1.63,1.21 -2.85,3.65 -0.4,1.63 -0.82,3.65 -0.82,5.67 0.4,4.47 2.45,6.9 4.09,8.53 3.27,3.25 9.8,4.87 14.71,2.02 2.03,-0.81 2.45,-1.62 4.09,-2.83 1.63,-1.63 3.27,-5.68 3.27,-9.74 -0.4,-4.87 -4.09,-9.34 -8.58,-10.95 -1.64,-0.39 -3.68,-0.81 -5.31,-0.81l0 0 0 0 0 0 0 0 0 0 0 0 0 0 -0.02 0 0 0z"/>
   <path class="fil2" d="M119.77 78.71c1.22,-0.81 0.4,0.4 1.22,-1.21 0.4,0.81 1.22,2.44 0.82,3.65 -1.22,0 -1.22,-1.21 -2.04,-2.44l0 0zm-2.86 -6.48c0.41,0 0.41,0 0.82,0 0.4,-0.4 0,-0.4 0.82,-0.82 2.04,0 3.67,3.26 4.49,5.28 3.27,7.71 -3.67,7.71 -3.67,2.44 0.4,0.4 0.4,0.4 0.82,1.21 1.21,2.43 2.45,1.62 2.45,0.81 0,-2.02 -0.82,-4.06 -1.64,-4.88 -0.81,0.82 -0.4,0.82 -0.81,1.63l0 -2.44 0.4 -0.4c0,-0.39 -0.4,-1.21 -0.4,-1.62 -0.41,-0.81 -0.82,-1.21 -2.04,-1.21 -0.82,1.21 0,1.21 -0.4,2.83l-0.82 -2.83 0 0 0 0 0 0 0 0 0 0 0 0 0 0 -0.02 0zm-0.4 -0.42c0,1.21 0.4,3.25 0.82,4.07 0.82,0 0.82,0 1.22,-0.4 0,-0.81 0,-1.63 0,-2.44 2.04,2.02 0.82,0.81 0.82,3.25 0,3.25 -0.4,1.63 -0.82,2.84 0,0.4 0.82,3.64 2.45,4.06 1.22,0.4 1.64,0 2.46,-0.4 2.85,-2.02 0,-7.71 -1.22,-9.34 -2.46,-3.65 -4.09,-2.02 -4.91,-2.02 -0.4,0.4 -0.4,0.4 -0.82,0.4l0 0 0 0 0 0 0 0 0 0 0 -0.02 0 0z"/>
   <path class="fil2" d="M206.34 98.58c-0.4,-0.81 -0.81,-1.62 -0.4,-2.44 1.22,-2.02 3.28,-2.83 3.68,-3.64 0.4,-0.4 0,-0.4 0.4,-0.82 0.4,0.4 0.82,0.82 1.22,1.21 -0.82,0.4 -1.64,1.63 -2.46,2.03 -0.4,0.4 -1.63,1.62 -2.03,2.43l0.81 0.82c1.22,0 2.04,-0.82 2.86,-1.63 0.82,-0.81 1.22,-0.81 2.03,-2.44 0.41,0.4 0.82,0.82 1.22,1.63 -3.27,2.02 -2.45,1.62 -4.49,3.65l-3.67 3.65 -1.22 -0.82c0,-0.39 0,-0.39 0.4,-0.39 0.82,-0.4 2.86,-2.44 3.27,-3.26l-1.63 0 0 0 0 0 0 0 0 0 0.01 0.02 0 0zm-1.23 5.27l0.4 0.4c1.64,-2.43 0.4,-0.4 2.04,-2.43 0.4,-0.82 1.22,-1.22 2.03,-2.03 0.82,-0.81 1.64,-1.21 2.04,-2.02 1.22,-1.21 1.22,-0.81 2.46,-1.63 0,-1.21 -1.64,-2.43 -2.04,-2.83 -0.82,1.62 0,0.81 -2.04,2.43 -0.4,0.82 -1.22,1.63 -2.45,1.63 0,-0.81 0.4,-0.81 0.82,-1.21 0.81,-0.4 1.21,-1.21 2.45,-2.03 0.82,-0.81 0.82,-0.39 1.22,-1.21 -1.64,-2.02 -1.64,-2.02 -2.46,-2.02 -0.4,1.21 -0.81,1.21 -1.63,2.02 -0.4,0.82 -2.86,2.84 -2.86,4.07 0,1.21 0.82,1.62 1.64,2.02 -0.82,0.81 -0.82,0.81 -1.64,1.63 -0.4,0.39 -0.81,0.39 -1.63,1.21 0,1.21 1.22,1.21 1.63,2.02l0 0 0 0 0 0 0 0 0 0 0 0 0 0 0.02 -0.02 0 0z"/>
   <path class="fil2" d="M76.9 135.91c-2.46,0 -6.53,-1.21 -8.17,-3.25 -0.4,-0.81 0,-2.02 0.41,-2.83l2.85 0c-1.22,1.21 -1.63,0 -2.85,1.21 0.4,1.62 2.85,2.02 4.49,2.43 2.45,0.82 4.09,1.63 5.3,0.4 -0.4,-2.43 -1.63,-1.62 -2.85,-2.43 1.22,-0.82 3.67,0.39 3.67,2.02 0,1.62 -1.22,2.44 -2.85,2.44l0 0 0 0 0 0 0 0 0 0.01zm0 0.81c4.49,0 4.09,-6.08 -0.4,-6.08 -1.22,0 -2.46,0.81 -0.82,1.21 1.64,0.81 2.45,0.81 2.45,2.02 -1.22,0 -3.27,-0.4 -4.49,-0.81 -0.82,-0.4 -1.63,-0.4 -2.04,-0.81 -1.21,-0.4 -1.63,-0.4 -1.63,-1.21 1.63,0 1.63,0 2.85,-0.82 -0.4,-1.62 -4.09,-1.21 -4.09,-0.81 -0.4,0.4 -1.63,2.44 0,4.06 1.64,1.63 4.91,3.25 8.17,3.25l0 0 0 0 0 0 0 0 0 0 0 0 0 0z"/>
   <path class="fil2" d="M149.17 68.16c0,2.44 -0.4,6.49 0.4,8.53l-2.04 0c0.4,-1.21 0.4,-3.65 0.4,-5.28 0,-1.62 0,-4.46 -0.4,-5.27 -1.63,0 -1.22,1.63 -2.04,2.02 0,-1.21 0,-1.62 0.41,-2.83l4.9 0c0.4,0.81 0.4,2.02 0.4,2.83 -0.4,-0.39 -0.4,-0.81 -0.4,-1.21 -0.81,-1.62 -1.63,-1.21 -1.63,1.21l0 0 0 0 0 0 0 0 0 0 0 0zm-3.68 -3.25c-0.4,0.4 -0.4,1.63 -0.4,2.44 0,1.21 0,1.21 0.4,1.63 0.82,-0.4 0.82,-0.4 1.22,-1.21l0.4 -0.82c0,2.03 0,3.65 0,5.28 0,0.81 0,1.62 0,2.83 0,1.21 0,1.21 -0.4,2.44l3.28 0 0.4 -0.4c-1.22,-2.02 -0.82,-2.02 -0.82,-4.87l0 -4.88c0.4,-1.21 0,-0.4 0.4,-0.81l0.82 2.02 0.82 0c0.4,-0.81 0.4,-3.25 -0.82,-4.06 -0.82,0 -4.91,0 -5.31,0.4l0 0 0 0 0 0 0 0 0.01 0.01 0 0z"/>
   <path class="fil2" d="M79.35 174.04l0.82 2.02c-1.64,0 -6.53,1.63 -8.16,2.03 -1.22,0.4 -2.04,0.81 -1.64,2.02 0.82,0 1.22,-0.4 2.04,0.4 -2.86,0.81 -2.86,0.4 -3.27,-2.02 -0.41,-1.22 -0.41,-1.63 -0.82,-2.44 0.4,-0.4 1.63,-1.21 2.45,-1.21 -3.27,2.83 -0.4,2.43 2.46,1.62 0.81,-0.4 2.03,-0.81 3.27,-1.21 0.4,0 0.82,0 1.63,-0.4 1.22,-0.4 0.82,-0.4 1.22,-0.81l0 0 0 0 0 0 0 0 0 0 0 0zm-9.4 2.42c0.41,-0.4 0.82,-0.4 0.82,-0.81 0.4,0 0.4,-0.4 0.82,-0.4 0,-0.4 0,-0.4 0,-0.81 -0.82,-0.81 -2.86,0.4 -3.67,1.21 0,0.81 0,0.81 0.81,2.84 0,0.81 0.41,2.02 0.41,2.83 1.22,0.4 3.67,0 4.09,-0.81l0 -0.4c-0.82,-0.81 -1.22,-0.81 -2.46,-0.81 1.64,-0.81 5.31,-1.63 7.35,-2.44 2.03,-0.4 0.81,0 1.63,0 0.82,0 0.82,-0.4 0.82,-2.02 -0.4,-1.21 -0.4,-1.21 -0.82,-1.63 -1.22,0.81 -0.82,0.81 -2.03,1.21 -0.82,0.4 -1.64,0.4 -2.46,0.82 -1.63,0.39 -3.67,1.21 -5.31,1.21l0 0 0 0 0 0 0 0 0 0 0 0 0 0.01 0 0z"/>
   <path class="fil2" d="M90.79 108.73c-0.4,0.4 -0.82,0.81 -0.82,1.21 -0.82,-0.81 0,-0.4 -2.04,-1.62 -0.82,-0.4 -1.63,-0.82 -2.45,-1.63l-3.27 -2.44c-0.82,-0.4 -0.4,-0.4 -1.22,0 0,1.63 0,0.4 0.82,2.44 -0.82,-0.4 -1.64,-0.81 -2.04,-1.62l2.85 -4.47c0.82,0.4 1.22,0.82 2.46,1.22 -0.4,0.39 0.4,0.39 -0.82,0l-1.64 0c0,1.62 2.04,2.43 3.68,3.64 1.22,1.22 2.85,2.03 4.49,3.25l0 0 0 0 0 0 0 0 0 0 0 0 0 0 0 0.02 0 0zm-11.44 -4.06c0,1.21 1.64,3.25 3.27,2.43 0,-0.81 -0.81,-1.21 -0.81,-2.43l6.12 4.46c1.22,0.81 0.82,1.21 2.04,2.02l1.63 -2.83c-1.21,-0.82 0,0.39 -4.49,-2.84 -0.81,-0.81 -3.27,-2.02 -3.67,-2.84 0.4,0 1.22,0 1.64,0 0.82,0 0.82,-0.81 0.4,-1.21 -0.4,-0.4 -1.22,-0.4 -1.64,-0.81 -0.81,-0.4 -0.4,-0.81 -1.63,-0.4 -0.4,0.81 -0.82,1.21 -1.22,2.03 -1.64,2.02 -1.22,1.62 -1.64,2.43l0 0 0 0 0 0 0 0 0 -0.01 0 0z"/>
   <path class="fil2" d="M65.88 159.84c0.82,-0.39 1.63,-0.39 2.45,-0.81 -0.4,0.81 -2.45,1.63 -1.22,2.44 0,0 0,0 0,0 1.22,0 8.99,-0.81 10.21,-1.21l0 1.62 -5.31 0.4c-1.64,0.4 -3.68,0.4 -4.91,0.81 0,1.63 0.82,1.22 2.04,2.03 -1.22,0.4 -1.22,0 -2.86,0l-0.4 -5.28 0 0 0 0 0 0 0 0 0 0 0 0zm-0.82 0c0.4,1.63 0.82,4.07 0.82,5.68 0.4,0 1.63,0.4 2.45,0.4 0.82,0 1.22,0 1.64,-1.22 -0.4,-0.39 -0.4,-0.39 -1.22,-0.39 -0.82,-0.4 -0.4,-0.4 -1.22,-0.82 1.64,-0.4 3.67,-0.4 4.91,-0.4 1.22,0 2.03,-0.39 2.85,-0.39 2.04,0 2.86,0.81 2.86,-1.22 -0.4,-1.21 -0.4,-1.62 -1.22,-2.02 -0.4,0.4 -0.4,0.4 -1.64,0.4 -2.03,0.4 -6.12,0.81 -7.76,0.81 0,0 3.27,-2.02 1.22,-2.02 -0.4,0 -2.04,0 -2.45,0 -0.4,0.4 -0.82,0.81 -1.22,1.21l0 0 0 0 0 0 0 0 0 0 0 0 0 0 -0.02 -0.02 0 0z"/>
   <path class="fil2" d="M73.23 186.21c0.4,-0.81 0.4,-0.81 1.63,-0.81 -0.4,0.4 -0.82,0.4 -1.63,0.81zm2.45 -2.43c0.4,-0.4 1.64,-3.65 4.09,-3.26 2.04,0 2.85,2.03 3.27,4.07 -1.64,0 -9.4,3.25 -10.62,4.06l-0.4 -2.02c2.45,0.81 4.49,-1.63 3.27,-2.03 -0.82,0 -2.03,0.4 -2.85,1.21l-0.82 0.4c0,-1.21 0.4,-2.02 1.22,-2.43 1.63,-0.82 1.63,0 2.86,0l0 0 0 0 0 0 0 0 0 0 0 0 0 0 -0.02 0 0 0zm-0.42 -0.82c-2.03,-0.81 -4.9,0.82 -3.67,4.46 1.22,3.65 0.82,2.03 2.04,1.22l3.67 -1.63c2.45,-0.81 4.09,-2.02 6.13,-2.02 0,-0.82 -0.4,-2.44 -0.82,-3.25 -2.04,-3.25 -5.31,-2.44 -6.95,0.39 0,0.4 0,0.4 0,0.4 -0.4,0.4 0,0.4 -0.4,0.4l0 0 0 0 0 0 0 0 0 0 0 0.03 0 0z"/>
   <path class="fil2" d="M168.37 154.57l0.81 2.44 -1.63 0c-1.22,-1.21 -0.4,-0.82 -2.86,-0.82l-2.45 -0.39c-1.22,0 -0.4,0 -0.82,0l6.13 0 0.82 -1.21 0 0 0 0 0 0 0 0 0 0 0 0 0 -0.02zm-7.77 4.86c2.86,0 5.31,-1.21 8.58,-0.81l-0.81 0c-0.41,0.4 -0.82,0.4 -1.22,0.4 -0.82,0 -1.22,0.39 -2.04,0.39 -1.64,0 -3.27,0 -4.91,0.4 -0.82,0.4 -0.82,1.21 -2.04,0.82 0.41,-1.63 0.82,-1.22 1.64,-4.88 0.4,-0.81 0.4,-1.62 0.82,-1.62 0.4,0.81 0,0.81 0.82,1.21l-0.4 0.4c0,0.39 0,0 0,0.39 -0.82,1.63 -1.22,1.63 -0.41,3.25l0 0 0 0 0 0 0 0 0 0 0 0 -0.03 0.05 0 0zm9.4 -1.21c-2.04,-0.81 -6.53,0.81 -9.4,0.81 0,-1.62 0.4,-1.21 0.82,-2.84l5.31 0.4 0 0.4 0.4 0.81 2.45 -0.39 -0.81 -3.25 -0.82 -0.4 -0.4 1.21 -6.13 0 -0.4 -1.63 -0.82 0c-0.4,1.22 -0.82,3.25 -1.22,4.07 -0.4,1.21 -1.22,2.02 -1.22,3.25 0.82,1.21 1.64,0.4 2.46,-0.4 1.63,-0.4 3.67,-0.4 5.31,-0.4 1.63,-0.4 3.27,-0.81 4.49,-1.21l0 -0.4 0 0 0 0 0 0 0 0 0 0 0 0 -0.02 -0.03 0 0z"/>
   <path class="fil2" d="M83.44 186.21l0.82 1.63c-2.45,0 -1.64,1.62 -0.82,2.44 1.22,0 1.22,0 2.04,-0.4l0.4 1.21c-3.67,0.81 -7.35,2.44 -11.02,3.25l0 -0.81 8.58 -7.3 0 0 0 0 0 0 0 0 0 0 0 -0.02 0 0zm-9.4 6.89c0,0.81 0.4,1.21 0.82,1.62 1.22,0.4 8.98,-2.83 11.44,-3.25 0.4,-0.81 0,-1.62 -0.4,-2.44 -1.64,0 -0.82,0.4 -1.64,0.82 -0.82,-0.4 -1.22,-1.21 -0.4,-1.21 0.82,-0.4 0.4,0 1.22,-0.82 -0.4,-0.81 -0.82,-2.02 -1.64,-2.44l-2.45 1.63c-0.82,0.81 -1.22,1.63 -2.04,2.02l-3.67 2.84c-0.4,0.81 -0.82,0.81 -1.22,1.21l0 0 0 0 0 0 0 0 0 0 0 0 0 0 -0.02 0.02z"/>
   <path class="fil2" d="M111.2 80.74c1.22,0.81 2.46,3.25 2.46,4.46 0,-0.4 0,0 -0.4,-0.4l-0.82 -1.63c-0.4,-1.21 -0.82,-1.62 -1.22,-2.43l0 0 0 0 0 0 0 0 -0.02 0zm0.41 -0.4c0.4,-0.81 0.4,-0.81 1.21,-1.21 0.41,0.81 2.04,4.46 2.86,5.27 0.4,0.4 0,-0.4 0.4,0.4l-0.82 1.21 -0.82 -0.4c0,2.02 -1.21,2.02 -2.45,0 -1.22,-1.62 -1.64,-3.25 -2.85,-3.65l0.81 -1.21c0,-0.4 0,-0.4 0.4,-0.4 0.41,1.21 2.46,5.28 3.28,5.68 1.22,-1.22 0,-2.44 -0.82,-4.47l-1.22 -1.21 0 0 0 0 0 0 0 0 0 0 0.02 -0.01 0 0zm-0.41 0.4c-0.81,-1.21 -1.21,-1.63 -2.03,0 0,0.4 -0.4,0.4 -0.4,1.21 1.22,1.21 0.4,0.4 1.63,2.43 0.82,1.22 1.64,3.25 2.86,3.25 0.81,0 1.22,-0.39 2.03,-0.81 0.82,-0.4 1.22,-1.21 1.22,-2.44 -1.63,-0.81 -2.45,-4.87 -3.67,-6.08 -1.22,0.4 -1.64,1.21 -1.64,2.44l0 0 0 0 0 0 0 0 0 0 0 0 0 0 0 0z"/>
   <path class="fil2" d="M65.88 157.01c0,-3.25 0.4,-4.46 3.27,-5.28 3.67,-0.81 4.09,2.03 4.91,3.25 1.22,0.4 1.64,0.4 2.85,0l0 2.03c-1.21,-0.82 -3.67,-0.4 -5.31,-0.4l-4.9 0c-0.4,0 -0.4,0.4 -0.82,0.4l0 0 0 0 0 0zm-0.42 0.79c1.64,0 -0.81,-0.39 4.91,-0.39 2.04,-0.4 4.09,-0.4 5.71,-0.4l0.82 0.81c1.22,-0.81 0.4,-1.63 0.4,-3.65 -1.22,0 -1.64,0.81 -2.86,0.4 -0.81,-1.62 -0.4,-2.44 -2.03,-3.25 -1.64,-0.4 -2.86,-0.4 -4.09,0 -3.67,1.21 -3.67,5.27 -2.86,6.48l0 0 0 0 0 0 0 0 0 0z"/>
   <path class="fil2" d="M84.24 111.98c0,2.44 -1.63,1.63 2.04,3.65 0,0 0,0 0.4,0l-0.82 1.62c-1.22,-1.62 -5.3,-3.64 -6.94,-4.46 -1.22,-0.81 -1.22,-1.21 -2.86,-1.21 0.82,-1.62 1.64,-3.25 4.09,-3.25 2.04,0.4 4.09,1.63 4.09,3.65l0 0 0 0 0 0 0 0 0 0zm-8.56 0c0.4,0.4 0.82,0 1.22,0.4l7.34 4.46c0.82,0.4 0.82,0 0.82,1.21 1.22,-0.4 1.22,-0.4 2.04,-2.02 0.4,-0.81 0,-0.81 0,-0.81 0,0 -2.04,-0.82 -2.46,-1.63 2.04,-5.67 -5.3,-6.9 -7.34,-4.88 -0.82,0.82 -2.04,2.44 -1.64,3.26l0 0 0 0 0 0 0.02 0.01z"/>
   <path class="fil2" d="M145.91 139.96l4.09 -8.11 1.22 0c0,0.4 5.31,10.95 5.31,11.76 -0.82,0.4 -1.64,0.81 -2.86,1.21 -2.45,1.21 -4.49,1.21 -6.94,0.4 -1.64,0 -2.04,-0.81 -2.86,-1.21l0.82 -2.44c1.22,0.81 0.82,2.02 2.46,0.81 0,-1.21 -0.82,-1.62 -1.22,-2.44l0 0 0 0 0 0 0 0 0 0 0 0 0 0 -0.02 0.02 0 0zm-0.82 0.41c0.82,0.82 2.04,1.63 1.22,2.03 -0.82,-0.4 -0.4,-0.82 -1.63,-1.63 -0.4,0.4 -1.22,2.03 -1.64,2.84 2.86,3.65 8.98,2.83 12.66,0.81 0,0 0.4,0 0.81,-0.4l0.82 -0.4c-1.22,-2.43 -5.31,-10.54 -5.71,-12.57l-1.63 0.4c-0.82,0.81 -4.5,8.11 -4.91,8.92l0 0 0 0 0 0 0 0 0 0 0 0 0 0 0.01 0z"/>
   <path class="fil2" d="M148.77 161.06c0.81,-2.03 -0.4,-7.3 0.4,-8.93 0.82,0 0.4,0 0.4,1.63 0,2.43 1.22,1.62 4.91,1.62l3.27 0c1.22,0 0.4,0 0.82,0.4 -0.41,0.4 -0.41,0.4 -1.22,0.4 -3.28,-0.4 -2.86,0 -5.31,0 -0.4,0 -0.82,0 -1.22,0 -1.22,-0.4 -1.22,0.4 -1.22,1.62l0 3.65c-2.86,0.4 -3.67,0.82 -4.09,-0.39 1.64,-0.4 2.04,0.39 3.27,0l0 0 0 0 0 0 0 0 0 0 -0.01 0 0 0zm1.22 -8.93c-0.41,-0.4 -0.41,0 -0.41,-0.4 0,0 0,0 0,0l-1.21 0 0 8.93c-1.22,0 -1.64,-0.4 -3.28,0 0,2.43 2.86,1.62 4.91,1.21l0 -5.28c0.82,-0.4 3.27,0 4.49,0 3.67,-0.4 4.49,0.82 4.49,-1.62l-8.58 0c-0.4,-0.81 -0.4,-2.02 -0.4,-2.84l0 0 0 0 0 0 0 0 0 0 0 0 -0.01 0 0 0z"/>
   <path class="fil2" d="M73.64 117.25c-0.82,-4.46 11.44,-0.81 10.62,3.26 -0.4,3.24 -3.67,2.43 -5.71,1.21 -1.64,-0.4 -4.91,-2.44 -4.91,-4.47l0 0zm7.75 6.08c0.82,0 1.64,0 2.45,-0.82 1.22,-1.21 1.64,-3.25 0,-4.87 -2.45,-2.03 -4.91,-2.84 -8.16,-2.84 -1.64,0 -2.45,0.4 -2.86,2.02 -0.4,2.44 2.86,4.47 4.5,5.28 1.21,0.4 2.85,1.21 4.08,1.21l0 0 0 0 0 0 0 0 0 0 0 0 -0.01 0.02 0 0z"/>
   <path class="fil2" d="M67.1 169.58c2.04,-2.44 7.34,-4.06 9.8,-3.25 1.22,0.4 4.49,4.46 -4.09,6.09 -1.22,0 -2.45,0.39 -3.67,-0.4 -2.04,-0.4 -2.04,-1.21 -2.04,-2.44l0 0 0 0 0 0 0 0 0 0zm7.76 -4.06c-2.45,0.4 -8.16,1.62 -8.16,4.46 0,0.4 0,0.81 0,1.21 0.4,1.21 3.27,2.02 4.49,2.02 2.45,0 6.53,-1.21 7.34,-2.83 0.82,-1.22 0.82,-2.44 0,-3.65 -0.4,-0.81 -2.45,-1.21 -3.67,-1.21l0 0 0 0 0 0 0 0 0 0 0 0z"/>
   <path class="fil2" d="M117.73 137.52c1.22,-0.4 4.49,-0.4 5.71,0.4 2.86,2.02 1.64,1.62 3.27,3.25 1.64,1.21 2.04,2.02 3.27,3.65 0.82,1.21 1.64,2.44 2.46,3.65 -0.4,0.4 -3.67,0.4 -4.09,0 -0.4,-0.81 -0.4,-1.21 -0.82,-2.03 -2.45,-4.06 -3.27,-4.46 -6.53,-6.9 -1.63,-1.62 -2.03,-1.21 -3.27,-2.02l0 0 0 0 0 0 0 0zm3.67 2.85c0.41,0.4 0.41,0 0.41,0.4 0.4,0 0,0 0.4,0.4 2.03,0.81 4.9,5.27 5.71,7.71 1.63,0.4 3.67,0.4 5.31,0l-4.49 -6.48c-0.82,-1.21 -4.91,-5.28 -6.13,-5.28 -1.64,-0.4 -5.71,-0.4 -7.76,-0.4 0.4,0.4 0.4,0.4 0.4,0.4l1.63 0.4c0.4,0.4 1.22,0.4 1.64,0.81l2.45 1.63c0.4,0.4 0.4,0.4 0.4,0.4l0 0 0 0 0 0 0 0 0 0 0.03 0.01 0 0z"/>
   <path class="fil2" d="M234.11 148.07c-0.82,2.02 -3.28,2.44 -5.71,2.84 -2.86,0.39 -5.71,0 -5.71,-2.84 0,-1.63 0.82,-2.02 2.03,-2.44 4.09,-1.62 10.62,-0.4 9.4,2.44l0 0 -0.01 0 0 0zm-9.4 3.25c2.45,0.4 3.27,0 5.31,0 1.63,-0.4 3.27,-0.81 4.09,-2.44 1.63,-1.62 0.82,-2.83 -1.22,-3.65 -1.64,-0.81 -3.27,-1.21 -5.71,-0.81 -0.82,0 -1.64,0 -2.46,0.81 -1.21,0.4 -1.63,0.4 -2.45,1.63 -0.82,2.02 0.4,4.06 2.45,4.46l0 0 0 0 0 0 0 0 0 0 -0.01 0z"/>
   <path class="fil2" d="M129.98 154.97c0.82,0 1.64,0 2.04,0 1.22,0 1.64,-0.4 2.04,0.4 0.4,2.02 0,2.43 1.64,3.25 1.21,0.81 7.34,0.81 9.39,0.81 -1.22,0.4 -2.45,0.4 -3.67,0.4l-11.84 -0.81 0.4 -4.07 0 0 0 0 0 0 0 0 0 0 0 0.02zm5.72 3.25l-0.41 -0.4c-0.81,-0.4 -0.4,0 -0.4,-0.4 -0.4,-0.4 -0.4,-0.4 -0.4,-0.4 0,-0.81 0,-0.81 0,-1.21 0,-1.62 -0.4,-1.21 -2.04,-1.21 -0.81,0 -2.03,0 -2.85,0l-0.4 5.28 13.89 0.39c2.85,0 0.4,-0.39 4.49,-0.39l0 -1.22c-2.46,0.4 -10.62,0.82 -11.84,-0.39l0 0 0 0 0 0 0 0 0 0 0 0 0 0 -0.04 -0.05 0 0z"/>
   <path class="fil2" d="M168.37 134.29c6.52,0.4 12.65,0 18.78,0.4 -0.4,0.39 -0.82,0.39 -1.22,0.81l-7.77 7.71 -9.39 0 -0.4 -8.92 0 0 0 0 0 0 0 0 0 0 0 0 0 0zm0 9.32l9.79 0.4c0.41,-0.4 1.64,-2.44 2.46,-2.84 0,-0.4 0.82,-0.81 1.22,-1.21l3.67 -3.65c1.22,-0.81 2.45,-1.21 3.27,-2.02 -3.27,-0.4 -6.94,0 -10.2,0 -3.67,0 -6.94,0 -10.62,-0.4l0.41 9.73 0 0 0 0 0 0 0 0 0 0 0 0 0 -0.01 0 0z"/>
   <path class="fil2" d="M90.37 148.48c0,-4.46 -1.63,-3.65 0.82,-5.67l2.45 -2.84c0,-0.39 0.4,-0.39 0.4,-0.39 2.04,-2.03 2.86,-2.03 3.27,-2.84l2.86 0.4 0 0.81c-0.4,0.4 -0.82,0.4 -1.64,1.21l-2.85 2.03c-0.4,0.39 -0.82,0.81 -1.22,1.21 -1.22,1.21 -2.04,2.83 -2.86,4.46 -0.4,0.81 -0.4,1.21 -1.21,1.62l0 0 0 0 0 0 0 0 0 0 0 0 -0.02 0 0 0zm-0.82 -4.87c0,1.62 0.4,3.25 0.4,5.27 1.22,0 1.22,0 1.64,-1.21 0.4,-0.81 0.4,-1.21 0.82,-1.62 1.63,-2.84 5.71,-6.9 8.16,-7.72 0,-0.4 0,-0.81 0,-1.21 0,-0.4 0,-0.4 -0.4,-0.4 -0.4,-0.39 -2.04,-0.39 -2.85,-0.39 -0.82,0.39 -4.91,4.06 -5.72,5.27 -0.81,0.4 -1.63,1.62 -2.03,2.02l0 0 0 0 0 0 0 0 0 0 -0.02 -0.01 0 0z"/>
   <path class="fil2" d="M186.33 143.61l-2.46 0c0.82,-2.03 3.28,-4.46 4.91,-5.28 0.82,-0.4 0.4,-0.4 1.22,-0.4l0 2.84c-1.22,0.81 -2.85,2.03 -3.67,2.84l0 0 0 0 0 0 0 0zm6.94 -7.3l-0.4 3.25 -2.04 0.4 0 -2.84 2.46 -0.81 0 0 0 0 0 0 0 0 0 0 -0.02 0zm-2.85 0.41l0 3.25 -0.4 -2.83c-2.46,1.21 -3.68,2.44 -5.31,4.87l-1.64 2.03 3.27 0c0.82,-0.82 2.04,-1.63 3.28,-2.44 0.81,-0.4 0.81,-0.81 1.63,-1.21 0.82,0 1.64,-0.4 2.04,-0.81l0.4 -4.07 -3.27 1.21 0 0 0 0 0 0 0 0 0 0 0 0z"/>
   <path class="fil2" d="M104.26 133.47c2.04,-0.39 6.13,-0.81 8.58,-0.39 1.64,0.39 5.71,1.62 6.53,2.43 -4.91,0.4 -9.8,-0.4 -14.71,0l-0.4 -2.02 0 0 0 0 0 0 0 -0.02zm-0.42 -0.41l0.4 2.84c0.82,0 1.64,0 3.68,0 1.63,0 3.27,0 4.49,0 2.85,0 5.71,0 8.58,0 -0.4,-0.4 -0.4,-0.4 -1.64,-0.82 -5.71,-2.83 -9.4,-2.83 -15.51,-2.02l0 0 0 0 0 0z"/>
   <path class="fil2" d="M224.31 148.07c0.81,-0.81 7.34,-1.21 8.58,-0.4 -0.82,0.4 -2.86,0.81 -4.09,0.81 -1.64,0 -3.68,0.4 -4.49,-0.4l0 0 0 -0.01 0 0zm-0.82 0c0.4,0.81 0.82,1.21 2.04,1.21 0.81,0 2.03,0 3.27,0 2.85,-0.4 4.49,-0.4 4.91,-2.02 -2.46,-0.82 -2.46,-0.82 -5.31,-0.4 -1.64,0 -4.49,-0.4 -4.91,1.21l0 0 0 0 0 0 0 0 0 0 0 0 0 0z"/>
   <path class="fil2" d="M68.73 170.39c0,-0.4 -0.4,0 0.41,-0.4 0.4,-0.4 6.52,-2.02 7.76,-1.62 0,1.21 -2.86,1.21 -3.67,1.62 -1.22,0 -3.68,0.82 -4.5,0.4l0 0 0 0 0 0 0 0zm-0.81 0c0.81,1.21 3.27,0.4 4.9,0 2.04,0 3.28,0 4.91,-1.21l0 -1.21c-1.63,-0.81 -3.67,0 -5.31,0.4 -1.63,0.4 -4.49,0.4 -4.49,2.02l0 0 0 0 0 0 0 0 0 0 -0.01 0 0 0z"/>
   <path class="fil2" d="M109.15 158.22c1.64,-1.21 2.46,-0.4 2.46,-4.06 1.21,1.62 0,5.27 -2.46,4.06zm-0.82 -2.84c0.4,-0.81 0.82,-1.21 2.04,-1.21l0.4 0.4c1.22,3.25 -3.27,4.46 -2.45,0.81l0 0 0 0 0 0 0 0 0.01 0 0 0zm-0.4 2.03c-0.4,-0.4 -0.4,-0.82 -0.4,-1.63 -0.4,-1.62 1.22,-2.83 2.46,-2.44 -1.22,1.22 -3.28,1.22 -2.04,4.07l0 0 0 0 0 0 -0.02 0 0 0zm-1.22 -1.63c0,0.81 0.41,1.63 0.82,2.02 4.91,3.65 6.95,-4.06 2.46,-4.87 -1.64,-0.4 -3.28,1.21 -3.28,2.84l0 0 0 0 0 0.01z"/>
   <path class="fil2" d="M161.42 76.27c-0.82,-2.02 0.82,-6.89 1.22,-8.92 0.82,0.81 0,3.65 0,4.88 0,1.21 -0.4,4.06 -1.22,4.06l0 0 0 0 0 -0.02zm-0.82 -1.21c0,1.21 0,1.63 0.82,2.44 1.64,-0.81 1.64,-3.25 2.04,-4.87 0,-2.03 0.4,-4.88 -0.4,-6.09 -0.82,0.4 -0.82,0.4 -1.22,1.62 -0.4,1.63 -1.22,5.28 -1.22,6.9l0 0 0 0 0 0 0 0 0 0 -0.02 0 0 0z"/>
   <path class="fil2" d="M82.62 120.49c-1.63,0.4 -6.52,-2.44 -7.76,-3.65 2.04,0 5.71,2.44 6.53,2.44 0.82,0.4 1.22,0.4 1.22,1.21l0 0 0 0 0 0 0.01 0zm0.82 0.81c0,-1.62 -0.4,-2.02 -2.04,-2.44 -1.22,-0.39 -5.7,-3.64 -7.34,-2.02 0.4,0.4 0.4,0.81 1.64,1.63 0.81,0.39 1.63,0.81 2.45,1.21 1.22,0.81 3.67,2.02 5.31,1.62l0 0 0 0 0 0 0 0 -0.02 0 0 0z"/>
   <path class="fil2" d="M135.29 155.38l2.86 0c0,1.21 0,1.21 0.82,1.63l7.76 0.4c0.82,0 0.4,-0.4 0.4,0.81 -4.09,0 -7.35,-0.4 -11.43,-0.4 -0.41,-1.21 -0.41,-1.21 -0.41,-2.44l0 0 0 0 0 0 0 0 0 0 0 0 0 0 0 0zm0 2.42c0.41,0 0,-0.81 0.41,0.4 2.03,0 3.67,0.4 5.71,0.4 2.03,0 4.08,0 6.12,0l0 -1.62 -8.58 -0.4c-0.4,0 -0.4,-0.4 -0.4,-0.4l-0.4 -1.21 -0.4 0 -2.86 0 0 1.62c0,0.4 0,0.4 0.4,0.4l0 0.81 0 0 0 0 0 0 0 0 0 0 0 0z"/>
   <path class="fil2" d="M199.4 158.22c2.45,0.4 2.45,-0.81 2.45,-3.25 1.64,2.83 -1.22,4.87 -2.45,3.25zm1.63 -3.25c1.22,2.83 -1.21,3.65 -2.03,2.44 -0.82,-0.82 0,-2.84 2.03,-2.44zm-3.27 0.81c0,-0.81 0.82,-2.83 2.86,-1.62 -2.86,0.81 -1.22,0.81 -2.45,2.43l-0.41 -0.81 0 0 0 0 0 0 0 0zm1.22 -2.44c-3.27,1.22 -1.22,7.3 2.46,5.68 0.4,0 0.81,-0.82 1.22,-1.63 0.4,-0.81 0,-1.21 -0.41,-2.02 -0.4,-1.21 0,-0.81 -1.22,-1.63 -0.4,0 -1.21,-0.4 -2.03,-0.4l0 0 0 0 0 0 0 0 0 0 0 0 -0.02 0z"/>
   <path class="fil2" d="M163.06 136.31l0 1.21 -1.22 -0.4 -3.68 0.4 0 -5.27 5.31 0.4 -0.4 3.65 0 0 0 0 0 0 -0.01 0.01 0 0zm-0.42 -4.46c-0.82,-0.81 -4.09,-0.4 -4.91,-0.4 0.4,0.81 -0.4,0.4 0,3.25 0,0.81 0,2.02 0,3.25 1.22,0 1.64,-0.4 2.86,0 0.82,0 2.03,0 2.85,0l0.4 -5.67 -5.31 -0.4 4.09 0 0 0 0 0 0 0 0.02 -0.03z"/>
   <path class="fil2" d="M149.17 128.6c0.4,-0.4 0.4,-0.4 0.4,-0.4 0.4,0.81 0,1.21 -0.4,2.02 -1.22,2.03 -0.82,1.63 -1.64,2.44l1.64 -4.06 0 0 0 0 0 0zm-4.89 10.96c0.4,0 0.4,0 0.81,-1.21 0.4,-0.4 0.4,-0.81 0.82,-1.21 0.4,-1.21 0.82,-2.03 1.64,-2.84 0.82,-1.62 2.03,-3.65 2.85,-5.67l-0.82 -1.21c0,0 0,0 0,0l-0.4 0.4c0,0.4 0,0.4 -0.4,0.81l-3.27 7.71c-0.4,0.81 -1.22,2.44 -1.22,3.25l0 0 0 0 0 0 0 0 0 0 0 0 0 0 -0.01 -0.03 0 0z"/>
   <path class="fil2" d="M86.3 152.13c2.85,-0.4 1.63,-0.4 2.45,-2.02l1.22 -0.4c0,0.81 0,1.63 -0.4,2.44 0,0.4 -0.4,1.62 -0.4,2.44 -1.22,-0.4 -1.64,-0.4 -2.86,0.39l0.4 2.44c-0.81,-0.4 -1.22,-0.81 -1.63,-1.62l1.22 -3.65 0 0 0 0 0 0 0 0 0 0 0 0 0 -0.02 0 0zm3.25 2.84c0,-0.81 0,-2.02 0.4,-2.84 0.41,-0.81 0.82,-1.62 0.82,-2.83 -0.82,0 -1.63,0 -2.45,0.39l-0.4 1.63c-0.4,0.4 -1.22,0.4 -2.04,0.81l-1.22 3.65c0.4,1.21 1.22,1.63 2.45,2.44 0.41,-1.63 -0.4,-1.63 -0.4,-3.25 1.64,-0.81 1.64,0 2.86,0l0 0 0 0 0 0 0 0 0 0 0 0 -0.02 0 0 0z"/>
   <path class="fil2" d="M221.44 175.25c1.22,0 2.45,1.21 3.27,1.63l-3.67 -0.4 0.4 -1.21 0 0 0 -0.02zm5.31 2.44l0.81 0c-0.81,-0.81 -5.31,-3.25 -6.52,-3.25l-0.82 1.62c0,1.21 0.4,1.21 1.63,1.21 1.64,0 3.27,0.4 4.91,0.4l0 0 0 0 0 0 0 0 -0.01 0.02z"/>
   <path class="fil2" d="M137.33 136.72l1.64 -0.39c0.4,2.02 0,2.83 0.81,5.67 0.4,0.81 0.82,0.81 0.82,1.21l-0.4 1.21c-1.22,-0.81 -2.85,-5.27 -2.85,-7.71l0 0 0 0 0 0 0 0 -0.02 0.01zm2.04 7.3c0,0.4 0,0 0.4,0.81 0.4,0.82 0,0 0.4,0.4 0.4,-0.4 0.82,-1.21 1.22,-2.02 -0.82,-0.81 -0.82,-0.81 -1.22,-1.63 -1.64,-5.27 0.82,-6.08 -3.27,-5.27 0,1.62 0.4,3.25 0.82,4.46 0.4,1.21 1.22,2.44 1.63,3.25l0 0 0 0 0 0 0 0 0 0 0.02 0z"/>
   <path class="fil2" d="M120.59 114.82c2.85,0.4 3.27,3.25 3.67,6.48 -0.4,0 -1.64,-0.4 -2.04,-0.81 -0.82,-0.4 -1.22,-0.4 -1.63,-1.21 -0.4,-2.03 -0.4,-2.84 0,-4.46l0 0 0 0 0 0 0 0 0 0zm4.49 6.9c-0.4,-3.25 -1.22,-7.72 -4.91,-7.72 -0.82,2.44 -0.4,3.65 0.4,5.68 0.4,1.21 2.86,2.02 4.49,2.02l0 0 0 0 0 0 0 0 0 0 0.02 0.02 0 0z"/>
   <path class="fil2" d="M155.71 67.35c0,-0.4 0,0 0.4,-0.4 0,0.82 0.4,4.88 -0.82,5.28l0.41 -4.88 0 0 0 0 0 0 0.01 0zm0 5.28c1.22,-2.03 1.64,-4.07 0.4,-6.49 -1.22,0.4 -1.22,0.81 -1.22,3.65 -0.4,1.62 -0.82,2.84 0.82,2.84l0 0 0 0 0 0 0 0 0 0 0 0z"/>
   <path class="fil2" d="M67.1 154.57c0.82,-0.4 1.63,-0.81 2.85,-0.81 1.64,0 2.04,0 2.04,0.81l-4.49 0c-0.4,0 0,0 -0.4,0l0 0 0 0 0 0 0 0 0 0 0 0 0 0zm5.72 0.81c0.41,-2.83 -3.67,-2.02 -5.71,-1.62 -0.4,0 -0.81,0.81 -0.4,1.21 0.4,0.4 1.64,0.4 2.04,0.4 1.22,0 2.85,0 4.09,0l0 0 0 0 0 0 0 0 -0.02 0.01 0 0z"/>
   <path class="fil2" d="M78.53 109.94c0.82,0 1.64,0.4 2.46,0.81 0.82,0.82 2.04,0.82 2.04,2.03 -0.82,0 -4.1,-2.03 -4.5,-2.84l0 0 0 0 0 0 0 0zm4.91 3.25l0 -0.81c-0.4,-2.02 -6.12,-4.06 -5.71,-2.02 0,0.39 2.04,1.62 2.86,2.02 2.03,1.21 1.63,1.21 2.85,0.81l0 0 0 0 0 0 0 0z"/>
   <path class="fil2" d="M156.53 160.24l-4.91 0 0 -2.44 6.13 0 -1.22 2.44 0 0 0 0 0 0 0 0zm1.62 -2.83c-2.45,-0.4 -4.49,0 -6.95,0 0.41,1.62 0,2.02 0,3.25l5.31 0 1.64 -3.25 0 0 0 0 0 0 0 0 0 0 0 0z"/>
   <path class="fil2" d="M138.97 154.57c2.45,0 5.31,-0.4 8.16,0l0 1.21 -7.76 0 -0.4 -1.21 0 0 0 0 0 0 0 0zm-0.82 -0.41c0,0 0.4,0.81 0.4,0.81 0,0.4 0,0.81 0.4,1.21l8.58 0.4 0 -2.44 -9.4 0 0 0 0 0 0 0 0 0 0.02 0.02 0 0z"/>
   <path class="fil2" d="M232.05 127.79c-0.4,-1.21 0,-1.63 -0.81,-2.84l1.22 0c0.81,1.21 0,2.02 0.81,3.25 -0.4,0 -0.81,0 -1.22,-0.4l0 0 0 0 0 -0.01 0 0zm-1.62 -2.84l0.82 0.81c0.4,2.84 0,3.25 2.86,2.84l0.4 -0.81 -0.82 -0.4c0,-1.21 0,-2.44 -0.82,-3.25 -1.22,0 -2.45,0 -2.45,0.81l0 0 0 0 0 0 0 0 0.01 0 0 0z"/>
   <path class="fil2" d="M99.35 164.7c0.4,-0.81 3.27,-2.43 3.67,-2.43l0.82 0.81 -2.45 3.65c-1.22,-0.4 -1.64,-1.21 -2.04,-2.03l0 0 0 0 0 0 0 0zm4.91 -3.23c0,0 0,0 0,0.4 -0.82,-0.81 0,-0.4 0,-0.4zm0 1.21c0,0 0.4,-0.4 0.4,-0.81 0.82,-1.21 -0.82,-0.81 -1.22,-0.4l0.4 0.4 -0.82 0c-0.81,0 -3.67,2.02 -4.49,2.44 0.82,1.62 1.64,2.43 3.28,2.83 0.4,-0.81 1.21,-2.02 1.63,-2.83 0.82,-1.63 0.4,-1.22 0.82,-1.63l0 0 0 0 0 0 0 0 0 0 0 0z"/>
   <path class="fil2" d="M205.53 158.62l5.71 0c0,1.62 -0.4,2.02 -0.82,3.25 -0.82,-0.4 -4.49,-2.84 -4.91,-3.25l0 0 0 0 0 0 0.02 0zm0 0.81c0,0 0,0 0.4,0 0.4,0.4 0.4,0.4 0.4,0.4 0.82,0.4 3.27,2.02 4.49,2.44 0.4,-1.63 0.82,-1.63 0.82,-4.07 -1.22,0 -6.13,-0.4 -6.95,0.4 0.4,0.4 0.4,0.4 0.82,0.81l0 0 0 0 0 0 0.02 0.02z"/>
   <path class="fil2" d="M161.84 130.22c0,0.4 0,0.4 0.4,0.82 0.82,0 0.4,-0.4 1.22,0.4l-3.67 -0.4c0.4,-1.63 0.4,-2.44 0.4,-4.07l1.22 0c0.4,1.21 0,2.03 0.4,3.25l0 0 0 0 0 0 0 0 0 0 0 0 0 0 0.03 0zm-4.09 1.23c0.82,0 4.09,-0.4 4.91,0.4l0.4 0 0.81 0 0 -0.81c-0.81,-0.4 -0.81,-0.4 -1.63,-0.4 -0.4,-1.21 -0.4,-2.44 -0.4,-4.06l-2.04 0c0,1.21 0,2.83 0,4.06 -1.22,0 -2.04,-0.4 -2.04,0.81l0 0 0 0 0 0 0 0 -0.01 0 0 0z"/>
   <path class="fil2" d="M76.9 184.17c0.82,-1.21 2.45,-1.62 4.09,-1.62 -0.4,0.81 -3.27,1.62 -4.09,1.62zm-0.4 0.82c1.22,0 2.03,-0.4 2.85,-0.82 2.86,-1.21 2.86,-1.21 1.64,-2.43 -1.22,0 -2.04,0 -3.27,1.21 -1.22,0.4 -1.64,0.81 -1.22,2.02l0 0 0 0 0 0 0 0 0 0.02z"/>
   <path class="fil2" d="M95.28 94.93c0.4,0.4 2.45,0.4 2.85,3.25 -0.81,-0.4 -0.81,-0.81 -1.63,-1.62 -0.82,-0.82 -0.82,-0.82 -1.22,-1.63l0 0 0 0 0 0zm-0.82 0c0.4,0.81 2.86,4.06 3.67,4.06 1.64,-0.39 -0.4,-4.87 -3.27,-4.87l-0.4 0.81 0 0 0 0 0 0z"/>
   <path class="fil2" d="M111.2 142.8c1.22,0 2.86,0.39 3.28,0.81 0,1.21 -0.82,1.62 -1.22,2.02 -0.4,0.81 -0.4,1.63 -0.82,2.44l-1.22 -0.4 0 -4.87 0 0 0 0 0 0 0 0 -0.02 0zm-0.41 5.27l1.63 0.4c0.82,-0.81 0.82,-1.63 1.22,-2.44 0.82,-0.81 1.22,-1.62 1.64,-2.84 -1.64,-0.39 -2.86,-1.21 -4.91,-0.81l0.4 5.67 0 0 0 0 0 0 0 0 0.02 0.02 0 0z"/>
   <path class="fil2" d="M206.34 155.38c0.41,-0.81 3.28,-2.83 4.09,-3.25l0.82 3.25 -4.91 0 0 0 0 0 0 0zm-1.23 0l4.09 0.4 1.64 0 0.81 0c0,-1.21 -0.4,-3.25 -1.22,-4.46 -0.4,0.4 -5.31,3.65 -5.31,4.06l0 0 0 0 0 0 0 0 0 0 -0.01 0 0 0z"/>
   <path class="fil2" d="M159.38 153.34c-1.63,0.4 -3.27,0.4 -4.9,0.4 -0.82,0 -2.46,-0.4 -3.68,0 -0.81,0 -0.4,-0.4 -0.4,0.4 0.4,0.4 -0.4,0.4 1.22,0.4 2.45,-0.4 6.53,0 7.76,-0.4l0 -0.81 0 0 0 0 0 0 0 0 0 0 0 0 0 0.01 0 0z"/>
   <path class="fil2" d="M117.33 167.14c-1.22,-0.81 -0.82,-2.02 -1.64,-2.83l2.04 -1.63c0.82,0 2.04,0.81 2.46,1.21 -0.41,0.81 -2.04,2.44 -2.86,3.25l0 0 0 0 0 0 0 0 0 0 0 0zm-0.42 0.4c1.64,-0.81 3.28,-2.44 4.09,-4.06 -0.4,-0.4 -2.85,-1.21 -3.67,-1.21 0,0.4 -1.22,1.21 -2.04,1.62 0.4,0.81 0,0 0.82,2.03 0.4,0.81 0.82,1.21 0.82,1.62l0 0 0 0 0 0 0 0 0 0 0 0 -0.02 0z"/>
   <path class="fil2" d="M162.64 145.23l-0.4 2.03c-1.64,0 -2.86,0.4 -4.49,0.4l4.91 -2.44 0 0 0 0 0 0 0 0 0 0 -0.02 0.01 0 0zm-6.93 2.84c2.45,0.4 4.49,0 6.95,-0.4l0.4 -2.84 -7.35 3.25 0 0 0 0 0 0 0 0 0 -0.01 0 0z"/>
   <path class="fil2" d="M106.71 165.12l1.22 0c0,1.62 -0.4,2.43 0,4.06l-3.27 -0.81 2.04 -3.25 0 0 0 0 0.01 0 0 0zm1.62 4.46c0,-0.81 -0.4,-1.63 -0.4,-2.44 0.4,-0.81 0.4,-1.62 0.4,-2.02l-1.63 -0.81 -1.64 2.43c-0.4,0.4 -0.82,1.63 -1.22,2.03 1.22,0.39 2.86,0.81 4.49,0.81l0 0 0 0 0 0 0 0z"/>
   <path class="fil2" d="M204.29 152.13c0.4,-0.81 2.04,-3.65 2.46,-4.46 0.81,0.4 1.63,1.21 1.63,1.63 -0.4,0.81 -3.27,2.83 -4.09,2.83l0 0 0 0 0 0zm-0.82 0.82c2.86,-0.82 4.49,-2.84 5.71,-3.26 -0.4,-0.81 -1.63,-2.02 -2.45,-2.43l-3.27 5.67 0 0 0 0 0 0 0 0 0 0 0 0 0.01 0.02z"/>
   <path class="fil2" d="M86.7 150.51c0,-0.4 0.4,-0.4 0.4,-0.4l0 0.81c-0.82,-0.4 -0.4,0.4 -0.4,-0.4l0 0 0 0 0 0 0 0 0 -0.01zm0.41 -1.63c0.41,-0.81 0.82,-2.02 1.64,-2.44l0 1.63 -1.64 0.81 0 0 0 0 0 0zm2.04 -0.4l-0.4 -3.25c-0.82,0.82 -2.45,4.46 -2.85,6.09 2.03,0 1.63,-0.4 1.63,-2.02l1.64 -0.82 0 0 0 0 0 0 -0.02 0 0 0z"/>
   <path class="fil2" d="M113.24 165.52c0,1.62 0.82,1.62 0.82,3.25l-3.27 0.39 0.4 -3.24 2.04 -0.4 0 0 0 0 0 0 0 0 0 0 0.01 0 0 0zm1.22 2.02l-1.22 -2.02 -2.45 0c-0.4,0.4 -0.4,4.06 -0.4,4.46l4.09 -0.82 0 -1.62 0 0 0 0 0 0 0 0 -0.02 0 0 0z"/>
   <path class="fil2" d="M117.33 154.57c0.4,0 0,0 0.82,0 0,0 4.49,0 4.91,0.4 -0.41,0.4 0.4,0 -0.82,0l-3.27 0c-2.04,0 -1.22,0 -1.64,-0.4l0 0 0 0 0 0 0 0 0 0zm-0.42 0.81l6.53 0.4 0 -1.21 -6.53 -0.81 0 1.62 0 0 0 0 0 0z"/>
   <path class="fil2" d="M190.82 150.11c0,-0.81 0.4,-1.21 0.82,-1.63 0.82,-0.81 1.22,-1.21 2.03,-1.21l1.22 2.44 -4.09 0.4 0 0 0 0 0 0 0.02 0 0 0zm-0.82 0c1.64,0.4 0.82,0.4 2.46,0.4 3.67,-0.4 3.67,0 2.03,-2.84l-0.82 -1.21c-1.63,0.81 -3.27,2.44 -3.67,3.65l0 0 0 0 0 0 0 0z"/>
   <path class="fil2" d="M121.82 151.32c0.82,0.81 0.82,0.81 0.82,2.02l-3.67 0 2.85 -2.02 0 0 0 0 0 0 0 0zm0.4 -0.81c-0.82,0.4 -4.09,2.44 -4.9,2.83l5.71 0.4c0,-1.21 0,-2.02 -0.82,-3.25l0 0 0 0 0 0 0.01 0.02z"/>
   <path class="fil2" d="M161.84 154.16c0.4,-0.4 4.49,-0.4 4.49,-0.4 0.82,0 0.4,0 0.82,0 -0.41,0.81 0,0.4 -0.82,0.81l-3.67 -0.4c-1.22,0 -0.41,0.4 -0.82,0l0 0 0 0 0 -0.01zm6.11 -1.21l-6.53 0.81 0 1.21 5.71 -0.4 0.82 -1.62 0 0 0 0 0 0 0 0 0 0 0 0z"/>
   <path class="fil2" d="M169.18 153.76l2.86 0c-0.4,0.4 -0.82,1.21 -0.82,1.62l-0.82 1.21c0,0.4 0,0.4 0,0.4 -0.82,-0.81 -0.82,-2.43 -1.22,-3.25l0 0 0 0 0 0 0 0.02zm-0.41 0.4c0,0 0,0 0.4,0.4l0.4 1.62c0,0.81 0.4,1.21 0.4,2.02 0.82,-0.4 2.45,-4.46 2.45,-5.27l-4.09 0.4 0.4 0.81 0 0 0 0 0 0 0 0 0 0 0.04 0.02z"/>
   <path class="fil2" d="M121.82 161.47l-2.04 -1.21 0.82 -2.03 2.04 0 -0.82 3.25 0 0 0 0 0 -0.01zm0 0.8c0.82,-1.21 1.22,-3.25 1.64,-4.47l-2.86 0c-0.4,0.4 -1.22,2.03 -1.63,2.84l2.85 1.63 0 0 0 0 0 0 0 0z"/>
   <path class="fil2" d="M96.5 159.43l-0.4 -1.21c1.63,0 4.09,-0.4 5.31,0.4 -0.41,0.4 -1.64,0.4 -2.46,0.81 -0.82,0 -1.63,0 -2.45,0l0 0 0 0zm4.91 -1.21c0,0 0.4,0 -0.41,-0.4l-0.81 0c-2.04,0 -2.46,0 -4.5,0.4 0.41,3.25 1.64,1.62 6.13,1.21l-0.4 -1.21 0 0 0 0 0 0 0 0 0 0 0 0 -0.01 0z"/>
   <path class="fil2" d="M117.33 145.23c0.4,0.4 1.64,0.82 1.64,1.21 0,0 0.81,1.22 1.22,1.22l-4.09 0 1.22 -2.44 0 0 0 0 0 0 0 0 0.01 0.01 0 0zm0 -0.4c-0.4,0.4 -1.64,2.84 -1.64,3.25l5.31 0 -1.63 -2.02c-0.4,-0.4 -1.22,-0.81 -2.04,-1.21l0 0 0 0 0 0 0 0 0 0 0 0 0 -0.02z"/>
   <path class="fil2" d="M100.99 145.65l1.63 2.43 -3.67 0c0.4,-0.81 1.22,-1.62 2.04,-2.43l0 0 0 0 0 0zm-2.86 2.42c0.82,0.81 2.46,0.4 3.68,0.4 1.21,0 1.63,0.4 1.21,-0.81 -0.81,-0.82 -1.21,-2.03 -2.03,-2.84 0,0.4 -0.4,0.81 -0.4,0.81 -1.64,1.63 -1.22,0.81 -2.46,2.44l0 0 0 0 0 0 0 0 0 0z"/>
   <path class="fil2" d="M158.97 135.5c0,-0.4 0,-0.81 0,-1.21 0.4,-1.21 1.22,-1.21 2.45,-1.21l0.4 0.39 0.4 0.4c0,1.63 -0.4,2.03 -1.63,2.44 -0.4,0 -1.22,0 -1.64,-0.81l0 0 0 0 0 0 0 0 0.02 0zm3.67 -2.03c-0.4,0 -1.22,-1.21 -2.85,-0.39 -1.22,0.39 -1.22,2.02 -1.22,2.83 0.81,1.21 4.09,2.02 4.09,-2.44l0 0 -0.02 0 0 0z"/>
   <path class="fil2" d="M161.84 157.01l3.67 0.4c-0.4,0 0,0 -0.4,0.39l-3.67 0 0.4 -0.81 0 0 0 0 0 0 0 0.02 0 0zm4.89 0l-4.91 -0.4 -0.82 1.62c2.46,0 3.27,0 5.71,-0.81l0 -0.4 0 0 0 0 0 0 0.02 -0.01z"/>
   <path class="fil2" d="M115.28 150.92l-0.4 -0.4 0.4 -1.21 2.85 0c-0.81,0.4 -1.63,1.21 -2.85,1.63l0 0 0 0 0 0 0 -0.02zm0 0.81c1.22,-0.81 3.27,-2.02 4.09,-2.83l-4.09 0 -1.22 1.62 1.22 1.21 0 0 0 0 0 0 0 0z"/>
   <path class="fil2" d="M193.27 151.32c1.64,-0.4 2.86,-0.81 2.86,1.21 -0.82,0 -2.04,-0.4 -2.86,-1.21zm-1.63 -0.4c0.4,0.81 4.09,2.44 4.9,2.03 0.41,-0.82 0.41,-0.4 0,-1.63 -1.21,-1.21 -2.45,-0.4 -4.9,-0.4l0 0 0 0z"/>
   <path class="fil2" d="M179.8 152.95l1.22 0 -0.4 3.24c-0.82,0.4 -0.82,0.4 -1.64,0l0.82 -3.24 0 0 0 0zm1.64 0l-2.04 0 -0.82 3.64 2.46 0.4 0.4 -4.06 0 0 0 0 0 0 0 0 0 0 0 0.02z"/>
   <path class="fil2" d="M180.2 151.32c0,-0.4 0,-0.81 0.4,-1.63 0,-0.81 0,-0.81 1.22,-0.81l0.82 0 -1.22 2.44 -1.22 0 0 0 0 0 0 0 0 0 0 0 0 0zm2.86 -2.84c-0.82,0 -1.64,0 -2.46,0 -0.4,0.82 -0.81,2.44 -1.22,3.65l2.46 0 1.22 -3.65 0 0 0 0 0 0z"/>
   <path class="fil2" d="M80.57 191.07c0.4,-0.4 0.82,-0.81 1.22,-0.81 -0.4,0.4 -0.4,0.4 -1.22,0.81zm-1.64 0.82c1.64,0 2.86,0 3.68,-1.22 0,-0.81 -0.4,-0.81 -0.82,-1.21 -0.82,0.4 0,-0.4 -1.64,0.82 -0.4,0.81 -0.81,0.81 -1.22,1.62l0 0 0 0 0 0 0 0 0 0 0 0 0 0 0 -0.01z"/>
   <path class="fil2" d="M189.6 84.38l0.4 0.4c-0.82,0 -0.4,0.4 -0.4,-0.4 0,-0.39 0,0 0,0l0 0 0 0 0 0 0 0 0 0zm0 0l0.4 -0.81c0,1.21 0,0.81 -0.4,0.81zm1.64 -2.02l0 -0.4c-0.41,0 -2.86,2.44 -2.46,3.25 0.4,0.82 1.22,0.4 1.64,-0.4l0.82 -2.43 0 0 0 0 0 0 0 0 0 -0.02 0 0z"/>
   <path class="fil2" d="M201.84 145.65l1.63 0.4c0,0.39 -0.4,0.81 -0.81,1.21 -0.41,1.21 -0.41,1.21 -0.41,1.21l-0.4 -2.84 0 0 0 0 0 0 0 0 -0.01 0.02 0 0zm0.41 3.65l2.04 -3.65 -2.85 -0.82c0,1.22 0,2.03 0,2.84 0,1.21 0,1.21 0.81,1.63l0 0 0 0 0 0 0 0z"/>
   <path class="fil2" d="M181.44 147.26c0.4,-1.21 0.4,-1.21 0.81,-1.63l2.04 0c0,0.81 -0.4,1.21 -0.82,1.63l-2.03 0 0 0 0 0zm-0.42 0.41l2.45 0c0.4,-0.4 1.64,-2.02 1.64,-2.44l-2.86 -0.4c-0.81,1.22 -1.21,1.22 -1.21,2.84l0 0 0 0 0 0 0 0 -0.02 0 0 0z"/>
   <path class="fil2" d="M198.58 147.26c-1.22,-0.4 -2.04,0 -2.04,-1.21 0.41,-0.4 1.64,-0.4 2.46,-0.4l-0.4 1.62 0 0 0 0 -0.02 -0.01 0 0zm-2.45 -1.61c0,1.62 1.22,1.62 2.85,2.02l0.4 -2.84c-0.81,0.4 -2.85,0.4 -3.27,0.82l0 0 0 0 0.02 0z"/>
   <path class="fil2" d="M167.15 160.24l1.63 -0.4 -0.4 2.03c-0.82,-0.4 -0.82,-0.81 -1.22,-1.63l0 0 0 0 0 0 -0.01 0 0 0zm2.43 -0.81l-3.27 0.4c0,0.4 0.4,1.21 0.82,1.62 0.4,0.4 0.82,0.82 1.64,0.82l0.81 -2.84 0 0 0 0 0 0 0 0 0 0 0 0z"/>
   <path class="fil2" d="M118.55 159.84l-1.22 -0.81 0 -1.21 2.04 0 -0.82 2.02 0 0 0 0 0 0 0 0 0 0 0 0 0 0zm-1.22 -0.41c0.4,0.4 0,0 0.4,0.4 0.4,0 0,0 0.4,0l0 0.4 0.82 0 1.22 -2.44 -2.85 -0.4 -0.41 2.02 0.41 0 0 0 0 0 0 0 0 0 0 0 0 0 0.01 0.02z"/>
   <path class="fil2" d="M100.99 135.5c0,-1.21 0.4,-1.21 1.22,-1.63l0.4 1.63 -1.64 0 0 0 0.02 0zm-0.4 0c0.82,0.4 1.63,0.4 2.45,0.4l-0.4 -2.44c-1.22,0 -2.04,0.81 -2.04,2.02l-0.01 0.02z"/>
   <path class="fil2" d="M178.57 157.8c0.4,0 0,0 0.81,-0.39 1.64,0 1.22,0.39 1.22,0.39l-2.03 0 0 0 0 0 0 0 0 0 0 0zm-0.41 -0.79c0,1.21 0,1.62 0.82,1.21 0.82,0 1.22,0 2.04,0l0 -1.21 -2.86 0 0 0 0 0 0 0 0 0 0 0z"/>
   <path class="fil2" d="M159.79 135.5c0,-1.21 0.4,-1.63 1.63,-1.63 0,1.21 -0.4,1.63 -1.63,1.63zm-0.41 -0.81l0 0.81c0.41,0.4 1.22,0.4 2.04,0 0.4,-0.4 0.4,-0.81 0.4,-2.03 -1.63,0 -2.03,0 -2.45,1.22l0 0 0 0 0 0 0.01 0 0 0z"/>
   <path class="fil2" d="M198.58 149.69c-0.4,0 -0.4,0.4 -1.22,-1.62l1.22 0.4c0,0.81 0.4,0.81 0,1.21l0 0 0 0 0 0 0 0.01zm-0.82 0.42c1.64,0 1.22,-0.81 1.22,-2.03l-2.03 -0.81 0.81 2.84 0 0 0 0 0 0 0 0 0 0z"/>
   <path class="fil2" d="M101.41 137.93l2.45 -0.81c-1.64,-0.4 -0.82,-0.4 -3.27,-0.4 0.4,0.4 0.4,0.82 0.82,1.21l0 0 0 0z"/>
   <path class="fil2" d="M141.82 140.77c0,0.81 0,0 0,0.4 -0.4,-0.4 -0.4,0 -0.4,-1.21l0.4 0.4c0.4,0.4 0.4,-0.82 0,0.4l0 0 0 0 0 0 0 0 0 0 0 0.01zm-0.4 0.81c0.82,0 0.82,-0.81 1.22,-1.62l-1.64 -0.4c0,1.21 -0.4,1.63 0.41,2.02l0 0 0 0 0 0 0.01 0 0 0z"/>
   <path class="fil2" d="M97.73 151.73c-0.4,0 -0.4,0 -0.82,0 0,-0.81 0.41,-0.39 0.82,0zm-1.63 0.4l2.85 0c-0.4,-0.4 -1.22,-1.21 -2.04,-1.62l-0.81 1.62 0 0 0 0 0 0z"/>
   <path class="fil2" d="M190.42 129.83l2.85 0c0,-0.82 -0.4,-0.82 -1.22,-0.82 -0.81,0 -1.22,0.4 -1.63,0.82l0 0 0 0z"/>
   <path class="fil2" d="M112.84 164.7l0 -0.81c-0.4,0 -1.64,0 -2.04,0.4 0,0.81 0,0.4 0.4,0.81l1.64 -0.4 0 0 0 0 0 0 0 0 0 0z"/>
   <path class="fil2" d="M102.22 154.57l0.4 0.4c-0.4,0.4 0,0 -0.81,0.4l0.4 -0.81 0 0 0 0 0.01 0.01 0 0zm-0.41 1.21c0.4,0 1.21,-0.4 1.21,-1.21 -0.4,-0.4 -0.81,-0.4 -1.21,-0.81l0 2.02 0 0 0 0z"/>
   <path class="fil2" d="M98.95 135.91l1.64 0 0 -1.21c-0.82,0.4 -1.22,0.4 -1.64,1.21l0 0 0 0z"/>
   <path class="fil2" d="M102.62 158.62c-0.4,0 0,0 -0.4,-0.4 0.4,0.4 0.4,-0.4 0.4,0.4zm0 -0.82l-0.81 0 0.4 1.63c0.81,-0.4 0.81,-0.81 0.4,-1.63l0 0 0 0 0 0 0 0 0.01 0z"/>
   <path class="fil2" d="M111.61 149.69c0.4,-0.39 0.4,-0.39 0.81,-1.21l-1.63 0.4c0,0.81 0,0.4 0.82,0.81l0 0 0 0 0 0z"/>
   <path class="fil2" d="M201.44 150.92l0.81 -1.21c-0.4,-0.4 0,-0.4 -0.4,-0.4 -0.4,-0.4 0,0 -0.4,-0.4l0 2.03 0 0 0 0 0 0 -0.01 -0.02z"/>
   <path class="fil2" d="M198.58 152.53c0.4,-0.81 0.4,-1.62 0.4,-2.02l-0.81 0 0.4 1.21c0,0.81 0,0 0,0.81l0 0 0 0 0 0 0 0 0 0 0 0 0.01 0z"/>
   <path class="fil2" d="M140.18 146.46c0,0.81 -0.4,0.4 0.41,0.4 0.4,-0.4 0,-0.4 0,-0.81l-0.41 0c0,0 0,0 0,0.39l0 0 0 0 0 0 0 0.02z"/>
   <path class="fil2" d="M80.57 191.07c0.82,-0.4 0.82,-0.4 1.22,-0.81 -0.4,0 -0.82,0.4 -1.22,0.81z"/>
   <path class="fil2" d="M76.5 148.48l-0.82 0.4 0 -1.21c-0.4,0.4 0,0.4 0,1.21 0.82,0 0.4,0 0.82,-0.4l0 0z"/>
   <path class="fil2" d="M140.6 146.05c0,0.39 0.4,0.39 0,0.81 -0.82,0 -0.4,0.4 -0.4,-0.4 -0.4,0 -0.4,-0.4 -0.4,0.4l1.22 0.4c0,-0.82 0,-0.82 -0.4,-1.21l0 0 0 0 0 0 0 0 0 0 0 0 -0.02 0z"/>
   <path class="fil2" d="M118.13 160.24l0 -0.4c-0.4,0 0,0 -0.4,0 -0.4,-0.39 0,0 -0.4,-0.39 0,0.39 -0.4,0 0.4,0.39 0.4,0.4 0,0.4 0.4,0.4l0 0 0 0 0 0 0 0 0 0z"/>
   <path class="fil2" d="M163.06 131.85c0.4,0 0,0 0.81,0 0,0 0,-0.4 0,-0.4 0,-0.81 0,0 0,-0.4l0 0.82 -0.81 0 0 0 0 0 0 0 0 0 0 0 0 0 0 -0.02z"/>
   <path class="fil2" d="M102.62 158.62c0,-0.82 0,0 -0.4,-0.4 0.4,0.4 0,0.4 0.4,0.4z"/>
   <polygon class="fil2" points="161.84,137.12 163.06,137.52 163.06,136.31 163.06,137.52 "/>
   <path class="fil2" d="M203.47 86.01l0.41 -0.4 0.4 0c0,-0.4 0.4,-0.4 -0.4,-0.4l-0.41 0.82 0 0 0 0 0 0 0 -0.02z"/>
   <path class="fil2" d="M204.29 163.08c0.4,0.4 0.4,0.4 0.82,0.81l-0.82 -0.81c0,0 0,0 0,0z"/>
   <polygon class="fil2" points="119.77,131.04 120.19,131.45 119.77,130.64 "/>
   <path class="fil2" d="M101.41 151.32c0,0 0.4,0 -0.41,-0.4l0.41 0.4z"/>
   <path class="fil2" d="M218.18 115.22l0.4 -0.4c-1.22,0.4 -0.4,0 -0.4,0.4z"/>
   <path class="fil2" d="M139.78 144.83c-0.4,-0.81 -0.4,-0.39 -0.4,-0.81l0.4 0.81z"/>
   <path class="fil2" d="M205.11 161.06c0,0 -0.4,0 0,0l0.4 0.39c0,0 0,0 0,0l-0.4 -0.39 0 0 0 0 0 0 0 0z"/>
   <path class="fil2" d="M205.11 164.31c0.4,0 0,0 0.4,0.81l-0.4 -0.81z"/>
   <path class="fil2" d="M99.77 150.11c0,0 0,0 0,0l0.4 0.4c-0.4,-0.4 0,0 -0.4,-0.4l0 0 0 0 0 0z"/>
   <path class="fil2" d="M204.29 165.52l0.4 0.81c0,-0.4 0,0 0,0l-0.4 -0.81 0 0 0 0 0 0z"/>
   <line class="fil1" x1="206.34" y1="161.87" x2="206.34" y2= "161.87" />
   <line class="fil1" x1="194.09" y1="154.16" x2="194.09" y2= "154.16" />
   <path class="fil2" d="M72.01 147.67c0.81,-0.4 1.22,-0.4 1.63,0 -0.82,0 -0.82,0 -1.63,0zm-1.64 -0.41c1.22,0.81 2.45,1.21 3.67,0.81 0.4,-0.4 0,-0.81 0,-1.21 -1.22,0 0,-0.4 -2.03,0 -0.82,0 -0.82,0 -1.64,0.4l0 0z"/>
  </g>
  <g id="_1420223597760">
   <path class="fil2" d="M128.26 211.16l45.04 0c0.63,0 1.26,-0.93 1.89,-1.25 0.31,-0.63 0.94,-1.26 1.57,-1.56 2.53,-2.82 21.11,-20.97 22.37,-22.22 -4.4,1.56 -47.87,19.08 -48.5,19.08 -0.31,0 -37.16,-15.01 -42.2,-16.89 -1.89,-0.63 -4.09,-1.88 -5.98,-2.19l6.29 5.95c1.27,1.56 18.58,18.77 19.52,19.08l0 0 0 0 0 0 0 0 0 0 0 0 0 0z"/>
   <polygon class="fil2" points="128.88,221.79 173.29,221.79 173.29,213.03 128.88,213.03 "/>
   <polygon class="fil2" points="141.17,232.11 160.37,232.11 160.37,223.35 141.17,223.35 "/>
  </g>
  <path class="fil2" d="M150 49.54c55.39,0 100.04,44.79 100.04,100.24 0,55.46 -44.65,100.66 -100.04,100.66 -54.96,0 -99.6,-45.22 -99.6,-100.66 0,-55.45 44.65,-100.24 99.6,-100.24zm-120.21 100.24l30.05 -52.46 30.05 -52.89 60.11 0 60.11 0 30.05 52.89 30.05 52.46 -30.05 52.9 -30.05 52.89 -60.11 0 -60.11 0 -30.05 -52.89 -30.05 -52.9z"/>
 </g>
</svg>
