<?xml version="1.0" encoding="UTF-8"?>
<!DOCTYPE svg PUBLIC "-//W3C//DTD SVG 1.1//EN" "http://www.w3.org/Graphics/SVG/1.1/DTD/svg11.dtd">
<!-- Creator: CorelDRAW 2017 -->
<svg xmlns="http://www.w3.org/2000/svg" xml:space="preserve" width="300px" height="300px" version="1.1" style="shape-rendering:geometricPrecision; text-rendering:geometricPrecision; image-rendering:optimizeQuality; fill-rule:evenodd; clip-rule:evenodd"
viewBox="0 0 300 300"
 xmlns:xlink="http://www.w3.org/1999/xlink">
 <defs>
  <style type="text/css">
   <![CDATA[
    .str0 {stroke:white;stroke-width:10;stroke-miterlimit:22.9256}
    .fil1 {fill:none}
    .fil4 {fill:#0094DA}
    .fil2 {fill:#0B4D74}
    .fil3 {fill:#ED1B24}
    .fil0 {fill:white}
    .fil5 {fill:#ED1B24;fill-rule:nonzero}
   ]]>
  </style>
 </defs>
 <g id="Слой_x0020_1">
  <metadata id="CorelCorpID_0Corel-Layer"/>
  <circle class="fil0 str0" cx="150" cy="150" r="135"/>
  <path class="fil1" d="M-2.26 512c66.12,0 47.69,-1.06 100.82,-36.62l0 -26.91 -158.25 0 0 26.91"/>
  <path class="fil0" d="M158.13 160.07l10.47 -0.81 13.28 -0.4 12.89 -0.39 7.65 -0.4 7.24 -0.4 8.05 -1.62 7.65 -2.83 6.04 -3.24 5.63 -3.64 5.24 -4.05 5.63 -4.86 4.42 -4.05 1.21 -1.62 10.86 7.69 11.67 8.09 -10.47 10.91 -7.65 7.28 -8.86 6.07 -6.43 4.05 -6.04 2.82 -6.04 1.62 -4.03 0.81 -4.43 0.4 -5.24 0 -5.63 0 -6.03 0 -8.05 -0.4 -6.85 -0.39 -7.24 -0.81 -7.65 0 -6.44 0 -5.63 0 -7.65 0.39 -6.44 1.62 -7.24 3.64 -4.84 4.05 -4.43 4.45 -6.84 8.9 -3.23 6.07 -4.03 8.89 -3.23 7.28 -4.03 12.14c5.24,-14.57 16.9,-54.19 22.95,-65.93 4.42,-8.09 16.5,-9.31 23.75,-11.33l0 0 0 0 0 0 0 0 0 0 0 0 0 0 0.04 0 0 0z"/>
  <polygon class="fil2" points="263.2,215.48 262.79,215.48 262.79,215.88 261.59,215.88 261.59,216.29 261.18,216.29 261.18,216.69 260.37,216.69 260.37,216.69 259.57,216.69 259.57,217.09 258.76,217.09 258.76,217.5 257.56,217.5 257.56,217.9 256.75,217.9 256.75,218.31 255.95,218.31 255.95,218.31 254.33,218.31 254.33,218.71 253.94,218.71 253.94,219.12 252.32,219.12 252.32,219.52 251.12,219.52 251.12,219.93 249.51,219.93 249.51,219.93 248.31,219.93 248.31,220.33 245.89,220.33 245.89,220.74 243.07,220.74 243.07,221.14 239.44,221.14 239.44,221.55 226.96,221.55 226.96,221.14 222.53,221.14 222.53,220.74 219.32,220.74 219.32,220.33 215.29,220.33 215.29,219.93 212.87,219.93 212.87,219.93 210.06,219.93 210.06,219.52 207.24,219.52 207.24,219.12 204.02,219.12 204.02,218.71 200.4,218.71 200.4,218.31 197.98,218.31 197.98,218.31 193.96,218.31 193.96,217.9 191.13,217.9 191.13,217.5 185.91,217.5 185.91,217.09 182.28,217.09 182.28,216.69 175.44,216.69 175.44,216.69 156.93,216.69 156.93,216.69 152.49,216.69 152.49,217.09 150.89,217.09 150.89,217.5 149.28,217.5 149.28,217.9 147.25,217.9 147.25,218.31 146.05,218.31 146.05,218.31 144.85,218.31 144.85,218.71 144.04,218.71 144.04,219.12 142.82,219.12 142.82,219.52 142.03,219.52 142.03,219.93 140.82,219.93 140.82,219.93 140.01,219.93 140.01,220.33 139.2,220.33 139.2,220.74 138.4,220.74 138.4,221.14 138,221.14 138,221.55 136.8,221.55 136.8,221.55 136.39,221.55 136.39,221.95 135.58,221.95 135.58,222.35 135.19,222.35 135.19,222.76 134.78,222.76 134.78,223.16 133.97,223.16 133.97,223.16 133.57,223.16 133.57,223.57 133.16,223.57 133.16,223.97 132.37,223.97 132.37,224.38 131.57,224.38 131.57,224.78 131.57,224.78 131.57,224.78 130.76,224.78 130.76,225.19 130.35,225.19 130.35,225.59 129.95,225.59 129.95,226 129.54,226 129.54,226.4 128.74,226.4 128.74,226.4 128.34,226.4 128.34,226.79 128.34,226.79 128.34,227.21 127.53,227.21 127.53,227.6 127.14,227.6 127.14,228.02 126.73,228.02 126.73,228.02 126.73,228.02 126.73,228.41 125.92,228.41 125.92,228.83 125.53,228.83 125.53,229.22 125.12,229.22 125.12,229.22 125.12,229.22 125.12,229.64 124.72,229.64 124.72,230.03 123.91,230.03 123.91,230.45 123.5,230.45 123.5,230.84 123.5,230.84 123.5,231.26 123.11,231.26 123.11,231.26 122.71,231.26 122.71,231.65 122.3,231.65 122.3,232.05 121.9,232.05 121.9,232.47 121.49,232.47 121.49,232.47 121.49,232.47 121.49,232.86 121.1,232.86 121.1,233.27 120.69,233.27 120.69,233.67 120.29,233.67 120.29,234.09 119.88,234.09 119.88,234.09 119.88,234.09 119.88,234.89 119.49,234.89 119.49,235.29 119.07,235.29 119.07,235.71 118.68,235.71 118.68,235.71 118.27,235.71 118.27,236.1 118.27,236.1 118.27,236.5 117.87,236.5 117.87,236.91 117.48,236.91 117.48,237.31 117.07,237.31 117.07,237.72 116.67,237.72 116.67,238.12 116.67,238.12 116.67,238.53 116.26,238.53 116.26,238.93 115.86,238.93 115.86,239.34 115.45,239.34 115.45,239.74 115.06,239.74 115.06,240.55 115.06,240.55 115.06,240.55 114.65,240.55 114.65,240.96 114.25,240.96 114.25,241.76 113.84,241.76 113.84,242.17 113.45,242.17 113.45,242.57 113.45,242.57 113.45,242.98 113.05,242.98 113.05,243.79 112.64,243.79 112.64,243.79 112.24,243.79 112.24,244.6 111.83,244.6 111.83,245 111.44,245 111.44,245.41 111.44,245.41 111.44,245.81 111.03,245.81 111.03,246.62 110.63,246.62 110.63,247.02 110.22,247.02 110.22,247.43 109.82,247.43 109.82,248.24 109.82,248.24 109.82,248.64 109.41,248.64 109.41,249.05 109.02,249.05 109.02,249.86 108.61,249.86 108.61,250.26 108.21,250.26 108.21,251.07 108.21,251.07 108.21,251.88 107.82,251.88 107.82,252.28 107.41,252.28 107.41,252.69 107.01,252.69 107.01,253.5 106.6,253.5 106.6,253.9 106.6,253.9 106.6,255.12 106.2,255.12 106.2,255.52 105.79,255.52 105.79,255.91 105.4,255.91 105.4,256.72 104.99,256.72 104.99,257.53 104.99,257.53 104.99,256.72 104.59,256.72 104.59,256.33 104.18,256.33 104.18,255.52 103.78,255.52 103.78,254.71 103.39,254.71 103.39,253.9 103.39,253.9 103.39,253.5 102.98,253.5 102.98,252.28 102.58,252.28 102.58,251.88 102.17,251.88 102.17,251.07 101.78,251.07 101.78,250.26 101.37,250.26 101.37,249.45 101.37,249.45 101.37,248.64 100.97,248.64 100.97,248.24 100.56,248.24 100.56,247.43 100.16,247.43 100.16,247.02 99.75,247.02 99.75,246.21 99.75,246.21 99.75,245.41 99.36,245.41 99.36,245 98.95,245 98.95,244.19 98.55,244.19 98.55,243.38 98.16,243.38 98.16,242.57 98.16,242.57 98.16,242.17 97.74,242.17 97.74,241.76 97.35,241.76 97.35,240.96 96.94,240.96 96.94,240.55 96.54,240.55 96.54,239.74 96.54,239.74 96.54,238.93 96.13,238.93 96.13,238.53 95.74,238.53 95.74,237.72 95.33,237.72 95.33,237.31 94.93,237.31 94.93,236.91 94.93,236.91 94.93,236.1 94.52,236.1 94.52,235.71 94.12,235.71 94.12,234.89 93.73,234.89 93.73,234.48 93.32,234.48 93.32,234.09 92.92,234.09 92.92,233.27 92.92,233.27 92.92,232.86 92.51,232.86 92.51,232.47 92.11,232.47 92.11,231.65 91.7,231.65 91.7,231.26 91.31,231.26 91.31,230.84 91.31,230.84 91.31,230.03 90.9,230.03 90.9,229.64 90.5,229.64 90.5,229.22 90.09,229.22 90.09,228.83 89.7,228.83 89.7,228.02 89.7,228.02 89.7,228.02 89.28,228.02 89.28,227.21 88.89,227.21 88.89,226.79 88.49,226.79 88.49,226.4 88.08,226.4 88.08,226 88.08,226 88.08,225.19 87.69,225.19 87.69,224.78 87.28,224.78 87.28,224.38 86.88,224.38 86.88,223.97 86.47,223.97 86.47,223.57 86.47,223.57 86.47,223.16 86.07,223.16 86.07,222.76 85.66,222.76 85.66,222.35 85.27,222.35 85.27,221.55 84.86,221.55 84.86,221.55 84.86,221.55 84.86,221.14 84.46,221.14 84.46,220.33 84.07,220.33 84.07,219.93 83.66,219.93 83.66,219.93 83.26,219.93 83.26,219.52 83.26,219.52 83.26,218.71 82.85,218.71 82.85,218.31 82.45,218.31 82.45,218.31 82.04,218.31 82.04,217.9 81.65,217.9 81.65,217.09 81.24,217.09 81.24,216.69 81.24,216.69 81.24,216.69 80.84,216.69 80.84,216.29 80.43,216.29 80.43,215.88 80.03,215.88 80.03,215.48 79.62,215.48 79.62,215.07 79.62,215.07 79.62,214.67 79.23,214.67 79.23,214.26 78.83,214.26 78.83,213.86 78.42,213.86 78.42,213.45 78.03,213.45 78.03,213.45 78.03,213.45 78.03,213.05 77.62,213.05 77.62,212.64 77.22,212.64 77.22,212.24 76.81,212.24 76.81,211.84 76.41,211.84 76.41,211.84 76.41,211.84 76.41,211.43 76,211.43 76,211.03 75.61,211.03 75.61,210.62 75.2,210.62 75.2,210.22 74.8,210.22 74.8,210.22 74.41,210.22 74.41,209.81 74.41,209.81 74.41,209.41 73.99,209.41 73.99,209 73.19,209 73.19,208.6 72.79,208.6 72.79,208.6 72.79,208.6 72.79,208.19 72.38,208.19 72.38,207.79 71.99,207.79 71.99,207.38 71.58,207.38 71.58,206.98 71.18,206.98 71.18,206.98 70.77,206.98 70.77,206.59 70.37,206.59 70.37,206.17 69.96,206.17 69.96,205.78 69.57,205.78 69.57,205.36 69.17,205.36 69.17,205.36 68.76,205.36 68.76,204.97 68.37,204.97 68.37,204.55 67.95,204.55 67.95,204.16 67.56,204.16 67.56,203.74 67.15,203.74 67.15,203.74 66.34,203.74 66.34,203.34 66.34,203.34 66.34,202.93 65.54,202.93 65.54,202.53 65.14,202.53 65.14,202.14 64.33,202.14 64.33,202.14 64.33,202.14 64.33,201.73 63.53,201.73 63.53,201.33 62.72,201.33 62.72,200.91 62.72,200.91 62.72,200.52 61.91,200.52 61.91,200.52 61.11,200.52 61.11,200.11 61.11,200.11 61.11,199.71 60.3,199.71 60.3,199.29 59.51,199.29 59.51,198.9 59.1,198.9 59.1,198.9 58.29,198.9 58.29,198.48 57.9,198.48 57.9,198.09 57.09,198.09 57.09,197.67 56.28,197.67 56.28,197.67 55.87,197.67 55.87,197.28 54.67,197.28 54.67,196.88 54.28,196.88 54.28,196.47 53.06,196.47 53.06,196.07 52.66,196.07 52.66,196.07 51.86,196.07 51.86,195.66 50.64,195.66 50.64,195.26 49.85,195.26 49.85,194.85 48.24,194.85 48.24,194.45 47.43,194.45 47.43,194.04 46.21,194.04 46.21,194.04 44.62,194.04 44.62,193.64 43.4,193.64 43.4,193.23 42.59,193.23 42.59,192.83 39.78,192.83 39.78,192.43 37.77,192.43 37.77,192.43 34.15,192.43 34.15,192.02 27.7,192.02 27.7,192.43 27.7,192.43 27.7,193.64 28.11,193.64 28.11,194.45 28.5,194.45 28.5,195.26 28.91,195.26 28.91,196.47 29.31,196.47 29.31,197.28 29.31,197.28 29.31,198.09 29.72,198.09 29.72,198.9 30.12,198.9 30.12,199.71 30.53,199.71 30.53,200.52 30.92,200.52 30.92,201.33 30.92,201.33 30.92,202.14 31.32,202.14 31.32,202.53 31.73,202.53 31.73,203.74 32.12,203.74 32.12,204.16 32.53,204.16 32.53,204.97 32.53,204.97 32.53,205.36 32.93,205.36 32.93,206.17 33.34,206.17 33.34,206.98 33.74,206.98 33.74,207.38 34.15,207.38 34.15,208.6 34.15,208.6 34.15,209 34.54,209 34.54,209.41 34.95,209.41 34.95,210.22 35.35,210.22 35.35,210.62 35.76,210.62 35.76,211.43 36.16,211.43 36.16,211.84 36.16,211.84 36.16,212.64 36.55,212.64 36.55,213.45 36.96,213.45 36.96,213.45 37.36,213.45 37.36,214.26 37.77,214.26 37.77,215.07 37.77,215.07 37.77,215.48 38.16,215.48 38.16,215.88 38.58,215.88 38.58,216.69 38.97,216.69 38.97,217.09 39.38,217.09 39.38,217.9 39.38,217.9 39.38,218.31 39.78,218.31 39.78,218.71 40.19,218.71 40.19,219.12 40.58,219.12 40.58,219.93 40.98,219.93 40.98,220.33 40.98,220.33 40.98,220.74 41.39,220.74 41.39,221.55 41.79,221.55 41.79,221.55 42.2,221.55 42.2,222.35 42.59,222.35 42.59,222.76 42.59,222.76 42.59,223.16 43,223.16 43,223.57 43.4,223.57 43.4,224.38 43.81,224.38 43.81,224.78 44.2,224.78 44.2,224.78 44.2,224.78 44.2,225.59 44.62,225.59 44.62,226 45.01,226 45.01,226.4 45.42,226.4 45.42,226.79 45.82,226.79 45.82,227.6 45.82,227.6 45.82,228.02 46.21,228.02 46.21,228.02 46.62,228.02 46.62,228.41 47.02,228.41 47.02,229.22 47.43,229.22 47.43,229.22 47.83,229.22 47.83,229.64 47.83,229.64 47.83,230.45 48.24,230.45 48.24,230.84 48.63,230.84 48.63,231.26 49.04,231.26 49.04,231.65 49.44,231.65 49.44,232.05 49.44,232.05 49.44,232.47 49.85,232.47 49.85,232.47 50.24,232.47 50.24,232.86 50.64,232.86 50.64,233.67 51.05,233.67 51.05,234.09 51.05,234.09 51.05,234.09 51.45,234.09 51.45,234.48 51.86,234.48 51.86,234.89 52.25,234.89 52.25,235.29 52.66,235.29 52.66,235.71 52.66,235.71 52.66,236.1 53.06,236.1 53.06,236.5 53.47,236.5 53.47,236.91 53.87,236.91 53.87,237.31 54.28,237.31 54.28,237.31 54.28,237.31 54.28,237.72 54.67,237.72 54.67,238.12 55.08,238.12 55.08,238.93 55.48,238.93 55.48,238.93 55.87,238.93 55.87,239.34 56.28,239.34 56.28,239.74 56.28,239.74 56.28,240.15 56.68,240.15 56.68,240.55 57.09,240.55 57.09,240.55 57.49,240.55 57.49,240.96 57.9,240.96 57.9,241.36 57.9,241.36 57.9,241.76 58.29,241.76 58.29,242.17 58.7,242.17 58.7,242.17 59.1,242.17 59.1,242.57 59.51,242.57 59.51,242.98 59.51,242.98 59.51,243.38 59.91,243.38 59.91,243.79 60.3,243.79 60.3,243.79 60.71,243.79 60.71,244.19 61.11,244.19 61.11,244.6 61.11,244.6 61.11,245 61.52,245 61.52,245.41 61.91,245.41 61.91,245.41 62.72,245.41 62.72,245.81 62.72,245.81 62.72,246.21 63.13,246.21 63.13,246.62 63.53,246.62 63.53,247.02 63.94,247.02 63.94,247.02 64.33,247.02 64.33,247.43 64.33,247.43 64.33,247.83 64.74,247.83 64.74,248.24 65.14,248.24 65.14,248.64 65.95,248.64 65.95,248.64 66.34,248.64 66.34,249.05 66.34,249.05 66.34,249.45 66.75,249.45 66.75,249.86 67.15,249.86 67.15,250.26 67.95,250.26 67.95,250.26 67.95,250.26 67.95,250.67 68.37,250.67 68.37,251.07 68.76,251.07 68.76,251.47 69.17,251.47 69.17,251.88 69.57,251.88 69.57,251.88 69.96,251.88 69.96,252.28 70.37,252.28 70.37,252.69 71.18,252.69 71.18,253.09 71.18,253.09 71.18,253.5 71.58,253.5 71.58,253.5 71.99,253.5 71.99,253.9 72.79,253.9 72.79,254.31 72.79,254.31 72.79,254.71 73.19,254.71 73.19,255.12 73.99,255.12 73.99,255.12 74.41,255.12 74.41,255.52 74.8,255.52 74.8,255.91 75.2,255.91 75.2,256.33 75.61,256.33 75.61,256.72 76.41,256.72 76.41,256.72 76.41,256.72 76.41,257.14 77.22,257.14 77.22,257.53 77.62,257.53 77.62,257.95 78.03,257.95 78.03,258.34 78.42,258.34 78.42,258.34 79.23,258.34 79.23,258.76 79.62,258.76 79.62,259.15 80.03,259.15 80.03,259.57 80.43,259.57 80.43,259.97 81.24,259.97 81.24,259.97 81.24,259.97 81.24,260.38 82.04,260.38 82.04,260.77 82.85,260.77 82.85,261.17 83.26,261.17 83.26,261.59 83.66,261.59 83.66,261.59 84.07,261.59 84.07,261.98 84.86,261.98 84.86,262.39 85.27,262.39 85.27,262.79 86.07,262.79 86.07,262.79 86.47,262.79 86.47,263.2 86.88,263.2 86.88,263.6 87.69,263.6 87.69,264.02 88.08,264.02 88.08,264.41 88.89,264.41 88.89,264.41 89.7,264.41 89.7,264.83 89.7,264.83 89.7,265.22 90.5,265.22 90.5,265.62 91.31,265.62 91.31,266.03 91.7,266.03 91.7,266.03 92.51,266.03 92.51,266.43 92.92,266.43 92.92,266.84 93.73,266.84 93.73,267.24 94.52,267.24 94.52,267.65 94.93,267.65 94.93,267.65 95.74,267.65 95.74,268.05 96.54,268.05 96.54,268.46 97.35,268.46 97.35,268.86 98.16,268.86 98.16,269.27 98.55,269.27 98.55,269.67 99.75,269.67 99.75,269.67 100.16,269.67 100.16,270.08 100.97,270.08 100.97,270.48 101.78,270.48 101.78,270.88 102.58,270.88 102.58,271.29 103.39,271.29 103.39,271.29 104.18,271.29 104.18,271.69 104.99,271.69 104.99,272.1 106.2,272.1 106.2,272.5 106.6,272.5 106.6,272.5 107.82,272.5 107.82,272.91 108.61,272.91 108.61,273.31 109.82,273.31 109.82,273.72 110.63,273.72 110.63,274.12 111.83,274.12 111.83,274.12 112.64,274.12 112.64,274.53 113.45,274.53 113.45,274.93 115.06,274.93 115.06,275.33 115.86,275.33 115.86,275.74 117.48,275.74 117.48,275.74 118.68,275.74 118.68,276.14 119.88,276.14 119.88,276.55 121.49,276.55 121.49,276.95 122.71,276.95 122.71,277.36 124.31,277.36 124.31,277.36 125.92,277.36 125.92,277.76 127.14,277.76 127.14,278.17 129.54,278.17 129.54,278.57 131.16,278.57 131.16,278.98 133.57,278.98 133.57,278.98 136.8,278.98 136.8,279.38 140.01,279.38 140.01,279.79 145.24,279.79 145.24,280.19 156.12,280.19 156.12,279.79 161.36,279.79 161.36,279.38 165.37,279.38 165.37,278.98 167.38,278.98 167.38,278.98 170.21,278.98 170.21,278.57 172.22,278.57 172.22,278.17 173.83,278.17 173.83,277.76 175.84,277.76 175.84,277.36 177.45,277.36 177.45,277.36 178.66,277.36 178.66,276.95 180.68,276.95 180.68,276.55 181.47,276.55 181.47,276.14 182.69,276.14 182.69,275.74 183.89,275.74 183.89,275.74 185.5,275.74 185.5,275.33 186.7,275.33 186.7,274.93 187.51,274.93 187.51,274.53 188.73,274.53 188.73,274.12 189.53,274.12 189.53,274.12 190.74,274.12 190.74,273.72 192.35,273.72 192.35,273.31 192.74,273.31 192.74,272.91 193.96,272.91 193.96,272.5 194.77,272.5 194.77,272.5 195.57,272.5 195.57,272.1 196.36,272.1 196.36,271.69 197.17,271.69 197.17,271.29 198.39,271.29 198.39,271.29 198.78,271.29 198.78,270.88 200,270.88 200,270.48 200.79,270.48 200.79,270.08 201.2,270.08 201.2,269.67 202.41,269.67 202.41,269.67 202.82,269.67 202.82,269.27 203.62,269.27 203.62,268.86 204.43,268.86 204.43,268.46 205.23,268.46 205.23,268.05 205.63,268.05 205.63,267.65 206.44,267.65 206.44,267.65 207.24,267.65 207.24,267.24 207.64,267.24 207.64,266.84 208.45,266.84 208.45,266.43 209.25,266.43 209.25,266.03 209.66,266.03 209.66,266.03 210.45,266.03 210.45,265.62 210.86,265.62 210.86,265.22 211.67,265.22 211.67,264.83 212.48,264.83 212.48,264.41 212.87,264.41 212.87,264.41 213.68,264.41 213.68,264.02 214.09,264.02 214.09,263.6 214.49,263.6 214.49,263.2 215.29,263.2 215.29,262.79 215.69,262.79 215.69,262.79 216.49,262.79 216.49,262.39 216.91,262.39 216.91,261.98 217.3,261.98 217.3,261.59 218.11,261.59 218.11,261.59 218.52,261.59 218.52,261.17 218.91,261.17 218.91,260.77 219.72,260.77 219.72,260.38 220.11,260.38 220.11,259.97 220.92,259.97 220.92,259.97 220.92,259.97 220.92,259.57 221.73,259.57 221.73,259.15 222.14,259.15 222.14,258.76 222.53,258.76 222.53,258.34 222.95,258.34 222.95,258.34 223.75,258.34 223.75,257.95 224.15,257.95 224.15,257.53 224.56,257.53 224.56,257.14 224.95,257.14 224.95,256.72 225.76,256.72 225.76,256.72 225.76,256.72 225.76,256.33 226.57,256.33 226.57,255.91 226.96,255.91 226.96,255.52 227.37,255.52 227.37,255.12 227.77,255.12 227.77,255.12 228.18,255.12 228.18,254.71 228.57,254.71 228.57,254.31 228.98,254.31 228.98,253.9 229.38,253.9 229.38,253.5 229.78,253.5 229.78,253.5 230.58,253.5 230.58,253.09 230.99,253.09 230.99,252.69 230.99,252.69 230.99,252.28 231.39,252.28 231.39,251.88 232.2,251.88 232.2,251.88 232.61,251.88 232.61,251.47 232.61,251.47 232.61,251.07 233,251.07 233,250.67 233.81,250.67 233.81,250.26 234.22,250.26 234.22,250.26 234.22,250.26 234.22,249.86 234.61,249.86 234.61,249.45 235.01,249.45 235.01,249.05 235.82,249.05 235.82,248.64 235.82,248.64 235.82,248.64 236.23,248.64 236.23,248.24 236.62,248.24 236.62,247.83 237.03,247.83 237.03,247.43 237.43,247.43 237.43,247.02 237.43,247.02 237.43,247.02 237.84,247.02 237.84,246.62 238.65,246.62 238.65,246.21 239.04,246.21 239.04,245.81 239.44,245.81 239.44,245.41 239.44,245.41 239.44,245.41 239.85,245.41 239.85,245 240.24,245 240.24,244.6 240.66,244.6 240.66,244.19 241.05,244.19 241.05,243.79 241.05,243.79 241.05,243.79 241.46,243.79 241.46,243.38 241.86,243.38 241.86,242.98 242.27,242.98 242.27,242.57 242.66,242.57 242.66,242.17 242.66,242.17 242.66,242.17 243.07,242.17 243.07,241.76 243.47,241.76 243.47,241.36 243.88,241.36 243.88,240.96 244.28,240.96 244.28,240.55 244.28,240.55 244.28,240.55 244.67,240.55 244.67,240.15 245.08,240.15 245.08,239.74 245.48,239.74 245.48,239.34 245.89,239.34 245.89,238.93 245.89,238.93 245.89,238.93 246.28,238.93 246.28,238.53 246.7,238.53 246.7,238.12 247.09,238.12 247.09,237.31 247.5,237.31 247.5,237.31 247.5,237.31 247.5,236.91 247.9,236.91 247.9,236.5 248.31,236.5 248.31,236.1 248.7,236.1 248.7,235.71 249.1,235.71 249.1,235.71 249.51,235.71 249.51,235.29 249.51,235.29 249.51,234.48 249.91,234.48 249.91,234.09 250.32,234.09 250.32,234.09 250.71,234.09 250.71,233.67 251.12,233.67 251.12,233.27 251.12,233.27 251.12,232.47 251.52,232.47 251.52,232.47 251.93,232.47 251.93,232.05 252.32,232.05 252.32,231.65 252.73,231.65 252.73,231.26 252.73,231.26 252.73,230.84 253.13,230.84 253.13,230.45 253.54,230.45 253.54,230.03 253.94,230.03 253.94,229.22 254.33,229.22 254.33,229.22 254.33,229.22 254.33,228.83 254.74,228.83 254.74,228.02 255.14,228.02 255.14,228.02 255.55,228.02 255.55,227.6 255.95,227.6 255.95,226.79 255.95,226.79 255.95,226.4 256.36,226.4 256.36,226 256.75,226 256.75,225.59 257.16,225.59 257.16,225.19 257.56,225.19 257.56,224.78 257.56,224.78 257.56,224.38 257.97,224.38 257.97,223.57 258.36,223.57 258.36,223.16 258.76,223.16 258.76,223.16 259.17,223.16 259.17,222.35 259.57,222.35 259.57,221.95 259.57,221.95 259.57,221.55 259.98,221.55 259.98,220.74 260.37,220.74 260.37,220.33 260.78,220.33 260.78,219.93 261.18,219.93 261.18,219.52 261.18,219.52 261.18,218.71 261.59,218.71 261.59,218.31 261.98,218.31 261.98,217.9 262.4,217.9 262.4,217.09 262.79,217.09 262.79,216.69 262.79,216.69 262.79,216.29 263.2,216.29 "/>
  <path class="fil2" d="M78.03 57.33l0.39 0 0 0.4 0.4 0 0 0.4 0.39 0 0 0.4 0.4 0 0 0.39 0 0 0 0.81 0.39 0 0 0.4 0.4 0 0 0.4 0.4 0 0 0.81 0.39 0 0 0 0 0 0 0.81 0.4 0 0 0.81 0.39 0 0 0.4 0.4 0 0 0.39 0.39 0 0 0.81 0.4 0 0 0.4 0 0 0 0.81 0.39 0 0 0.4 0.4 0 0 0.4 0.4 0 0 0.81 0.39 0 0 0.39 0 0 0 0.81 0.4 0 0 0.81 0.39 0 0 0.4 0.4 0 0 0.81 0.39 0 0 0.4 0 0 0 0.81 0.4 0 0 0.81 0.39 0 0 0.4 0.4 0 0 0.81 0.4 0 0 0.39 0 0 0 0.81 0.39 0 0 0.82 0.4 0 0 0.81 0.39 0 0 0.81 0.4 0 0 0.39 0 0 0 1.21 0.39 0 0 0.4 0.4 0 0 1.21 0.39 0 0 0.39 0.4 0 0 0.81 0 0 0 0.81 0.4 0 0 0.81 0.39 0 0 1.21 0.4 0 0 0.81 0.39 0 0 1.21 0 0 0 0.81 0.4 0 0 0.81 0.39 0 0 1.21 0.4 0 0 0.39 0.39 0 0 1.63 0.4 0 0 0.8 0 0 0 0.81 0.4 0 0 1.62 0.39 0 0 0.82 0.4 0 0 0.39 0.39 0 0 -0.39 0 0 0 -0.82 0.4 0 0 -0.39 0.39 0 0 -0.81 0.4 0 0 -0.4 0.4 0 0 -0.4 0 0 0 -0.81 0.39 0 0 -0.4 0.4 0 0 -0.39 0.39 0 0 -0.81 0.4 0 0 -0.4 0 0 0 0 0.39 0 0 -0.81 0.4 0 0 -0.4 0.39 0 0 -0.39 0.4 0 0 0 0 0 0 -0.82 0.4 0 0 -0.39 0.39 0 0 -0.4 0.4 0 0 0 0.39 0 0 -0.4 0.4 0 0 -0.39 0 0 0 -0.4 0.39 0 0 -0.4 0.4 0 0 0 0.39 0 0 -0.4 0.4 0 0 -0.39 0.4 0 0 -0.4 0.39 0 0 -0.4 0.4 0 0 0 0.39 0 0 -0.4 0.4 0 0 -0.39 0.8 0 0 -0.4 0.4 0 0 -0.4 0.4 0 0 0 0.8 0 0 -0.4 0.4 0 0 -0.39 0.8 0 0 -0.4 0.81 0 0 -0.4 0.81 0 0 0 0.8 0 0 -0.4 0.81 0 0 -0.39 1.2 0 0 -0.4 1.2 0 0 0 1.2 0 0 -0.4 2.42 0 0 -0.4 1.62 0 0 -0.39 2.01 0 0 -0.4 3.22 0 0 0 1.61 0 0 -0.4 2.82 0 0 -0.4 1.61 0 0 -0.39 1.2 0 0 -0.4 1.2 0 0 0 1.62 0 0 -0.4 1.2 0 0 -0.39 1.2 0 0 -0.4 0.81 0 0 -0.4 0.8 0 0 0 0.81 0 0 -0.4 0.81 0 0 -0.39 1.2 0 0 -0.4 0.39 0 0 -0.4 0.81 0 0 0 0.4 0 0 -0.4 0.8 0 0 -0.4 0.4 0 0 -0.39 0.39 0 0 -0.4 0.81 0 0 0 0.81 0 0 -0.4 0 0 0 -0.39 0.8 0 0 -0.4 0.4 0 0 -0.4 0.39 0 0 0 0.4 0 0 -0.4 0.81 0 0 -0.4 0.39 0 0 -0.39 0.4 0 0 -0.4 0 0 0 0 0.8 0 0 -0.4 0.4 0 0 -0.39 0.4 0 0 -0.4 0 0 0 -0.4 0.39 0 0 0 0.81 0 0 -0.4 0.39 0 0 -0.39 0 0 0 -0.4 0.4 0 0 -0.4 0.39 0 0 0 0.4 0 0 -0.4 0.4 0 0 -0.39 0 0 0 -0.4 0.39 0 0 -0.4 0.4 0 0 0 0.39 0 0 -0.4 0.4 0 0 -0.39 0 0 0 -0.4 0.39 0 0 -0.4 0.4 0 0 0 0.39 0 0 -0.81 0.4 0 0 -0.4 0 0 0 -0.39 0.4 0 0 0 0.39 0 0 -0.4 0.4 0 0 -0.81 0.39 0 0 -0.4 0.4 0 0 0 0 0 0 -0.4 0.39 0 0 -0.81 0.4 0 0 -0.39 0.39 0 0 0 0.4 0 0 -0.81 0 0 0 -0.4 0.4 0 0 -0.4 0.39 0 0 -0.4 0.4 0 0 -0.39 0.39 0 0 -0.81 0 0 0 0 0.4 0 0 -0.81 0.39 0 0 -0.4 0.4 0 0 -0.4 0.39 0 0 -0.4 0 0 0 -0.39 0.4 0 0 -0.81 0.4 0 0 -0.4 0.39 0 0 -0.4 0.4 0 0 -0.81 0 0 0 -0.4 0.39 0 0 -0.39 0.4 0 0 -0.81 0.39 0 0 -0.4 0.4 0 0 -0.4 0 0 0 -0.4 0.8 0 0 0 0.4 0 0 0.4 0.4 0 0 0.4 0.39 0 0 0.4 0.81 0 0 0 0.39 0 0 0.39 0.4 0 0 0.4 0.4 0 0 0.4 0.8 0 0 0.4 0.4 0 0 0 0.39 0 0 0.39 0.4 0 0 0.4 0.8 0 0 0.4 0 0 0 0.4 0.81 0 0 0 0.4 0 0 0.39 0.39 0 0 0.4 0.4 0 0 0.4 0.8 0 0 0.4 0.4 0 0 0 0.4 0 0 0.39 0.39 0 0 0.4 0.81 0 0 0.4 0.39 0 0 0.4 0.4 0 0 0 0.39 0 0 0.39 0.81 0 0 0.4 0 0 0 0.4 0.81 0 0 0.4 0.39 0 0 0 0.4 0 0 0.39 0.39 0 0 0.4 0.81 0 0 0.4 0.4 0 0 0.4 0.39 0 0 0 0.4 0 0 0.39 0.8 0 0 0.4 0 0 0 0.4 0.81 0 0 0.39 0.4 0 0 0 0.39 0 0 0.4 0.4 0 0 0.4 0.8 0 0 0.4 0.4 0 0 0.39 0.39 0 0 0 0.4 0 0 0.4 0.81 0 0 0.4 0.39 0 0 0.4 0.4 0 0 0.39 0.39 0 0 0 0.81 0 0 0.4 0 0 0 0.4 0.81 0 0 0.4 0.39 0 0 0.39 0.4 0 0 0 0.39 0 0 0.4 0.81 0 0 0.4 0.39 0 0 0.4 0.4 0 0 0.39 0.39 0 0 0 0.81 0 0 0.4 0 0 0 0.4 0.81 0 0 0.4 0.39 0 0 0.39 0.81 0 0 0 0 0 0 0.4 0.81 0 0 0.4 0.39 0 0 0.39 0.4 0 0 0.4 0.39 0 0 0 0.81 0 0 0.4 0.39 0 0 0.4 0.4 0 0 0.39 0.4 0 0 0.4 0.8 0 0 0 0 0 0 0.4 0.81 0 0 0.4 0.39 0 0 0.39 0.4 0 0 0.4 0.39 0 0 0 0.81 0 0 0.4 0.4 0 0 0.4 0.39 0 0 0.39 0.4 0 0 0.4 0.8 0 0 0 0 0 0 0.4 0.81 0 0 0.4 0.4 0 0 0.39 0.8 0 0 0.4 0 0 0 0 0.81 0 0 0.4 0.4 0 0 0.4 0.39 0 0 0.39 0.4 0 0 0.4 0.8 0 0 0 0.4 0 0 0.4 0.39 0 0 0.4 0.4 0 0 0.39 0.81 0 0 0.4 0.39 0 0 0 0.4 0 0 0.4 0.39 0 0 0.4 0.4 0 0 0.39 0.39 0 0 0.4 0.81 0 0 0 0.4 0 0 0.4 0.39 0 0 0.4 0.4 0 0 0.39 0.8 0 0 0.4 0.4 0 0 0 0.39 0 0 0.4 0.4 0 0 0.4 0.81 0 0 0.39 0.39 0 0 0 0.4 0 0 0.4 0.8 0 0 0.4 0 0 0 0.4 0.81 0 0 0.39 0.4 0 0 0 0.39 0 0 0.4 0.4 0 0 0.4 0.39 0 0 0.4 0.81 0 0 0.39 0.39 0 0 0 0.4 0 0 0.4 0.81 0 0 0.4 0.39 0 0 0.4 0 0 0 0.39 0.81 0 0 0 0.8 0 0 0.4 0 0 0 0.4 0.81 0 0 0.4 0.4 0 0 0.39 0.39 0 0 0 0.4 0 0 0.4 0.39 0 0 0.4 0.81 0 0 0.39 0 0 0 0.4 0.81 0 0 0 0.39 0 0 0.4 0.4 0 0 0.4 0.8 0 0 0.39 0.4 0 0 0.4 0.81 0 0 0 0 0 0 0.4 0.8 0 0 0.4 0.4 0 0 0.39 0.39 0 0 0.4 0.4 0 0 0 0.8 0 0 0.4 0.4 0 0 0.4 0.4 0 0 0.39 0.39 0 0 0.4 0.81 0 0 0 0 0 0 0.4 0.8 0 0 0.4 0.4 0 0 0.39 0.4 0 0 0.4 0.39 0 0 0 0.81 0 0 0.4 0.39 0 0 0.4 0.4 0 0 0.39 0.39 0 0 0.4 0.81 0 0 0 0.4 0 0 0.4 0.39 0 0 0.4 0.4 0 0 0.39 0.8 0 0 0.4 0 0 0 0 0.81 0 0 0.4 0.4 0 0 0.4 0.39 0 0 0.39 0.4 0 0 0.4 0.8 0 0 0 0.4 0 0 0.4 0.39 0 0 0.4 0.4 0 0 0.39 0.81 0 0 0.4 0 0 0 0 0.8 0 0 0.4 0.4 0 0 0.39 0.39 0 0 0.4 0.4 0 0 0.4 0.81 0 0 0 0.39 0 0 0.4 0.4 0 0 0.39 0.39 0 0 0.4 0.4 0 0 0.4 -0.4 0 0 0.4 -0.39 0 0 0.39 0 0 0 0.81 -0.4 0 0 0 -0.39 0 0 0.4 -0.4 0 0 0.81 -0.39 0 0 0.4 -0.4 0 0 0.4 0 0 0 0.39 -0.4 0 0 0.4 -0.39 0 0 0.4 -0.4 0 0 0.4 -0.39 0 0 0.81 0 0 0 0.39 -0.4 0 0 0 -0.39 0 0 0.81 -0.4 0 0 0.4 -0.4 0 0 0.4 0 0 0 0.4 -0.39 0 0 0.39 -0.4 0 0 0.4 -0.39 0 0 0.4 -0.4 0 0 0.4 0 0 0 0.81 -0.39 0 0 0.39 -0.4 0 0 0 -0.4 0 0 0.81 -0.39 0 0 0.4 0 0 0 0 -0.4 0 0 0.81 -0.39 0 0 0.4 -0.4 0 0 0.4 -0.39 0 0 0.39 0 0 0 0.4 -0.4 0 0 0.4 -0.39 0 0 0.4 -0.4 0 0 0.39 -0.39 0 0 0.4 0 0 0 0.4 -0.4 0 0 0.4 -0.4 0 0 0.39 -0.39 0 0 0.4 -0.4 0 0 0.4 -0.39 0 0 0.4 0 0 0 0 -0.4 0 0 0.81 -0.39 0 0 0.39 -0.4 0 0 0.4 -0.39 0 0 0 0 0 0 0.4 -0.4 0 0 0.81 -0.4 0 0 0.4 -0.39 0 0 0 -0.4 0 0 0.39 0 0 0 0.4 -0.39 0 0 0.4 -0.4 0 0 0.4 -0.39 0 0 0 -0.4 0 0 0.81 0 0 0 0.39 -0.4 0 0 0.4 -0.39 0 0 0 -0.4 0 0 0.4 -0.39 0 0 0.4 0 0 0 0.39 -0.4 0 0 0.4 -0.39 0 0 0 -0.4 0 0 0.4 -0.4 0 0 0.39 -0.39 0 0 0.4 0 0 0 0.4 -0.4 0 0 0 -0.39 0 0 0.4 -0.4 0 0 0.39 -0.39 0 0 0.4 0 0 0 0.4 -0.4 0 0 0 -0.39 0 0 0.4 -0.81 0 0 0.39 0 0 0 0.4 -0.39 0 0 0.4 -0.4 0 0 0 -0.4 0 0 0.4 -0.39 0 0 0.4 -0.4 0 0 0.39 -0.39 0 0 0.4 -0.4 0 0 0 -0.39 0 0 0.4 -0.4 0 0 0.39 -0.4 0 0 0.4 -0.39 0 0 0.4 -0.4 0 0 0 -0.39 0 0 0.4 -0.4 0 0 0.39 -0.81 0 0 0.4 0 0 0 0.4 -0.8 0 0 0 -0.81 0 0 0.4 -0.39 0 0 0.39 -0.4 0 0 0.4 -0.39 0 0 0.4 -0.81 0 0 0 -0.4 0 0 0.4 -0.8 0 0 0.39 -0.4 0 0 0.4 -0.8 0 0 0.4 -0.81 0 0 0 -0.4 0 0 0.4 -0.8 0 0 0.39 -0.81 0 0 0.4 -0.81 0 0 0.4 -0.8 0 0 0 -0.81 0 0 0.39 -1.2 0 0 0.4 -0.81 0 0 0.4 -1.2 0 0 0.4 -0.81 0 0 0 -1.61 0 0 0.39 -0.39 0 0 0.4 -2.01 0 0 0.4 -1.2 0 0 0.4 -1.62 0 0 0 -1.61 0 0 0.39 -1.61 0 0 0.4 -2.82 0 0 0.4 -1.61 0 0 0.4 -2.81 0 0 0 -2.42 0 0 0.39 -3.62 0 0 0.4 -2.82 0 0 0.4 -2.42 0 0 0.4 -3.22 0 0 0 -3.62 0 0 0.39 -3.23 0 0 0.4 -2.42 0 0 0.4 -3.22 0 0 0.4 -2.82 0 0 0 -2.81 0 0 0.39 -3.23 0 0 0.4 -2.81 0 0 0.4 -1.62 0 0 0.4 -2.81 0 0 0 -1.2 0 0 0.39 -0.81 0 0 0.4 -1.2 0 0 0.4 -0.4 0 0 0.4 -1.2 0 0 0 -0.39 0 0 0.39 -0.81 0 0 0.4 -0.81 0 0 0.4 -0.39 0 0 0.4 -0.81 0 0 0 -0.39 0 0 0.39 -0.4 0 0 0.4 -0.81 0 0 0.4 -0.39 0 0 0.4 -0.4 0 0 0 -0.39 0 0 0.39 -0.4 0 0 0.4 -0.4 0 0 0.4 -0.39 0 0 0 -0.4 0 0 0.4 -0.8 0 0 0.39 -0.4 0 0 0.4 0 0 0 0.4 -0.39 0 0 0.4 -0.4 0 0 0 -0.39 0 0 0.39 -0.4 0 0 0.4 0 0 0 0.4 -0.4 0 0 0 -0.39 0 0 0.4 -0.4 0 0 0.39 -0.39 0 0 0.4 0 0 0 0.4 -0.4 0 0 0 -0.39 0 0 0.4 -0.4 0 -0.39 0.8c-0.4,0.4 -1.62,3.25 -1.62,3.64l1.21 -2.02 0 -0.39 0.39 0 0 -0.4 0 0 0 -0.4 0.4 0 0 0 0.39 0 0 -0.4 0.4 0 0 -0.39 0.39 0 0 -0.4 0 0 0 -0.4 0.81 0 0 0 0.39 0 0 -0.39 0.4 0 0 -0.4 0.4 0 0 -0.4 0.39 0 0 -0.4 0.4 0 0 0 0.39 0 0 -0.39 0.4 0 0 -0.4 0.8 0 0 -0.4 0.81 0 0 -0.4 0 0 0 0 0.81 0 0 -0.39 0.8 0 0 -0.4 0.4 0 0 -0.4 0.81 0 0 -0.4 0.39 0 0 0 0.81 0 0 -0.39 0.8 0 0 -0.4 0.81 0 0 -0.4 0.81 0 0 0 1.2 0 0 -0.4 1.2 0 0 -0.39 1.2 0 0 -0.4 1.61 0 0 -0.4 1.62 0 0 0 3.22 0 0 -0.4 2.82 0 0 -0.39 5.63 0 0 -0.4 5.23 0 0 -0.4 6.04 0 0 0 20.13 0 0 -0.4 6.44 0 0 -0.39 2.41 0 0 -0.4 2.82 0 0 -0.4 2.01 0 0 0 1.61 0 0 -0.4 1.2 0 0 -0.39 1.21 0 0 -0.4 1.61 0 0 -0.4 0.8 0 0 0 0.81 0 0 -0.4 1.2 0 0 -0.39 0.81 0 0 -0.4 0.8 0 0 -0.4 0.81 0 0 0 0.81 0 0 -0.39 0.39 0 0 -0.4 0.81 0 0 -0.4 0.81 0 0 -0.4 0.39 0 0 0 0.81 0 0 -0.39 0.39 0 0 -0.4 0.81 0 0 -0.4 0.81 0 0 -0.4 0.39 0 0 0 0.4 0 0 -0.39 0.8 0 0 -0.4 0.4 0 0 -0.4 0.4 0 0 -0.4 0.8 0 0 0 0.4 0 0 -0.39 0.39 0 0 -0.4 0.4 0 0 -0.4 0.8 0 0 -0.4 0 0 0 0 0.81 0 0 -0.39 0.4 0 0 -0.4 0.39 0 0 -0.4 0.4 0 0 -0.4 0.39 0 0 0 0.81 0 0 -0.39 0 0 0 -0.4 0.4 0 0 -0.4 0.8 0 0 -0.4 0.4 0 0 0 0.39 0 0 -0.39 0.4 0 0 -0.4 0.39 0 0 -0.4 0.4 0 0 -0.4 0.39 0 0 0 0.4 0 0 -0.39 0.4 0 0 -0.4 0.39 0 0 -0.4 0.4 0 0 -0.39 0.39 0 0 0 0.4 0 0 -0.4 0.39 0 0 -0.4 0.4 0 0 -0.4 0.4 0 0 -0.39 0.39 0 0 0 0.4 0 0 -0.4 0.39 0 0 -0.4 0 0 0 -0.4 0.81 0 0 -0.39 0.39 0 0 0 0.4 0 0 -0.4 0 0 0 -0.4 0.4 0 0 -0.4 0.39 0 0 -0.39 0.4 0 0 0 0.39 0 0 -0.4 0.4 0 0 -0.4 0.39 0 0 -0.4 0.4 0 0 -0.39 0.39 0 0 0 0.4 0 0 -0.4 0 0 0 -0.4 0.81 0 0 -0.4 0.39 0 0 -0.39 0.4 0 0 0 0.39 0 0 0 0.4 0 0 0.39 0.39 0 0 0.4 0.4 0 0 0.4 0.39 0 0 0.4 0.81 0 0 0 0.4 0 0 0.39 0 0 0 0.4 0.8 0 0 0.4 0.4 0 0 0.4 0.39 0 0 0 0.4 0 0 0.39 0.81 0 0 0.4 0.39 0 0 0.4 0.4 0 0 0.4 0.39 0 0 0 0.4 0 0 0.39 0.81 0 0 0.4 0 0 0 0.4 0.8 0 0 0.4 0.4 0 0 0 0.39 0 0 0.39 0.4 0 0 0.4 0.8 0 0 0.4 0.4 0 0 0.4 0 0 0 0 0.81 0 0 0.39 0.39 0 0 0.4 0.4 0 0 0.4 0.39 0 0 0.39 0.4 0 0 0 0.81 0 0 0.4 0 0 0 0.4 0.8 0 0 0.4 0.4 0 0 0.39 0.8 0 0 0 0 0 0 0.4 0.81 0 0 0.4 0.39 0 0 0.4 0.4 0 0 0.39 0.4 0 0 0 0.39 0 0 0.4 0.81 0 0 0.4 0 0 0 0.4 0.8 0 0 0.39 0.4 0 0 0 0.4 0 0 0.4 0.39 0 0 0.81 -0.39 0 0 0.4 0 0 0 0 -0.4 0 0 0.4 -0.4 0 0 0.39 -0.39 0 0 0.4 -0.4 0 0 0.4 0 0 0 0 -0.39 0 0 0.4 -0.4 0 0 0.39 -0.39 0 0 0.4 -0.4 0 0 0.4 0 0 0 0 -0.39 0 0 0.4 -0.4 0 0 0.39 -0.4 0 0 0.4 -0.39 0 0 0.4 0 0 0 0 -0.4 0 0 0.4 -0.39 0 0 0.39 0.39 0 0 0.4 0.4 0 0 0.4 0 0 0 0 0.81 0 0 0.4 0.39 0 0 0.39 0.4 0 0 0.4 0.39 0 0 0.4 0.81 0 0 0 0.39 0 0 0.4 0.4 0 0 0.39 0.4 0 0 0.4 0.39 0 0 0.4 0.4 0 0 0 0.39 0 0 0.39 0.81 0 0 0.4 0.39 0 0 0.4 0.4 0 0 0.4 0.4 0 0 0 0.8 0 0 0.39 0.4 0 0 0.4 0.39 0 0 0.4 0.4 0 0 0.4 0.39 0 0 0 0.4 0 0 0.39 0.39 0 0 -0.39 0.4 0 0 -2.83 0.4 0 0 -19.02 -0.4 0 0 -3.63 -0.4 0 0 -2.02 -0.39 0 0 -2.43 0 0 0 -2.43 -0.4 0 0 -1.62 -0.39 0 0 -2.43 -0.4 0 0 -0.81 -0.39 0 0 -1.62 0 0 0 -2.02 -0.4 0 0 -0.81 -0.39 0 0 -1.62 -0.4 0 0 -1.21 -0.4 0 0 -1.62 -0.39 0 0 -0.81 0 0 0 -1.21 -0.4 0 0 -1.21 -0.39 0 0 -0.81 -0.4 0 0 -1.2 -0.39 0 0 -0.81 0 0 0 -0.81 -0.4 0 0 -1.21 -0.39 0 0 -1.21 -0.4 0 0 -0.81 -0.39 0 0 -0.81 0 0 0 -0.81 -0.4 0 0 -0.81 -0.4 0 0 -0.81 -0.39 0 0 -0.81 -0.4 0 0 -0.81 0 0 0 -0.81 -0.39 0 0 -0.81 -0.4 0 0 -0.81 -0.39 0 0 -0.81 -0.4 0 0 -0.4 0 0 0 -0.81 -0.39 0 0 -0.81 -0.4 0 0 -0.81 -0.4 0 0 -0.4 -0.39 0 0 -0.81 -0.4 0 0 -0.81 0 0 0 -0.39 -0.39 0 0 -0.81 -0.4 0 0 -0.4 -0.39 0 0 -0.81 -0.4 0 0 -0.81 0 0 0 -0.4 -0.4 0 0 -0.4 -0.39 0 0 -0.81 -0.4 0 0 -0.39 -0.39 0 0 -0.81 0 0 0 -0.4 -0.4 0 0 -0.81 -0.39 0 0 -0.4 -0.4 0 0 -0.4 -0.4 0 0 -0.81 0 0 0 -0.39 -0.39 0 0 -0.4 -0.4 0 0 -0.81 -0.39 0 0 -0.4 -0.4 0 0 -0.4 0 0 0 -0.81 -0.39 0 0 -0.39 -0.4 0 0 -0.4 -0.39 0 0 -0.4 -0.4 0 0 -0.81 0 0 0 0 -0.4 0 0 -0.81 -0.39 0 0 -0.4 -0.4 0 0 -0.39 -0.39 0 0 -0.4 -0.4 0 0 -0.4 0 0 0 -0.81 -0.39 0 0 0 -0.4 0 0 -0.81 -0.39 0 0 -0.4 -0.4 0 0 -0.39 0 0 0 -0.4 -0.4 0 0 -0.4 -0.39 0 0 -0.81 -0.4 0 0 0 -0.39 0 0 -0.4 0 0 0 -0.81 -0.4 0 0 -0.39 -0.39 0 0 0 -0.4 0 0 -0.4 -0.39 0 0 -0.81 0 0 0 -0.4 -0.4 0 0 0 -0.4 0 0 -0.4 -0.39 0 0 -0.81 -0.4 0 0 -0.39 0 0 0 0 -0.39 0 0 -0.4 -0.4 0 0 -0.4 -0.39 0 0 -0.81 -0.4 0 0 0 0 0 0 -0.4 -0.39 0 0 -0.39 -0.4 0 0 -0.4 -0.4 0 0 -0.4 -0.39 0 0 0 0 0 0 -0.4 -0.4 0 0 -0.81 -0.39 0 0 -0.39 -0.4 0 0 0 -0.39 0 0 -0.4 -0.4 0 0 -0.4 0 0 0 -0.4 -0.39 0 0 -0.39 -0.4 0 0 0 -0.4 0 0 -0.4 -0.39 0 0 -0.4 0 0 0 -0.4 -0.4 0 0 -0.39 -0.39 0 0 0 -0.4 0 0 -0.4 -0.39 0 0 -0.4 0 0 0 -0.4 -0.4 0 0 -0.39 -0.39 0 0 0 -0.4 0 0 -0.4 -0.4 0 0 -0.4 0 0 0 -0.4 -0.39 0 0 0 -0.4 0 0 -0.39 -0.39 0 0 -0.4 -0.4 0 0 -0.4 0 0 0 -0.4 -0.39 0 0 -0.39 -0.4 0 0 0 -0.81 0 0 -0.4 -0.39 0 0 -0.4 0 0 0 -0.4 -0.4 0 0 0 -0.39 0 0 -0.39 -0.4 0 0 -0.4 -0.39 0 0 -0.4 -0.4 0 0 -0.4 -0.4 0 0 -0.39 -0.39 0 0 0 -0.4 0 0 -0.4 0 0 0 -0.4 -0.8 0 0 -0.4 -0.4 0 0 -0.39 -0.39 0 0 0 0 0 0 -0.4 -0.4 0 0 -0.4 -0.81 0 0 -0.39 -0.39 0 0 -0.4 0 0 0 0 -0.81 0 0 -0.4 -0.39 0 0 -0.4 -0.4 0 0 -0.39 0 0 0 -0.4 -0.81 0 0 0 -0.39 0 0 -0.4 -0.81 0 0 -0.4 0 0 0 -0.39 -0.39 0 0 0 -0.81 0 0 -0.4 -0.39 0 0 -0.4 -0.4 0 0 -0.4 -0.4 0 0 -0.39 -0.39 0 0 0 -0.4 0 0 -0.4 -0.39 0 0 -0.4 -0.81 0 0 -0.4 -0.4 0 0 -0.39 -0.39 0 0 -0.4 -0.4 0 0 0 -0.8 0 0 -0.4 0 0 0 -0.4 -0.81 0 0 -0.39 -0.8 0 0 0 -0.4 0 0 -0.4 -0.4 0 0 -0.4 -0.8 0 0 -0.4 -0.4 0 0 -0.39 -0.39 0 0 0 -0.81 0 0 -0.4 -0.39 0 0 -0.4 -0.4 0 0 -0.4 -0.81 0 0 -0.39 -0.39 0 0 0 -0.4 0 0 -0.4 -0.8 0 0 -0.4 -0.4 0 0 -0.4 -0.81 0 0 -0.39 -0.8 0 0 0 -0.4 0 0 -0.4 -0.81 0 0 -0.4 -0.39 0 0 -0.4 -0.81 0 0 -0.39 -0.8 0 0 0 -0.4 0 0 -0.4 -0.81 0 0 -0.4 -0.8 0 0 -0.39 -0.4 0 0 -0.4 -1.2 0 0 0 -0.39 0 0 -0.4 -0.81 0 0 -0.4 -0.4 0 0 -0.39 -1.2 0 0 -0.4 -0.39 0 0 0 -1.21 0 0 -0.4 -0.39 0 0 -0.4 -1.2 0 0 -0.39 -0.81 0 0 -0.4 -0.81 0 0 0 -0.8 0 0 -0.4 -1.2 0 0 -0.4 -0.4 0 0 -0.39 -0.81 0 0 -0.4 -1.2 0 0 0 -1.2 0 0 -0.4 -1.2 0 0 -0.4 -0.81 0 0 -0.39 -1.2 0 0 -0.4 -1.2 0 0 0 -0.81 0 0 -0.4 -1.61 0 0 -0.4 -1.2 0 0 -0.39 -1.21 0 0 -0.4 -1.2 0 0 0 -1.2 0 0 -0.4 -2.01 0 0 -0.4 -0.8 0 0 -0.39 -2.01 0 0 -0.4 -2.01 0 0 0 -2.01 0 0 -0.4 -2.42 0 0 -0.39 -2.81 0 0 -0.4 -3.23 0 0 -0.4 -3.62 0 0 0 -12.89 0 0 0 -4.84 0 0 0.4 -4.42 0 0 0.4 -2.42 0 0 0.39 -2.01 0 0 0.4 -2.42 0 0 0 -1.61 0 0 0.4 -2.01 0 0 0.39 -0.81 0 0 0.4 -1.61 0 0 0.4 -1.61 0 0 0 -1.61 0 0 0.4 -1.21 0 0 0.39 -1.2 0 0 0.4 -0.8 0 0 0.4 -1.62 0 0 0 -1.2 0 0 0.4 -0.81 0 0 0.39 -1.2 0 0 0.4 -1.2 0 0 0.4 -0.81 0 0 0 -0.8 0 0 0.4 -1.2 0 0 0.39 -1.21 0 0 0.4 -0.39 0 0 0.4 -1.2 0 0 0 -0.81 0 0 0.4 -0.81 0 0 0.39 -0.8 0 0 0.4 -0.81 0 0 0.4 -0.81 0 0 0 -0.8 0 0 0.4 -0.81 0 0 0.39 -0.8 0 0 0.4 -0.4 0 0 0.4 -0.81 0 0 0 -0.8 0 0 0.4 -0.81 0 0 0.39 -0.81 0 0 0.4 -0.39 0 0 0.4 -0.81 0 0 0 -0.39 0 0 0.39 -0.81 0 0 0.4 -0.81 0 0 0.4 -0.39 0 0 0.4 -0.81 0 0 0 -0.8 0 0 0.39 -0.4 0 0 0.4 -0.81 0 0 0.4 -0.39 0 0 0.4 -0.4 0 0 0 -0.8 0 0 0.39 -0.4 0 0 0.4 -0.39 0 0 0.4 -0.81 0 0 0.4 -0.4 0 0 0 -0.8 0 0 0.39 -0.4 0 0 0.4 -0.81 0 0 0.4 -0.39 0 0 0.4 -0.4 0 0 0 -0.39 0 0 0.39 -0.4 0 0 0.4 -0.8 0 0 0.4 -0.4 0 0 0 -0.39 0 0 0.4 -0.81 0 0 0.39 -0.4 0 0 0.4 -0.39 0 0 0.4 -0.4 0 0 0.4 -0.8 0 0 0 -0.4 0 0 0.39 0 0 0 0.4 -0.81 0 0 0.4 -0.39 0 0 0.4 -0.4 0 0 0 -0.39 0 0 0.39 -0.4 0 0 0.4 -0.81 0 0 0.4 0 0 0 0 -0.39 0 0 0.4 -0.81 0 0 0.39 -0.39 0 0 0.4 -0.4 0 0 0.4 0.4 0 0 0 0.39 0 0 0.4 0.4 0 0 0.39 0.39 0 0 0.4 0.4 0 0 0.4 0 0 0 0.39 0.39 0 0 0.4 0.4 0 0 0.81 0.4 0 0 0 0.39 0 0 0.4 0 0 0 0.4 0.4 0 0 0.81 0.39 0 0 0 0.4 0 0 0.81 0.39 0 0 0.4 0 0 0 0.39 0.4 0 0 0.4 0.39 0 0 0.4 0.4 0 0 0.81 0.4 0 0 0.39 0 0 0 0.4 0 0 0 0 0 0 0 0 0 0 0 0 0 0 0.35 0.9 0 0z"/>
  <polygon class="fil3" points="111.44,235.71 111.44,236.1 111.03,236.1 111.03,236.91 110.63,236.91 110.63,237.72 110.22,237.72 110.22,238.53 109.82,238.53 109.82,239.34 109.82,239.34 109.82,240.96 109.41,240.96 109.41,242.17 109.02,242.17 109.02,242.57 108.61,242.57 108.61,243.79 108.21,243.79 108.21,245 108.21,245 108.21,246.62 107.82,246.62 107.82,247.02 107.41,247.02 107.41,248.64 107.01,248.64 107.01,249.45 106.6,249.45 106.6,250.67 106.6,250.67 106.6,252.28 106.2,252.28 106.2,253.5 105.79,253.5 105.79,254.71 105.4,254.71 105.4,255.12 104.99,255.12 104.99,256.72 104.99,256.72 104.99,257.53 104.99,257.53 104.99,256.72 105.4,256.72 105.4,255.91 105.79,255.91 105.79,255.52 106.2,255.52 106.2,255.12 106.6,255.12 106.6,253.9 106.6,253.9 106.6,253.5 107.01,253.5 107.01,252.69 107.41,252.69 107.41,252.28 107.82,252.28 107.82,251.88 108.21,251.88 108.21,251.07 108.21,251.07 108.21,250.26 108.61,250.26 108.61,249.86 109.02,249.86 109.02,249.05 109.41,249.05 109.41,248.64 109.82,248.64 109.82,248.24 109.82,248.24 109.82,247.43 110.22,247.43 110.22,247.02 110.63,247.02 110.63,246.62 111.03,246.62 111.03,245.81 111.44,245.81 111.44,245.41 111.44,245.41 111.44,245 111.83,245 111.83,244.6 112.24,244.6 112.24,243.79 112.64,243.79 112.64,243.79 113.05,243.79 113.05,242.98 113.45,242.98 113.45,242.57 113.45,242.57 113.45,242.17 113.84,242.17 113.84,241.76 114.25,241.76 114.25,240.96 114.65,240.96 114.65,240.55 115.06,240.55 115.06,240.55 115.06,240.55 115.06,239.74 115.45,239.74 115.45,239.34 115.86,239.34 115.86,238.93 116.26,238.93 116.26,238.53 116.67,238.53 116.67,238.12 116.67,238.12 116.67,237.72 117.07,237.72 117.07,237.31 117.48,237.31 117.48,236.91 117.87,236.91 117.87,236.5 118.27,236.5 118.27,236.1 118.27,236.1 118.27,235.71 118.68,235.71 118.68,235.71 119.07,235.71 119.07,235.29 119.49,235.29 119.49,234.89 119.88,234.89 119.88,234.09 119.88,234.09 119.88,234.09 120.29,234.09 120.29,233.67 120.69,233.67 120.69,233.27 121.1,233.27 121.1,232.86 121.49,232.86 121.49,232.47 121.49,232.47 121.49,232.47 121.9,232.47 121.9,232.05 122.3,232.05 122.3,231.65 122.71,231.65 122.71,231.26 123.11,231.26 123.11,231.26 123.5,231.26 123.5,230.84 123.5,230.84 123.5,230.45 123.91,230.45 123.91,230.03 124.72,230.03 124.72,229.64 125.12,229.64 125.12,229.22 125.12,229.22 125.12,229.22 125.53,229.22 125.53,228.83 125.92,228.83 125.92,228.41 126.73,228.41 126.73,228.02 126.73,228.02 126.73,228.02 127.14,228.02 127.14,227.6 127.53,227.6 127.53,227.21 128.34,227.21 128.34,226.79 128.34,226.79 128.34,226.4 128.74,226.4 128.74,226.4 129.54,226.4 129.54,226 129.95,226 129.95,225.59 130.35,225.59 130.35,225.19 130.76,225.19 130.76,224.78 131.57,224.78 131.57,224.78 131.57,224.78 131.57,224.38 132.37,224.38 132.37,223.97 133.16,223.97 133.16,223.57 133.57,223.57 133.57,223.16 133.97,223.16 133.97,223.16 134.78,223.16 134.78,222.76 135.19,222.76 135.19,222.35 135.58,222.35 135.58,221.95 136.39,221.95 136.39,221.55 136.8,221.55 136.8,221.55 138,221.55 138,221.14 138.4,221.14 138.4,220.74 139.2,220.74 139.2,220.33 140.01,220.33 140.01,219.93 140.82,219.93 140.82,219.93 142.03,219.93 142.03,219.52 142.82,219.52 142.82,219.12 144.04,219.12 144.04,218.71 144.85,218.71 144.85,218.31 146.05,218.31 146.05,218.31 147.25,218.31 147.25,217.9 149.28,217.9 149.28,217.5 150.89,217.5 150.89,217.09 152.49,217.09 152.49,216.69 156.93,216.69 156.93,216.69 175.44,216.69 175.44,216.69 182.28,216.69 182.28,217.09 185.91,217.09 185.91,217.5 191.13,217.5 191.13,217.9 193.96,217.9 193.96,218.31 197.98,218.31 197.98,218.31 200.4,218.31 200.4,218.71 204.02,218.71 204.02,219.12 207.24,219.12 207.24,219.52 210.06,219.52 210.06,219.93 212.87,219.93 212.87,219.93 215.29,219.93 215.29,220.33 219.32,220.33 219.32,220.74 222.53,220.74 222.53,221.14 226.96,221.14 226.96,221.55 239.44,221.55 239.44,221.14 243.07,221.14 243.07,220.74 245.89,220.74 245.89,220.33 248.31,220.33 248.31,219.93 249.51,219.93 249.51,219.93 251.12,219.93 251.12,219.52 252.32,219.52 252.32,219.12 253.94,219.12 253.94,218.71 254.33,218.71 254.33,218.31 255.95,218.31 255.95,218.31 256.75,218.31 256.75,217.9 257.56,217.9 257.56,217.5 258.76,217.5 258.76,217.09 259.57,217.09 259.57,216.69 260.37,216.69 260.37,216.69 261.18,216.69 261.18,216.29 261.59,216.29 261.59,215.88 262.79,215.88 262.79,215.48 263.6,215.48 263.6,215.07 263.99,215.07 263.99,215.07 264.4,215.07 264.4,214.67 265.21,214.67 265.21,214.26 266.02,214.26 266.02,213.86 266.41,213.86 266.41,213.45 266.82,213.45 266.82,213.45 267.63,213.45 267.63,213.05 268.03,213.05 268.03,212.64 268.83,212.64 268.83,212.24 269.23,212.24 269.23,211.84 269.64,211.84 269.64,211.84 270.45,211.84 270.45,211.43 270.84,211.43 270.84,211.03 271.25,211.03 271.25,210.62 271.65,210.62 271.65,210.22 272.45,210.22 272.45,210.22 272.86,210.22 272.86,209.81 273.26,209.81 273.26,209.41 273.66,209.41 273.66,209 274.46,209 274.46,208.6 274.46,208.6 274.46,208.6 274.87,208.6 274.87,208.19 275.68,208.19 275.68,207.79 276.07,207.79 276.07,207.38 276.48,207.38 276.48,206.98 276.88,206.98 276.88,206.98 277.29,206.98 277.29,206.59 277.69,206.59 277.69,206.17 278.08,206.17 278.08,205.78 278.49,205.78 278.49,205.36 278.89,205.36 278.89,205.36 279.3,205.36 279.3,204.97 279.7,204.97 279.7,204.55 280.11,204.55 280.11,204.16 280.5,204.16 280.5,203.74 280.91,203.74 280.91,203.74 281.31,203.74 281.31,203.34 281.31,203.34 281.31,202.93 282.11,202.93 282.11,202.53 282.53,202.53 282.53,202.14 282.92,202.14 282.92,202.14 282.92,202.14 282.92,201.73 283.32,201.73 283.32,201.33 283.73,201.33 283.73,200.91 284.12,200.91 284.12,200.52 284.53,200.52 284.53,200.52 284.53,200.52 284.53,200.11 285.34,200.11 285.34,199.71 285.73,199.71 285.73,199.29 286.15,199.29 286.15,198.9 286.54,198.9 286.54,198.9 286.54,198.9 286.54,198.48 286.95,198.48 286.95,198.09 287.35,198.09 287.35,197.67 287.74,197.67 287.74,197.67 288.15,197.67 288.15,197.28 288.15,197.28 288.15,196.88 288.55,196.88 288.55,196.47 288.96,196.47 288.96,196.07 289.36,196.07 289.36,196.07 289.77,196.07 289.77,195.66 289.77,195.66 289.77,195.26 290.16,195.26 290.16,194.85 290.57,194.85 290.57,194.45 290.97,194.45 290.97,194.04 291.38,194.04 291.38,193.64 291.38,193.64 291.38,193.23 291.78,193.23 291.78,192.83 292.19,192.83 292.19,192.43 292.58,192.43 292.58,192.43 292.98,192.43 292.98,192.02 292.98,192.02 292.98,191.62 293.39,191.62 293.39,191.21 293.78,191.21 293.78,190.81 294.19,190.81 294.19,190.81 294.59,190.81 294.59,190.4 294.59,190.4 294.59,189.59 295,189.59 295,189.19 294.59,189.19 294.59,188.78 294.59,188.78 294.59,188.38 293.78,188.38 293.78,187.97 293.39,187.97 293.39,187.97 292.98,187.97 292.98,187.57 292.58,187.57 292.58,187.17 291.78,187.17 291.78,186.76 291.38,186.76 291.38,186.36 291.38,186.36 291.38,186.36 290.57,186.36 290.57,185.95 290.16,185.95 290.16,185.55 289.77,185.55 289.77,185.14 289.36,185.14 289.36,184.74 288.96,184.74 288.96,184.74 288.15,184.74 288.15,184.33 288.15,184.33 288.15,183.93 287.35,183.93 287.35,183.52 286.95,183.52 286.95,183.12 286.54,183.12 286.54,183.12 286.15,183.12 286.15,182.73 285.73,182.73 285.73,182.31 284.93,182.31 284.93,181.91 284.53,181.91 284.53,181.5 284.12,181.5 284.12,181.5 283.73,181.5 283.73,181.1 283.32,181.1 283.32,180.69 282.92,180.69 282.92,180.29 282.53,180.29 282.53,179.88 281.72,179.88 281.72,179.88 281.31,179.88 281.31,179.48 281.31,179.48 281.31,179.07 280.5,179.07 280.5,178.67 280.11,178.67 280.11,178.26 279.7,178.26 279.7,178.26 278.89,178.26 278.89,178.26 278.49,178.26 278.49,178.67 278.08,178.67 278.08,179.07 278.08,179.07 278.08,179.48 277.69,179.48 277.69,179.88 277.29,179.88 277.29,179.88 276.88,179.88 276.88,180.29 276.48,180.29 276.48,180.69 276.07,180.69 276.07,181.1 275.68,181.1 275.68,181.5 275.27,181.5 275.27,181.5 274.87,181.5 274.87,181.91 274.46,181.91 274.46,182.31 274.46,182.31 274.46,182.73 274.07,182.73 274.07,183.12 273.66,183.12 273.66,183.12 273.26,183.12 273.26,183.52 272.86,183.52 272.86,183.93 272.45,183.93 272.45,184.33 272.06,184.33 272.06,184.74 271.65,184.74 271.65,184.74 271.25,184.74 271.25,185.14 270.84,185.14 270.84,185.55 270.45,185.55 270.45,185.95 270.03,185.95 270.03,186.36 269.64,186.36 269.64,186.36 269.64,186.36 269.64,186.76 268.83,186.76 268.83,187.17 268.42,187.17 268.42,187.57 268.03,187.57 268.03,187.97 267.63,187.97 267.63,187.97 267.22,187.97 267.22,188.38 266.82,188.38 266.82,188.78 266.02,188.78 266.02,189.19 266.02,189.19 266.02,189.19 265.61,189.19 265.61,189.59 264.8,189.59 264.8,190 264.4,190 264.4,190.4 263.99,190.4 263.99,190.81 263.6,190.81 263.6,190.81 262.79,190.81 262.79,191.21 262.79,191.21 262.79,191.62 261.98,191.62 261.98,192.02 261.59,192.02 261.59,192.43 261.18,192.43 261.18,192.43 260.37,192.43 260.37,192.83 259.98,192.83 259.98,193.23 259.57,193.23 259.57,193.64 259.17,193.64 259.17,194.04 258.36,194.04 258.36,194.04 257.56,194.04 257.56,194.45 257.16,194.45 257.16,194.85 256.36,194.85 256.36,195.26 255.95,195.26 255.95,195.66 255.14,195.66 255.14,196.07 254.33,196.07 254.33,196.07 253.94,196.07 253.94,196.47 253.13,196.47 253.13,196.88 252.32,196.88 252.32,197.28 251.52,197.28 251.52,197.67 251.12,197.67 251.12,197.67 250.32,197.67 250.32,198.09 249.1,198.09 249.1,198.48 247.9,198.48 247.9,198.9 247.09,198.9 247.09,198.9 245.89,198.9 245.89,199.29 244.67,199.29 244.67,199.71 243.47,199.71 243.47,200.11 241.86,200.11 241.86,200.52 240.66,200.52 240.66,200.52 238.23,200.52 238.23,200.91 235.82,200.91 235.82,201.33 220.11,201.33 220.11,200.91 215.29,200.91 215.29,200.52 212.48,200.52 212.48,200.52 208.86,200.52 208.86,200.11 205.63,200.11 205.63,199.71 203.21,199.71 203.21,199.29 200,199.29 200,198.9 195.57,198.9 195.57,198.9 192.74,198.9 192.74,198.48 188.32,198.48 188.32,198.09 182.28,198.09 182.28,197.67 164.57,197.67 164.57,198.09 156.93,198.09 156.93,198.48 154.91,198.48 154.91,198.9 153.7,198.9 153.7,198.9 152.09,198.9 152.09,199.29 150.48,199.29 150.48,199.71 148.86,199.71 148.86,200.11 148.06,200.11 148.06,200.52 146.86,200.52 146.86,200.52 146.46,200.52 146.46,200.91 145.24,200.91 145.24,201.33 144.44,201.33 144.44,201.73 143.63,201.73 143.63,202.14 142.82,202.14 142.82,202.14 142.03,202.14 142.03,202.53 141.62,202.53 141.62,202.93 140.82,202.93 140.82,203.34 140.01,203.34 140.01,203.74 139.61,203.74 139.61,203.74 138.81,203.74 138.81,204.16 138.4,204.16 138.4,204.55 138,204.55 138,204.97 137.2,204.97 137.2,205.36 136.8,205.36 136.8,205.36 136.39,205.36 136.39,205.78 135.58,205.78 135.58,206.17 135.19,206.17 135.19,206.59 134.78,206.59 134.78,206.98 134.38,206.98 134.38,206.98 133.97,206.98 133.97,207.38 133.57,207.38 133.57,207.79 133.16,207.79 133.16,208.19 132.77,208.19 132.77,208.6 131.96,208.6 131.96,208.6 131.57,208.6 131.57,209 131.57,209 131.57,209.41 131.16,209.41 131.16,209.81 130.35,209.81 130.35,210.22 129.95,210.22 129.95,210.22 129.95,210.22 129.95,210.62 129.54,210.62 129.54,211.03 129.15,211.03 129.15,211.43 128.74,211.43 128.74,211.84 128.34,211.84 128.34,211.84 128.34,211.84 128.34,212.24 127.93,212.24 127.93,212.64 127.53,212.64 127.53,213.05 127.14,213.05 127.14,213.45 126.73,213.45 126.73,213.45 126.73,213.45 126.73,213.86 126.33,213.86 126.33,214.26 125.92,214.26 125.92,214.67 125.53,214.67 125.53,215.07 125.12,215.07 125.12,215.07 125.12,215.07 125.12,215.48 124.72,215.48 124.72,215.88 124.31,215.88 124.31,216.29 123.91,216.29 123.91,216.69 123.5,216.69 123.5,217.09 123.5,217.09 123.5,217.5 123.11,217.5 123.11,217.9 122.71,217.9 122.71,218.31 122.3,218.31 122.3,218.31 121.9,218.31 121.9,219.12 121.49,219.12 121.49,219.52 121.49,219.52 121.49,219.93 121.1,219.93 121.1,220.33 120.69,220.33 120.69,220.74 120.29,220.74 120.29,221.14 119.88,221.14 119.88,221.55 119.88,221.55 119.88,221.95 119.49,221.95 119.49,222.35 119.07,222.35 119.07,223.16 118.68,223.16 118.68,223.16 118.27,223.16 118.27,223.97 118.27,223.97 118.27,224.38 117.87,224.38 117.87,224.78 117.48,224.78 117.48,225.19 117.07,225.19 117.07,226 116.67,226 116.67,226.4 116.67,226.4 116.67,226.79 116.26,226.79 116.26,227.6 115.86,227.6 115.86,228.02 115.45,228.02 115.45,228.41 115.06,228.41 115.06,229.22 115.06,229.22 115.06,229.22 114.65,229.22 114.65,230.03 114.25,230.03 114.25,230.84 113.84,230.84 113.84,231.26 113.45,231.26 113.45,232.05 113.45,232.05 113.45,232.47 113.05,232.47 113.05,232.86 112.64,232.86 112.64,233.67 112.24,233.67 112.24,234.09 111.83,234.09 111.83,234.89 111.44,234.89 "/>
  <polygon class="fil4" points="135.58,189.31 135.58,189.72 135.19,189.72 135.19,190.15 135.19,190.15 135.19,190.15 134.78,190.15 134.78,190.57 134.38,190.57 134.38,191 133.97,191 133.97,191.41 133.57,191.41 133.57,191.84 133.57,191.84 133.57,191.84 133.16,191.84 133.16,192.26 132.77,192.26 132.77,192.67 132.37,192.67 132.37,193.1 131.96,193.1 131.96,193.52 131.57,193.52 131.57,193.95 131.57,193.95 131.57,194.36 131.16,194.36 131.16,194.79 130.76,194.79 130.76,195.21 130.35,195.21 130.35,195.64 129.95,195.64 129.95,196.05 129.95,196.05 129.95,196.49 129.54,196.49 129.54,196.9 129.15,196.9 129.15,197.31 128.74,197.31 128.74,197.74 128.34,197.74 128.34,198.59 128.34,198.59 128.34,198.59 127.93,198.59 127.93,199 127.53,199 127.53,199.85 127.14,199.85 127.14,200.28 126.73,200.28 126.73,200.69 126.73,200.69 126.73,201.13 126.33,201.13 126.33,201.97 125.92,201.97 125.92,202.39 125.53,202.39 125.53,202.8 125.12,202.8 125.12,203.65 125.12,203.65 125.12,204.08 124.72,204.08 124.72,204.49 124.31,204.49 124.31,205.34 123.91,205.34 123.91,205.77 123.5,205.77 123.5,206.18 123.5,206.18 123.5,207.03 123.11,207.03 123.11,207.44 122.71,207.44 122.71,208.29 122.3,208.29 122.3,208.72 121.9,208.72 121.9,209.56 121.49,209.56 121.49,209.98 121.49,209.98 121.49,210.82 121.1,210.82 121.1,211.25 120.69,211.25 120.69,212.1 120.29,212.1 120.29,212.52 119.88,212.52 119.88,213.36 119.88,213.36 119.88,214.21 119.49,214.21 119.49,215.05 119.07,215.05 119.07,215.47 118.68,215.47 118.68,216.31 118.27,216.31 118.27,217.16 118.27,217.16 118.27,218 117.87,218 117.87,218.85 117.48,218.85 117.48,219.26 117.07,219.26 117.07,220.54 116.67,220.54 116.67,220.95 116.67,220.95 116.67,222.23 116.26,222.23 116.26,222.65 115.86,222.65 115.86,223.9 115.45,223.9 115.45,224.34 115.06,224.34 115.06,225.18 115.06,225.18 115.06,226.44 114.65,226.44 114.65,227.29 114.25,227.29 114.25,228.13 113.84,228.13 113.84,228.98 113.45,228.98 113.45,230.24 113.45,230.24 113.45,230.67 113.05,230.67 113.05,231.93 112.64,231.93 112.64,232.77 112.24,232.77 112.24,234.03 111.83,234.03 111.83,234.88 111.44,234.88 111.44,235.73 111.44,235.73 111.44,237 111.44,237 111.44,236.16 111.83,236.16 111.83,235.31 112.24,235.31 112.24,234.88 112.64,234.88 112.64,234.03 113.05,234.03 113.05,233.62 113.45,233.62 113.45,233.19 113.45,233.19 113.45,232.36 113.84,232.36 113.84,231.93 114.25,231.93 114.25,231.08 114.65,231.08 114.65,230.24 115.06,230.24 115.06,230.24 115.06,230.24 115.06,229.39 115.45,229.39 115.45,228.98 115.86,228.98 115.86,228.55 116.26,228.55 116.26,227.7 116.67,227.7 116.67,227.29 116.67,227.29 116.67,226.87 117.07,226.87 117.07,226.03 117.48,226.03 117.48,225.6 117.87,225.6 117.87,225.18 118.27,225.18 118.27,224.75 118.27,224.75 118.27,223.9 118.68,223.9 118.68,223.9 119.07,223.9 119.07,223.06 119.49,223.06 119.49,222.65 119.88,222.65 119.88,222.23 119.88,222.23 119.88,221.8 120.29,221.8 120.29,221.39 120.69,221.39 120.69,220.95 121.1,220.95 121.1,220.54 121.49,220.54 121.49,220.11 121.49,220.11 121.49,219.69 121.9,219.69 121.9,218.85 122.3,218.85 122.3,218.85 122.71,218.85 122.71,218.42 123.11,218.42 123.11,218 123.5,218 123.5,217.57 123.5,217.57 123.5,217.16 123.91,217.16 123.91,216.74 124.31,216.74 124.31,216.31 124.72,216.31 124.72,215.9 125.12,215.9 125.12,215.47 125.12,215.47 125.12,215.47 125.53,215.47 125.53,215.05 125.92,215.05 125.92,214.62 126.33,214.62 126.33,214.21 126.73,214.21 126.73,213.78 126.73,213.78 126.73,213.78 127.14,213.78 127.14,213.36 127.53,213.36 127.53,212.93 127.93,212.93 127.93,212.52 128.34,212.52 128.34,212.1 128.34,212.1 128.34,212.1 128.74,212.1 128.74,211.67 129.15,211.67 129.15,211.25 129.54,211.25 129.54,210.82 129.95,210.82 129.95,210.41 129.95,210.41 129.95,210.41 130.35,210.41 130.35,209.98 131.16,209.98 131.16,209.56 131.57,209.56 131.57,209.13 131.57,209.13 131.57,208.72 131.96,208.72 131.96,208.72 132.77,208.72 132.77,208.29 133.16,208.29 133.16,207.87 133.57,207.87 133.57,207.44 133.97,207.44 133.97,207.03 134.38,207.03 134.38,207.03 134.78,207.03 134.78,206.61 135.19,206.61 135.19,206.18 135.58,206.18 135.58,205.77 136.39,205.77 136.39,205.34 136.8,205.34 136.8,205.34 137.2,205.34 137.2,204.92 138,204.92 138,204.49 138.4,204.49 138.4,204.08 138.81,204.08 138.81,203.65 139.61,203.65 139.61,203.65 140.01,203.65 140.01,203.23 140.82,203.23 140.82,202.8 141.62,202.8 141.62,202.39 142.03,202.39 142.03,201.97 142.82,201.97 142.82,201.97 143.63,201.97 143.63,201.54 144.44,201.54 144.44,201.13 145.24,201.13 145.24,200.69 146.46,200.69 146.46,200.28 146.86,200.28 146.86,200.28 148.06,200.28 148.06,199.85 148.86,199.85 148.86,199.44 150.48,199.44 150.48,199 152.09,199 152.09,198.59 153.7,198.59 153.7,198.59 154.91,198.59 154.91,198.16 156.93,198.16 156.93,197.74 164.57,197.74 164.57,197.31 182.28,197.31 182.28,197.74 188.32,197.74 188.32,198.16 192.74,198.16 192.74,198.59 195.57,198.59 195.57,198.59 200,198.59 200,199 203.21,199 203.21,199.44 205.63,199.44 205.63,199.85 208.86,199.85 208.86,200.28 212.48,200.28 212.48,200.28 215.29,200.28 215.29,200.69 220.11,200.69 220.11,201.13 235.82,201.13 235.82,200.69 238.23,200.69 238.23,200.28 240.66,200.28 240.66,200.28 241.86,200.28 241.86,199.85 243.47,199.85 243.47,199.44 244.67,199.44 244.67,199 245.89,199 245.89,198.59 247.09,198.59 247.09,198.59 247.9,198.59 247.9,198.16 249.1,198.16 249.1,197.74 250.32,197.74 250.32,197.31 251.12,197.31 251.12,197.31 251.52,197.31 251.52,196.9 252.32,196.9 252.32,196.49 253.13,196.49 253.13,196.05 253.94,196.05 253.94,195.64 254.33,195.64 254.33,195.64 255.14,195.64 255.14,195.21 255.95,195.21 255.95,194.79 256.36,194.79 256.36,194.36 257.16,194.36 257.16,193.95 257.56,193.95 257.56,193.52 258.36,193.52 258.36,193.52 259.17,193.52 259.17,193.1 259.57,193.1 259.57,192.67 259.98,192.67 259.98,192.26 260.37,192.26 260.37,191.84 261.18,191.84 261.18,191.84 261.59,191.84 261.59,191.41 261.98,191.41 261.98,191 262.79,191 262.79,190.57 262.79,190.57 262.79,190.15 263.6,190.15 263.6,190.15 263.99,190.15 263.99,189.72 264.4,189.72 264.4,189.31 264.8,189.31 264.8,188.88 265.61,188.88 265.61,188.46 266.02,188.46 266.02,188.46 266.02,188.46 266.02,188.03 266.82,188.03 266.82,187.61 267.22,187.61 267.22,187.18 267.63,187.18 267.63,187.18 268.03,187.18 268.03,186.77 268.42,186.77 268.42,186.35 268.83,186.35 268.83,185.92 269.64,185.92 269.64,185.51 269.64,185.51 269.64,185.51 270.03,185.51 270.03,185.08 270.45,185.08 270.45,184.66 270.84,184.66 270.84,184.23 271.25,184.23 271.25,183.82 271.65,183.82 271.65,183.82 272.06,183.82 272.06,183.39 272.45,183.39 272.45,182.97 272.86,182.97 272.86,182.54 273.26,182.54 273.26,182.13 273.66,182.13 273.66,182.13 274.07,182.13 274.07,181.71 274.46,181.71 274.46,181.28 274.46,181.28 274.46,180.87 274.87,180.87 274.87,180.44 275.27,180.44 275.27,180.44 275.68,180.44 275.68,180.02 276.07,180.02 276.07,179.59 276.48,179.59 276.48,179.18 276.88,179.18 276.88,178.75 277.29,178.75 277.29,178.75 277.69,178.75 277.69,178.33 278.08,178.33 278.08,177.9 278.08,177.9 278.08,177.49 278.49,177.49 278.49,177.06 278.89,177.06 278.89,177.06 279.3,177.06 279.3,176.64 279.7,176.64 279.7,176.23 279.7,176.23 279.7,175.79 280.11,175.79 280.11,175.38 280.5,175.38 280.5,175.38 280.91,175.38 280.91,174.95 281.31,174.95 281.31,174.54 281.31,174.54 281.31,174.1 281.72,174.1 281.72,173.69 282.11,173.69 282.11,173.69 282.53,173.69 282.53,173.26 282.92,173.26 282.92,172.84 282.92,172.84 282.92,172.41 283.32,172.41 283.32,172 283.73,172 283.73,172 284.12,172 284.12,171.57 284.53,171.57 284.53,171.15 284.53,171.15 284.53,170.74 284.93,170.74 284.93,170.31 285.34,170.31 285.34,170.31 285.73,170.31 285.73,169.89 286.15,169.89 286.15,169.05 286.54,169.05 286.54,168.62 286.54,168.62 286.54,168.62 286.95,168.62 286.95,168.2 287.35,168.2 287.35,167.77 287.74,167.77 287.74,167.36 288.15,167.36 288.15,166.93 288.15,166.93 288.15,166.93 288.15,166.93 288.15,166.51 287.35,166.51 287.35,166.1 286.95,166.1 286.95,165.67 286.54,165.67 286.54,165.25 286.15,165.25 286.15,165.25 285.34,165.25 285.34,164.82 284.93,164.82 284.93,164.41 284.53,164.41 284.53,163.97 284.12,163.97 284.12,163.56 283.73,163.56 283.73,163.56 282.92,163.56 282.92,163.13 282.92,163.13 282.92,162.71 282.11,162.71 282.11,162.28 281.72,162.28 281.72,161.87 281.31,161.87 281.31,161.87 280.91,161.87 280.91,161.45 280.5,161.45 280.5,160.61 280.11,160.61 280.11,161.02 279.7,161.02 279.7,160.61 279.3,160.61 279.3,160.18 278.89,160.18 278.89,160.18 278.49,160.18 278.49,159.76 278.08,159.76 278.08,159.33 277.69,159.33 277.69,158.92 276.88,158.92 276.88,158.49 276.48,158.49 276.48,158.49 276.07,158.49 276.07,158.07 275.68,158.07 275.68,157.64 274.87,157.64 274.87,157.23 274.46,157.23 274.46,156.8 274.07,156.8 274.07,156.8 273.66,156.8 273.66,156.38 273.26,156.38 273.26,155.97 272.86,155.97 272.86,155.54 272.45,155.54 272.45,155.54 271.65,155.54 271.65,155.12 271.25,155.12 271.25,154.69 270.84,154.69 270.84,154.28 270.45,154.28 270.45,153.85 269.64,153.85 269.64,153.43 269.64,153.43 269.64,153.43 269.23,153.43 269.23,153 268.42,153 268.42,153.43 268.03,153.43 268.03,153.43 267.63,153.43 267.63,153.85 267.63,153.85 267.63,154.28 267.22,154.28 267.22,154.69 266.82,154.69 266.82,155.12 266.41,155.12 266.41,155.54 266.02,155.54 266.02,155.54 266.02,155.54 266.02,155.97 265.61,155.97 265.61,156.38 264.8,156.38 264.8,156.8 264.4,156.8 264.4,156.8 264.4,156.8 264.4,157.23 263.99,157.23 263.99,157.64 263.6,157.64 263.6,158.07 263.2,158.07 263.2,158.49 262.79,158.49 262.79,158.49 262.79,158.49 262.79,158.92 262.4,158.92 262.4,159.33 261.98,159.33 261.98,159.76 261.59,159.76 261.59,160.18 261.18,160.18 261.18,160.18 260.78,160.18 260.78,160.61 260.37,160.61 260.37,161.02 259.98,161.02 259.98,161.45 259.57,161.45 259.57,161.87 259.57,161.87 259.57,161.87 258.76,161.87 258.76,162.28 258.36,162.28 258.36,162.71 257.97,162.71 257.97,163.13 257.56,163.13 257.56,163.56 257.56,163.56 257.56,163.56 256.75,163.56 256.75,163.97 256.36,163.97 256.36,164.41 255.95,164.41 255.95,164.82 255.95,164.82 255.95,165.25 255.14,165.25 255.14,165.25 254.74,165.25 254.74,165.67 254.33,165.67 254.33,166.1 253.94,166.1 253.94,166.51 253.54,166.51 253.54,166.93 253.13,166.93 253.13,166.93 252.73,166.93 252.73,167.36 252.32,167.36 252.32,167.77 251.93,167.77 251.93,168.2 251.12,168.2 251.12,168.62 251.12,168.62 251.12,168.62 250.32,168.62 250.32,169.05 249.91,169.05 249.91,169.46 249.51,169.46 249.51,169.89 249.1,169.89 249.1,170.31 248.7,170.31 248.7,170.31 247.9,170.31 247.9,170.74 247.5,170.74 247.5,171.15 247.09,171.15 247.09,171.57 246.28,171.57 246.28,172 245.89,172 245.89,172 245.48,172 245.48,172.41 244.67,172.41 244.67,172.84 244.28,172.84 244.28,173.26 243.47,173.26 243.47,173.69 243.07,173.69 243.07,173.69 242.66,173.69 242.66,174.1 241.86,174.1 241.86,174.54 241.05,174.54 241.05,174.95 240.24,174.95 240.24,175.38 239.44,175.38 239.44,175.38 239.04,175.38 239.04,175.79 237.84,175.79 237.84,176.23 237.43,176.23 237.43,176.64 236.23,176.64 236.23,177.06 235.82,177.06 235.82,177.06 234.22,177.06 234.22,177.49 233.81,177.49 233.81,177.9 232.61,177.9 232.61,178.33 230.99,178.33 230.99,178.75 229.78,178.75 229.78,178.75 228.98,178.75 228.98,179.18 226.57,179.18 226.57,179.59 224.15,179.59 224.15,180.02 221.33,180.02 221.33,180.44 204.43,180.44 204.43,180.02 198.78,180.02 198.78,179.59 193.96,179.59 193.96,179.18 187.92,179.18 187.92,178.75 182.28,178.75 182.28,178.75 160.95,178.75 160.95,178.75 155.32,178.75 155.32,179.18 153.7,179.18 153.7,179.59 152.09,179.59 152.09,180.02 150.89,180.02 150.89,180.44 150.08,180.44 150.08,180.44 148.86,180.44 148.86,180.87 148.06,180.87 148.06,181.28 146.86,181.28 146.86,181.71 146.46,181.71 146.46,182.13 145.66,182.13 145.66,182.13 145.24,182.13 145.24,182.54 144.44,182.54 144.44,182.97 143.63,182.97 143.63,183.39 143.24,183.39 143.24,183.82 142.82,183.82 142.82,183.82 142.03,183.82 142.03,184.23 142.03,184.23 142.03,184.66 141.23,184.66 141.23,185.08 140.82,185.08 140.82,185.51 140.01,185.51 140.01,185.51 140.01,185.51 140.01,185.92 139.61,185.92 139.61,186.35 138.81,186.35 138.81,186.77 138.4,186.77 138.4,187.18 138.4,187.18 138.4,187.18 138,187.18 138,187.61 137.2,187.61 137.2,188.03 136.8,188.03 136.8,188.46 136.8,188.46 136.8,188.46 136.39,188.46 136.39,188.88 135.99,188.88 135.99,189.31 "/>
  <polygon class="fil3" points="111.44,235.22 111.44,235.63 111.03,235.63 111.03,236.46 110.63,236.46 110.63,237.28 110.22,237.28 110.22,238.11 109.82,238.11 109.82,238.94 109.82,238.94 109.82,240.6 109.41,240.6 109.41,241.83 109.02,241.83 109.02,242.24 108.61,242.24 108.61,243.49 108.21,243.49 108.21,244.72 108.21,244.72 108.21,246.38 107.82,246.38 107.82,246.78 107.41,246.78 107.41,248.44 107.01,248.44 107.01,249.27 106.6,249.27 106.6,250.52 106.6,250.52 106.6,252.16 106.2,252.16 106.2,253.41 105.79,253.41 105.79,254.64 105.4,254.64 105.4,255.07 104.99,255.07 104.99,256.71 104.99,256.71 104.99,257.53 104.99,257.53 104.99,256.71 105.4,256.71 105.4,255.88 105.79,255.88 105.79,255.47 106.2,255.47 106.2,255.07 106.6,255.07 106.6,253.81 106.6,253.81 106.6,253.41 107.01,253.41 107.01,252.58 107.41,252.58 107.41,252.16 107.82,252.16 107.82,251.75 108.21,251.75 108.21,250.92 108.21,250.92 108.21,250.1 108.61,250.1 108.61,249.69 109.02,249.69 109.02,248.86 109.41,248.86 109.41,248.44 109.82,248.44 109.82,248.03 109.82,248.03 109.82,247.21 110.22,247.21 110.22,246.78 110.63,246.78 110.63,246.38 111.03,246.38 111.03,245.55 111.44,245.55 111.44,245.14 111.44,245.14 111.44,244.72 111.83,244.72 111.83,244.32 112.24,244.32 112.24,243.49 112.64,243.49 112.64,243.49 113.05,243.49 113.05,242.66 113.45,242.66 113.45,242.24 113.45,242.24 113.45,241.83 113.84,241.83 113.84,241.41 114.25,241.41 114.25,240.6 114.65,240.6 114.65,240.17 115.06,240.17 115.06,240.17 115.06,240.17 115.06,239.35 115.45,239.35 115.45,238.94 115.86,238.94 115.86,238.52 116.26,238.52 116.26,238.11 116.67,238.11 116.67,237.69 116.67,237.69 116.67,237.28 117.07,237.28 117.07,236.86 117.48,236.86 117.48,236.46 117.87,236.46 117.87,236.03 118.27,236.03 118.27,235.63 118.27,235.63 118.27,235.22 118.68,235.22 118.68,235.22 119.07,235.22 119.07,234.8 119.49,234.8 119.49,234.39 119.88,234.39 119.88,233.56 119.88,233.56 119.88,233.56 120.29,233.56 120.29,233.14 120.69,233.14 120.69,232.74 121.1,232.74 121.1,232.32 121.49,232.32 121.49,231.91 121.49,231.91 121.49,231.91 121.9,231.91 121.9,231.49 122.3,231.49 122.3,231.08 122.71,231.08 122.71,230.67 123.11,230.67 123.11,230.67 123.5,230.67 123.5,230.25 123.5,230.25 123.5,229.85 123.91,229.85 123.91,229.42 124.72,229.42 124.72,229.02 125.12,229.02 125.12,228.6 125.12,228.6 125.12,228.6 125.53,228.6 125.53,228.19 125.92,228.19 125.92,227.77 126.73,227.77 126.73,227.36 126.73,227.36 126.73,227.36 127.14,227.36 127.14,226.94 127.53,226.94 127.53,226.53 128.34,226.53 128.34,226.11 128.34,226.11 128.34,225.7 128.74,225.7 128.74,225.7 129.54,225.7 129.54,225.3 129.95,225.3 129.95,224.88 130.35,224.88 130.35,224.47 130.76,224.47 130.76,224.05 131.57,224.05 131.57,224.05 131.57,224.05 131.57,223.64 132.37,223.64 132.37,223.22 133.16,223.22 133.16,222.81 133.57,222.81 133.57,222.39 133.97,222.39 133.97,222.39 134.78,222.39 134.78,221.99 135.19,221.99 135.19,221.56 135.58,221.56 135.58,221.16 136.39,221.16 136.39,220.75 136.8,220.75 136.8,220.75 138,220.75 138,220.33 138.4,220.33 138.4,219.92 139.2,219.92 139.2,219.5 140.01,219.5 140.01,219.1 140.82,219.1 140.82,219.1 142.03,219.1 142.03,218.67 142.82,218.67 142.82,218.27 144.04,218.27 144.04,217.85 144.85,217.85 144.85,217.44 146.05,217.44 146.05,217.44 147.25,217.44 147.25,217.02 149.28,217.02 149.28,216.61 150.89,216.61 150.89,216.19 152.49,216.19 152.49,215.78 156.93,215.78 156.93,215.78 175.44,215.78 175.44,215.78 182.28,215.78 182.28,216.19 185.91,216.19 185.91,216.61 191.13,216.61 191.13,217.02 193.96,217.02 193.96,217.44 197.98,217.44 197.98,217.44 200.4,217.44 200.4,217.85 204.02,217.85 204.02,218.27 207.24,218.27 207.24,218.67 210.06,218.67 210.06,219.1 212.87,219.1 212.87,219.1 215.29,219.1 215.29,219.5 219.32,219.5 219.32,219.92 222.53,219.92 222.53,220.33 226.96,220.33 226.96,220.75 239.44,220.75 239.44,220.33 243.07,220.33 243.07,219.92 245.89,219.92 245.89,219.5 248.31,219.5 248.31,219.1 249.51,219.1 249.51,219.1 251.12,219.1 251.12,218.67 252.32,218.67 252.32,218.27 253.94,218.27 253.94,217.85 254.33,217.85 254.33,217.44 255.95,217.44 255.95,217.44 256.75,217.44 256.75,217.02 257.56,217.02 257.56,216.61 258.76,216.61 258.76,216.19 259.57,216.19 259.57,215.78 260.37,215.78 260.37,215.78 261.18,215.78 261.18,215.38 261.59,215.38 261.59,214.96 262.79,214.96 262.79,214.55 263.6,214.55 263.6,214.13 263.99,214.13 263.99,214.13 264.4,214.13 264.4,213.72 265.21,213.72 265.21,213.3 266.02,213.3 266.02,212.89 266.41,212.89 266.41,212.47 266.82,212.47 266.82,212.47 267.63,212.47 267.63,212.06 268.03,212.06 268.03,211.64 268.83,211.64 268.83,211.24 269.23,211.24 269.23,210.83 269.64,210.83 269.64,210.83 270.45,210.83 270.45,210.41 270.84,210.41 270.84,210 271.25,210 271.25,209.58 271.65,209.58 271.65,209.17 272.45,209.17 272.45,209.17 272.86,209.17 272.86,208.75 273.26,208.75 273.26,208.34 273.66,208.34 273.66,207.92 274.46,207.92 274.46,207.52 274.46,207.52 274.46,207.52 274.87,207.52 274.87,207.09 275.68,207.09 275.68,206.69 276.07,206.69 276.07,206.27 276.48,206.27 276.48,205.86 276.88,205.86 276.88,205.86 277.29,205.86 277.29,205.45 277.69,205.45 277.69,205.03 278.08,205.03 278.08,204.63 278.49,204.63 278.49,204.2 278.89,204.2 278.89,204.2 279.3,204.2 279.3,203.8 279.7,203.8 279.7,203.38 280.11,203.38 280.11,202.97 280.5,202.97 280.5,202.55 280.91,202.55 280.91,202.55 281.31,202.55 281.31,202.14 281.31,202.14 281.31,201.72 282.11,201.72 282.11,201.31 282.53,201.31 282.53,200.91 282.92,200.91 282.92,200.91 282.92,200.91 282.92,200.49 283.32,200.49 283.32,200.08 283.73,200.08 283.73,199.66 284.12,199.66 284.12,199.25 284.53,199.25 284.53,199.25 284.53,199.25 284.53,198.83 285.34,198.83 285.34,198.42 285.73,198.42 285.73,198 286.15,198 286.15,197.6 286.54,197.6 286.54,197.6 286.54,197.6 286.54,197.17 286.95,197.17 286.95,196.77 287.35,196.77 287.35,196.34 287.74,196.34 287.74,196.34 288.15,196.34 288.15,195.94 288.15,195.94 288.15,195.53 288.55,195.53 288.55,195.11 288.96,195.11 288.96,194.7 289.36,194.7 289.36,194.7 289.77,194.7 289.77,194.28 289.77,194.28 289.77,193.88 290.16,193.88 290.16,193.45 290.57,193.45 290.57,193.05 290.97,193.05 290.97,192.63 291.38,192.63 291.38,192.22 291.38,192.22 291.38,191.8 291.78,191.8 291.78,191.39 292.19,191.39 292.19,190.98 292.58,190.98 292.58,190.98 292.98,190.98 292.98,190.56 292.98,190.56 292.98,190.16 293.39,190.16 293.39,189.73 293.78,189.73 293.78,189.33 294.19,189.33 294.19,189.33 294.59,189.33 294.59,188.91 294.59,188.91 294.59,188.08 295,188.08 295,187.67 294.59,187.67 294.59,187.25 294.59,187.25 294.59,186.84 293.78,186.84 293.78,186.42 293.39,186.42 293.39,186.42 292.98,186.42 292.98,186.02 292.58,186.02 292.58,185.61 291.78,185.61 291.78,185.19 291.38,185.19 291.38,184.78 291.38,184.78 291.38,184.78 290.57,184.78 290.57,184.36 290.16,184.36 290.16,183.95 289.77,183.95 289.77,183.53 289.36,183.53 289.36,183.13 288.96,183.13 288.96,183.13 288.15,183.13 288.15,182.7 288.15,182.7 288.15,182.3 287.35,182.3 287.35,181.88 286.95,181.88 286.95,181.47 286.54,181.47 286.54,181.47 286.15,181.47 286.15,181.06 285.73,181.06 285.73,180.64 284.93,180.64 284.93,180.24 284.53,180.24 284.53,179.81 284.12,179.81 284.12,179.81 283.73,179.81 283.73,179.41 283.32,179.41 283.32,178.98 282.92,178.98 282.92,178.58 282.53,178.58 282.53,178.16 281.72,178.16 281.72,178.16 281.31,178.16 281.31,177.75 281.31,177.75 281.31,177.33 280.5,177.33 280.5,176.92 280.11,176.92 280.11,176.5 279.7,176.5 279.7,176.5 278.89,176.5 278.89,176.5 278.49,176.5 278.49,176.92 278.08,176.92 278.08,177.33 278.08,177.33 278.08,177.75 277.69,177.75 277.69,178.16 277.29,178.16 277.29,178.16 276.88,178.16 276.88,178.58 276.48,178.58 276.48,178.98 276.07,178.98 276.07,179.41 275.68,179.41 275.68,179.81 275.27,179.81 275.27,179.81 274.87,179.81 274.87,180.24 274.46,180.24 274.46,180.64 274.46,180.64 274.46,181.06 274.07,181.06 274.07,181.47 273.66,181.47 273.66,181.47 273.26,181.47 273.26,181.88 272.86,181.88 272.86,182.3 272.45,182.3 272.45,182.7 272.06,182.7 272.06,183.13 271.65,183.13 271.65,183.13 271.25,183.13 271.25,183.53 270.84,183.53 270.84,183.95 270.45,183.95 270.45,184.36 270.03,184.36 270.03,184.78 269.64,184.78 269.64,184.78 269.64,184.78 269.64,185.19 268.83,185.19 268.83,185.61 268.42,185.61 268.42,186.02 268.03,186.02 268.03,186.42 267.63,186.42 267.63,186.42 267.22,186.42 267.22,186.84 266.82,186.84 266.82,187.25 266.02,187.25 266.02,187.67 266.02,187.67 266.02,187.67 265.61,187.67 265.61,188.08 264.8,188.08 264.8,188.5 264.4,188.5 264.4,188.91 263.99,188.91 263.99,189.33 263.6,189.33 263.6,189.33 262.79,189.33 262.79,189.73 262.79,189.73 262.79,190.16 261.98,190.16 261.98,190.56 261.59,190.56 261.59,190.98 261.18,190.98 261.18,190.98 260.37,190.98 260.37,191.39 259.98,191.39 259.98,191.8 259.57,191.8 259.57,192.22 259.17,192.22 259.17,192.63 258.36,192.63 258.36,192.63 257.56,192.63 257.56,193.05 257.16,193.05 257.16,193.45 256.36,193.45 256.36,193.88 255.95,193.88 255.95,194.28 255.14,194.28 255.14,194.7 254.33,194.7 254.33,194.7 253.94,194.7 253.94,195.11 253.13,195.11 253.13,195.53 252.32,195.53 252.32,195.94 251.52,195.94 251.52,196.34 251.12,196.34 251.12,196.34 250.32,196.34 250.32,196.77 249.1,196.77 249.1,197.17 247.9,197.17 247.9,197.6 247.09,197.6 247.09,197.6 245.89,197.6 245.89,198 244.67,198 244.67,198.42 243.47,198.42 243.47,198.83 241.86,198.83 241.86,199.25 240.66,199.25 240.66,199.25 238.23,199.25 238.23,199.66 235.82,199.66 235.82,200.08 220.11,200.08 220.11,199.66 215.29,199.66 215.29,199.25 212.48,199.25 212.48,199.25 208.86,199.25 208.86,198.83 205.63,198.83 205.63,198.42 203.21,198.42 203.21,198 200,198 200,197.6 195.57,197.6 195.57,197.6 192.74,197.6 192.74,197.17 188.32,197.17 188.32,196.77 182.28,196.77 182.28,196.34 164.57,196.34 164.57,196.77 156.93,196.77 156.93,197.17 154.91,197.17 154.91,197.6 153.7,197.6 153.7,197.6 152.09,197.6 152.09,198 150.48,198 150.48,198.42 148.86,198.42 148.86,198.83 148.06,198.83 148.06,199.25 146.86,199.25 146.86,199.25 146.46,199.25 146.46,199.66 145.24,199.66 145.24,200.08 144.44,200.08 144.44,200.49 143.63,200.49 143.63,200.91 142.82,200.91 142.82,200.91 142.03,200.91 142.03,201.31 141.62,201.31 141.62,201.72 140.82,201.72 140.82,202.14 140.01,202.14 140.01,202.55 139.61,202.55 139.61,202.55 138.81,202.55 138.81,202.97 138.4,202.97 138.4,203.38 138,203.38 138,203.8 137.2,203.8 137.2,204.2 136.8,204.2 136.8,204.2 136.39,204.2 136.39,204.63 135.58,204.63 135.58,205.03 135.19,205.03 135.19,205.45 134.78,205.45 134.78,205.86 134.38,205.86 134.38,205.86 133.97,205.86 133.97,206.27 133.57,206.27 133.57,206.69 133.16,206.69 133.16,207.09 132.77,207.09 132.77,207.52 131.96,207.52 131.96,207.52 131.57,207.52 131.57,207.92 131.57,207.92 131.57,208.34 131.16,208.34 131.16,208.75 130.35,208.75 130.35,209.17 129.95,209.17 129.95,209.17 129.95,209.17 129.95,209.58 129.54,209.58 129.54,210 129.15,210 129.15,210.41 128.74,210.41 128.74,210.83 128.34,210.83 128.34,210.83 128.34,210.83 128.34,211.24 127.93,211.24 127.93,211.64 127.53,211.64 127.53,212.06 127.14,212.06 127.14,212.47 126.73,212.47 126.73,212.47 126.73,212.47 126.73,212.89 126.33,212.89 126.33,213.3 125.92,213.3 125.92,213.72 125.53,213.72 125.53,214.13 125.12,214.13 125.12,214.13 125.12,214.13 125.12,214.55 124.72,214.55 124.72,214.96 124.31,214.96 124.31,215.38 123.91,215.38 123.91,215.78 123.5,215.78 123.5,216.19 123.5,216.19 123.5,216.61 123.11,216.61 123.11,217.02 122.71,217.02 122.71,217.44 122.3,217.44 122.3,217.44 121.9,217.44 121.9,218.27 121.49,218.27 121.49,218.67 121.49,218.67 121.49,219.1 121.1,219.1 121.1,219.5 120.69,219.5 120.69,219.92 120.29,219.92 120.29,220.33 119.88,220.33 119.88,220.75 119.88,220.75 119.88,221.16 119.49,221.16 119.49,221.56 119.07,221.56 119.07,222.39 118.68,222.39 118.68,222.39 118.27,222.39 118.27,223.22 118.27,223.22 118.27,223.64 117.87,223.64 117.87,224.05 117.48,224.05 117.48,224.47 117.07,224.47 117.07,225.3 116.67,225.3 116.67,225.7 116.67,225.7 116.67,226.11 116.26,226.11 116.26,226.94 115.86,226.94 115.86,227.36 115.45,227.36 115.45,227.77 115.06,227.77 115.06,228.6 115.06,228.6 115.06,228.6 114.65,228.6 114.65,229.42 114.25,229.42 114.25,230.25 113.84,230.25 113.84,230.67 113.45,230.67 113.45,231.49 113.45,231.49 113.45,231.91 113.05,231.91 113.05,232.32 112.64,232.32 112.64,233.14 112.24,233.14 112.24,233.56 111.83,233.56 111.83,234.39 111.44,234.39 "/>
  <path class="fil5" d="M74.47 91.55c-3.62,0 -6.43,2.02 -8.04,5.66 -2.01,3.63 -2.82,9.7 -2.82,17.79 0,7.28 0.81,12.53 2.82,16.17 1.61,3.64 4.42,5.66 8.04,5.66 3.63,0 6.44,-2.02 8.46,-5.66 1.62,-3.64 2.82,-9.31 2.82,-16.98 0,-7.69 -1.2,-13.35 -2.82,-16.98 -2,-3.64 -4.42,-5.66 -8.46,-5.66l0 0 0 0 0 0 0 0 0 0 0 0 0 0zm-22.94 23.05c0,-8.08 2.01,-14.57 6.04,-19.41 4.43,-4.86 10.06,-7.69 16.9,-7.69 7.25,0 12.89,2.83 16.91,7.69 4.42,4.86 6.43,11.33 6.43,19.01 0,4.06 -0.39,7.28 -1.2,10.11 -1.2,2.83 -2.81,5.65 -4.84,8.08 -2.42,2.83 -4.84,4.87 -7.65,6.07 -2.81,1.21 -6.04,2.02 -9.66,2.02 -3.23,0 -6.44,-0.4 -9.27,-2.02 -2.81,-1.2 -5.23,-3.24 -7.65,-6.07 -2.01,-2.43 -3.62,-5.25 -4.84,-8.08 -0.8,-2.83 -1.2,-6.07 -1.2,-9.71l0 0 0 0 0 0 0 0 0 0 0 0 0.03 0zm74.06 -23.05c-3.62,0 -6.43,2.02 -8.04,5.66 -2.01,3.63 -2.82,9.7 -2.82,17.79 0,7.28 0.81,12.53 2.82,16.17 1.61,3.64 4.42,5.66 8.04,5.66 3.63,0 6.44,-2.02 8.46,-5.66 1.62,-3.64 2.42,-9.31 2.42,-16.98 0,-7.69 -0.8,-13.35 -2.42,-16.98 -2,-3.64 -4.83,-5.66 -8.46,-5.66l0 0 0 0 0 0 0 0 0 0 0 0 0 0 0 0zm-22.94 23.05c0,-8.08 2.01,-14.57 6.04,-19.41 4.43,-4.86 10.06,-7.69 16.9,-7.69 6.85,0 12.48,2.83 16.91,7.69 4.43,4.86 6.43,11.33 6.43,19.01 0,4.06 -0.39,7.28 -1.2,10.11 -1.2,2.83 -2.81,5.65 -4.84,8.08 -2.42,2.83 -4.83,4.87 -7.65,6.07 -3.22,1.21 -6.04,2.02 -9.66,2.02 -3.23,0 -6.44,-0.4 -9.27,-2.02 -2.81,-1.2 -5.23,-3.24 -7.65,-6.07 -2.01,-2.43 -3.62,-5.25 -4.84,-8.08 -0.8,-2.83 -1.2,-6.07 -1.2,-9.71l0 0 0 0 0 0 0 0 0 0 0.03 0 0 0zm99.84 21.04c1.2,0 2.01,0 2.42,-0.81 0.39,-0.4 0.81,-1.21 0.81,-2.83l0 -35.59c0,-1.62 -0.4,-2.83 -0.81,-3.24 -0.4,-0.4 -1.2,-0.4 -2.42,-0.4l-2.01 0 0 -3.64 21.33 0 0 3.64 -2.01 0c-1.2,0 -2.01,0 -2.42,0.4 -0.39,0.4 -0.8,1.62 -0.8,3.24l0 35.59c0,1.62 0.39,2.43 0.8,3.24 0.4,0.4 1.21,0.4 2.42,0.4l2.01 0 0 3.63 -69.24 0 0 -3.63 2.01 0c1.2,0 2.01,0 2.42,-0.81 0.39,-0.4 0.39,-1.21 0.39,-2.83l0 -35.59c0,-1.62 0,-2.83 -0.39,-3.24 -0.4,-0.4 -1.2,-0.4 -2.42,-0.4l-2.01 0 0 -3.64 21.33 0 0 3.64 -2.01 0c-1.2,0 -2,0 -2.42,0.4 -0.39,0.4 -0.8,1.62 -0.8,3.24l0 35.59c0,1.62 0.39,2.43 0.8,2.83 0.4,0.81 1.21,0.81 2.42,0.81l6.85 0c1.2,0 2.01,0 2.42,-0.81 0.39,-0.4 0.39,-1.21 0.39,-2.83l0 -35.59c0,-1.62 0,-2.83 -0.39,-3.24 -0.4,-0.4 -1.2,-0.4 -2.42,-0.4l-2.01 0 0 -3.64 20.94 0 0 3.64 -2.01 0c-1.2,0 -2.01,0 -2.42,0.4 -0.4,0.4 -0.4,1.62 -0.4,3.24l0 35.59c0,1.62 0,2.83 0.4,2.83 0.39,0.81 1.2,0.81 2.42,0.81l6.85 0 0 0 0 0 0 0 0 0 0 0 0 0 0 0 -0.02 0 0 0z"/>
 </g>
</svg>
